<?xml version="1.0" encoding="utf-8"?>
<svg xmlns="http://www.w3.org/2000/svg" viewBox="0 0 4245.6994 710.4994">
<g transform="translate(-473.332,-1019.185)">
	<path fill="#FF0000" d="M774.832,1048.134c-2.004,4.952-4.383,11.389-7.125,19.299c-2.754,7.922-4.875,14.602-6.375,20.041
		c-2.004,0.998-3.75,0.256-5.25-2.227c1.5-2.969,2.25-6.681,2.25-11.134c0-8.907-4.383-17.315-13.125-25.237
		c-8.754-7.91-22.629-11.876-41.625-11.876c-20.004,0-36.258,5.822-48.75,17.443c-12.504,11.633-18.75,27.093-18.75,46.392
		c0,14.846,3.492,28.705,10.5,41.567c6.996,12.873,14.742,24.75,23.25,35.629c6.492,8.42,11.871,15.472,16.125,21.154
		c4.242,5.694,7.617,10.891,10.125,15.588c2.496,4.709,4.242,9.162,5.25,13.36c0.996,4.21,1.5,9.278,1.5,15.217
		c0,10.392-2.379,20.54-7.125,30.433c-4.758,9.905-11.004,19.056-18.75,27.465c-7.758,8.42-16.254,15.958-25.5,22.639
		c-9.258,6.681-18.375,12.004-27.375,15.959c-22.5,9.893-47.507,14.846-75,14.846c-11.508,0-22.875-0.998-34.125-2.97
		c-11.25-1.983-21.632-5.195-31.125-9.649c-2.508-1.484-4.758-2.842-6.75-4.082c-2.004-1.229-3.258-2.599-3.75-4.083
		c1.992-8.408,4.371-17.931,7.125-28.577c2.742-10.636,5.121-19.415,7.125-26.351c0-0.985,0.75-1.484,2.25-1.484
		s2.25,1.241,2.25,3.711c-1.5,4.454-2.25,8.907-2.25,13.361c0,13.859,5.742,26.106,17.25,36.742
		c11.496,10.646,29.25,15.959,53.25,15.959c9,0,18.117-0.858,27.375-2.599c9.246-1.728,17.625-4.325,25.125-7.793
		c15.492-6.925,28.617-16.701,39.375-29.32c10.746-12.618,16.125-27.58,16.125-44.907c0-8.408-2.004-16.944-6-25.608
		c-4.008-8.651-11.754-20.157-23.25-34.516c-10.008-12.861-17.625-24.239-22.875-34.144c-5.25-9.894-7.875-21.271-7.875-34.145
		c0-12.862,2.871-25.725,8.625-38.599c5.742-12.862,12.867-24.239,21.375-34.145c3-3.456,7.125-7.538,12.375-12.247
		c5.25-4.697,11.496-9.023,18.75-12.989c7.242-3.955,15.75-7.423,25.5-10.393c9.75-2.969,20.625-4.453,32.625-4.453
		c7.992,0,15.75,1.113,23.25,3.34c7.5,2.228,14.25,6.564,20.25,12.99C773.578,1041.21,774.832,1044.678,774.832,1048.134z"/>
	<path fill="#FF0000" d="M927.83,1261.165c-8.508,10.392-18.633,21.154-30.375,32.289c-11.754,11.134-24.504,21.282-38.25,30.433
		c-13.757,9.162-28.007,16.585-42.75,22.269c-14.754,5.683-29.379,8.536-43.875,8.536c-23.507,0-35.25-10.393-35.25-31.176
		c0-13.848,3.621-28.821,10.875-44.907c7.242-16.075,16.617-30.92,28.125-44.536c11.496-13.604,24.117-24.982,37.875-34.145
		c13.746-9.15,26.871-13.731,39.375-13.731c6.996,0,11.871,1.24,14.625,3.711c2.742,2.481,4.125,5.694,4.125,9.649
		c0,5.938-1.875,12.375-5.625,19.299c-3.75,6.936-9.375,13.488-16.875,19.67c-7.5,6.193-17.004,11.39-28.5,15.588
		c-11.508,4.21-25.254,6.31-41.25,6.31c-2.508,4.453-5.25,11.505-8.25,21.154s-4.5,19.427-4.5,29.32
		c0,20.296,9.246,30.433,27.75,30.433c11.496,0,23.367-2.714,35.625-8.165c12.246-5.439,24.117-12.247,35.625-20.412
		c11.496-8.165,22.125-17.072,31.875-26.722s17.871-18.673,24.375-27.093c0.996-0.986,2.121-1.229,3.375-0.742
		C927.197,1258.694,927.83,1259.681,927.83,1261.165z M849.08,1203.268c0-6.425-3.258-9.649-9.75-9.649
		c-5.004,0-10.125,1.856-15.375,5.567s-10.383,8.536-15.375,14.475c-5.004,5.938-9.75,12.375-14.25,19.299
		c-4.5,6.936-8.25,13.616-11.25,20.041c0.996,0.499,2.742,0.87,5.25,1.113c2.496,0.255,4.5,0.371,6,0.371
		c14.496,0,27.246-5.068,38.25-15.216C843.572,1229.132,849.08,1217.128,849.08,1203.268z"/>
	<path fill="#FF0000" d="M1110.828,1232.959c-26.508,33.158-54.879,57.781-85.125,73.855
		c-30.257,16.087-61.875,27.835-94.875,35.258c-11.508,2.482-21.504,4.454-30,5.938c-8.508,1.484-17.004,2.969-25.5,4.453
		c-14.508,24.24-28.242,48.364-41.25,72.372c-12.996,23.996-25.992,47.876-39,71.629c-18.996,35.13-36.246,68.288-51.75,99.464
		c-15.492,31.175-32.25,62.096-50.25,92.783c-3.492,5.938-8.25,10.508-14.25,13.732c-6,3.213-12.996,6.054-21,8.536
		c-7.992,2.471-17.25,4.94-27.75,7.423c-10.5,2.47-21.996,5.938-34.5,10.392c-3,1.484-4.746,1.113-5.25-1.113
		c-0.492-2.228,0.75-3.839,3.75-4.825c13.007-4.952,24-9.777,33-14.474c9-4.709,17.133-10.276,24.375-16.701
		c7.254-6.438,14.133-14.104,20.625-23.011c6.504-8.907,14.004-20.041,22.5-33.402c8.508-13.859,18.878-31.059,31.125-51.588
		c12.258-20.539,25.875-43.179,40.875-67.917c15-24.75,30.75-51.101,47.25-79.052c16.5-27.963,33.258-56.041,50.25-84.248
		c-3-0.997-4.5-3.711-4.5-8.165c0-2.969,1.617-4.696,4.875-5.195c3.246-0.487,5.871-0.986,7.875-1.484l34.5-55.671
		c15.996-25.724,31.992-52.445,48-80.165c15.996-27.707,32.496-52.445,49.5-74.227c1.992-1.972,4.746-3.456,8.25-4.454
		c0.996-0.486,3-0.985,6-1.484c3-0.487,6-0.985,9-1.484c3-0.487,5.742-0.858,8.25-1.113c2.496-0.243,3.996-0.371,4.5-0.371
		c1.5,0,2.25,0.499,2.25,1.484c0,1.484-1.008,3.225-3,5.196c-10.5,9.405-19.758,18.44-27.75,27.093
		c-8.003,8.663-15.503,17.072-22.5,25.237c-7.008,8.165-13.629,16.457-19.875,24.865c-6.258,8.421-12.633,17.571-19.125,27.464
		c4.992-5.439,10.5-11.134,16.5-17.071c6-5.938,12-11.378,18-16.33c6-4.941,12-9.023,18-12.248c6-3.212,11.496-4.824,16.5-4.824
		c4.992,0,9.117,1.484,12.375,4.453c3.246,2.97,4.875,7.922,4.875,14.846c0,4.952-2.133,12.618-6.375,23.011
		c-4.254,10.392-11.508,22.024-21.75,34.887c-10.253,12.873-23.882,26.234-40.875,40.082c-17.004,13.859-38.25,26.722-63.75,38.598
		c13.5-1.484,28.617-3.827,45.375-7.051c16.746-3.213,34.125-8.652,52.125-16.33c18-7.666,36-18.059,54-31.176
		c18-13.105,34.992-30.062,51-50.846c0.492-0.985,1.371-1.356,2.625-1.113C1110.195,1229.132,1110.828,1230.488,1110.828,1232.959z
		 M1005.829,1213.66c0-1.972-0.375-4.454-1.125-7.423c-0.75-2.97-3.375-4.454-7.875-4.454c-2.508,0-6.129,1.369-10.875,4.083
		c-4.758,2.726-10.125,6.437-16.125,11.134c-6,4.709-12.258,10.52-18.75,17.443c-6.504,6.936-12.75,14.602-18.75,23.011
		c-8.508,11.876-16.758,24.622-24.75,38.227c-8.003,13.616-16.007,27.592-24,41.938c16.5-4.454,32.121-11.877,46.875-22.269
		c14.742-10.392,27.75-21.77,39-34.145c11.25-12.363,20.121-24.738,26.625-37.113
		C1002.571,1231.729,1005.829,1221.581,1005.829,1213.66z"/>
	<path fill="#FF0000" d="M1137.074,1316.835c0,2.482-1.008,5.822-3,10.021c-2.004,4.211-4.629,8.293-7.875,12.248
		c-3.258,3.967-6.879,7.307-10.875,10.021c-4.008,2.714-8.004,4.082-12,4.082c-3.504,0-6.633-0.997-9.375-2.969
		c-2.754-1.972-4.125-4.94-4.125-8.907c0-9.893,3.375-18.557,10.125-25.979s14.367-11.134,22.875-11.134c2.496,0,5.496,0.87,9,2.598
		C1135.316,1308.555,1137.074,1311.895,1137.074,1316.835z"/>
	<path fill="#FF0000" d="M1478.321,1350.237c-5.004-4.453-12.375-8.652-22.125-12.618c-9.75-3.955-21.375-7.667-34.875-11.135
		c-13.5-3.456-28.383-6.553-44.625-9.278c-16.254-2.714-33.632-4.824-52.125-6.309c-6.504,4.952-13.758,10.021-21.75,15.216
		c-8.004,5.196-16.383,9.905-25.125,14.104c-8.754,4.21-17.379,7.678-25.875,10.392c-8.507,2.714-16.5,4.083-24,4.083
		c-8.508,0-16.008-0.87-22.5-2.599c-6.504-1.739-9.75-6.054-9.75-12.989c0-6.426,2.742-12.734,8.25-18.928
		c5.496-6.182,12.867-11.749,22.125-16.701c9.246-4.941,19.992-8.907,32.25-11.877c12.246-2.969,25.371-4.453,39.375-4.453
		c9,0,17.496,0,25.5,0c7.992,0,14.742,0.255,20.25,0.742c15.996-12.862,33.375-27.464,52.125-43.794s36-33.031,51.75-50.104
		c15.75-17.072,28.875-34.144,39.375-51.216s15.75-32.776,15.75-47.135c0-15.831-3.879-28.078-11.625-36.742
		c-7.758-8.652-19.383-12.989-34.875-12.989c-12,0-22.757,1.611-32.25,4.824c-9.504,3.225-18.129,7.551-25.875,12.99
		c-7.758,5.451-14.883,11.505-21.375,18.186c-6.504,6.68-12.75,13.731-18.75,21.154c-1.5,1.983-3,2.354-4.5,1.113
		c-1.5-1.229-1.758-2.841-0.75-4.824c7.5-8.907,15.996-18.186,25.5-27.835c9.492-9.65,19.617-18.302,30.375-25.979
		c10.746-7.667,22.371-13.976,34.875-18.928c12.492-4.941,25.746-7.423,39.75-7.423c5.496,0,11.25,0.626,17.25,1.855
		c6,1.241,11.742,3.596,17.25,7.052c5.496,3.468,9.996,8.42,13.5,14.845c3.492,6.438,5.25,15.101,5.25,25.979
		c0,14.358-6.258,31.176-18.75,50.475c-12.504,19.299-28.125,39.097-46.875,59.382c-18.75,20.296-38.753,40.082-60,59.381
		c-21.258,19.3-40.629,35.885-58.125,49.732c24.996,1.983,49.242,4.21,72.75,6.681c23.496,2.481,41.496,5.694,54,9.649
		c6,1.484,9,5.451,9,11.876c-1.008,4.952-2.25,10.763-3.75,17.443s-3,12.004-4.5,15.959L1478.321,1350.237z M1314.072,1310.155
		c-3-0.487-7.758-0.858-14.25-1.114c-6.504-0.243-12.504-0.371-18-0.371c-24,0-42.375,1.241-55.125,3.712
		c-12.75,2.481-19.125,7.921-19.125,16.33c0,3.468,1.992,6.437,6,8.907c3.996,2.481,10.242,3.711,18.75,3.711
		c20.496,0,37.5-3.711,51-11.134S1307.064,1316.093,1314.072,1310.155z"/>
	<path fill="#FF0000" d="M1870.568,1086.731c0,16.33-2.883,34.399-8.625,54.186c-5.753,19.798-13.628,39.84-23.625,60.124
		c-10.008,20.297-21.879,39.839-35.625,58.64c-13.758,18.812-28.758,35.513-45,50.104c-16.254,14.602-33.504,26.35-51.75,35.257
		c-18.258,8.908-36.879,13.361-55.875,13.361c-7.008,0-14.754-0.742-23.25-2.227c-8.508-1.484-16.383-4.454-23.625-8.907
		c-7.254-4.454-13.383-10.879-18.375-19.299c-5.004-8.409-7.5-19.543-7.5-33.402c0-13.361,2.367-27.708,7.125-43.052
		c4.746-15.333,11.25-31.048,19.5-47.134c8.25-16.075,18.117-32.289,29.625-48.619c11.496-16.33,24-31.918,37.5-46.763
		c6.492-6.924,15.492-15.089,27-24.495c11.496-9.395,23.496-16.573,36-21.525c7.5-2.97,15.867-6.426,25.125-10.393
		c9.246-3.954,18.492-7.909,27.75-11.876c9.246-3.955,17.871-7.666,25.875-11.134c7.992-3.456,14.25-6.426,18.75-8.907
		c3.492,0.499,7.5,1.855,12,4.082c4.5,2.228,8.742,5.938,12.75,11.135c3.996,5.195,7.371,11.876,10.125,20.041
		C1869.186,1064.093,1870.568,1074.368,1870.568,1086.731z M1837.569,1104.546c0-15.332-2.379-29.064-7.125-41.195
		c-4.758-12.12-13.875-18.186-27.375-18.186c-3.504,0-9,0.869-16.5,2.598c-7.5,1.739-15.879,4.824-25.125,9.278
		c-9.258,4.453-19.125,10.392-29.625,17.814s-20.754,16.828-30.75,28.206c-17.004,18.812-31.008,37.241-42,55.299
		c-11.003,18.07-19.757,35.143-26.25,51.217c-6.504,16.087-10.875,30.688-13.125,43.794c-2.25,13.117-3.375,24.124-3.375,33.031
		c0,18.812,4.5,33.529,13.5,44.165c9,10.646,21,15.959,36,15.959c20.496,0,40.875-6.553,61.125-19.671
		c20.25-13.105,38.625-30.804,55.125-53.072c16.5-22.268,29.871-47.992,40.125-77.195
		C1832.436,1167.396,1837.569,1136.719,1837.569,1104.546z"/>
	<path fill="#FF0000" d="M2199.813,1086.731c0,16.33-2.883,34.399-8.625,54.186c-5.753,19.798-13.628,39.84-23.625,60.124
		c-10.008,20.297-21.879,39.839-35.625,58.64c-13.758,18.812-28.758,35.513-45,50.104c-16.254,14.602-33.504,26.35-51.75,35.257
		c-18.258,8.908-36.879,13.361-55.875,13.361c-7.008,0-14.754-0.742-23.25-2.227c-8.508-1.484-16.383-4.454-23.625-8.907
		c-7.254-4.454-13.383-10.879-18.375-19.299c-5.004-8.409-7.5-19.543-7.5-33.402c0-13.361,2.367-27.708,7.125-43.052
		c4.746-15.333,11.25-31.048,19.5-47.134c8.25-16.075,18.117-32.289,29.625-48.619c11.496-16.33,24-31.918,37.5-46.763
		c6.492-6.924,15.492-15.089,27-24.495c11.496-9.395,23.496-16.573,36-21.525c7.5-2.97,15.867-6.426,25.125-10.393
		c9.246-3.954,18.492-7.909,27.75-11.876c9.246-3.955,17.871-7.666,25.875-11.134c7.992-3.456,14.25-6.426,18.75-8.907
		c3.492,0.499,7.5,1.855,12,4.082c4.5,2.228,8.742,5.938,12.75,11.135c3.996,5.195,7.371,11.876,10.125,20.041
		C2198.43,1064.093,2199.813,1074.368,2199.813,1086.731z M2166.813,1104.546c0-15.332-2.379-29.064-7.125-41.195
		c-4.758-12.12-13.875-18.186-27.375-18.186c-3.504,0-9,0.869-16.5,2.598c-7.5,1.739-15.879,4.824-25.125,9.278
		c-9.258,4.453-19.125,10.392-29.625,17.814s-20.754,16.828-30.75,28.206c-17.004,18.812-31.008,37.241-42,55.299
		c-11.003,18.07-19.757,35.143-26.25,51.217c-6.504,16.087-10.875,30.688-13.125,43.794c-2.25,13.117-3.375,24.124-3.375,33.031
		c0,18.812,4.5,33.529,13.5,44.165c9,10.646,21,15.959,36,15.959c20.496,0,40.875-6.553,61.125-19.671
		c20.25-13.105,38.625-30.804,55.125-53.072c16.5-22.268,29.871-47.992,40.125-77.195
		C2161.681,1167.396,2166.813,1136.719,2166.813,1104.546z"/>
	<path fill="#FF0000" d="M2494.558,1277.495c-1.008,0.997-2.004,1.241-3,0.742c-1.008-0.487-1.5-1.229-1.5-2.227
		c3-3.955,4.5-7.91,4.5-11.877c0-3.456-2.25-5.938-6.75-7.422c-5.004-1.485-11.379-2.97-19.125-4.454
		c-7.758-1.484-16.008-2.842-24.75-4.082c-8.754-1.229-17.625-2.1-26.625-2.599c-9-0.487-17.25-0.742-24.75-0.742
		c-5.004,9.406-10.008,19.184-15,29.319c-5.004,10.148-9.504,20.042-13.5,29.691c-4.008,9.649-7.254,18.44-9.75,26.351
		c-2.508,7.921-3.75,14.103-3.75,18.557c0,1.484,0,2.969,0,4.453c0,1.972,0.492,3.712,1.5,5.196c0,1.972-1.5,2.969-4.5,2.969
		c-2.004-3.966-4.383-8.049-7.125-12.247c-2.754-4.198-5.625-8.281-8.625-12.247c-3.504-3.955-5.25-8.409-5.25-13.361
		c0-3.955,1.242-8.408,3.75-13.36c6.996-12.862,13.875-25.608,20.625-38.228c6.75-12.618,11.871-21.642,15.375-27.093
		c-6,0-14.625,0.255-25.875,0.742c-11.25,0.499-23.625,1.241-37.125,2.227c-13.5,0.998-27.75,2.482-42.75,4.454
		c-15,1.983-29.508,4.454-43.5,7.423c-1.5,0-2.25-0.986-2.25-2.969c1.5-6.925,2.25-12.619,2.25-17.072
		c0-3.457,2.496-5.684,7.5-6.681c2.496-0.487,5.121-1.229,7.875-2.227c2.742-0.986,7.617-3.457,14.625-7.423
		c38.496-22.269,70.746-42.31,96.75-60.124c25.992-17.814,47.742-36.116,65.25-54.928c5.496-5.938,9.492-12.491,12-19.671
		c2.496-7.167,3.75-14.219,3.75-21.154c0-8.408-1.757-16.573-5.25-24.495c0-1.484,1.242-3.212,3.75-5.195
		c2.496-1.972,5.367-3.955,8.625-5.938c3.246-1.972,6.375-3.584,9.375-4.824c3-1.229,4.992-1.856,6-1.856
		c2.496,0.998,4.617,3.341,6.375,7.052c1.746,3.712,2.625,8.293,2.625,13.732c0,10.392-3.375,21.154-10.125,32.288
		c-6.75,11.135-16.125,22.396-28.125,33.773c-7.5,7.423-17.379,15.843-29.625,25.237c-12.258,9.406-25.5,19.183-39.75,29.319
		c-14.25,10.148-29.133,20.413-44.625,30.805c-15.504,10.392-30.258,20.296-44.25,29.69c-2.004,0.998-2.883,1.983-2.625,2.969
		c0.246,0.998,1.617,1.485,4.125,1.485c22.5-0.986,43.992-1.601,64.5-1.856c20.496-0.243,37.242-0.371,50.25-0.371
		c21-35.13,39.375-63.951,55.125-86.474c15.75-22.512,31.125-40.199,46.125-53.072c12.996-11.378,28.746-22.512,47.25-33.402
		c3.996-0.986,5.496,0.499,4.5,4.453c-15,8.907-27.128,17.814-36.375,26.722c-9.258,8.907-18.879,21.039-28.875,36.371
		c-8.508,12.376-17.883,27.094-28.125,44.165c-10.254,17.072-21.878,37.485-34.875,61.237c7.992,0,17.25,0.128,27.75,0.371
		c10.5,0.256,20.742,0.627,30.75,1.114c9.996,0.498,19.125,1.113,27.375,1.855s13.875,1.368,16.875,1.855
		c3.492,0.499,5.25,3.225,5.25,8.165c0,4.453-1.5,10.392-4.5,17.814S2498.05,1273.54,2494.558,1277.495z"/>
	<path fill="#FF0000" d="M2769.805,1235.186c-6.504,8.42-13.5,16.33-21,23.753s-17.753,11.134-30.75,11.134
		c-8.508,0-16.254-1.484-23.25-4.453c-7.008-2.97-13.875-6.183-20.625-9.65c-6.75-3.456-13.758-6.68-21-9.649
		c-7.254-2.969-15.375-4.453-24.375-4.453c-9,0-16.254,3.224-21.75,9.649c-5.508,6.437-9.75,13.36-12.75,20.783l-15-14.845
		c4.5-8.409,10.746-16.33,18.75-23.753c7.992-7.423,18.996-11.134,33-11.134c7.992,0,15.996,1.484,24,4.453
		c7.992,2.969,15.867,6.065,23.625,9.278c7.746,3.225,15.117,6.31,22.125,9.278c6.996,2.97,12.996,4.454,18,4.454
		c8.496,0,15.375-3.085,20.625-9.278c5.25-6.182,10.371-12.99,15.375-20.413L2769.805,1235.186z"/>
	<path fill="#FF0000" d="M3162.053,1019.186c1.992,0.498,3,1.739,3,3.711c0,1.983-1.008,2.969-3,2.969
		c-3-0.486-5.754-0.742-8.25-0.742c-2.004,0-3.75,0-5.25,0c-4.008,0-7.254,0.371-9.75,1.113c-2.508,0.743-5.004,2.599-7.5,5.567
		c-10.5,13.361-21.75,31.06-33.75,53.072c-12,22.024-23.753,43.678-35.249,64.948c-11.508,20.784-23.004,40.953-34.5,60.495
		c-11.508,19.555-23.25,38.726-35.25,57.526c-8.004,12.873-17.625,26.605-28.875,41.195c-11.25,14.603-21.879,26.606-31.875,36
		c-11.004,10.393-22.758,20.656-35.25,30.805c-12.504,10.137-26.133,19.172-40.875,27.093c-14.754,7.91-30.632,14.347-47.625,19.299
		c-17.004,4.941-36,7.423-57,7.423c-22.5,0-41.742-3.225-57.75-9.649c-2.496-0.997-4.371-2.111-5.625-3.34
		c-1.242-1.241-1.617-3.596-1.125-7.052c0-3.468,0.129-8.293,0.375-14.475c0.258-6.193,0.633-12.746,1.125-19.67l5.25-1.484
		c2.004,12.862,8.379,23.868,19.125,33.031c10.758,9.15,28.125,13.731,52.125,13.731c21,0,40.371-3.596,58.125-10.763
		c17.742-7.18,36.375-20.412,55.875-39.712c17.496-17.327,35.121-38.714,52.875-64.206c17.742-25.48,36.117-54.058,55.125-85.732
		c8.496-14.347,17.496-29.807,27-46.392c9.492-16.573,18.75-33.274,27.75-50.104c9-16.816,17.496-33.03,25.5-48.618
		c7.992-15.588,14.742-29.319,20.249-41.196c0.492-0.985,0.75-2.47,0.75-4.453c0-1.972-1.5-2.969-4.499-2.969
		c-10.5,0-21.75,0.626-33.75,1.855c-12,1.24-24,3.097-36,5.566c-12,2.482-23.508,5.451-34.5,8.907
		c-11.004,3.468-20.754,7.423-29.25,11.877c-8.508,4.453-16.125,11.389-22.875,20.783c-6.75,9.406-10.125,19.798-10.125,31.176
		c0,3.966,0.492,7.422,1.5,10.392c0.996,1.484,0.492,2.227-1.5,2.227c-2.508-1.484-5.133-4.454-7.875-8.907
		c-2.754-4.454-4.125-11.378-4.125-20.783c0-7.91,3.996-16.945,12-27.093c7.992-10.137,22.5-18.673,43.5-25.608
		c7.5-2.471,16.242-4.697,26.25-6.681c9.996-1.972,22.746-3.827,38.25-5.567c15.492-1.728,34.371-3.085,56.625-4.082
		C3103.67,1019.684,3130.553,1019.186,3162.053,1019.186z"/>
	<path fill="#FF0000" d="M3291.053,1260.423c-8.508,11.876-18.504,24.379-30,37.484c-11.508,13.117-23.508,25.121-36,36
		c-12.504,10.891-25.254,19.914-38.25,27.093c-13.008,7.168-25.254,10.764-36.75,10.764c-8.508,0-15.129-2.228-19.875-6.681
		c-4.757-4.454-7.124-11.39-7.124-20.784c0-4.453,0.621-9.521,1.875-15.216c1.242-5.684,3.374-11.992,6.374-18.928
		c-3,3.468-6.374,7.55-10.124,12.247c-3.75,4.709-8.004,9.162-12.75,13.36c-4.758,4.211-10.008,7.679-15.75,10.393
		c-5.754,2.726-12.129,4.082-19.125,4.082c-5.508,0-10.008-1.601-13.5-4.824c-3.504-3.213-5.25-8.281-5.25-15.217
		c0-3.955,0.867-8.907,2.625-14.846c1.746-5.938,4.992-13.976,9.75-24.124c4.746-10.136,11.25-22.755,19.5-37.855
		c8.25-15.089,18.867-33.773,31.875-56.041c2.496-4.941,4.746-7.423,6.75-7.423c3.491,0,7.124,2.11,10.874,6.31
		c3.75,4.21,5.625,7.051,5.625,8.536c0,1.484-1.5,4.453-4.5,8.907c-8.004,11.876-15.503,23.752-22.499,35.629
		c-7.008,11.876-13.125,23.01-18.375,33.401c-5.25,10.393-9.504,19.671-12.75,27.836c-3.258,8.165-4.875,14.474-4.875,18.928
		c0,7.423,2.742,11.134,8.25,11.134c4.992,0,11.871-3.827,20.625-11.505c8.742-7.667,19.125-20.656,31.124-38.97
		c4.5-7.909,9.117-16.202,13.875-24.866c4.746-8.651,9.375-16.944,13.875-24.865c4.5-7.91,8.742-15.217,12.75-21.897
		c3.996-6.681,6.996-11.749,9-15.217c2.496-3.456,4.5-5.195,6-5.195c1.992,0,4.242,2.11,6.75,6.31
		c2.496,4.21,3.75,9.278,3.75,15.216c0,3.967-1.008,7.678-3,11.135c-6,8.907-12.375,17.698-19.125,26.351
		c-6.75,8.663-13.008,17.698-18.75,27.093c-5.754,9.405-10.629,19.299-14.625,29.69c-4.008,10.392-6,21.781-6,34.145
		c0,10.879,5.25,16.33,15.75,16.33c6.996,0,15.375-2.599,25.125-7.794c9.75-5.196,20.367-12.491,31.875-21.897
		c11.496-9.394,23.367-20.783,35.625-34.145c12.246-13.36,23.871-27.95,34.875-43.793
		C3289.553,1255.726,3291.053,1256.967,3291.053,1260.423z"/>
	<path fill="#FF0000" d="M3489.798,1253.742c-9,12.375-19.383,24.866-31.125,37.484c-11.754,12.619-24.258,23.881-37.5,33.773
		c-13.254,9.905-26.754,18.07-40.5,24.495c-13.758,6.425-27.129,9.649-40.125,9.649c-6,0-11.508-0.87-16.5-2.598
		c-5.003-1.74-7.499-6.066-7.499-12.99s2.496-15.703,7.499-26.351c4.992-10.635,10.875-21.896,17.625-33.772
		c6.75-11.877,13.746-23.997,21-36.372c7.242-12.363,13.125-23.752,17.625-34.144c0.996-2.471,1.125-4.57,0.375-6.31
		c-0.75-1.729-2.379-1.855-4.875-0.371c-5.508,3.468-12,8.165-19.5,14.103c-7.5,5.938-15.129,12.248-22.875,18.929
		c-7.758,6.68-15.257,13.488-22.499,20.412c-7.254,6.936-13.125,13.117-17.625,18.557c-8.004,12.375-14.883,23.753-20.625,34.145
		c-5.754,10.392-12.879,22.024-21.375,34.887c-2.004,2.969-3.504,4.453-4.5,4.453c-2.508,0-4.629-2.714-6.375-8.165
		c-1.758-5.439-2.625-8.907-2.625-10.392c0-4.453,3.117-10.508,9.375-18.186c6.246-7.666,13.125-16.202,20.625-25.608
		c7.992-15.831,16.242-32.532,24.75-50.103c8.496-17.56,15.75-33.275,21.75-47.135c1.5-2.47,3.75-3.711,6.749-3.711
		c3,0,5.742,1.241,8.25,3.711c2.496,2.482,3.75,5.196,3.75,8.165c0,1.983-3.633,8.791-10.875,20.412
		c-7.253,11.633-14.378,25.122-21.374,40.454c9.492-8.408,19.875-17.315,31.124-26.722c11.25-9.395,21.996-18.058,32.25-25.979
		c10.242-7.91,19.242-14.475,27-19.67c7.746-5.196,13.125-7.794,16.125-7.794c1.992,0,3.867,1.113,5.625,3.34
		c1.746,2.228,2.625,4.338,2.625,6.31c0,1.983-1.254,4.952-3.75,8.907c-5.508,7.922-12.258,18.069-20.25,30.433
		c-8.004,12.376-15.633,25.122-22.875,38.228c-7.254,13.117-13.383,25.608-18.375,37.484c-5.004,11.876-7.5,21.282-7.5,28.206
		c0,5.938,1.242,10.021,3.75,12.248c2.496,2.227,6.492,3.34,12,3.34c8.496,0,18.492-3.213,30-9.649
		c11.496-6.426,23.367-14.475,35.625-24.124c12.246-9.649,23.871-20.412,34.875-32.288c10.992-11.877,19.992-23.254,27-34.145
		c0.996-1.485,2.496-1.856,4.5-1.113C3492.54,1248.918,3492.294,1250.773,3489.798,1253.742z"/>
	<path fill="#FF0000" d="M3529.546,1316.835c0,2.482-1.008,5.822-3,10.021c-2.004,4.211-4.629,8.293-7.875,12.248
		c-3.257,3.967-6.878,7.307-10.874,10.021c-4.008,2.714-8.004,4.082-12,4.082c-3.504,0-6.633-0.997-9.375-2.969
		c-2.754-1.972-4.125-4.94-4.125-8.907c0-9.893,3.375-18.557,10.125-25.979s14.367-11.134,22.875-11.134
		c2.495,0,5.495,0.87,8.999,2.598C3527.788,1308.555,3529.546,1311.895,3529.546,1316.835z"/>
	<path fill="#FF0000" d="M3870.794,1350.237c-5.004-4.453-12.375-8.652-22.125-12.618c-9.75-3.955-21.375-7.667-34.875-11.135
		c-13.5-3.456-28.383-6.553-44.625-9.278c-16.254-2.714-33.633-4.824-52.125-6.309c-6.504,4.952-13.758,10.021-21.75,15.216
		c-8.003,5.196-16.382,9.905-25.124,14.104c-8.754,4.21-17.379,7.678-25.875,10.392c-8.508,2.714-16.5,4.083-24,4.083
		c-8.508,0-16.008-0.87-22.5-2.599c-6.504-1.739-9.75-6.054-9.75-12.989c0-6.426,2.742-12.734,8.25-18.928
		c5.496-6.182,12.867-11.749,22.125-16.701c9.246-4.941,19.992-8.907,32.25-11.877c12.246-2.969,25.371-4.453,39.374-4.453
		c9,0,17.496,0,25.5,0c7.992,0,14.742,0.255,20.25,0.742c15.996-12.862,33.375-27.464,52.125-43.794s36-33.031,51.75-50.104
		s28.875-34.144,39.375-51.216s15.749-32.776,15.749-47.135c0-15.831-3.879-28.078-11.624-36.742
		c-7.758-8.652-19.383-12.989-34.875-12.989c-12,0-22.758,1.611-32.25,4.824c-9.504,3.225-18.129,7.551-25.875,12.99
		c-7.758,5.451-14.883,11.505-21.375,18.186c-6.504,6.68-12.75,13.731-18.75,21.154c-1.5,1.983-3,2.354-4.5,1.113
		c-1.5-1.229-1.758-2.841-0.75-4.824c7.5-8.907,15.996-18.186,25.5-27.835c9.492-9.65,19.617-18.302,30.375-25.979
		c10.746-7.667,22.371-13.976,34.875-18.928c12.492-4.941,25.746-7.423,39.75-7.423c5.496,0,11.25,0.626,17.249,1.855
		c6,1.241,11.742,3.596,17.25,7.052c5.496,3.468,9.996,8.42,13.5,14.845c3.492,6.438,5.25,15.101,5.25,25.979
		c0,14.358-6.258,31.176-18.75,50.475c-12.504,19.299-28.124,39.097-46.874,59.382c-18.75,20.296-38.754,40.082-60,59.381
		c-21.258,19.3-40.629,35.885-58.125,49.732c24.996,1.983,49.242,4.21,72.75,6.681c23.496,2.481,41.496,5.694,54,9.649
		c6,1.484,9,5.451,9,11.876c-1.008,4.952-2.25,10.763-3.75,17.443s-3,12.004-4.5,15.959L3870.794,1350.237z M3706.544,1310.155
		c-3-0.487-7.758-0.858-14.25-1.114c-6.503-0.243-12.503-0.371-17.999-0.371c-24,0-42.375,1.241-55.125,3.712
		c-12.75,2.481-19.125,7.921-19.125,16.33c0,3.468,1.992,6.437,6,8.907c3.996,2.481,10.242,3.711,18.75,3.711
		c20.496,0,37.5-3.711,51-11.134C3689.294,1322.773,3699.536,1316.093,3706.544,1310.155z"/>
	<path fill="#FF0000" d="M4263.04,1086.731c0,16.33-2.883,34.399-8.625,54.186c-5.754,19.798-13.629,39.84-23.625,60.124
		c-10.008,20.297-21.879,39.839-35.624,58.64c-13.758,18.812-28.758,35.513-45,50.104c-16.254,14.602-33.504,26.35-51.75,35.257
		c-18.258,8.908-36.879,13.361-55.875,13.361c-7.008,0-14.754-0.742-23.25-2.227c-8.508-1.484-16.383-4.454-23.624-8.907
		c-7.254-4.454-13.383-10.879-18.375-19.299c-5.004-8.409-7.5-19.543-7.5-33.402c0-13.361,2.367-27.708,7.125-43.052
		c4.746-15.333,11.25-31.048,19.5-47.134c8.249-16.075,18.116-32.289,29.624-48.619c11.496-16.33,24-31.918,37.5-46.763
		c6.492-6.924,15.492-15.089,27-24.495c11.496-9.395,23.496-16.573,36-21.525c7.5-2.97,15.867-6.426,25.125-10.393
		c9.246-3.954,18.492-7.909,27.75-11.876c9.246-3.955,17.871-7.666,25.874-11.134c7.992-3.456,14.25-6.426,18.75-8.907
		c3.492,0.499,7.5,1.855,12,4.082c4.5,2.228,8.742,5.938,12.75,11.135c3.996,5.195,7.371,11.876,10.125,20.041
		C4261.657,1064.093,4263.04,1074.368,4263.04,1086.731z M4230.04,1104.546c0-15.332-2.379-29.064-7.125-41.195
		c-4.758-12.12-13.875-18.186-27.374-18.186c-3.504,0-9,0.869-16.5,2.598c-7.5,1.739-15.879,4.824-25.125,9.278
		c-9.258,4.453-19.125,10.392-29.625,17.814s-20.754,16.828-30.75,28.206c-17.004,18.812-31.008,37.241-42,55.299
		c-11.004,18.07-19.758,35.143-26.25,51.217c-6.504,16.087-10.875,30.688-13.125,43.794c-2.25,13.117-3.375,24.124-3.375,33.031
		c0,18.812,4.5,33.529,13.5,44.165c9,10.646,21,15.959,36,15.959c20.496,0,40.875-6.553,61.125-19.671
		c20.25-13.105,38.625-30.804,55.125-53.072c16.5-22.268,29.87-47.992,40.124-77.195
		C4224.907,1167.396,4230.04,1136.719,4230.04,1104.546z"/>
	<path fill="#FF0000" d="M4516.536,1023.639c-34.5,46.52-66.129,93.282-94.875,140.289c-28.758,47.019-54.129,91.555-76.125,133.608
		c-4.5,8.42-7.5,16.087-9,23.011c-1.5,6.936-2.25,13.36-2.25,19.299c0,9.406,2.742,17.56,8.25,24.495c2.496,1.484,3,3.34,1.5,5.566
		c-1.5,2.228-3,2.343-4.5,0.371c-8.508-10.891-15.749-19.925-21.749-27.093c-6-7.167-9-14.961-9-23.381
		c0-10.879,2.742-21.77,8.25-32.66c6.996-14.347,16.37-31.419,28.124-51.217c11.742-19.786,24.492-40.326,38.25-61.608
		c13.746-21.271,27.996-42.553,42.75-63.835c14.742-21.271,28.371-40.569,40.875-57.897c0.492-0.486,0.75-0.985,0.75-1.484v-0.742
		c0-0.487-0.258-0.985-0.75-1.484c-1.5,0-2.508,0.499-3,1.484c-9.504,5.451-20.25,11.877-32.25,19.299
		c-12,7.423-24.633,15.217-37.875,23.382c-13.254,8.165-26.754,16.457-40.5,24.866c-13.758,8.42-27.128,16.585-40.124,24.495
		c-1.008-1.485-1.758-3.213-2.25-5.196c-0.504-1.972-0.75-4.453-0.75-7.423c11.496-5.938,24.749-12.989,39.749-21.154
		s30.375-16.945,46.125-26.351c15.75-9.395,31.242-18.801,46.5-28.206c15.246-9.395,28.617-18.059,40.125-25.979
		c4.992-0.986,10.371-1.972,16.125-2.97c5.742-0.985,11.121-2.227,16.125-3.711L4516.536,1023.639z"/>
	<path fill="#FF0000" d="M4719.031,1023.639c-34.5,46.52-66.129,93.282-94.875,140.289c-28.758,47.019-54.129,91.555-76.125,133.608
		c-4.5,8.42-7.5,16.087-9,23.011c-1.5,6.936-2.25,13.36-2.25,19.299c0,9.406,2.742,17.56,8.25,24.495c2.496,1.484,3,3.34,1.5,5.566
		c-1.5,2.228-3,2.343-4.5,0.371c-8.508-10.891-15.749-19.925-21.749-27.093c-6-7.167-9-14.961-9-23.381
		c0-10.879,2.742-21.77,8.25-32.66c6.996-14.347,16.37-31.419,28.124-51.217c11.742-19.786,24.492-40.326,38.25-61.608
		c13.746-21.271,27.996-42.553,42.75-63.835c14.742-21.271,28.371-40.569,40.875-57.897c0.492-0.486,0.75-0.985,0.75-1.484v-0.742
		c0-0.487-0.258-0.985-0.75-1.484c-1.5,0-2.508,0.499-3,1.484c-9.504,5.451-20.25,11.877-32.25,19.299
		c-12,7.423-24.633,15.217-37.875,23.382c-13.254,8.165-26.754,16.457-40.5,24.866c-13.758,8.42-27.128,16.585-40.124,24.495
		c-1.008-1.485-1.758-3.213-2.25-5.196c-0.504-1.972-0.75-4.453-0.75-7.423c11.496-5.938,24.749-12.989,39.749-21.154
		s30.375-16.945,46.125-26.351c15.75-9.395,31.242-18.801,46.5-28.206c15.246-9.395,28.617-18.059,40.125-25.979
		c4.992-0.986,10.371-1.972,16.125-2.97c5.742-0.985,11.121-2.227,16.125-3.711L4719.031,1023.639z"/>
</g>
</svg>