<?xml version="1.0" encoding="utf-8"?>
<svg xmlns="http://www.w3.org/2000/svg" viewBox="0 0 4243.4733 728.40004">
<g transform="translate(-570.75,-338.528)">
	<path fill="#FF0000" d="M570.75,681.278c6.492-6.996,12.492-14.625,18-22.875c5.496-8.25,9.75-15.117,12.75-20.625
		c3-4.992,8.367-14.121,16.125-27.375c7.746-13.242,16.746-28.746,27-46.5c10.242-17.742,21-36.75,32.25-57
		S699,467.282,709.5,448.778c10.5-18.492,19.746-35.367,27.75-50.625c7.992-15.246,13.746-26.625,17.25-34.125
		c0-1.5-0.75-2.496-2.25-3c-1.5-0.492-2.754-0.75-3.75-0.75c-16.008,0-31.758,1.5-47.25,4.5c-15.504,3-31.254,4.758-47.25,5.25
		c-9,0-13.5-3.996-13.5-12c0-0.996,0.246-3,0.75-6c0.492-3,1.5-4.5,3-4.5c0.996,0,4.875,1.5,11.625,4.5s13.617,4.5,20.625,4.5
		c9,0,20.742-0.375,35.25-1.125c14.496-0.75,27-1.617,37.5-2.625c12.492-0.492,24.75-0.996,36.75-1.5
		c12-0.492,24.246-0.75,36.75-0.75c19.5,0,38.871,1.254,58.125,3.75c19.242,2.508,36.492,7.5,51.75,15
		c15.246,7.5,27.75,18.129,37.5,31.875c9.75,13.758,14.625,31.875,14.625,54.375c0,21-3.879,42.129-11.625,63.375
		c-7.758,21.258-18.129,41.25-31.125,60c-13.008,18.75-28.125,35.625-45.375,50.625s-35.379,26.754-54.375,35.25
		c-19.008,8.508-38.625,14.625-58.875,18.375s-40.875,5.625-61.875,5.625c-17.004,0-33.258-1.125-48.75-3.375
		c-15.504-2.25-30.75-7.371-45.75-15.375c-5.004-2.496-9.258-3.75-12.75-3.75c-4.008,0-9.75,1.758-17.25,5.25
		c-7.5,3.504-14.754,8.004-21.75,13.5L570.75,681.278z M945.75,451.028c0-10.992-1.875-21.996-5.625-33
		c-3.75-10.992-10.5-21-20.25-30S897,371.786,880.5,366.278c-16.5-5.496-37.758-8.25-63.75-8.25c-5.508,0-10.125,0.258-13.875,0.75
		c-3.75,0.504-7.125,3.258-10.125,8.25c-12.504,19.5-25.758,41.004-39.75,64.5c-14.004,23.508-27.879,47.508-41.625,72
		c-13.758,24.504-26.883,48.375-39.375,71.625c-12.504,23.25-23.25,44.133-32.25,62.625c-2.004,4.008-3,7.008-3,9c0,3,1.5,6,4.5,9
		c8.496,9,20.121,15.75,34.875,20.25c14.742,4.5,29.871,6.75,45.375,6.75c30.492,0,59.25-6,86.25-18s50.742-28.371,71.25-49.125
		c20.496-20.742,36.75-45.246,48.75-73.5C939.75,513.911,945.75,483.536,945.75,451.028z"/>
	<path fill="#FF0000" d="M1170,593.528c-8.508,10.5-18.633,21.375-30.375,32.625c-11.754,11.25-24.504,21.504-38.25,30.75
		c-13.758,9.258-28.008,16.758-42.75,22.5c-14.754,5.742-29.379,8.625-43.875,8.625c-23.508,0-35.25-10.5-35.25-31.5
		c0-13.992,3.621-29.121,10.875-45.375c7.242-16.242,16.617-31.242,28.125-45c11.496-13.746,24.117-25.242,37.875-34.5
		c13.746-9.246,26.871-13.875,39.375-13.875c6.996,0,11.871,1.254,14.625,3.75c2.742,2.508,4.125,5.754,4.125,9.75
		c0,6-1.875,12.504-5.625,19.5c-3.75,7.008-9.375,13.629-16.875,19.875c-7.5,6.258-17.004,11.508-28.5,15.75
		c-11.508,4.254-25.254,6.375-41.25,6.375c-2.508,4.5-5.25,11.625-8.25,21.375s-4.5,19.629-4.5,29.625
		c0,20.508,9.246,30.75,27.75,30.75c11.496,0,23.367-2.742,35.625-8.25c12.246-5.496,24.117-12.375,35.625-20.625
		c11.496-8.25,22.125-17.25,31.875-27s17.871-18.867,24.375-27.375c0.996-0.996,2.121-1.242,3.375-0.75
		C1169.368,591.032,1170,592.028,1170,593.528z M1091.25,535.028c0-6.492-3.258-9.75-9.75-9.75c-5.004,0-10.125,1.875-15.375,5.625
		s-10.383,8.625-15.375,14.625c-5.004,6-9.75,12.504-14.25,19.5c-4.5,7.008-8.25,13.758-11.25,20.25
		c0.996,0.504,2.742,0.879,5.25,1.125c2.496,0.258,4.5,0.375,6,0.375c14.496,0,27.246-5.121,38.25-15.375
		C1085.743,561.161,1091.25,549.032,1091.25,535.028z"/>
	<path fill="#FF0000" d="M1330.5,582.278c-7.5,9.504-16.008,19.125-25.5,28.875c-9.504,9.75-19.254,19.008-29.25,27.75
		c-10.008,8.754-20.25,16.629-30.75,23.625c-10.5,7.008-20.508,12.504-30,16.5c-7.5,3-14.379,5.121-20.625,6.375
		c-6.258,1.242-12.129,1.875-17.625,1.875c-27.504,0-41.25-11.496-41.25-34.5c0-9,1.992-18.492,6-28.5
		c9.492-23.496,22.875-44.367,40.125-62.625c17.25-18.246,35.871-31.617,55.875-40.125c6-2.496,10.992-3.75,15-3.75
		c18.492,0,27.75,7.254,27.75,21.75c0,7.5-1.758,13.254-5.25,17.25c-3,3-8.004,7.254-15,12.75l-2.25-0.75
		c1.5-3.996,2.25-8.25,2.25-12.75c0-4.992-1.875-9.75-5.625-14.25s-9.633-6.75-17.625-6.75c-9.504,0-18.633,3.129-27.375,9.375
		c-8.754,6.258-16.5,14.508-23.25,24.75c-6.75,10.254-12.129,22.008-16.125,35.25c-4.008,13.254-6,26.883-6,40.875
		c0,10.5,2.871,18.375,8.625,23.625c5.742,5.25,12.867,7.875,21.375,7.875c13.992,0,32.871-8.121,56.625-24.375
		c23.742-16.242,49.125-40.875,76.125-73.875c2.496-2.496,4.371-3.117,5.625-1.875
		C1333.617,577.907,1332.996,579.782,1330.5,582.278z"/>
	<path fill="#FF0000" d="M1374.746,649.778c0,2.508-1.008,5.883-3,10.125c-2.004,4.254-4.629,8.379-7.875,12.375
		c-3.258,4.008-6.879,7.383-10.875,10.125c-4.008,2.742-8.004,4.125-12,4.125c-3.504,0-6.633-1.008-9.375-3
		c-2.754-1.992-4.125-4.992-4.125-9c0-9.996,3.375-18.75,10.125-26.25s14.367-11.25,22.875-11.25c2.496,0,5.496,0.879,9,2.625
		C1372.988,641.411,1374.746,644.786,1374.746,649.778z"/>
	<path fill="#FF0000" d="M1715.995,683.528c-5.004-4.5-12.375-8.742-22.125-12.75c-9.75-3.996-21.375-7.746-34.875-11.25
		c-13.5-3.492-28.383-6.621-44.625-9.375c-16.254-2.742-33.633-4.875-52.125-6.375c-6.504,5.004-13.758,10.125-21.75,15.375
		c-8.004,5.25-16.383,10.008-25.125,14.25c-8.754,4.254-17.379,7.758-25.875,10.5c-8.508,2.742-16.5,4.125-24,4.125
		c-8.508,0-16.008-0.879-22.5-2.625c-6.504-1.758-9.75-6.117-9.75-13.125c0-6.492,2.742-12.867,8.25-19.125
		c5.496-6.246,12.867-11.871,22.125-16.875c9.246-4.992,19.992-9,32.25-12c12.246-3,25.371-4.5,39.375-4.5c9,0,17.496,0,25.5,0
		c7.992,0,14.742,0.258,20.25,0.75c15.996-12.996,33.375-27.75,52.125-44.25s36-33.375,51.75-50.625s28.875-34.5,39.375-51.75
		s15.75-33.117,15.75-47.625c0-15.996-3.879-28.371-11.625-37.125c-7.758-8.742-19.383-13.125-34.875-13.125
		c-12,0-22.758,1.629-32.25,4.875c-9.504,3.258-18.129,7.629-25.875,13.125c-7.758,5.508-14.883,11.625-21.375,18.375
		c-6.504,6.75-12.75,13.875-18.75,21.375c-1.5,2.004-3,2.379-4.5,1.125c-1.5-1.242-1.758-2.871-0.75-4.875
		c7.5-9,15.996-18.375,25.5-28.125c9.492-9.75,19.617-18.492,30.375-26.25c10.746-7.746,22.371-14.121,34.875-19.125
		c12.492-4.992,25.746-7.5,39.75-7.5c5.496,0,11.25,0.633,17.25,1.875c6,1.254,11.742,3.633,17.25,7.125
		c5.496,3.504,9.996,8.508,13.5,15c3.492,6.504,5.25,15.258,5.25,26.25c0,14.508-6.258,31.5-18.75,51
		c-12.504,19.5-28.125,39.504-46.875,60c-18.75,20.508-38.754,40.5-60,60c-21.258,19.5-40.629,36.258-58.125,50.25
		c24.996,2.004,49.242,4.254,72.75,6.75c23.496,2.508,41.496,5.754,54,9.75c6,1.5,9,5.508,9,12
		c-1.008,5.004-2.25,10.875-3.75,17.625s-3,12.129-4.5,16.125L1715.995,683.528z M1551.745,643.028
		c-3-0.492-7.758-0.867-14.25-1.125c-6.504-0.246-12.504-0.375-18-0.375c-24,0-42.375,1.254-55.125,3.75
		c-12.75,2.508-19.125,8.004-19.125,16.5c0,3.504,1.992,6.504,6,9c3.996,2.508,10.242,3.75,18.75,3.75c20.496,0,37.5-3.75,51-11.25
		S1544.737,649.028,1551.745,643.028z"/>
	<path fill="#FF0000" d="M2108.244,417.278c0,16.5-2.883,34.758-8.625,54.75c-5.754,20.004-13.629,40.254-23.625,60.75
		c-10.008,20.508-21.879,40.254-35.625,59.25c-13.758,19.008-28.758,35.883-45,50.625c-16.254,14.754-33.504,26.625-51.75,35.625
		c-18.258,9-36.879,13.5-55.875,13.5c-7.008,0-14.754-0.75-23.25-2.25c-8.508-1.5-16.383-4.5-23.625-9
		c-7.254-4.5-13.383-10.992-18.375-19.5c-5.004-8.496-7.5-19.746-7.5-33.75c0-13.5,2.367-27.996,7.125-43.5
		c4.746-15.492,11.25-31.371,19.5-47.625c8.25-16.242,18.117-32.625,29.625-49.125c11.496-16.5,24-32.25,37.5-47.25
		c6.492-6.996,15.492-15.246,27-24.75c11.496-9.492,23.496-16.746,36-21.75c7.5-3,15.867-6.492,25.125-10.5
		c9.246-3.996,18.492-7.992,27.75-12c9.246-3.996,17.871-7.746,25.875-11.25c7.992-3.492,14.25-6.492,18.75-9
		c3.492,0.504,7.5,1.875,12,4.125s8.742,6,12.75,11.25c3.996,5.25,7.371,12,10.125,20.25
		C2106.861,394.403,2108.244,404.786,2108.244,417.278z M2075.244,435.278c0-15.492-2.379-29.367-7.125-41.625
		c-4.758-12.246-13.875-18.375-27.375-18.375c-3.504,0-9,0.879-16.5,2.625c-7.5,1.758-15.879,4.875-25.125,9.375
		c-9.258,4.5-19.125,10.5-29.625,18s-20.754,17.004-30.75,28.5c-17.004,19.008-31.008,37.629-42,55.875
		c-11.004,18.258-19.758,35.508-26.25,51.75c-6.504,16.254-10.875,31.008-13.125,44.25c-2.25,13.254-3.375,24.375-3.375,33.375
		c0,19.008,4.5,33.879,13.5,44.625c9,10.758,21,16.125,36,16.125c20.496,0,40.875-6.621,61.125-19.875
		c20.25-13.242,38.625-31.125,55.125-53.625s29.871-48.492,40.125-78C2070.111,498.782,2075.244,467.786,2075.244,435.278z"/>
	<path fill="#FF0000" d="M2361.74,353.528c-34.5,47.004-66.129,94.254-94.875,141.75c-28.758,47.508-54.129,92.508-76.125,135
		c-4.5,8.508-7.5,16.254-9,23.25c-1.5,7.008-2.25,13.5-2.25,19.5c0,9.504,2.742,17.742,8.25,24.75c2.496,1.5,3,3.375,1.5,5.625
		s-3,2.367-4.5,0.375c-8.508-11.004-15.75-20.133-21.75-27.375s-9-15.117-9-23.625c0-10.992,2.742-21.996,8.25-33
		c6.996-14.496,16.371-31.746,28.125-51.75c11.742-19.992,24.492-40.746,38.25-62.25c13.746-21.492,27.996-42.996,42.75-64.5
		c14.742-21.492,28.371-40.992,40.875-58.5c0.492-0.492,0.75-0.996,0.75-1.5v-0.75c0-0.492-0.258-0.996-0.75-1.5
		c-1.5,0-2.508,0.504-3,1.5c-9.504,5.508-20.25,12-32.25,19.5s-24.633,15.375-37.875,23.625c-13.254,8.25-26.754,16.629-40.5,25.125
		c-13.758,8.508-27.129,16.758-40.125,24.75c-1.008-1.5-1.758-3.246-2.25-5.25c-0.504-1.992-0.75-4.5-0.75-7.5
		c11.496-6,24.75-13.125,39.75-21.375s30.375-17.121,46.125-26.625c15.75-9.492,31.242-18.996,46.5-28.5
		c15.246-9.492,28.617-18.246,40.125-26.25c4.992-0.996,10.371-1.992,16.125-3c5.742-0.996,11.121-2.25,16.125-3.75L2361.74,353.528
		z"/>
	<path fill="#FF0000" d="M2407.486,688.028c-6,0.996-12.258,2.742-18.75,5.25c-6.504,2.496-11.25,4.746-14.25,6.75
		c-2.508,0-5.508-3-9-9c-3.504-6-5.25-12.996-5.25-21c0-6.996,0.867-13.875,2.625-20.625c1.746-6.75,6.246-15.492,13.5-26.25
		c7.242-10.746,18.375-24.246,33.375-40.5c15-16.242,35.742-37.125,62.25-62.625c22.5-21.996,45.375-44.871,68.625-68.625
		c23.25-23.742,44.367-46.125,63.375-67.125c-6,2.004-13.758,3.633-23.25,4.875c-9.504,1.254-18,1.875-25.5,1.875
		c-6,0-13.125-0.375-21.375-1.125s-16.758-1.746-25.5-3c-8.754-1.242-17.508-2.25-26.25-3c-8.754-0.75-16.629-1.125-23.625-1.125
		c-21.504,0-37.758,8.004-48.75,24c-5.508,7.5-11.133,17.133-16.875,28.875c-5.754,11.754-10.629,25.629-14.625,41.625l-6-5.25
		c4.992-16.992,11.367-33.375,19.125-49.125c7.746-15.75,17.625-30.621,29.625-44.625c6.996-8.496,15.492-15.246,25.5-20.25
		c9.996-4.992,20.496-7.5,31.5-7.5c4.5,0,12.492,1.125,24,3.375c11.496,2.25,23.871,4.875,37.125,7.875
		c13.242,3,25.992,5.625,38.25,7.875c12.246,2.25,21.375,3.375,27.375,3.375s12-3.621,18-10.875c6-7.242,10.746-15.117,14.25-23.625
		c6,0,11.25,1.254,15.75,3.75c4.5,2.508,6.75,4.254,6.75,5.25c0,1.5-0.75,3-2.25,4.5c-5.508,5.508-11.508,10.5-18,15
		c-6.504,4.5-13.254,8.508-20.25,12c-31.008,33-59.004,62.379-84,88.125c-25.008,25.758-47.25,48.633-66.75,68.625
		c-6,6-13.383,14.004-22.125,24c-8.754,10.008-17.004,20.754-24.75,32.25c-7.758,11.508-14.508,22.875-20.25,34.125
		c-5.754,11.25-8.625,21.375-8.625,30.375c0,14.508,5.496,23.754,16.5,27.75L2407.486,688.028z"/>
	<path fill="#FF0000" d="M2821.486,567.278c-6.504,8.508-13.5,16.5-21,24s-17.754,11.25-30.75,11.25c-8.508,0-16.254-1.5-23.25-4.5
		c-7.008-3-13.875-6.246-20.625-9.75c-6.75-3.492-13.758-6.75-21-9.75c-7.254-3-15.375-4.5-24.375-4.5s-16.254,3.258-21.75,9.75
		c-5.508,6.504-9.75,13.5-12.75,21l-15-15c4.5-8.496,10.746-16.5,18.75-24c7.992-7.5,18.996-11.25,33-11.25
		c7.992,0,15.996,1.5,24,4.5c7.992,3,15.867,6.129,23.625,9.375c7.746,3.258,15.117,6.375,22.125,9.375c6.996,3,12.996,4.5,18,4.5
		c8.496,0,15.375-3.117,20.625-9.375c5.25-6.246,10.371-13.125,15.375-20.625L2821.486,567.278z"/>
	<path fill="#FF0000" d="M3152.236,378.278c-2.004,5.004-4.383,11.508-7.125,19.5c-2.754,8.004-4.875,14.754-6.375,20.25
		c-2.004,1.008-3.75,0.258-5.25-2.25c1.5-3,2.25-6.75,2.25-11.25c0-9-4.383-17.496-13.125-25.5c-8.754-7.992-22.629-12-41.625-12
		c-20.004,0-36.258,5.883-48.75,17.625c-12.504,11.754-18.75,27.375-18.75,46.875c0,15,3.492,29.004,10.5,42
		c6.996,13.008,14.742,25.008,23.25,36c6.492,8.508,11.871,15.633,16.125,21.375c4.242,5.754,7.617,11.004,10.125,15.75
		c2.496,4.758,4.242,9.258,5.25,13.5c0.996,4.254,1.5,9.375,1.5,15.375c0,10.5-2.379,20.754-7.125,30.75
		c-4.758,10.008-11.004,19.254-18.75,27.75c-7.758,8.508-16.254,16.125-25.5,22.875c-9.258,6.75-18.375,12.129-27.375,16.125
		c-22.5,9.996-47.508,15-75,15c-11.508,0-22.875-1.008-34.125-3c-11.25-2.004-21.633-5.25-31.125-9.75
		c-2.508-1.5-4.758-2.871-6.75-4.125c-2.004-1.242-3.258-2.625-3.75-4.125c1.992-8.496,4.371-18.117,7.125-28.875
		c2.742-10.746,5.121-19.617,7.125-26.625c0-0.996,0.75-1.5,2.25-1.5s2.25,1.254,2.25,3.75c-1.5,4.5-2.25,9-2.25,13.5
		c0,14.004,5.742,26.379,17.25,37.125c11.496,10.758,29.25,16.125,53.25,16.125c9,0,18.117-0.867,27.375-2.625
		c9.246-1.746,17.625-4.371,25.125-7.875c15.492-6.996,28.617-16.875,39.375-29.625c10.746-12.75,16.125-27.867,16.125-45.375
		c0-8.496-2.004-17.121-6-25.875c-4.008-8.742-11.754-20.367-23.25-34.875c-10.008-12.996-17.625-24.492-22.875-34.5
		c-5.25-9.996-7.875-21.492-7.875-34.5c0-12.996,2.871-25.992,8.625-39c5.742-12.996,12.867-24.492,21.375-34.5
		c3-3.492,7.125-7.617,12.375-12.375c5.25-4.746,11.496-9.117,18.75-13.125c7.242-3.996,15.75-7.5,25.5-10.5s20.625-4.5,32.625-4.5
		c7.992,0,15.75,1.125,23.25,3.375s14.25,6.633,20.25,13.125C3150.982,371.282,3152.236,374.786,3152.236,378.278z"/>
	<path fill="#FF0000" d="M3305.234,593.528c-8.508,10.5-18.633,21.375-30.375,32.625c-11.754,11.25-24.504,21.504-38.25,30.75
		c-13.758,9.258-28.008,16.758-42.75,22.5c-14.754,5.742-29.379,8.625-43.875,8.625c-23.508,0-35.25-10.5-35.25-31.5
		c0-13.992,3.621-29.121,10.875-45.375c7.242-16.242,16.617-31.242,28.125-45c11.496-13.746,24.117-25.242,37.875-34.5
		c13.746-9.246,26.871-13.875,39.375-13.875c6.996,0,11.871,1.254,14.625,3.75c2.742,2.508,4.125,5.754,4.125,9.75
		c0,6-1.875,12.504-5.625,19.5c-3.75,7.008-9.375,13.629-16.875,19.875c-7.5,6.258-17.004,11.508-28.5,15.75
		c-11.508,4.254-25.254,6.375-41.25,6.375c-2.508,4.5-5.25,11.625-8.25,21.375s-4.5,19.629-4.5,29.625
		c0,20.508,9.246,30.75,27.75,30.75c11.496,0,23.367-2.742,35.625-8.25c12.246-5.496,24.117-12.375,35.625-20.625
		c11.496-8.25,22.125-17.25,31.875-27s17.871-18.867,24.375-27.375c0.996-0.996,2.121-1.242,3.375-0.75
		C3304.602,591.032,3305.234,592.028,3305.234,593.528z M3226.484,535.028c0-6.492-3.258-9.75-9.75-9.75
		c-5.004,0-10.125,1.875-15.375,5.625s-10.383,8.625-15.375,14.625c-5.004,6-9.75,12.504-14.25,19.5
		c-4.5,7.008-8.25,13.758-11.25,20.25c0.996,0.504,2.742,0.879,5.25,1.125c2.496,0.258,4.5,0.375,6,0.375
		c14.496,0,27.246-5.121,38.25-15.375C3220.977,561.161,3226.484,549.032,3226.484,535.028z"/>
	<path fill="#FF0000" d="M3488.233,565.028c-26.508,33.504-54.879,58.383-85.125,74.625c-30.258,16.254-61.875,28.125-94.875,35.625
		c-11.508,2.508-21.504,4.5-30,6c-8.508,1.5-17.004,3-25.5,4.5c-14.508,24.492-28.242,48.867-41.25,73.125
		c-12.996,24.246-25.992,48.375-39,72.375c-18.996,35.496-36.246,69-51.75,100.5c-15.492,31.5-32.25,62.742-50.25,93.75
		c-3.492,6-8.25,10.617-14.25,13.875c-6,3.246-12.996,6.117-21,8.625c-7.992,2.496-17.25,4.992-27.75,7.5
		c-10.5,2.496-21.996,6-34.5,10.5c-3,1.5-4.746,1.125-5.25-1.125c-0.492-2.25,0.75-3.879,3.75-4.875
		c13.008-5.004,24-9.879,33-14.625c9-4.758,17.133-10.383,24.375-16.875c7.254-6.504,14.133-14.25,20.625-23.25
		c6.504-9,14.004-20.25,22.5-33.75c8.508-14.004,18.879-31.383,31.125-52.125c12.258-20.754,25.875-43.629,40.875-68.625
		c15-25.008,30.75-51.633,47.25-79.875c16.5-28.254,33.258-56.625,50.25-85.125c-3-1.008-4.5-3.75-4.5-8.25
		c0-3,1.617-4.746,4.875-5.25c3.246-0.492,5.871-0.996,7.875-1.5l34.5-56.25c15.996-25.992,31.992-52.992,48-81
		c15.996-27.996,32.496-52.992,49.5-75c1.992-1.992,4.746-3.492,8.25-4.5c0.996-0.492,3-0.996,6-1.5c3-0.492,6-0.996,9-1.5
		c3-0.492,5.742-0.867,8.25-1.125c2.496-0.246,3.996-0.375,4.5-0.375c1.5,0,2.25,0.504,2.25,1.5c0,1.5-1.008,3.258-3,5.25
		c-10.5,9.504-19.758,18.633-27.75,27.375c-8.004,8.754-15.504,17.25-22.5,25.5c-7.008,8.25-13.629,16.629-19.875,25.125
		c-6.258,8.508-12.633,17.754-19.125,27.75c4.992-5.496,10.5-11.25,16.5-17.25s12-11.496,18-16.5c6-4.992,12-9.117,18-12.375
		c6-3.246,11.496-4.875,16.5-4.875c4.992,0,9.117,1.5,12.375,4.5c3.246,3,4.875,8.004,4.875,15c0,5.004-2.133,12.75-6.375,23.25
		c-4.254,10.5-11.508,22.254-21.75,35.25c-10.254,13.008-23.883,26.508-40.875,40.5c-17.004,14.004-38.25,27-63.75,39
		c13.5-1.5,28.617-3.867,45.375-7.125c16.746-3.246,34.125-8.742,52.125-16.5c18-7.746,36-18.246,54-31.5
		c18-13.242,34.992-30.375,51-51.375c0.492-0.996,1.371-1.371,2.625-1.125C3487.601,561.161,3488.233,562.532,3488.233,565.028z
		 M3383.233,545.528c0-1.992-0.375-4.5-1.125-7.5s-3.375-4.5-7.875-4.5c-2.508,0-6.129,1.383-10.875,4.125
		c-4.758,2.754-10.125,6.504-16.125,11.25c-6,4.758-12.258,10.629-18.75,17.625c-6.504,7.008-12.75,14.754-18.75,23.25
		c-8.508,12-16.758,24.879-24.75,38.625c-8.004,13.758-16.008,27.879-24,42.375c16.5-4.5,32.121-12,46.875-22.5
		c14.742-10.5,27.75-21.996,39-34.5c11.25-12.492,20.121-24.996,26.625-37.5C3379.976,563.786,3383.233,553.532,3383.233,545.528z"
		/>
	<path fill="#FF0000" d="M3514.479,649.778c0,2.508-1.008,5.883-3,10.125c-2.004,4.254-4.629,8.379-7.875,12.375
		c-3.258,4.008-6.879,7.383-10.875,10.125c-4.008,2.742-8.004,4.125-12,4.125c-3.504,0-6.633-1.008-9.375-3
		c-2.754-1.992-4.125-4.992-4.125-9c0-9.996,3.375-18.75,10.125-26.25s14.367-11.25,22.875-11.25c2.496,0,5.496,0.879,9,2.625
		C3512.722,641.411,3514.479,644.786,3514.479,649.778z"/>
	<path fill="#FF0000" d="M3855.729,683.528c-5.004-4.5-12.375-8.742-22.125-12.75c-9.75-3.996-21.375-7.746-34.875-11.25
		c-13.5-3.492-28.383-6.621-44.625-9.375c-16.254-2.742-33.633-4.875-52.125-6.375c-6.504,5.004-13.758,10.125-21.75,15.375
		c-8.004,5.25-16.383,10.008-25.125,14.25c-8.754,4.254-17.379,7.758-25.875,10.5c-8.508,2.742-16.5,4.125-24,4.125
		c-8.508,0-16.008-0.879-22.5-2.625c-6.504-1.758-9.75-6.117-9.75-13.125c0-6.492,2.742-12.867,8.25-19.125
		c5.496-6.246,12.867-11.871,22.125-16.875c9.246-4.992,19.992-9,32.25-12c12.246-3,25.371-4.5,39.375-4.5c9,0,17.496,0,25.5,0
		c7.992,0,14.742,0.258,20.25,0.75c15.996-12.996,33.375-27.75,52.125-44.25s36-33.375,51.75-50.625s28.875-34.5,39.375-51.75
		s15.75-33.117,15.75-47.625c0-15.996-3.879-28.371-11.625-37.125c-7.758-8.742-19.383-13.125-34.875-13.125
		c-12,0-22.758,1.629-32.25,4.875c-9.504,3.258-18.129,7.629-25.875,13.125c-7.758,5.508-14.883,11.625-21.375,18.375
		c-6.504,6.75-12.75,13.875-18.75,21.375c-1.5,2.004-3,2.379-4.5,1.125c-1.5-1.242-1.758-2.871-0.75-4.875
		c7.5-9,15.996-18.375,25.5-28.125c9.492-9.75,19.617-18.492,30.375-26.25c10.746-7.746,22.371-14.121,34.875-19.125
		c12.492-4.992,25.746-7.5,39.75-7.5c5.496,0,11.25,0.633,17.25,1.875c6,1.254,11.742,3.633,17.25,7.125
		c5.496,3.504,9.996,8.508,13.5,15c3.492,6.504,5.25,15.258,5.25,26.25c0,14.508-6.258,31.5-18.75,51
		c-12.504,19.5-28.125,39.504-46.875,60c-18.75,20.508-38.754,40.5-60,60c-21.258,19.5-40.629,36.258-58.125,50.25
		c24.996,2.004,49.242,4.254,72.75,6.75c23.496,2.508,41.496,5.754,54,9.75c6,1.5,9,5.508,9,12
		c-1.008,5.004-2.25,10.875-3.75,17.625s-3,12.129-4.5,16.125L3855.729,683.528z M3691.479,643.028
		c-3-0.492-7.758-0.867-14.25-1.125c-6.504-0.246-12.504-0.375-18-0.375c-24,0-42.375,1.254-55.125,3.75
		c-12.75,2.508-19.125,8.004-19.125,16.5c0,3.504,1.992,6.504,6,9c3.996,2.508,10.242,3.75,18.75,3.75c20.496,0,37.5-3.75,51-11.25
		S3684.471,649.028,3691.479,643.028z"/>
	<path fill="#FF0000" d="M4247.978,417.278c0,16.5-2.883,34.758-8.625,54.75c-5.754,20.004-13.629,40.254-23.625,60.75
		c-10.008,20.508-21.879,40.254-35.625,59.25c-13.758,19.008-28.758,35.883-45,50.625c-16.254,14.754-33.504,26.625-51.75,35.625
		c-18.258,9-36.879,13.5-55.875,13.5c-7.008,0-14.754-0.75-23.25-2.25c-8.508-1.5-16.383-4.5-23.625-9
		c-7.254-4.5-13.383-10.992-18.375-19.5c-5.004-8.496-7.5-19.746-7.5-33.75c0-13.5,2.367-27.996,7.125-43.5
		c4.746-15.492,11.25-31.371,19.5-47.625c8.25-16.242,18.117-32.625,29.625-49.125c11.496-16.5,24-32.25,37.5-47.25
		c6.492-6.996,15.492-15.246,27-24.75c11.496-9.492,23.496-16.746,36-21.75c7.5-3,15.867-6.492,25.125-10.5
		c9.246-3.996,18.492-7.992,27.75-12c9.246-3.996,17.871-7.746,25.875-11.25c7.992-3.492,14.25-6.492,18.75-9
		c3.492,0.504,7.5,1.875,12,4.125s8.742,6,12.75,11.25c3.996,5.25,7.371,12,10.125,20.25
		C4246.595,394.403,4247.978,404.786,4247.978,417.278z M4214.978,435.278c0-15.492-2.379-29.367-7.125-41.625
		c-4.758-12.246-13.875-18.375-27.375-18.375c-3.504,0-9,0.879-16.5,2.625c-7.5,1.758-15.879,4.875-25.125,9.375
		c-9.258,4.5-19.125,10.5-29.625,18s-20.754,17.004-30.75,28.5c-17.004,19.008-31.008,37.629-42,55.875
		c-11.004,18.258-19.758,35.508-26.25,51.75c-6.504,16.254-10.875,31.008-13.125,44.25c-2.25,13.254-3.375,24.375-3.375,33.375
		c0,19.008,4.5,33.879,13.5,44.625c9,10.758,21,16.125,36,16.125c20.496,0,40.875-6.621,61.125-19.875
		c20.25-13.242,38.625-31.125,55.125-53.625s29.871-48.492,40.125-78C4209.845,498.782,4214.978,467.786,4214.978,435.278z"/>
	<path fill="#FF0000" d="M4497.724,683.528c-5.004-4.5-12.375-8.742-22.125-12.75c-9.75-3.996-21.375-7.746-34.875-11.25
		c-13.5-3.492-28.383-6.621-44.625-9.375c-16.254-2.742-33.633-4.875-52.125-6.375c-6.504,5.004-13.758,10.125-21.75,15.375
		c-8.004,5.25-16.383,10.008-25.125,14.25c-8.754,4.254-17.379,7.758-25.875,10.5c-8.508,2.742-16.5,4.125-24,4.125
		c-8.508,0-16.008-0.879-22.5-2.625c-6.504-1.758-9.75-6.117-9.75-13.125c0-6.492,2.742-12.867,8.25-19.125
		c5.496-6.246,12.867-11.871,22.125-16.875c9.246-4.992,19.992-9,32.25-12c12.246-3,25.371-4.5,39.375-4.5c9,0,17.496,0,25.5,0
		c7.992,0,14.742,0.258,20.25,0.75c15.996-12.996,33.375-27.75,52.125-44.25s36-33.375,51.75-50.625s28.875-34.5,39.375-51.75
		s15.75-33.117,15.75-47.625c0-15.996-3.879-28.371-11.625-37.125c-7.758-8.742-19.383-13.125-34.875-13.125
		c-12,0-22.758,1.629-32.25,4.875c-9.504,3.258-18.129,7.629-25.875,13.125c-7.758,5.508-14.883,11.625-21.375,18.375
		c-6.504,6.75-12.75,13.875-18.75,21.375c-1.5,2.004-3,2.379-4.5,1.125c-1.5-1.242-1.758-2.871-0.75-4.875
		c7.5-9,15.996-18.375,25.5-28.125c9.492-9.75,19.617-18.492,30.375-26.25c10.746-7.746,22.371-14.121,34.875-19.125
		c12.492-4.992,25.746-7.5,39.75-7.5c5.496,0,11.25,0.633,17.25,1.875c6,1.254,11.742,3.633,17.25,7.125
		c5.496,3.504,9.996,8.508,13.5,15c3.492,6.504,5.25,15.258,5.25,26.25c0,14.508-6.258,31.5-18.75,51
		c-12.504,19.5-28.125,39.504-46.875,60c-18.75,20.508-38.754,40.5-60,60c-21.258,19.5-40.629,36.258-58.125,50.25
		c24.996,2.004,49.242,4.254,72.75,6.75c23.496,2.508,41.496,5.754,54,9.75c6,1.5,9,5.508,9,12
		c-1.008,5.004-2.25,10.875-3.75,17.625s-3,12.129-4.5,16.125L4497.724,683.528z M4333.474,643.028
		c-3-0.492-7.758-0.867-14.25-1.125c-6.504-0.246-12.504-0.375-18-0.375c-24,0-42.375,1.254-55.125,3.75
		c-12.75,2.508-19.125,8.004-19.125,16.5c0,3.504,1.992,6.504,6,9c3.996,2.508,10.242,3.75,18.75,3.75c20.496,0,37.5-3.75,51-11.25
		S4326.466,649.028,4333.474,643.028z"/>
	<path fill="#FF0000" d="M4814.223,353.528c-34.5,47.004-66.129,94.254-94.875,141.75c-28.758,47.508-54.129,92.508-76.125,135
		c-4.5,8.508-7.5,16.254-9,23.25c-1.5,7.008-2.25,13.5-2.25,19.5c0,9.504,2.742,17.742,8.25,24.75c2.496,1.5,3,3.375,1.5,5.625
		s-3,2.367-4.5,0.375c-8.508-11.004-15.75-20.133-21.75-27.375s-9-15.117-9-23.625c0-10.992,2.742-21.996,8.25-33
		c6.996-14.496,16.371-31.746,28.125-51.75c11.742-19.992,24.492-40.746,38.25-62.25c13.746-21.492,27.996-42.996,42.75-64.5
		c14.742-21.492,28.371-40.992,40.875-58.5c0.492-0.492,0.75-0.996,0.75-1.5v-0.75c0-0.492-0.258-0.996-0.75-1.5
		c-1.5,0-2.508,0.504-3,1.5c-9.504,5.508-20.25,12-32.25,19.5s-24.633,15.375-37.875,23.625c-13.254,8.25-26.754,16.629-40.5,25.125
		c-13.758,8.508-27.129,16.758-40.125,24.75c-1.008-1.5-1.758-3.246-2.25-5.25c-0.504-1.992-0.75-4.5-0.75-7.5
		c11.496-6,24.75-13.125,39.75-21.375s30.375-17.121,46.125-26.625c15.75-9.492,31.242-18.996,46.5-28.5
		c15.246-9.492,28.617-18.246,40.125-26.25c4.992-0.996,10.371-1.992,16.125-3c5.742-0.996,11.121-2.25,16.125-3.75
		L4814.223,353.528z"/>
</g>
</svg>