<?xml version="1.0" encoding="utf-8"?>
<svg xmlns="http://www.w3.org/2000/svg" viewBox="0 0 3588.7242 359.15861">
<g transform="translate(-612,-346.028)">
	<path fill="#FF0000" d="M999.75,443.528c-0.504,31.008-7.758,61.254-21.75,90.75c-14.004,29.508-32.379,55.758-55.125,78.75
		c-22.758,23.004-49.125,41.508-79.125,55.5c-30,14.004-61.254,21-93.75,21c-19.5,0-37.629-1.5-54.375-4.5
		c-16.758-3-31.254-8.25-43.5-15.75c-12.258-7.5-22.008-17.496-29.25-30C615.621,626.786,612,611.036,612,592.028
		c0-15.996,2.871-32.871,8.625-50.625c5.742-17.742,13.125-35.121,22.125-52.125c9-16.992,19.242-33,30.75-48
		c11.496-15,22.746-27.492,33.75-37.5c21.492-19.5,45.75-33.75,72.75-42.75s54.75-13.5,83.25-13.5c15.492,0,31.371,1.5,47.625,4.5
		c16.242,3,30.996,8.133,44.25,15.375c13.242,7.254,24.117,17.004,32.625,29.25C996.246,408.911,1000.242,424.532,999.75,443.528z
		 M962.25,438.278c0-15.492-2.508-28.617-7.5-39.375c-5.004-10.746-11.754-19.5-20.25-26.25c-8.508-6.75-18.75-11.742-30.75-15
		c-12-3.246-25.254-4.875-39.75-4.875c-26.508,0-50.25,5.133-71.25,15.375c-21,10.254-40.254,25.383-57.75,45.375
		c-9.504,10.5-19.383,23.25-29.625,38.25c-10.254,15-19.629,31.008-28.125,48c-8.508,17.004-15.504,34.125-21,51.375
		c-5.508,17.25-8.25,33.375-8.25,48.375c0,16.008,2.367,29.379,7.125,40.125c4.746,10.758,11.367,19.254,19.875,25.5
		c8.496,6.258,18.621,10.758,30.375,13.5c11.742,2.754,24.621,4.125,38.625,4.125c29.496,0,57.375-7.746,83.625-23.25
		c26.25-15.492,49.371-35.121,69.375-58.875c19.992-23.742,35.871-49.992,47.625-78.75
		C956.367,493.157,962.25,465.278,962.25,438.278z"/>
	<path fill="#FF0000" d="M1196.247,582.278c-7.5,9.504-16.008,19.125-25.5,28.875c-9.504,9.75-19.254,19.008-29.25,27.75
		c-10.008,8.754-20.25,16.629-30.75,23.625c-10.5,7.008-20.508,12.504-30,16.5c-7.5,3-14.379,5.121-20.625,6.375
		c-6.258,1.242-12.129,1.875-17.625,1.875c-27.504,0-41.25-11.496-41.25-34.5c0-9,1.992-18.492,6-28.5
		c9.492-23.496,22.875-44.367,40.125-62.625c17.25-18.246,35.871-31.617,55.875-40.125c6-2.496,10.992-3.75,15-3.75
		c18.492,0,27.75,7.254,27.75,21.75c0,7.5-1.758,13.254-5.25,17.25c-3,3-8.004,7.254-15,12.75l-2.25-0.75
		c1.5-3.996,2.25-8.25,2.25-12.75c0-4.992-1.875-9.75-5.625-14.25s-9.633-6.75-17.625-6.75c-9.504,0-18.633,3.129-27.375,9.375
		c-8.754,6.258-16.5,14.508-23.25,24.75c-6.75,10.254-12.129,22.008-16.125,35.25c-4.008,13.254-6,26.883-6,40.875
		c0,10.5,2.871,18.375,8.625,23.625c5.742,5.25,12.867,7.875,21.375,7.875c13.992,0,32.871-8.121,56.625-24.375
		c23.742-16.242,49.125-40.875,76.125-73.875c2.496-2.496,4.371-3.117,5.625-1.875
		C1199.364,577.907,1198.743,579.782,1196.247,582.278z"/>
	<path fill="#FF0000" d="M1335.743,409.028c-4.008,1.008-8.508,2.883-13.5,5.625c-5.004,2.754-8.754,6.129-11.25,10.125
		c-11.508,16.008-22.629,32.754-33.375,50.25c-10.758,17.508-21.129,35.004-31.125,52.5h93c1.5,1.008,2.25,2.004,2.25,3
		c0,1.008-0.504,1.758-1.5,2.25c-4.008,0-10.008,0.129-18,0.375c-8.004,0.258-16.758,0.633-26.25,1.125
		c-9.504,0.504-19.254,1.008-29.25,1.5c-10.008,0.504-18.75,1.008-26.25,1.5c-14.004,25.008-24.75,46.254-32.25,63.75
		c-7.5,17.508-11.25,32.754-11.25,45.75c0,18,8.25,27,24.75,27c7.992,0,17.121-2.121,27.375-6.375
		c10.242-4.242,21.117-9.867,32.625-16.875c1.5-1.5,3-1.371,4.5,0.375c1.5,1.758,0.996,3.129-1.5,4.125
		c-17.004,11.004-32.754,19.008-47.25,24c-14.508,4.992-29.25,7.5-44.25,7.5c-8.004,0-15-2.379-21-7.125s-9-12.867-9-24.375
		c0-9.996,4.5-24.75,13.5-44.25s22.242-43.5,39.75-72c-6,0.504-13.383,1.125-22.125,1.875c-8.754,0.75-13.875,1.125-15.375,1.125
		c-2.508,0-3.75-0.996-3.75-3c1.992-3.492,5.25-6.996,9.75-10.5l38.25-0.75c4.5-7.5,9.492-15.867,15-25.125
		c5.496-9.246,10.992-18.492,16.5-27.75c5.496-9.246,11.121-18.246,16.875-27c5.742-8.742,10.875-16.875,15.375-24.375
		c5.496-2.496,13.125-5.742,22.875-9.75c9.75-3.996,18.375-7.242,25.875-9.75c0.996,0,1.746,0.633,2.25,1.875
		C1338.485,406.907,1337.735,408.032,1335.743,409.028z"/>
	<path fill="#FF0000" d="M1388.992,649.778c0,2.508-1.008,5.883-3,10.125c-2.004,4.254-4.629,8.379-7.875,12.375
		c-3.258,4.008-6.879,7.383-10.875,10.125c-4.008,2.742-8.004,4.125-12,4.125c-3.504,0-6.633-1.008-9.375-3
		c-2.754-1.992-4.125-4.992-4.125-9c0-9.996,3.375-18.75,10.125-26.25s14.367-11.25,22.875-11.25c2.496,0,5.496,0.879,9,2.625
		C1387.234,641.411,1388.992,644.786,1388.992,649.778z"/>
	<path fill="#FF0000" d="M1730.241,683.528c-5.004-4.5-12.375-8.742-22.125-12.75c-9.75-3.996-21.375-7.746-34.875-11.25
		c-13.5-3.492-28.383-6.621-44.625-9.375c-16.254-2.742-33.633-4.875-52.125-6.375c-6.504,5.004-13.758,10.125-21.75,15.375
		c-8.004,5.25-16.383,10.008-25.125,14.25c-8.754,4.254-17.379,7.758-25.875,10.5c-8.508,2.742-16.5,4.125-24,4.125
		c-8.508,0-16.008-0.879-22.5-2.625c-6.504-1.758-9.75-6.117-9.75-13.125c0-6.492,2.742-12.867,8.25-19.125
		c5.496-6.246,12.867-11.871,22.125-16.875c9.246-4.992,19.992-9,32.25-12c12.246-3,25.371-4.5,39.375-4.5c9,0,17.496,0,25.5,0
		c7.992,0,14.742,0.258,20.25,0.75c15.996-12.996,33.375-27.75,52.125-44.25s36-33.375,51.75-50.625s28.875-34.5,39.375-51.75
		s15.75-33.117,15.75-47.625c0-15.996-3.879-28.371-11.625-37.125c-7.758-8.742-19.383-13.125-34.875-13.125
		c-12,0-22.758,1.629-32.25,4.875c-9.504,3.258-18.129,7.629-25.875,13.125c-7.758,5.508-14.883,11.625-21.375,18.375
		c-6.504,6.75-12.75,13.875-18.75,21.375c-1.5,2.004-3,2.379-4.5,1.125c-1.5-1.242-1.758-2.871-0.75-4.875
		c7.5-9,15.996-18.375,25.5-28.125c9.492-9.75,19.617-18.492,30.375-26.25c10.746-7.746,22.371-14.121,34.875-19.125
		c12.492-4.992,25.746-7.5,39.75-7.5c5.496,0,11.25,0.633,17.25,1.875c6,1.254,11.742,3.633,17.25,7.125
		c5.496,3.504,9.996,8.508,13.5,15c3.492,6.504,5.25,15.258,5.25,26.25c0,14.508-6.258,31.5-18.75,51
		c-12.504,19.5-28.125,39.504-46.875,60c-18.75,20.508-38.754,40.5-60,60c-21.258,19.5-40.629,36.258-58.125,50.25
		c24.996,2.004,49.242,4.254,72.75,6.75c23.496,2.508,41.496,5.754,54,9.75c6,1.5,9,5.508,9,12
		c-1.008,5.004-2.25,10.875-3.75,17.625s-3,12.129-4.5,16.125L1730.241,683.528z M1565.991,643.028
		c-3-0.492-7.758-0.867-14.25-1.125c-6.504-0.246-12.504-0.375-18-0.375c-24,0-42.375,1.254-55.125,3.75
		c-12.75,2.508-19.125,8.004-19.125,16.5c0,3.504,1.992,6.504,6,9c3.996,2.508,10.242,3.75,18.75,3.75c20.496,0,37.5-3.75,51-11.25
		S1558.983,649.028,1565.991,643.028z"/>
	<path fill="#FF0000" d="M2122.489,417.278c0,16.5-2.883,34.758-8.625,54.75c-5.754,20.004-13.629,40.254-23.625,60.75
		c-10.008,20.508-21.879,40.254-35.625,59.25c-13.758,19.008-28.758,35.883-45,50.625c-16.254,14.754-33.504,26.625-51.75,35.625
		c-18.258,9-36.879,13.5-55.875,13.5c-7.008,0-14.754-0.75-23.25-2.25c-8.508-1.5-16.383-4.5-23.625-9
		c-7.254-4.5-13.383-10.992-18.375-19.5c-5.004-8.496-7.5-19.746-7.5-33.75c0-13.5,2.367-27.996,7.125-43.5
		c4.746-15.492,11.25-31.371,19.5-47.625c8.25-16.242,18.117-32.625,29.625-49.125c11.496-16.5,24-32.25,37.5-47.25
		c6.492-6.996,15.492-15.246,27-24.75c11.496-9.492,23.496-16.746,36-21.75c7.5-3,15.867-6.492,25.125-10.5
		c9.246-3.996,18.492-7.992,27.75-12c9.246-3.996,17.871-7.746,25.875-11.25c7.992-3.492,14.25-6.492,18.75-9
		c3.492,0.504,7.5,1.875,12,4.125s8.742,6,12.75,11.25c3.996,5.25,7.371,12,10.125,20.25
		C2121.106,394.403,2122.489,404.786,2122.489,417.278z M2089.489,435.278c0-15.492-2.379-29.367-7.125-41.625
		c-4.758-12.246-13.875-18.375-27.375-18.375c-3.504,0-9,0.879-16.5,2.625c-7.5,1.758-15.879,4.875-25.125,9.375
		c-9.258,4.5-19.125,10.5-29.625,18s-20.754,17.004-30.75,28.5c-17.004,19.008-31.008,37.629-42,55.875
		c-11.004,18.258-19.758,35.508-26.25,51.75c-6.504,16.254-10.875,31.008-13.125,44.25c-2.25,13.254-3.375,24.375-3.375,33.375
		c0,19.008,4.5,33.879,13.5,44.625c9,10.758,21,16.125,36,16.125c20.496,0,40.875-6.621,61.125-19.875
		c20.25-13.242,38.625-31.125,55.125-53.625s29.871-48.492,40.125-78C2084.356,498.782,2089.489,467.786,2089.489,435.278z"/>
	<path fill="#FF0000" d="M2372.236,683.528c-5.004-4.5-12.375-8.742-22.125-12.75c-9.75-3.996-21.375-7.746-34.875-11.25
		c-13.5-3.492-28.383-6.621-44.625-9.375c-16.254-2.742-33.633-4.875-52.125-6.375c-6.504,5.004-13.758,10.125-21.75,15.375
		c-8.004,5.25-16.383,10.008-25.125,14.25c-8.754,4.254-17.379,7.758-25.875,10.5c-8.508,2.742-16.5,4.125-24,4.125
		c-8.508,0-16.008-0.879-22.5-2.625c-6.504-1.758-9.75-6.117-9.75-13.125c0-6.492,2.742-12.867,8.25-19.125
		c5.496-6.246,12.867-11.871,22.125-16.875c9.246-4.992,19.992-9,32.25-12c12.246-3,25.371-4.5,39.375-4.5c9,0,17.496,0,25.5,0
		c7.992,0,14.742,0.258,20.25,0.75c15.996-12.996,33.375-27.75,52.125-44.25s36-33.375,51.75-50.625s28.875-34.5,39.375-51.75
		s15.75-33.117,15.75-47.625c0-15.996-3.879-28.371-11.625-37.125c-7.758-8.742-19.383-13.125-34.875-13.125
		c-12,0-22.758,1.629-32.25,4.875c-9.504,3.258-18.129,7.629-25.875,13.125c-7.758,5.508-14.883,11.625-21.375,18.375
		c-6.504,6.75-12.75,13.875-18.75,21.375c-1.5,2.004-3,2.379-4.5,1.125c-1.5-1.242-1.758-2.871-0.75-4.875
		c7.5-9,15.996-18.375,25.5-28.125c9.492-9.75,19.617-18.492,30.375-26.25c10.746-7.746,22.371-14.121,34.875-19.125
		c12.492-4.992,25.746-7.5,39.75-7.5c5.496,0,11.25,0.633,17.25,1.875c6,1.254,11.742,3.633,17.25,7.125
		c5.496,3.504,9.996,8.508,13.5,15c3.492,6.504,5.25,15.258,5.25,26.25c0,14.508-6.258,31.5-18.75,51
		c-12.504,19.5-28.125,39.504-46.875,60c-18.75,20.508-38.754,40.5-60,60c-21.258,19.5-40.629,36.258-58.125,50.25
		c24.996,2.004,49.242,4.254,72.75,6.75c23.496,2.508,41.496,5.754,54,9.75c6,1.5,9,5.508,9,12
		c-1.008,5.004-2.25,10.875-3.75,17.625s-3,12.129-4.5,16.125L2372.236,683.528z M2207.986,643.028
		c-3-0.492-7.758-0.867-14.25-1.125c-6.504-0.246-12.504-0.375-18-0.375c-24,0-42.375,1.254-55.125,3.75
		c-12.75,2.508-19.125,8.004-19.125,16.5c0,3.504,1.992,6.504,6,9c3.996,2.508,10.242,3.75,18.75,3.75c20.496,0,37.5-3.75,51-11.25
		S2200.978,649.028,2207.986,643.028z"/>
	<path fill="#FF0000" d="M2688.734,353.528c-34.5,47.004-66.129,94.254-94.875,141.75c-28.758,47.508-54.129,92.508-76.125,135
		c-4.5,8.508-7.5,16.254-9,23.25c-1.5,7.008-2.25,13.5-2.25,19.5c0,9.504,2.742,17.742,8.25,24.75c2.496,1.5,3,3.375,1.5,5.625
		s-3,2.367-4.5,0.375c-8.508-11.004-15.75-20.133-21.75-27.375s-9-15.117-9-23.625c0-10.992,2.742-21.996,8.25-33
		c6.996-14.496,16.371-31.746,28.125-51.75c11.742-19.992,24.492-40.746,38.25-62.25c13.746-21.492,27.996-42.996,42.75-64.5
		c14.742-21.492,28.371-40.992,40.875-58.5c0.492-0.492,0.75-0.996,0.75-1.5v-0.75c0-0.492-0.258-0.996-0.75-1.5
		c-1.5,0-2.508,0.504-3,1.5c-9.504,5.508-20.25,12-32.25,19.5s-24.633,15.375-37.875,23.625c-13.254,8.25-26.754,16.629-40.5,25.125
		c-13.758,8.508-27.129,16.758-40.125,24.75c-1.008-1.5-1.758-3.246-2.25-5.25c-0.504-1.992-0.75-4.5-0.75-7.5
		c11.496-6,24.75-13.125,39.75-21.375s30.375-17.121,46.125-26.625c15.75-9.492,31.242-18.996,46.5-28.5
		c15.246-9.492,28.617-18.246,40.125-26.25c4.992-0.996,10.371-1.992,16.125-3c5.742-0.996,11.121-2.25,16.125-3.75
		L2688.734,353.528z"/>
	<path fill="#FF0000" d="M2891.23,567.278c-6.504,8.508-13.5,16.5-21,24s-17.754,11.25-30.75,11.25c-8.508,0-16.254-1.5-23.25-4.5
		c-7.008-3-13.875-6.246-20.625-9.75c-6.75-3.492-13.758-6.75-21-9.75c-7.254-3-15.375-4.5-24.375-4.5s-16.254,3.258-21.75,9.75
		c-5.508,6.504-9.75,13.5-12.75,21l-15-15c4.5-8.496,10.746-16.5,18.75-24c7.992-7.5,18.996-11.25,33-11.25
		c7.992,0,15.996,1.5,24,4.5c7.992,3,15.867,6.129,23.625,9.375c7.746,3.258,15.117,6.375,22.125,9.375c6.996,3,12.996,4.5,18,4.5
		c8.496,0,15.375-3.117,20.625-9.375c5.25-6.246,10.371-13.125,15.375-20.625L2891.23,567.278z"/>
	<path fill="#FF0000" d="M3312.73,413.528c0,12.504-3.879,26.133-11.625,40.875c-7.758,14.754-18.879,28.5-33.375,41.25
		c-14.508,12.75-32.133,23.25-52.875,31.5c-20.754,8.25-44.379,12.375-70.875,12.375c-12.504,0-23.508-1.746-33-5.25
		c-1.5-0.996-2.25-1.992-2.25-3c0-1.992,0.996-3,3-3c2.496,1.008,7.125,2.004,13.875,3c6.75,1.008,13.125,1.5,19.125,1.5
		c18.996,0,36.621-3.75,52.875-11.25c16.242-7.5,30.246-17.25,42-29.25c11.742-12,21-25.5,27.75-40.5s10.125-30,10.125-45
		c0-21-6.375-35.25-19.125-42.75s-28.125-11.25-46.125-11.25c-12.504,0-23.754,1.254-33.75,3.75c-6.504,2.004-11.508,6.258-15,12.75
		c-9.504,16.008-20.883,35.133-34.125,57.375c-13.254,22.254-26.625,45.258-40.125,69c-13.5,23.754-26.508,46.875-39,69.375
		c-12.504,22.5-23.004,42-31.5,58.5c-5.508,11.004-8.25,20.004-8.25,27c0,9.504,3.996,16.125,12,19.875
		c7.992,3.75,19.992,5.625,36,5.625c5.496,0,8.25,0.75,8.25,2.25s-1.254,2.508-3.75,3c-9,1.5-19.125,2.742-30.375,3.75
		c-11.25,0.996-22.383,1.5-33.375,1.5c-2.004,0-5.133-0.258-9.375-0.75c-4.254-0.504-8.379-1.383-12.375-2.625
		c-4.008-1.242-7.5-3-10.5-5.25s-4.5-5.367-4.5-9.375c0-3,1.242-7.5,3.75-13.5c6.996-15.492,16.242-33,27.75-52.5
		c11.496-19.5,22.5-37.992,33-55.5c12.492-21,25.992-44.367,40.5-70.125c14.496-25.746,27.246-48.867,38.25-69.375
		c0.996-1.5,2.496-4.371,4.5-8.625c1.992-4.242,3.996-8.625,6-13.125c1.992-4.5,3.75-8.742,5.25-12.75
		c1.5-3.996,2.25-6.75,2.25-8.25c0-1.992-1.254-3-3.75-3c-16.008,0.504-31.629,1.758-46.875,3.75c-15.258,2.004-30.879,3-46.875,3
		c-9.504,0-14.25-2.742-14.25-8.25c0-0.996,0.867-3.621,2.625-7.875c1.746-4.242,3.375-6.375,4.875-6.375
		c0.996,0,1.746,1.008,2.25,3c0.492,2.508,3.492,4.254,9,5.25c4.5,1.008,9.996,1.629,16.5,1.875
		c6.492,0.258,12.75,0.375,18.75,0.375c15,0,30.246-0.492,45.75-1.5c15.492-0.996,30.117-2.25,43.875-3.75
		c13.746-1.5,25.992-2.742,36.75-3.75c10.746-0.996,19.125-1.5,25.125-1.5c10.992,0,22.125,1.008,33.375,3
		c11.25,2.004,21.492,5.625,30.75,10.875c9.246,5.25,16.746,12.258,22.5,21C3309.848,389.657,3312.73,400.532,3312.73,413.528z"/>
	<path fill="#FF0000" d="M3410.23,529.778c-3,3.504-6.129,7.758-9.375,12.75c-3.258,5.004-5.379,8.754-6.375,11.25
		c-0.504,1.5-1.5,2.25-3,2.25c-0.504,0-1.254-0.75-2.25-2.25c-1.008-1.5-2.379-3.117-4.125-4.875
		c-1.758-1.746-4.125-3.375-7.125-4.875s-7.254-2.25-12.75-2.25c-6.504,0-13.758,2.25-21.75,6.75c-8.004,4.5-15,9.504-21,15
		c-9.504,8.004-17.883,16.758-25.125,26.25c-7.254,9.504-14.133,19.383-20.625,29.625c-6.504,10.254-12.75,20.754-18.75,31.5
		c-6,10.758-12.504,21.633-19.5,32.625c-0.504,1.5-2.004,2.25-4.5,2.25c-1.008,0-3.129-1.5-6.375-4.5
		c-3.258-3-4.875-5.25-4.875-6.75c0-3,1.746-7.5,5.25-13.5c7.992-13.992,16.125-28.125,24.375-42.375s15.996-27.621,23.25-40.125
		c7.242-12.492,13.617-23.367,19.125-32.625c5.496-9.246,9.246-16.125,11.25-20.625c2.496-4.5,4.242-6.75,5.25-6.75
		c0.996,0,3.492,1.254,7.5,3.75c3.996,2.508,6,6,6,10.5c0,1.5-0.879,4.008-2.625,7.5c-1.758,3.504-3.75,7.125-6,10.875
		s-4.383,7.383-6.375,10.875c-2.004,3.504-3.504,6-4.5,7.5c-1.5,2.508-1.758,3.75-0.75,3.75c0.996,0,2.25-0.75,3.75-2.25
		c4.992-4.992,11.121-10.5,18.375-16.5c7.242-6,14.871-11.625,22.875-16.875c7.992-5.25,15.867-9.621,23.625-13.125
		c7.746-3.492,14.625-5.25,20.625-5.25c4.5,0,8.367,1.125,11.625,3.375C3408.602,524.903,3410.23,527.282,3410.23,529.778z"/>
	<path fill="#FF0000" d="M3571.479,593.528c-8.508,10.5-18.633,21.375-30.375,32.625c-11.754,11.25-24.504,21.504-38.25,30.75
		c-13.758,9.258-28.008,16.758-42.75,22.5c-14.754,5.742-29.379,8.625-43.875,8.625c-23.508,0-35.25-10.5-35.25-31.5
		c0-13.992,3.621-29.121,10.875-45.375c7.242-16.242,16.617-31.242,28.125-45c11.496-13.746,24.117-25.242,37.875-34.5
		c13.746-9.246,26.871-13.875,39.375-13.875c6.996,0,11.871,1.254,14.625,3.75c2.742,2.508,4.125,5.754,4.125,9.75
		c0,6-1.875,12.504-5.625,19.5c-3.75,7.008-9.375,13.629-16.875,19.875c-7.5,6.258-17.004,11.508-28.5,15.75
		c-11.508,4.254-25.254,6.375-41.25,6.375c-2.508,4.5-5.25,11.625-8.25,21.375s-4.5,19.629-4.5,29.625
		c0,20.508,9.246,30.75,27.75,30.75c11.496,0,23.367-2.742,35.625-8.25c12.246-5.496,24.117-12.375,35.625-20.625
		c11.496-8.25,22.125-17.25,31.875-27s17.871-18.867,24.375-27.375c0.996-0.996,2.121-1.242,3.375-0.75
		C3570.846,591.032,3571.479,592.028,3571.479,593.528z M3492.729,535.028c0-6.492-3.258-9.75-9.75-9.75
		c-5.004,0-10.125,1.875-15.375,5.625s-10.383,8.625-15.375,14.625c-5.004,6-9.75,12.504-14.25,19.5
		c-4.5,7.008-8.25,13.758-11.25,20.25c0.996,0.504,2.742,0.879,5.25,1.125c2.496,0.258,4.5,0.375,6,0.375
		c14.496,0,27.246-5.121,38.25-15.375C3487.221,561.161,3492.729,549.032,3492.729,535.028z"/>
	<path fill="#FF0000" d="M3644.228,545.528c-1.5,2.508-2.754,2.754-3.75,0.75c-3-6.492-9.258-9.75-18.75-9.75
		c-7.008,0-14.004,2.004-21,6c-7.008,4.008-10.5,10.008-10.5,18c0,4.008,1.242,8.004,3.75,12c2.496,4.008,6,9.258,10.5,15.75
		c3.996,6,7.746,12,11.25,18c3.492,6,5.25,12.258,5.25,18.75c0,13.008-3,23.625-9,31.875s-13.125,14.883-21.375,19.875
		c-8.25,5.004-16.629,8.367-25.125,10.125c-8.508,1.746-15.258,2.625-20.25,2.625c-30.504,0-47.25-10.242-50.25-30.75
		c2.508-1.5,5.367-3.375,8.625-5.625c3.246-2.25,5.625-4.371,7.125-6.375c0.996,0,1.746,1.008,2.25,3
		c2.496,9,7.242,16.758,14.25,23.25c6.996,6.504,15.246,9.75,24.75,9.75c3.996,0,8.742-0.375,14.25-1.125
		c5.496-0.75,10.617-2.496,15.375-5.25c4.746-2.742,8.871-6.621,12.375-11.625c3.492-4.992,5.25-11.742,5.25-20.25
		c0-6.492-1.254-12.492-3.75-18c-2.508-5.496-5.25-10.5-8.25-15c-3-4.992-6-9.996-9-15c-3-4.992-4.5-10.5-4.5-16.5
		s2.121-12.492,6.375-19.5c4.242-6.996,9.621-13.371,16.125-19.125c6.492-5.742,13.617-10.617,21.375-14.625
		c7.746-3.996,15.375-6,22.875-6c7.992,0,12,2.508,12,7.5c-1.5,2.508-3,5.379-4.5,8.625
		C3646.478,540.161,3645.224,543.032,3644.228,545.528z"/>
	<path fill="#FF0000" d="M3859.476,593.528c-8.508,10.5-18.633,21.375-30.375,32.625c-11.754,11.25-24.504,21.504-38.25,30.75
		c-13.758,9.258-28.008,16.758-42.75,22.5c-14.754,5.742-29.379,8.625-43.875,8.625c-23.508,0-35.25-10.5-35.25-31.5
		c0-13.992,3.621-29.121,10.875-45.375c7.242-16.242,16.617-31.242,28.125-45c11.496-13.746,24.117-25.242,37.875-34.5
		c13.746-9.246,26.871-13.875,39.375-13.875c6.996,0,11.871,1.254,14.625,3.75c2.742,2.508,4.125,5.754,4.125,9.75
		c0,6-1.875,12.504-5.625,19.5c-3.75,7.008-9.375,13.629-16.875,19.875c-7.5,6.258-17.004,11.508-28.5,15.75
		c-11.508,4.254-25.254,6.375-41.25,6.375c-2.508,4.5-5.25,11.625-8.25,21.375s-4.5,19.629-4.5,29.625
		c0,20.508,9.246,30.75,27.75,30.75c11.496,0,23.367-2.742,35.625-8.25c12.246-5.496,24.117-12.375,35.625-20.625
		c11.496-8.25,22.125-17.25,31.875-27s17.871-18.867,24.375-27.375c0.996-0.996,2.121-1.242,3.375-0.75
		C3858.843,591.032,3859.476,592.028,3859.476,593.528z M3780.726,535.028c0-6.492-3.258-9.75-9.75-9.75
		c-5.004,0-10.125,1.875-15.375,5.625s-10.383,8.625-15.375,14.625c-5.004,6-9.75,12.504-14.25,19.5
		c-4.5,7.008-8.25,13.758-11.25,20.25c0.996,0.504,2.742,0.879,5.25,1.125c2.496,0.258,4.5,0.375,6,0.375
		c14.496,0,27.246-5.121,38.25-15.375C3775.218,561.161,3780.726,549.032,3780.726,535.028z"/>
	<path fill="#FF0000" d="M4059.725,586.028c-9,12.504-19.383,25.125-31.125,37.875c-11.754,12.75-24.258,24.129-37.5,34.125
		c-13.254,10.008-26.754,18.258-40.5,24.75c-13.758,6.492-27.129,9.75-40.125,9.75c-6,0-11.508-0.879-16.5-2.625
		c-5.004-1.758-7.5-6.129-7.5-13.125s2.496-15.867,7.5-26.625c4.992-10.746,10.875-22.125,17.625-34.125s13.746-24.246,21-36.75
		c7.242-12.492,13.125-24,17.625-34.5c0.996-2.496,1.125-4.617,0.375-6.375c-0.75-1.746-2.379-1.875-4.875-0.375
		c-5.508,3.504-12,8.25-19.5,14.25s-15.129,12.375-22.875,19.125c-7.758,6.75-15.258,13.629-22.5,20.625
		c-7.254,7.008-13.125,13.254-17.625,18.75c-8.004,12.504-14.883,24-20.625,34.5c-5.754,10.5-12.879,22.254-21.375,35.25
		c-2.004,3-3.504,4.5-4.5,4.5c-2.508,0-4.629-2.742-6.375-8.25c-1.758-5.496-2.625-9-2.625-10.5c0-4.5,3.117-10.617,9.375-18.375
		c6.246-7.746,13.125-16.371,20.625-25.875c7.992-15.996,16.242-32.871,24.75-50.625c8.496-17.742,15.75-33.621,21.75-47.625
		c1.5-2.496,3.75-3.75,6.75-3.75s5.742,1.254,8.25,3.75c2.496,2.508,3.75,5.25,3.75,8.25c0,2.004-3.633,8.883-10.875,20.625
		c-7.254,11.754-14.379,25.383-21.375,40.875c9.492-8.496,19.875-17.496,31.125-27c11.25-9.492,21.996-18.246,32.25-26.25
		c10.242-7.992,19.242-14.625,27-19.875c7.746-5.25,13.125-7.875,16.125-7.875c1.992,0,3.867,1.125,5.625,3.375
		c1.746,2.25,2.625,4.383,2.625,6.375c0,2.004-1.254,5.004-3.75,9c-5.508,8.004-12.258,18.258-20.25,30.75
		c-8.004,12.504-15.633,25.383-22.875,38.625c-7.254,13.254-13.383,25.875-18.375,37.875c-5.004,12-7.5,21.504-7.5,28.5
		c0,6,1.242,10.125,3.75,12.375c2.496,2.25,6.492,3.375,12,3.375c8.496,0,18.492-3.246,30-9.75
		c11.496-6.492,23.367-14.625,35.625-24.375c12.246-9.75,23.871-20.625,34.875-32.625c10.992-12,19.992-23.496,27-34.5
		c0.996-1.5,2.496-1.875,4.5-1.125C4062.467,581.153,4062.221,583.028,4059.725,586.028z"/>
	<path fill="#FF0000" d="M4194.724,409.028c-4.008,1.008-8.508,2.883-13.5,5.625c-5.004,2.754-8.754,6.129-11.25,10.125
		c-11.508,16.008-22.629,32.754-33.375,50.25c-10.758,17.508-21.129,35.004-31.125,52.5h93c1.5,1.008,2.25,2.004,2.25,3
		c0,1.008-0.504,1.758-1.5,2.25c-4.008,0-10.008,0.129-18,0.375c-8.004,0.258-16.758,0.633-26.25,1.125
		c-9.504,0.504-19.254,1.008-29.25,1.5c-10.008,0.504-18.75,1.008-26.25,1.5c-14.004,25.008-24.75,46.254-32.25,63.75
		c-7.5,17.508-11.25,32.754-11.25,45.75c0,18,8.25,27,24.75,27c7.992,0,17.121-2.121,27.375-6.375
		c10.242-4.242,21.117-9.867,32.625-16.875c1.5-1.5,3-1.371,4.5,0.375c1.5,1.758,0.996,3.129-1.5,4.125
		c-17.004,11.004-32.754,19.008-47.25,24c-14.508,4.992-29.25,7.5-44.25,7.5c-8.004,0-15-2.379-21-7.125s-9-12.867-9-24.375
		c0-9.996,4.5-24.75,13.5-44.25s22.242-43.5,39.75-72c-6,0.504-13.383,1.125-22.125,1.875c-8.754,0.75-13.875,1.125-15.375,1.125
		c-2.508,0-3.75-0.996-3.75-3c1.992-3.492,5.25-6.996,9.75-10.5l38.25-0.75c4.5-7.5,9.492-15.867,15-25.125
		c5.496-9.246,10.992-18.492,16.5-27.75c5.496-9.246,11.121-18.246,16.875-27c5.742-8.742,10.875-16.875,15.375-24.375
		c5.496-2.496,13.125-5.742,22.875-9.75c9.75-3.996,18.375-7.242,25.875-9.75c0.996,0,1.746,0.633,2.25,1.875
		C4197.466,406.907,4196.716,408.032,4194.724,409.028z"/>
</g>
</svg>