<?xml version="1.0" encoding="utf-8"?>
<svg xmlns="http://www.w3.org/2000/svg" viewBox="0 0 546.386 402.83199">
<g transform="translate(-534.305,-90.6)">
	<path fill="#F2F2F2" d="M680.35,268.432c-0.49,2.735-1.369,6.324-2.637,10.767c-1.271,4.445-3.076,9.155-5.42,14.136
		s-5.299,10.011-8.862,15.088c-3.566,5.079-7.862,9.645-12.891,13.696c-5.031,4.051-10.913,7.372-17.651,9.961
		c-6.738,2.586-14.406,3.882-22.998,3.882c-9.767,0-19.189-2.344-28.271-7.031s-17.139-11.426-24.17-20.215
		s-12.648-19.556-16.846-32.3c-4.2-12.744-6.299-27.173-6.299-43.286c0-11.426,1.025-22.606,3.076-33.545
		c2.051-10.936,5.003-21.24,8.862-30.908c3.856-9.668,8.544-18.578,14.062-26.733c5.516-8.153,11.792-15.161,18.823-21.021
		s14.745-10.423,23.145-13.696c8.397-3.271,17.333-4.907,26.807-4.907c7.127,0,13.524,1.076,19.189,3.223
		c5.663,2.149,10.474,5.079,14.429,8.789c3.955,3.712,6.981,8.082,9.082,13.11c2.099,5.031,3.149,10.426,3.149,16.187
		c0,3.809-0.563,7.544-1.685,11.206c-1.124,3.662-2.467,7.082-4.028,10.254c-1.563,3.175-3.2,6.056-4.907,8.643
		c-1.71,2.589-3.149,4.665-4.321,6.226l-1.758-1.465c1.172-1.561,2.271-3.392,3.296-5.493c1.025-2.099,1.927-4.369,2.71-6.812
		c0.78-2.44,1.415-5.003,1.904-7.69c0.487-2.685,0.732-5.443,0.732-8.276c0-5.175-0.904-10.057-2.71-14.648
		c-1.808-4.589-4.42-8.617-7.837-12.085c-3.419-3.465-7.594-6.226-12.524-8.276c-4.933-2.051-10.524-3.076-16.772-3.076
		c-9.375,0-17.995,1.392-25.854,4.175c-7.862,2.783-14.918,6.69-21.167,11.719c-6.251,5.031-11.744,11.037-16.479,18.018
		c-4.738,6.983-8.668,14.674-11.792,23.071c-3.126,8.4-5.47,17.335-7.031,26.807c-1.563,9.474-2.344,19.24-2.344,29.297
		c0,7.91,0.659,15.894,1.978,23.95s3.296,15.846,5.933,23.364c2.637,7.521,5.933,14.575,9.888,21.167s8.544,12.33,13.77,17.212
		c5.223,4.884,11.133,8.741,17.725,11.572s13.792,4.248,21.606,4.248c10.35,0,19.237-1.831,26.66-5.493
		c7.42-3.662,13.671-8.35,18.75-14.062c5.077-5.713,9.105-12.035,12.085-18.97c2.978-6.933,5.2-13.719,6.665-20.361L680.35,268.432z
		"/>
	<path fill="#F2F2F2" d="M710.965,321.02c-6.445,0-11.719-2.124-15.82-6.372s-6.152-10.423-6.152-18.53
		c0-5.468,1.025-10.521,3.076-15.161c2.051-4.637,4.71-8.643,7.983-12.012c3.271-3.369,6.908-5.98,10.913-7.837
		c4.003-1.854,7.91-2.783,11.719-2.783c6.152,0,11.083,2.101,14.795,6.299c3.71,4.2,5.566,10.4,5.566,18.604
		c0,5.47-0.952,10.499-2.856,15.088c-1.904,4.591-4.395,8.569-7.471,11.938s-6.519,6.006-10.327,7.91S714.773,321.02,710.965,321.02
		z M716.092,313.549c2.344,0,4.637-0.513,6.885-1.538c2.245-1.025,4.248-2.538,6.006-4.541c1.758-2,3.149-4.468,4.175-7.397
		s1.538-6.347,1.538-10.254c0-3.223-0.392-6.273-1.172-9.155c-0.783-2.879-1.93-5.395-3.442-7.544
		c-1.515-2.147-3.468-3.856-5.859-5.127c-2.394-1.268-5.2-1.904-8.423-1.904c-2.248,0-4.493,0.417-6.738,1.245
		c-2.248,0.831-4.248,2.149-6.006,3.955c-1.758,1.808-3.175,4.102-4.248,6.885c-1.076,2.783-1.611,6.129-1.611,10.034
		c0,3.126,0.389,6.178,1.172,9.155c0.78,2.98,1.927,5.69,3.442,8.13c1.513,2.442,3.465,4.395,5.859,5.859
		C710.061,312.817,712.869,313.549,716.092,313.549z"/>
	<path fill="#F2F2F2" d="M764.725,257.446c0.487,0,0.879,0.392,1.172,1.172c0.293,0.783,0.513,1.71,0.659,2.783
		c0.146,1.076,0.22,2.223,0.22,3.442c0,1.222,0,2.321,0,3.296c0,2.541-0.073,5.152-0.22,7.837c-0.146,2.687-0.293,5.273-0.439,7.764
		s-0.27,4.786-0.366,6.885c-0.099,2.101-0.146,3.834-0.146,5.2c0,2.541,0.096,4.566,0.293,6.079
		c0.194,1.515,0.682,2.271,1.465,2.271c0.487,0,1.122-0.634,1.904-1.904c0.78-1.268,1.634-2.806,2.563-4.614
		c0.927-1.806,1.831-3.735,2.71-5.786s1.708-3.856,2.49-5.42c0.975-2.051,2.074-4.321,3.296-6.812
		c1.22-2.49,2.513-4.834,3.882-7.031c1.366-2.197,2.806-4.028,4.321-5.493c1.513-1.465,3.099-2.197,4.761-2.197
		c1.073,0,2.025,0.293,2.856,0.879c0.829,0.586,1.538,1.344,2.124,2.271c0.586,0.929,1.048,1.904,1.392,2.93
		c0.341,1.025,0.609,1.978,0.806,2.856c0.293,2.248,0.609,5.786,0.952,10.62c0.341,4.834,0.806,9.986,1.392,15.454
		c0.487,5.47,1.806,9.448,3.955,11.938c2.147,2.49,4.93,3.735,8.35,3.735c1.366,0,2.465-0.096,3.296-0.293
		c0.829-0.194,1.538-0.293,2.124-0.293c0.487,0,0.586,0.49,0.293,1.465c-0.099,0.197-0.318,0.465-0.659,0.806
		c-0.343,0.343-0.904,0.709-1.685,1.099c-0.783,0.392-1.831,0.732-3.149,1.025s-2.907,0.439-4.761,0.439
		c-3.126,0-5.713-0.513-7.764-1.538s-3.712-2.66-4.98-4.907c-1.271-2.245-2.197-5.15-2.783-8.716
		c-0.586-3.563-0.978-7.837-1.172-12.817c-0.197-2.344-0.366-4.614-0.513-6.812s-0.392-4.149-0.732-5.859
		c-0.343-1.708-0.806-3.076-1.392-4.102s-1.417-1.538-2.49-1.538c-0.879,0-1.93,0.879-3.149,2.637
		c-1.222,1.758-2.417,3.834-3.589,6.226c-1.172,2.394-2.271,4.859-3.296,7.397c-1.025,2.541-1.881,4.541-2.563,6.006
		c-2.149,4.591-3.932,8.35-5.347,11.279c-1.417,2.93-2.955,5.763-4.614,8.496c-0.49,0.783-1.002,1.417-1.538,1.904
		c-0.538,0.49-1.197,0.732-1.978,0.732c-1.172,0-2.101-0.975-2.783-2.93c-0.685-1.952-1.197-4.198-1.538-6.738
		c-0.343-2.538-0.563-5.102-0.659-7.69c-0.099-2.586-0.146-4.564-0.146-5.933c0-1.561,0.023-3.465,0.073-5.713
		c0.048-2.245,0.121-4.442,0.22-6.592c0.096-2.147,0.169-4.102,0.22-5.859c0.048-1.758,0.073-2.93,0.073-3.516
		s-0.025-1.392-0.073-2.417c-0.05-1.025-0.073-2.051-0.073-3.076s-0.025-1.952-0.073-2.783c-0.05-0.829-0.073-1.392-0.073-1.685
		c0-0.78,0.22-1.439,0.659-1.978c0.439-0.536,0.902-0.952,1.392-1.245c0.487-0.293,1.268-0.806,2.344-1.538
		C763.308,257.812,764.139,257.446,764.725,257.446z"/>
	<path fill="#F2F2F2" d="M875.76,290.991c-0.685,1.955-1.758,4.591-3.223,7.91c-1.465,3.321-3.442,6.569-5.933,9.741
		c-2.49,3.175-5.519,5.885-9.082,8.13c-3.566,2.248-7.69,3.273-12.378,3.076c-4.2-0.293-7.716-1.513-10.547-3.662
		c-2.833-2.147-5.127-5.443-6.885-9.888c-1.758-4.442-3.028-10.057-3.809-16.846c-0.783-6.786-1.172-14.964-1.172-24.536
		c0-9.178,0.243-17.455,0.732-24.829c0.487-7.372,1.122-13.891,1.904-19.556c-4.493,0.197-8.423,0.293-11.792,0.293
		s-5.736,0-7.104,0c-2.831,0-5.64-0.194-8.423-0.586c-2.783-0.389-5.395-1.073-7.837-2.051c-2.44-0.975-4.688-2.271-6.738-3.882
		s-3.758-3.637-5.127-6.079l0.586-1.318c0.099,0.197,0.563,0.659,1.392,1.392c0.831,0.732,2.321,1.49,4.468,2.271
		c2.149,0.783,5.079,1.49,8.789,2.124c3.712,0.636,8.496,0.952,14.355,0.952h18.311c1.561-8.789,3.149-15.355,4.761-19.702
		c1.611-4.344,2.71-7.104,3.296-8.276c0.78-1.659,1.927-3.076,3.442-4.248c1.513-1.172,2.806-1.758,3.882-1.758
		c2.051,0,3.71,1.955,4.98,5.859c1.268,3.907,1.904,9.961,1.904,18.164c0,1.465-0.05,3.003-0.146,4.614
		c-0.099,1.611-0.146,3.248-0.146,4.907c4.688-0.096,9.155-0.194,13.403-0.293c4.248-0.096,8.057-0.194,11.426-0.293
		c3.369-0.096,6.2-0.194,8.496-0.293c2.293-0.096,3.783-0.194,4.468-0.293c0.487,0,1.318-0.048,2.49-0.146
		c1.172-0.096,1.952-0.146,2.344-0.146c1.561,0,2.344,0.49,2.344,1.465c0,1.369-0.417,2.614-1.245,3.735
		c-0.831,1.124-2.516,1.783-5.054,1.978c-0.49,0.099-1.93,0.172-4.321,0.22c-2.394,0.05-5.397,0.124-9.009,0.22
		c-3.614,0.099-7.667,0.22-12.158,0.366c-4.493,0.146-9.082,0.318-13.77,0.513c-0.978,8.302-2.735,17.358-5.273,27.173
		c-2.541,9.814-6.104,20.338-10.693,31.567c0.389,6.445,0.952,11.817,1.685,16.113c0.732,4.298,1.732,7.741,3.003,10.327
		c1.268,2.589,2.856,4.42,4.761,5.493c1.904,1.076,4.175,1.611,6.812,1.611c2.831,0,5.468-0.536,7.91-1.611
		c2.44-1.073,4.662-2.417,6.665-4.028c2-1.611,3.758-3.369,5.273-5.273c1.513-1.904,2.783-3.685,3.809-5.347
		c1.025-1.659,1.806-3.026,2.344-4.102c0.536-1.073,0.854-1.659,0.952-1.758L875.76,290.991z M841.922,220.239
		c-1.662,0-3.273,0.05-4.834,0.146c-1.563,0.099-3.175,0.146-4.834,0.146c-0.293,5.566-0.513,11.279-0.659,17.139
		s-0.22,11.426-0.22,16.699v16.553c2.831-8.885,5.15-17.528,6.958-25.928C840.139,236.597,841.336,228.346,841.922,220.239z
		 M832.84,213.647c1.561,0,3.149-0.073,4.761-0.22s3.246-0.22,4.907-0.22v-4.98c0-4.882-0.146-8.789-0.439-11.719
		s-0.611-5.2-0.952-6.812c-0.343-1.611-0.732-2.685-1.172-3.223c-0.439-0.536-0.806-0.806-1.099-0.806
		c-0.783,0-1.465,0.732-2.051,2.197s-1.124,3.442-1.611,5.933c-0.49,2.49-0.929,5.445-1.318,8.862
		C833.474,206.08,833.133,209.742,832.84,213.647z"/>
	<path fill="#F2F2F2" d="M921.463,272.094c-0.879,0-1.685-0.513-2.417-1.538s-1.685-2.124-2.856-3.296s-2.662-2.271-4.468-3.296
		c-1.808-1.025-4.175-1.538-7.104-1.538c-4.102,0-7.91,1.051-11.426,3.149c-3.516,2.101-6.544,4.738-9.082,7.91
		c-2.541,3.175-4.518,6.642-5.933,10.4c-1.417,3.761-2.124,7.301-2.124,10.62c0,5.177,1.318,9.425,3.955,12.744
		c2.637,3.321,6.152,4.98,10.547,4.98c3.417,0,6.42-0.659,9.009-1.978c2.586-1.318,4.761-3.051,6.519-5.2
		c-0.586-2.637-0.879-5.907-0.879-9.814c0-4.198,0.316-7.617,0.952-10.254c0.634-2.637,1.415-4.688,2.344-6.152
		c0.927-1.465,1.879-2.465,2.856-3.003c0.975-0.536,1.806-0.806,2.49-0.806c0.78,0,1.685,0.538,2.71,1.611
		c1.025,1.076,1.538,2.98,1.538,5.713c0,3.419-0.611,7.008-1.831,10.767c-1.222,3.761-2.907,7.35-5.054,10.767
		c1.172,3.028,2.978,5.226,5.42,6.592c2.44,1.369,5.223,2.051,8.35,2.051c2.733,0,5.296-0.609,7.69-1.831
		c2.392-1.22,4.637-2.856,6.738-4.907c2.099-2.051,4.076-4.417,5.933-7.104c1.854-2.685,3.563-5.443,5.127-8.276l0.879,0.586
		c-1.172,3.712-2.735,7.324-4.688,10.84c-1.955,3.516-4.2,6.642-6.738,9.375c-2.541,2.735-5.299,4.907-8.276,6.519
		c-2.98,1.611-6.079,2.417-9.302,2.417c-2.442,0-5.104-0.806-7.983-2.417c-2.882-1.611-5.25-4.516-7.104-8.716
		c-3.028,3.614-6.496,6.617-10.4,9.009c-3.907,2.394-8.107,3.589-12.598,3.589c-2.541,0-4.834-0.586-6.885-1.758
		s-3.786-2.733-5.2-4.688c-1.417-1.952-2.516-4.248-3.296-6.885c-0.783-2.637-1.172-5.42-1.172-8.35
		c0-4.98,1.099-9.961,3.296-14.941s5.127-9.471,8.789-13.477c3.662-4.003,7.86-7.251,12.598-9.741
		c4.735-2.49,9.691-3.735,14.868-3.735c3.809,0,7.006,0.417,9.595,1.245c2.586,0.831,4.662,1.808,6.226,2.93
		c1.561,1.124,2.685,2.271,3.369,3.442c0.682,1.172,1.025,2.101,1.025,2.783c0,1.369-0.709,2.321-2.124,2.856
		C923.928,271.827,922.635,272.094,921.463,272.094z M909.158,291.577c0,3.223,0.293,6.006,0.879,8.35
		c1.465-2.733,2.538-5.541,3.223-8.423c0.682-2.879,1.025-5.347,1.025-7.397c0-2.44-0.439-3.662-1.318-3.662
		s-1.735,1.076-2.563,3.223C909.572,285.816,909.158,288.453,909.158,291.577z"/>
	<path fill="#F2F2F2" d="M981.375,257.006c1.465,0,2.978,0.197,4.541,0.586c1.561,0.392,2.978,0.952,4.248,1.685
		c1.268,0.732,2.318,1.637,3.149,2.71c0.829,1.076,1.245,2.344,1.245,3.809c0,3.126-0.952,5.859-2.856,8.203
		s-3.98,4.347-6.226,6.006c-2.637,1.856-5.617,3.516-8.936,4.98l-0.879-1.465c1.758-0.975,3.319-2.099,4.688-3.369
		c1.172-1.073,2.245-2.417,3.223-4.028c0.975-1.611,1.465-3.442,1.465-5.493c0-1.952-0.879-3.758-2.637-5.42
		c-1.758-1.659-4.2-2.49-7.324-2.49c-3.126,0-5.933,0.806-8.423,2.417s-4.614,3.712-6.372,6.299
		c-1.758,2.589-3.126,5.519-4.102,8.789c-0.978,3.273-1.465,6.569-1.465,9.888c0,2.833,0.414,5.543,1.245,8.13
		c0.829,2.589,2.074,4.859,3.735,6.812c1.659,1.955,3.809,3.493,6.445,4.614c2.637,1.124,5.809,1.685,9.521,1.685
		c3.612,0,6.786-0.462,9.521-1.392c2.733-0.927,5.028-1.927,6.885-3.003c2.147-1.268,4.003-2.783,5.566-4.541l1.172,0.879
		c-1.955,3.126-4.298,5.91-7.031,8.35c-2.442,2.051-5.47,3.932-9.082,5.64c-3.614,1.71-7.96,2.563-13.037,2.563
		c-2.735,0-5.543-0.462-8.423-1.392c-2.882-0.927-5.493-2.344-7.837-4.248s-4.273-4.344-5.786-7.324
		c-1.515-2.978-2.271-6.468-2.271-10.474c0-5.175,0.902-10.155,2.71-14.941c1.806-4.784,4.321-8.983,7.544-12.598
		c3.223-3.612,7.031-6.493,11.426-8.643C971.414,258.082,976.198,257.006,981.375,257.006z"/>
	<path fill="#F2F2F2" d="M1063.26,290.991c-0.685,1.955-1.758,4.591-3.223,7.91c-1.465,3.321-3.442,6.569-5.933,9.741
		c-2.49,3.175-5.519,5.885-9.082,8.13c-3.566,2.248-7.69,3.273-12.378,3.076c-4.2-0.293-7.716-1.513-10.547-3.662
		c-2.833-2.147-5.127-5.443-6.885-9.888c-1.758-4.442-3.028-10.057-3.809-16.846c-0.783-6.786-1.172-14.964-1.172-24.536
		c0-9.178,0.243-17.455,0.732-24.829c0.487-7.372,1.122-13.891,1.904-19.556c-4.493,0.197-8.423,0.293-11.792,0.293
		s-5.736,0-7.104,0c-2.831,0-5.64-0.194-8.423-0.586c-2.783-0.389-5.395-1.073-7.837-2.051c-2.44-0.975-4.688-2.271-6.738-3.882
		s-3.758-3.637-5.127-6.079l0.586-1.318c0.099,0.197,0.563,0.659,1.392,1.392c0.831,0.732,2.321,1.49,4.468,2.271
		c2.149,0.783,5.079,1.49,8.789,2.124c3.712,0.636,8.496,0.952,14.355,0.952h18.311c1.561-8.789,3.149-15.355,4.761-19.702
		c1.611-4.344,2.71-7.104,3.296-8.276c0.78-1.659,1.927-3.076,3.442-4.248c1.513-1.172,2.806-1.758,3.882-1.758
		c2.051,0,3.71,1.955,4.98,5.859c1.268,3.907,1.904,9.961,1.904,18.164c0,1.465-0.05,3.003-0.146,4.614
		c-0.099,1.611-0.146,3.248-0.146,4.907c4.688-0.096,9.155-0.194,13.403-0.293c4.248-0.096,8.057-0.194,11.426-0.293
		c3.369-0.096,6.2-0.194,8.496-0.293c2.293-0.096,3.783-0.194,4.468-0.293c0.487,0,1.318-0.048,2.49-0.146
		c1.172-0.096,1.952-0.146,2.344-0.146c1.561,0,2.344,0.49,2.344,1.465c0,1.369-0.417,2.614-1.245,3.735
		c-0.831,1.124-2.516,1.783-5.054,1.978c-0.49,0.099-1.93,0.172-4.321,0.22c-2.394,0.05-5.397,0.124-9.009,0.22
		c-3.614,0.099-7.667,0.22-12.158,0.366c-4.493,0.146-9.082,0.318-13.77,0.513c-0.978,8.302-2.735,17.358-5.273,27.173
		c-2.541,9.814-6.104,20.338-10.693,31.567c0.389,6.445,0.952,11.817,1.685,16.113c0.732,4.298,1.732,7.741,3.003,10.327
		c1.268,2.589,2.856,4.42,4.761,5.493c1.904,1.076,4.175,1.611,6.812,1.611c2.831,0,5.468-0.536,7.91-1.611
		c2.44-1.073,4.662-2.417,6.665-4.028c2-1.611,3.758-3.369,5.273-5.273c1.513-1.904,2.783-3.685,3.809-5.347
		c1.025-1.659,1.806-3.026,2.344-4.102c0.536-1.073,0.854-1.659,0.952-1.758L1063.26,290.991z M1029.422,220.239
		c-1.662,0-3.273,0.05-4.834,0.146c-1.563,0.099-3.175,0.146-4.834,0.146c-0.293,5.566-0.513,11.279-0.659,17.139
		s-0.22,11.426-0.22,16.699v16.553c2.831-8.885,5.15-17.528,6.958-25.928C1027.639,236.597,1028.836,228.346,1029.422,220.239z
		 M1020.34,213.647c1.561,0,3.149-0.073,4.761-0.22s3.246-0.22,4.907-0.22v-4.98c0-4.882-0.146-8.789-0.439-11.719
		s-0.611-5.2-0.952-6.812c-0.343-1.611-0.732-2.685-1.172-3.223c-0.439-0.536-0.806-0.806-1.099-0.806
		c-0.783,0-1.465,0.732-2.051,2.197s-1.124,3.442-1.611,5.933c-0.49,2.49-0.929,5.445-1.318,8.862
		C1020.974,206.08,1020.633,209.742,1020.34,213.647z"/>
</g>
</svg>
