<?xml version="1.0" encoding="utf-8"?>
<svg xmlns="http://www.w3.org/2000/svg" viewBox="0 0 289.60002 289.60001">
<g transform="translate(-537.2,-515.578)">
	<path fill="#FF0000" d="M537.2,660.378c0-20,3.8-38.8,11.4-56.4c7.6-17.6,17.931-32.932,31-46c13.062-13.062,28.4-23.4,46-31
		c17.6-7.6,36.4-11.4,56.4-11.4s38.8,3.8,56.4,11.4c17.6,7.6,32.931,17.938,46,31c13.062,13.068,23.4,28.4,31,46
		c7.6,17.6,11.4,36.4,11.4,56.4s-3.8,38.8-11.4,56.4s-17.938,32.938-31,46c-13.069,13.069-28.4,23.4-46,31s-36.4,11.4-56.4,11.4
		s-38.8-3.8-56.4-11.4s-32.938-17.931-46-31c-13.069-13.062-23.4-28.4-31-46S537.2,680.378,537.2,660.378z M798,660.378
		c0-16.263-3.069-31.6-9.2-46c-6.137-14.4-14.4-26.931-24.8-37.6c-10.4-10.663-22.669-19.131-36.8-25.4
		c-14.138-6.263-29.2-9.4-45.2-9.4s-31.069,3.137-45.2,9.4c-14.137,6.269-26.4,14.737-36.8,25.4c-10.4,10.669-18.669,23.2-24.8,37.6
		c-6.138,14.4-9.2,29.737-9.2,46c0,16.269,3.062,31.6,9.2,46c6.131,14.4,14.4,26.938,24.8,37.6c10.4,10.668,22.663,19.137,36.8,25.4
		c14.131,6.269,29.2,9.4,45.2,9.4s31.062-3.131,45.2-9.4c14.131-6.263,26.4-14.731,36.8-25.4c10.4-10.663,18.663-23.2,24.8-37.6
		C794.931,691.978,798,676.646,798,660.378z M758,687.978c-3.737,18.938-12,34-24.8,45.2c-13.069,11.469-28.4,17.2-46,17.2
		c-13.069,0-24.869-2.332-35.4-7c-10.537-4.663-19.537-11.131-27-19.4c-7.469-8-13.2-17.4-17.2-28.2s-6-22.6-6-35.4
		c0-13.062,1.931-25.131,5.8-36.2c3.863-11.062,9.4-20.6,16.6-28.6s15.931-14.262,26.2-18.8c10.262-4.531,22.2-6.8,35.8-6.8
		c18.4,0,34.263,5.2,47.6,15.6c13.331,10.4,21.462,25.338,24.4,44.8h-26.4c-1.869-9.6-7.069-17.731-15.6-24.4
		c-8.538-6.4-18.4-9.6-29.6-9.6c-8.8,0-16.668,1.668-23.6,5c-6.938,3.337-12.8,7.8-17.6,13.4c-9.869,12-14.8,26.938-14.8,44.8
		c0,17.069,5.2,31.869,15.6,44.4c4.8,6.137,10.731,11,17.8,14.6c7.062,3.6,14.863,5.4,23.4,5.4c11.462,0,21.262-3.463,29.4-10.4
		c8.131-6.931,13.131-15.462,15-25.6H758z"/>
</g>
</svg>