<?xml version="1.0" encoding="utf-8"?>
<svg xmlns="http://www.w3.org/2000/svg" viewBox="0 0 846.97104 407.51902">
<g transform="translate(-513.506,-282.581)">
	<path fill="#FFFFFF" d="M604.471,471.108c-6.152,5.273-11.842,11.451-17.065,18.53c-5.226,7.082-9.693,15.211-13.403,24.39
		c-3.712,9.181-6.617,19.386-8.716,30.615c-2.101,11.231-3.149,23.584-3.149,37.061c0,10.547,0.975,20.387,2.93,29.517
		c1.952,9.132,5.15,17.042,9.595,23.73c4.442,6.69,10.277,11.938,17.505,15.747c7.226,3.809,16.063,5.713,26.514,5.713
		c5.175,0,11.353-0.854,18.53-2.563c7.178-1.708,14.891-4.102,23.145-7.178c8.251-3.076,16.82-6.761,25.708-11.06
		c8.885-4.296,17.578-9.032,26.074-14.209c8.496-5.175,16.626-10.767,24.39-16.772s14.648-12.231,20.654-18.677
		s10.888-13.037,14.648-19.775c3.758-6.738,5.933-13.477,6.519-20.215c-4.786-2.344-9.693-4.051-14.722-5.127
		c-5.031-1.073-10.474-1.611-16.333-1.611c-5.665,0-11.451,0.538-17.358,1.611c-5.91,1.076-11.817,2.442-17.725,4.102
		c-5.91,1.662-11.792,3.468-17.651,5.42c-5.859,1.955-11.572,3.834-17.139,5.64c-5.566,1.808-10.963,3.395-16.187,4.761
		c-5.226,1.369-10.181,2.296-14.868,2.783c1.073-4.296,3.71-8.519,7.91-12.671c4.198-4.149,9.423-8.08,15.674-11.792
		c6.249-3.71,13.231-7.104,20.947-10.181c7.713-3.076,15.674-5.761,23.877-8.057c8.203-2.293,16.381-4.076,24.536-5.347
		c8.153-1.268,15.747-1.904,22.778-1.904c4.395,0,8.812,0.538,13.257,1.611c4.442,1.076,8.446,2.809,12.012,5.2
		c3.563,2.394,6.445,5.519,8.643,9.375c2.197,3.859,3.296,8.569,3.296,14.136c0,5.47-1.172,11.183-3.516,17.139
		c-2.344,5.958-5.299,11.842-8.862,17.651c-3.566,5.812-7.496,11.353-11.792,16.626c-4.298,5.273-8.375,10.034-12.231,14.282
		c-3.859,4.248-7.228,7.764-10.107,10.547c-2.882,2.783-4.713,4.566-5.493,5.347c-4.005,4.005-8.913,8.203-14.722,12.598
		c-5.812,4.395-12.282,8.716-19.409,12.964c-7.13,4.248-14.795,8.276-22.998,12.085s-16.699,7.155-25.488,10.034
		c-8.789,2.882-17.75,5.177-26.88,6.885c-9.132,1.71-18.189,2.563-27.173,2.563c-16.699,0-30.908-2.392-42.627-7.178
		c-11.719-4.784-21.266-11.229-28.638-19.336c-7.375-8.104-12.744-17.578-16.113-28.418s-5.054-22.362-5.054-34.57
		c0-9.375,0.856-18.871,2.563-28.491c1.708-9.618,4.175-19.043,7.397-28.271s7.127-18.114,11.719-26.66
		c4.589-8.544,9.764-16.479,15.527-23.804c-1.563-1.366-3.589-2.293-6.079-2.783c-2.49-0.487-5.152-0.78-7.983-0.879
		c-2.833-0.096-5.738-0.169-8.716-0.22c-2.98-0.048-5.738-0.268-8.276-0.659c-2.538-0.389-4.784-1.099-6.738-2.124
		c-1.952-1.025-3.319-2.611-4.102-4.761c0.685-3.319,1.71-6.029,3.076-8.13c1.369-2.099,3.003-3.758,4.907-4.98
		c1.904-1.22,4.051-2.051,6.445-2.49c2.392-0.439,5.054-0.659,7.983-0.659c4.003,0,8.031,0.245,12.085,0.732
		c4.051,0.49,8.276,0.732,12.671,0.732c7.617,0,14.136-1.22,19.556-3.662c5.42-2.44,10.423-5.663,15.015-9.668
		c4.589-4.003,9.105-8.643,13.55-13.916c4.442-5.273,9.496-10.79,15.161-16.553c7.324-7.617,15.527-15.184,24.609-22.705
		c9.082-7.519,18.7-14.941,28.857-22.266c10.155-7.324,20.629-14.477,31.421-21.46c10.79-6.981,21.533-13.719,32.227-20.215
		c10.693-6.493,21.142-12.719,31.348-18.677c10.204-5.956,19.798-11.522,28.784-16.699c3.223,1.369,6.834,2.637,10.84,3.809
		c4.003,1.172,8.057,2.417,12.158,3.735s8.08,2.783,11.938,4.395c3.856,1.611,7.299,3.516,10.327,5.713
		c3.026,2.197,5.443,4.761,7.251,7.69c1.806,2.93,2.71,6.445,2.71,10.547c0,8.107-2.296,16.09-6.885,23.95
		c-4.591,7.862-10.913,15.504-18.97,22.925c-8.057,7.423-17.578,14.601-28.564,21.533c-10.986,6.935-22.852,13.527-35.596,19.775
		c-12.744,6.251-26.1,12.11-40.063,17.578c-13.966,5.47-27.979,10.451-42.041,14.941c-14.062,4.493-27.882,8.496-41.455,12.012
		C629.274,465.981,616.482,468.863,604.471,471.108z M786.404,332.973c-15.04,6.935-30.373,14.552-45.996,22.852
		c-15.626,8.302-30.714,17.285-45.264,26.953c-14.552,9.668-28.125,19.972-40.723,30.908c-12.598,10.938-23.341,22.462-32.227,34.57
		c14.355-2.93,28.173-5.98,41.455-9.155c13.28-3.172,25.976-6.786,38.086-10.84c12.108-4.051,23.534-8.666,34.277-13.843
		c10.741-5.175,20.702-11.254,29.883-18.237c9.178-6.981,17.528-14.989,25.049-24.023c7.519-9.032,14.11-19.409,19.775-31.128
		c-0.879-1.659-2.003-3.099-3.369-4.321c-1.369-1.22-2.856-2.245-4.468-3.076c-1.611-0.829-3.273-1.439-4.98-1.831
		c-1.71-0.389-3.346-0.586-4.907-0.586c-0.783,0-1.588,0.099-2.417,0.293c-0.831,0.197-1.538,0.392-2.124,0.586
		C787.672,332.387,786.99,332.68,786.404,332.973z"/>
	<path fill="#FFFFFF" d="M1355.643,339.565c1.659,2.442,2.879,5.493,3.662,9.155c0.78,3.662,1.172,7.104,1.172,10.327
		c0,3.614-0.709,6.738-2.124,9.375c-1.417,2.637-3.346,4.958-5.786,6.958c-2.442,2.003-5.299,3.662-8.569,4.98
		c-3.273,1.318-6.715,2.417-10.327,3.296c-3.614,0.879-7.324,1.563-11.133,2.051c-3.809,0.49-7.471,0.831-10.986,1.025
		c-1.662-1.561-2.783-3.662-3.369-6.299s-1.076-5.37-1.465-8.203c-0.392-2.831-0.904-5.566-1.538-8.203
		c-0.636-2.637-1.783-4.784-3.442-6.445c-10.547,1.369-20.753,3.907-30.615,7.617c-9.865,3.712-19.24,8.203-28.125,13.477
		c-8.888,5.273-17.262,11.06-25.122,17.358c-7.862,6.299-15.161,12.648-21.899,19.043c-6.738,6.397-12.843,12.671-18.311,18.823
		c-5.47,6.152-10.254,11.671-14.355,16.553c-6.544,8.203-13.454,18.214-20.728,30.029c-7.276,11.817-14.674,24.66-22.192,38.525
		c-7.521,13.868-15.088,28.345-22.705,43.433s-15.088,29.956-22.412,44.604c-2.149,4.102-3.809,8.839-4.98,14.209
		c-1.172,5.372-2.197,10.938-3.076,16.699c-0.879,5.763-1.881,11.524-3.003,17.285c-1.124,5.763-2.783,11.037-4.98,15.82
		c-2.197,4.786-5.127,8.888-8.789,12.305s-8.473,5.663-14.429,6.738c-1.662-4.884-3.442-9.691-5.347-14.429
		c-1.904-4.735-3.662-9.496-5.273-14.282c-1.611-4.784-2.955-9.668-4.028-14.648c-1.076-4.98-1.611-10.107-1.611-15.381
		c0-7.617,0.879-14.257,2.637-19.922c1.758-5.663,3.978-10.863,6.665-15.601c2.685-4.735,5.566-9.302,8.643-13.696
		s5.956-9.057,8.643-13.989c2.685-4.93,4.907-10.423,6.665-16.479c1.758-6.054,2.637-13.184,2.637-21.387
		c0-7.713-0.417-15.502-1.245-23.364c-0.831-7.86-1.758-15.674-2.783-23.438s-1.955-15.381-2.783-22.852
		c-0.831-7.471-1.245-14.671-1.245-21.606c0.389-3.223,0.854-6.372,1.392-9.448c0.536-3.076,1.048-6.079,1.538-9.009
		c0.487-2.93,0.902-5.834,1.245-8.716c0.341-2.879,0.513-5.786,0.513-8.716v-6.592c-10.646,2.248-21.485,4.273-32.52,6.079
		c-11.037,1.808-22.046,3.589-33.032,5.347s-21.826,3.662-32.52,5.713s-20.998,4.468-30.908,7.251
		c-9.913,2.783-19.336,6.079-28.271,9.888s-17.116,8.4-24.536,13.77c-7.423,5.372-13.989,11.598-19.702,18.677
		c-5.713,7.082-10.279,15.308-13.696,24.683c0.78,4.493,1.978,8.276,3.589,11.353s3.539,5.592,5.786,7.544
		c2.245,1.955,4.784,3.369,7.617,4.248c2.831,0.879,5.907,1.318,9.229,1.318c5.663,0,11.792-1.245,18.384-3.735
		s13.207-5.834,19.849-10.034c6.64-4.198,13.11-9.009,19.409-14.429s12.012-11.009,17.139-16.772
		c5.127-5.761,9.448-11.547,12.964-17.358c3.516-5.809,5.809-11.156,6.885-16.04v9.814c0,8.986-1.49,16.992-4.468,24.023
		c-2.98,7.031-6.983,13.282-12.012,18.75c-5.031,5.47-10.89,10.327-17.578,14.575c-6.69,4.248-13.795,8.057-21.313,11.426
		c-7.521,3.369-15.211,6.471-23.071,9.302c-7.862,2.833-15.454,5.617-22.778,8.35c-4.493-1.659-8.789-3.149-12.891-4.468
		s-7.741-3.099-10.913-5.347c-3.175-2.245-5.713-5.248-7.617-9.009c-1.904-3.758-2.856-8.91-2.856-15.454
		c0-14.843,2.074-27.539,6.226-38.086c4.149-10.547,9.888-19.505,17.212-26.88c7.324-7.372,15.99-13.403,26.001-18.091
		c10.009-4.688,20.922-8.592,32.739-11.719c11.815-3.124,24.243-5.786,37.28-7.983s26.221-4.417,39.551-6.665
		c13.33-2.245,26.562-4.834,39.697-7.764c13.133-2.93,25.708-6.738,37.72-11.426c2.051-5.761,4.296-11.693,6.738-17.798
		c2.44-6.102,4.735-12.378,6.885-18.823c2.147-6.445,3.955-13.012,5.42-19.702c1.465-6.688,2.197-13.5,2.197-20.435
		c0-2.051,0.293-3.612,0.879-4.688c0.586-1.073,1.439-1.854,2.563-2.344c1.122-0.487,2.49-0.78,4.102-0.879
		c1.611-0.096,3.442-0.146,5.493-0.146c8.983,0,16.234,1.025,21.753,3.076c5.516,2.051,9.814,4.811,12.891,8.276
		c3.076,3.468,5.127,7.471,6.152,12.012s1.538,9.254,1.538,14.136c0,7.716-1.588,15.234-4.761,22.559
		c-3.175,7.324-7.35,13.989-12.524,19.995c-5.177,6.006-11.085,11.133-17.725,15.381c-6.642,4.248-13.429,7.155-20.361,8.716
		c-4.102,9.865-7.031,20.068-8.789,30.615s-2.637,21.583-2.637,33.105c0,11.524,0.682,23.561,2.051,36.108
		c1.366,12.55,2.879,24.928,4.541,37.134c2.831-3.223,5.736-6.299,8.716-9.229c2.978-2.93,5.933-5.933,8.862-9.009
		s5.809-6.273,8.643-9.595c2.831-3.319,5.468-7.031,7.91-11.133c8.104-8.104,15.722-16.527,22.852-25.269
		c7.127-8.739,14.062-17.479,20.801-26.221c6.738-8.739,13.451-17.308,20.142-25.708c6.688-8.397,13.696-16.381,21.021-23.95
		c7.324-7.567,15.161-14.525,23.511-20.874c8.35-6.347,17.505-11.865,27.466-16.553s20.947-8.324,32.959-10.913
		c12.012-2.586,25.342-3.882,39.99-3.882c6.542,0,12.964,0.563,19.263,1.685C1343.704,334.17,1349.783,336.342,1355.643,339.565z
		 M1106.18,315.102c-1.271,1.271-2.662,2.882-4.175,4.834c-1.515,1.955-2.93,4.152-4.248,6.592
		c-1.318,2.442-2.417,5.054-3.296,7.837s-1.318,5.64-1.318,8.569c0,0.783,0.073,1.831,0.22,3.149s0.609,2.369,1.392,3.149
		c2.051-2.051,4.149-3.955,6.299-5.713c2.147-1.758,4.076-3.685,5.786-5.786c1.708-2.099,3.124-4.541,4.248-7.324
		c1.122-2.783,1.685-6.226,1.685-10.327c-1.662-0.879-2.783-1.732-3.369-2.563C1108.816,316.69,1107.741,315.885,1106.18,315.102z"
		/>
</g>
</svg>