<?xml version="1.0" encoding="utf-8"?>
<svg xmlns="http://www.w3.org/2000/svg" viewBox="0 0 2049.9761 306.296">
<g transform="translate(-417.106,-476.029)">
	<path fill="#FF0000" d="M675.798,492.434c0,4.688-4.713,11.451-14.136,20.288c-9.425,8.839-20.924,17.311-34.497,25.415
		c-1.758,5.566-4.347,15.674-7.764,30.322c-5.47,22.95-10.499,39.235-15.088,48.853c-4.591,9.62-12.158,19.409-22.705,29.37
		c-30.469,28.81-64.6,43.213-102.393,43.213c-10.84,0-20.412-1.808-28.711-5.42c-4.591,8.998-6.885,16.82-6.885,23.472
		c0,8.412,2.806,16.139,8.423,23.181c0.586,0.586,0.879,1.271,0.879,2.053c0,0.78-0.49,1.172-1.465,1.172
		c-2.261,0-4.694-3.033-7.299-9.093c-2.605-6.065-3.907-11.737-3.907-17.018c0-7.628,2.49-16.04,7.471-25.232
		c-20.412-10.547-30.615-28.661-30.615-54.346c0-16.502,4.882-32.909,14.648-49.219c9.764-16.308,23.485-31.004,41.162-44.092
		c22.559-16.601,44.872-24.902,66.943-24.902c12.012,0,21.556,3.369,28.638,10.107c7.079,6.738,10.62,15.871,10.62,27.393
		c0,6.152-0.879,12.55-2.637,19.189c14.355-9.569,27.049-17.674,38.086-24.316c7.031-15.331,15.868-28.514,26.514-39.551
		c10.643-11.034,19.922-16.553,27.832-16.553C673.502,486.721,675.798,488.625,675.798,492.434z M576.481,547.365
		c0-10.254-3.248-18.505-9.741-24.756c-6.496-6.249-15.065-9.375-25.708-9.375c-26.271,0-51.686,13.673-76.245,41.016
		c-24.562,27.345-36.841,55.664-36.841,84.961c0,19.24,7.079,32.911,21.24,41.016c6.64-10.936,16.161-22.899,28.564-35.889
		c-6.445-5.566-9.668-12.206-9.668-19.922c0-5.859,1.854-10.863,5.566-15.015c3.71-4.149,8.203-6.226,13.477-6.226
		c6.542,0,9.814,3.028,9.814,9.082c0,3.126-1.222,5.836-3.662,8.13c-2.442,2.296-5.324,3.442-8.643,3.442
		c-4.786,0-7.178-2.293-7.178-6.885c0-1.465,0.487-3.026,1.465-4.688c0.389-1.268,0.586-2,0.586-2.197
		c0-0.586-0.293-0.879-0.879-0.879c-1.662,0-3.369,1.758-5.127,5.273s-2.637,6.983-2.637,10.4c0,6.445,2.978,12.208,8.936,17.285
		c19.629-20.702,50.633-44.872,93.018-72.51C575.259,561.039,576.481,553.616,576.481,547.365z M612.81,546.779
		c-11.426,7.228-23.927,15.431-37.5,24.609c-6.445,20.705-17.75,38.869-33.911,54.492c-16.164,15.626-31.666,23.438-46.509,23.438
		c-4.493,0-9.425-1.172-14.795-3.516c-11.037,11.426-20.412,23.438-28.125,36.035c8.006,3.612,17.088,5.42,27.246,5.42
		c18.358,0,36.131-5.2,53.32-15.601c17.187-10.4,31.934-24.829,44.238-43.286c5.761-8.592,10.302-16.576,13.623-23.95
		c3.319-7.372,8.69-21.263,16.113-41.675C608.269,557.669,610.367,552.346,612.81,546.779z M571.354,573.732l-9.668,6.592
		c-36.818,25.392-63.38,46.534-79.688,63.428c4.102,2.149,8.496,3.223,13.184,3.223c13.671,0,27.979-7.178,42.92-21.533
		S564.126,593.851,571.354,573.732z M673.015,492.727c0-2.344-1.369-3.516-4.102-3.516c-6.544,0-13.843,4.518-21.899,13.55
		c-8.057,9.034-14.282,19.606-18.677,31.714c12.891-7.91,23.559-15.82,32.007-23.73C668.79,502.834,673.015,496.828,673.015,492.727
		z"/>
	<path fill="#FF0000" d="M667.082,637.966c-0.099,0.293-0.586,1.076-1.465,2.348l-6.306,8.654
		c-18.381,25.527-32.412,38.29-42.089,38.29c-4.596,0-8.432-1.637-11.513-4.907c-3.081-3.271-4.619-7.347-4.619-12.231
		c0-5.663,3.369-14.257,10.107-25.781l22.852-38.818c3.026,0.685,5.42,1.025,7.178,1.025c2.637,0,6.347-0.341,11.133-1.025
		l-33.252,54.639c-4.786,7.91-7.178,14.015-7.178,18.311c0,4.395,2.298,6.592,6.894,6.592c8.702,0,24.007-15.502,45.911-46.509
		c0.49-0.975,0.978-1.465,1.467-1.465C666.789,637.087,667.082,637.38,667.082,637.966z M664.958,577.395
		c0,3.419-1.442,6.617-4.321,9.595c-2.882,2.98-6.031,4.468-9.448,4.468c-4.395,0-6.592-2.197-6.592-6.592
		c0-3.223,1.513-6.322,4.541-9.302c3.026-2.978,6.2-4.468,9.521-4.468C662.857,571.096,664.958,573.197,664.958,577.395z"/>
	<path fill="#FF0000" d="M759.514,638.112c0,1.465-5.379,8.144-16.132,20.041c-11.929,13.069-27.475,24.87-46.637,35.403
		l-7.178,12.891c-14.161,25.39-28.956,44.286-44.385,56.689c-15.917,12.792-29.736,19.189-41.455,19.189
		c-4.003,0-7.347-1.271-10.034-3.809c-2.685-2.541-4.028-5.665-4.028-9.375c0-19.629,22.609-39.942,67.822-60.938
		c3.71-1.856,9.276-4.445,16.699-7.764l2.197-1.318l25.781-45.85c-10.158,13.966-17.53,23.122-22.119,27.466
		c-4.591,4.344-9.229,6.519-13.916,6.519c-4.005,0-7.496-1.71-10.474-5.127c-2.98-3.417-4.468-7.42-4.468-12.012
		c0-5.566,3.465-14.257,10.4-26.074l22.559-38.086c2.245,0.392,4.834,0.586,7.764,0.586c2.538,0,6.054-0.341,10.547-1.025
		l-28.857,46.875c-8.203,13.282-12.305,21.973-12.305,26.074c0,4.395,2,6.592,6.006,6.592c10.547,0,26.756-18.7,48.633-56.104
		l13.477-22.998c2.245,0.392,4.98,0.586,8.203,0.586c2.637,0,5.907-0.341,9.814-1.025c-12.11,19.24-28.517,47.461-49.219,84.668
		c11.927-6.143,21.998-12.797,30.212-19.965c8.212-7.168,17.404-17.285,27.573-30.354c1.369-1.755,2.248-2.634,2.639-2.634
		C759.221,637.233,759.514,637.526,759.514,638.112z M674.919,701.613c-1.563,0.879-7.082,3.662-16.553,8.35
		c-44.433,22.069-66.65,41.895-66.65,59.473c0,7.324,4.102,10.986,12.305,10.986c10.353,0,20.654-5.617,30.908-16.846
		c10.254-11.231,22.948-30.908,38.086-59.033L674.919,701.613z"/>
	<path fill="#FF0000" d="M809.904,637.966c-0.099,0.293-0.586,1.076-1.465,2.348l-6.306,8.654
		c-18.381,25.527-32.412,38.29-42.089,38.29c-4.596,0-8.432-1.637-11.513-4.907c-3.081-3.271-4.619-7.347-4.619-12.231
		c0-5.663,3.369-14.257,10.107-25.781l22.852-38.818c3.026,0.685,5.42,1.025,7.178,1.025c2.637,0,6.347-0.341,11.133-1.025
		l-33.252,54.639c-4.786,7.91-7.178,14.015-7.178,18.311c0,4.395,2.298,6.592,6.894,6.592c8.702,0,24.007-15.502,45.911-46.509
		c0.49-0.975,0.978-1.465,1.467-1.465C809.611,637.087,809.904,637.38,809.904,637.966z M807.78,577.395
		c0,3.419-1.442,6.617-4.321,9.595c-2.882,2.98-6.031,4.468-9.448,4.468c-4.395,0-6.592-2.197-6.592-6.592
		c0-3.223,1.513-6.322,4.541-9.302c3.026-2.978,6.2-4.468,9.521-4.468C805.679,571.096,807.78,573.197,807.78,577.395z"/>
	<path fill="#FF0000" d="M1207.976,512.941c0,4.786-4.786,8.862-14.355,12.231c-9.572,3.369-21.094,5.054-34.57,5.054
		c-17.578,0-39.111-2.685-64.6-8.057c-12.403,5.859-23.804,14.772-34.204,26.733c-10.4,11.964-21.705,29.176-33.911,51.636
		c6.054,0.978,11.083,1.758,15.088,2.344c5.468-12.598,13.28-18.896,23.438-18.896c6.933,0,10.4,2.687,10.4,8.057
		c0,4.298-2.321,7.789-6.958,10.474c-4.64,2.687-10.719,4.028-18.237,4.028h-2.93c-0.293,0.392-1.515,2.98-3.662,7.764
		c-2.442,5.665-5.958,10.474-10.547,14.429c-4.591,3.955-8.888,5.933-12.891,5.933c-1.369,0-2.051-0.293-2.051-0.879
		c0-0.487,0.487-0.879,1.465-1.172c6.738-2.051,13.573-11.083,20.508-27.1c-2.833-0.293-6.935-0.879-12.305-1.758l-2.783-0.586
		c-1.369,2.442-3.369,6.056-6.006,10.84c-8.4,15.04-15.211,25.781-20.435,32.227c-5.226,6.445-12.282,12.794-21.167,19.043
		c-23.634,16.603-48.047,24.902-73.242,24.902c-14.845,0-27.003-3.102-36.475-9.302c-9.474-6.2-14.209-14.184-14.209-23.95
		c0-4.882,1.439-9.057,4.321-12.524c2.879-3.465,6.322-5.2,10.327-5.2c6.445,0,9.668,3.273,9.668,9.814
		c0,3.028-1.002,5.64-3.003,7.837c-2.003,2.197-4.42,3.296-7.251,3.296c-4.786,0-7.178-2.293-7.178-6.885
		c0.293-2.344,0-3.516-0.879-3.516c-1.856,0-2.783,2.589-2.783,7.764c0,8.203,4.271,15.211,12.817,21.021
		c8.544,5.809,18.871,8.716,30.981,8.716c19.043,0,36.182-5.688,51.416-17.065c15.234-11.375,31.934-31.029,50.098-58.96
		c1.561-2.245,3.856-5.713,6.885-10.4h-2.783c-10.938,0-18.507,4.2-22.705,12.598c-0.49,1.369-1.025,2.051-1.611,2.051
		c-0.783,0-1.172-0.389-1.172-1.172c0-3.905,2.758-7.592,8.276-11.06c5.516-3.465,11.353-5.2,17.505-5.2h4.248
		c25.584-38.672,52.391-64.256,80.42-76.758c-7.521-1.659-15.333-3.563-23.438-5.713c-26.173-6.834-46.486-10.254-60.938-10.254
		c-2.93,0-5.713,0.099-8.35,0.293c4.198,8.107,6.299,17.237,6.299,27.393c0,21.291-8.327,41.359-24.976,60.205
		c-16.651,18.849-34.449,28.271-53.394,28.271c-8.009,0-14.502-2.513-19.482-7.544c-4.98-5.028-7.471-11.595-7.471-19.702
		c0-18.457,9.595-37.134,28.784-56.03s40.599-30.835,64.233-35.815c-7.423-11.034-18.8-16.553-34.131-16.553
		c-25.099,0-47.804,12.208-68.115,36.621c-1.662,1.662-2.589,2.49-2.783,2.49c-0.586,0-0.978-0.341-1.172-1.025
		c0-1.758,4.102-6.445,12.305-14.062c18.944-17.578,38.525-26.367,58.74-26.367c17.967,0,31.004,6.104,39.111,18.311
		c10.35-2.637,22.412-3.955,36.182-3.955c8.69,0,16.699,0.685,24.023,2.051c7.324,1.369,24.95,5.372,52.881,12.012
		c21.776-8.397,42.188-12.598,61.23-12.598c11.229,0,20.288,1.245,27.173,3.735S1207.976,508.84,1207.976,512.941z M999.089,526.125
		c0-6.542-1.611-13.133-4.834-19.775c-22.462,2.833-43.506,13.55-63.135,32.153s-29.443,37.086-29.443,55.444
		c0,6.837,2.172,12.648,6.519,17.432c4.344,4.786,9.741,7.178,16.187,7.178c16.992,0,33.691-10.181,50.098-30.542
		S999.089,547.024,999.089,526.125z M1072.624,592.336c0-4.198-2.394-6.299-7.178-6.299c-6.349,0-11.769,5.031-16.26,15.088
		l-1.172,2.637h3.662c6.054,0,11.06-1.073,15.015-3.223C1070.646,598.392,1072.624,595.657,1072.624,592.336z M1205.192,513.234
		c0-3.026-3.2-5.64-9.595-7.837c-6.397-2.197-14.088-3.296-23.071-3.296c-21.291,0-40.821,3.712-58.594,11.133l19.629,4.395
		c16.406,3.809,31.494,5.713,45.264,5.713c7.031,0,13.184-1.025,18.457-3.076S1205.192,515.871,1205.192,513.234z"/>
	<path fill="#FF0000" d="M1135.1,638.112c0,0.293-0.881,1.561-2.639,3.804l-6.303,7.896c-20.233,24.964-37.583,37.445-52.048,37.445
		c-6.843,0-12.586-2.467-17.228-7.397c-4.642-4.93-6.962-11.107-6.962-18.53c0-17.578,12.254-33.055,36.768-46.436
		c12.891-7.031,23.387-10.547,31.494-10.547c3.516,0,6.519,1.051,9.009,3.149c2.49,2.101,3.735,4.665,3.735,7.69
		c0,7.031-4.591,13.014-13.77,17.944c-9.181,4.933-24.513,9.547-45.996,13.843c-6.642,10.06-9.961,18.457-9.961,25.195
		c0,8.4,4.545,12.598,13.637,12.598c15.445,0,34.36-15.062,56.747-45.193c1.172-1.561,2.149-2.341,2.932-2.341
		C1134.903,637.332,1135.1,637.625,1135.1,638.112z M1122.722,610.939c0-3.124-1.71-4.688-5.127-4.688
		c-5.177,0-11.989,3.589-20.435,10.767c-8.448,7.178-16.725,16.479-24.829,27.905c14.062-3.612,25.976-8.716,35.742-15.308
		C1117.837,623.024,1122.722,616.799,1122.722,610.939z"/>
	<path fill="#FF0000" d="M1252.434,637.966c0,2.055-7.088,11.54-21.263,28.459c-11.636,13.889-20.778,20.833-27.424,20.833
		c-4.399,0-8.091-1.71-11.074-5.127c-2.982-3.417-4.472-7.617-4.472-12.598c0-4.395,0.902-8.471,2.71-12.231
		c1.806-3.758,6.519-11.206,14.136-22.339c7.91-11.719,11.865-19.189,11.865-22.412c0-4.003-2.101-6.006-6.299-6.006
		c-14.259,0-36.232,26.466-65.918,79.395c-4.786-0.392-7.667-0.586-8.643-0.586c-3.419,0-6.642,0.194-9.668,0.586l22.852-36.182
		c12.987-20.702,19.482-33.641,19.482-38.818c0-2.93-1.225-4.395-3.669-4.395c-4.992,0-14.827,10.521-29.505,31.565
		c-0.881,1.273-1.565,1.957-2.055,2.053c-0.49,0-0.783-0.293-0.879-0.879c0.096-0.49,0.293-0.881,0.586-1.174l2.788-3.669
		c14.964-20.062,25.04-30.093,30.224-30.093c3.326,0,6.162,1.515,8.51,4.541c2.348,3.028,3.522,6.642,3.522,10.84
		c0,6.251-3.662,14.941-10.986,26.074c11.522-15.917,20.384-26.807,26.587-32.666c6.2-5.859,11.938-8.789,17.212-8.789
		c4.296,0,7.91,1.758,10.84,5.273s4.395,7.862,4.395,13.037c0,6.544-4.493,16.553-13.477,30.029
		c-9.181,13.77-13.77,22.559-13.77,26.367c0,4.005,2.005,6.006,6.015,6.006c8.702,0,23.714-15.502,45.032-46.509
		c0.49-0.975,0.978-1.465,1.467-1.465C1252.141,637.087,1252.434,637.38,1252.434,637.966z"/>
	<path fill="#FF0000" d="M1352.629,638.112c0,1.561-5.28,8.242-15.839,20.041c-11.831,13.069-27.131,24.724-45.904,34.964
		l-7.324,13.33c-13.282,24.511-28.175,43.407-44.678,56.689c-15.82,12.792-29.491,19.189-41.016,19.189
		c-4.198,0-7.665-1.271-10.4-3.809c-2.733-2.541-4.102-5.665-4.102-9.375c0-20.021,22.609-40.333,67.822-60.938
		c9.764-4.493,16.063-7.521,18.896-9.082l24.902-45.85c-10.84,14.355-18.482,23.609-22.925,27.759
		c-4.445,4.149-9.009,6.226-13.696,6.226c-5.079,0-9.4-2.248-12.964-6.738c-3.566-4.491-5.347-9.961-5.347-16.406
		c0-16.894,11.034-32.227,33.105-45.996c14.745-9.178,26.317-13.77,34.717-13.77c5.859,0,8.789,3.223,8.789,9.668
		c0,1.758-0.439,3.859-1.318,6.299l8.203-14.795c2.637,0.685,4.93,1.025,6.885,1.025c2.538,0,6.249-0.341,11.133-1.025
		c-0.685,0.879-4.98,8.203-12.891,21.973l-36.328,62.695c12.792-7.214,23.021-14.188,30.688-20.917
		c7.665-6.729,16.333-16.432,26.001-29.109c1.465-1.95,2.44-2.927,2.93-2.927C1352.409,637.332,1352.629,637.625,1352.629,638.112z
		 M1268.62,701.613c-1.856,1.073-7.375,3.856-16.553,8.35c-44.531,22.069-66.797,41.895-66.797,59.473
		c0,3.026,1.124,5.566,3.369,7.617c2.248,2.051,5.127,3.076,8.643,3.076c10.744,0,21.192-5.493,31.348-16.479
		s22.899-30.688,38.232-59.106L1268.62,701.613z M1315.056,614.016c0-4.98-2.394-7.471-7.178-7.471
		c-8.789,0-20.435,8.766-34.937,26.294c-14.502,17.53-21.753,31.666-21.753,42.407c0,6.544,2.831,9.814,8.496,9.814
		c5.761,0,15.527-8.69,29.297-26.074C1306.363,637.014,1315.056,622.024,1315.056,614.016z"/>
	<path fill="#FF0000" d="M1432.976,537.855c0,6.654-3.623,13.845-10.865,21.572c-2.742,2.937-6.363,5.871-10.865,8.805
		c-4.504,2.934-7.686,4.401-9.544,4.401c-0.586,0-0.879-0.293-0.879-0.879c0-0.49,0.392-0.881,1.174-1.174
		c10.691-4.01,16.038-8.414,16.038-13.207c0-0.586-0.49-0.881-1.465-0.881c-4.493,0-6.738-2.104-6.738-6.311
		c0-3.815,2-7.875,6.006-12.181c4.003-4.303,7.713-6.457,11.133-6.457C1430.973,531.545,1432.976,533.648,1432.976,537.855z"/>
	<path fill="#FF0000" d="M1465.056,581.13c0,3.896-6.104,11.634-18.311,23.218c-0.586,3.028-0.879,5.665-0.879,7.91
		c0,5.665,2.586,14.648,7.764,26.953c2.637,6.152,3.955,11.33,3.955,15.527c0,8.789-4.273,16.406-12.817,22.852
		c-8.546,6.445-18.677,9.668-30.396,9.668c-6.642,0-11.938-1.881-15.894-5.64s-5.933-8.812-5.933-15.161
		c0-7.324,2.611-14.452,7.837-21.387c5.223-6.933,10.62-10.4,16.187-10.4c0.975,0,1.854,0.197,2.637,0.586l11.719-14.355
		c3.516-4.198,8.203-10.009,14.062-17.432c1.659-6.834,4.198-12.694,7.617-17.578c3.417-4.882,6.786-7.324,10.107-7.324
		C1464.273,578.566,1465.056,579.422,1465.056,581.13z M1444.694,638.918c0-2.93-0.099-5.834-0.293-8.716
		c-0.197-2.879-0.293-7.006-0.293-12.378c0-4.395,0.194-8.057,0.586-10.986c-5.47,6.935-13.38,16.699-23.73,29.297
		c1.854,1.563,2.783,3.468,2.783,5.713c0,5.763-4.738,9.668-14.209,11.719c-3.809,0.879-7.104,2.955-9.888,6.226
		c-2.783,3.273-4.175,6.715-4.175,10.327c0,3.907,1.415,7.178,4.248,9.814c2.831,2.637,6.347,3.955,10.547,3.955
		c8.203,0,15.99-4.761,23.364-14.282C1441.007,660.085,1444.694,649.856,1444.694,638.918z"/>
	<path fill="#FF0000" d="M1909.343,526.418c0,15.626-9.425,28.711-28.271,39.258c-8.203,4.591-13.82,6.885-16.846,6.885
		c-0.783,0-1.172-0.389-1.172-1.172c0-0.487,1.415-1.268,4.248-2.344c10.936-4.296,19.872-10.423,26.807-18.384
		c6.933-7.958,10.4-16.136,10.4-24.536c0-7.812-2.687-14.159-8.057-19.043c-5.372-4.882-12.403-7.324-21.094-7.324
		c-27.931,0-52.931,16.065-75,48.193c-3.809,5.566-15.381,27.003-34.717,64.307c-20.998,40.137-45.703,64.796-74.121,73.975
		c8.496,1.073,15.184,1.611,20.068,1.611c17.772,0,32.86-5.809,45.264-17.432c10.741-9.961,20.458-21.581,29.15-34.863
		c1.073-1.366,1.854-2.051,2.344-2.051c0.389,0.099,0.586,0.293,0.586,0.586c0,0.978-4.591,7.375-13.77,19.189
		c-10.84,13.966-20.778,23.561-29.81,28.784c-9.034,5.223-20.094,7.837-33.179,7.837c-8.107,0-16.896-0.685-26.367-2.051
		c-7.228,1.952-13.82,2.93-19.775,2.93c-5.079,0-7.617-1.076-7.617-3.223c0-2.442,4.003-3.662,12.012-3.662
		c4.491,0,10.107,0.586,16.846,1.758c12.891-5.663,22.705-12.646,29.443-20.947c7.226-8.983,18.018-27.782,32.373-56.396
		l2.344-4.834h-56.982c-9.181,17.091-17.139,29.736-23.877,37.939s-15.772,16.164-27.1,23.877
		c-24.902,16.992-48.926,25.488-72.07,25.488c-13.477,0-24.44-2.856-32.886-8.569c-8.448-5.713-12.671-13.158-12.671-22.339
		c0-4.784,1.415-8.936,4.248-12.451c2.831-3.516,6.299-5.273,10.4-5.273c6.347,0,9.521,3.223,9.521,9.668
		c0,3.126-0.978,5.812-2.93,8.057c-1.955,2.248-4.395,3.369-7.324,3.369c-4.591,0-6.885-2.293-6.885-6.885
		c0.293-2.44,0-3.662-0.879-3.662c-1.758,0-2.637,2.589-2.637,7.764c0,8.009,3.761,14.575,11.286,19.702
		c7.523,5.127,17.148,7.69,28.876,7.69c20.618,0,38.669-6.127,54.158-18.384c15.486-12.254,33.051-34.252,52.693-65.991h-44.998
		l1.172-2.93h45.733c1.172-1.952,3.174-5.077,6.008-9.375c20.52-33.202,39.819-56.396,57.898-69.58
		c3.809-2.831,8.89-5.882,15.241-9.155c6.352-3.271,10.261-4.907,11.728-4.907c0.586,0.197,0.879,0.586,0.879,1.172
		s-0.978,1.271-2.93,2.051c-12.012,4.884-22.755,13.282-32.227,25.195c-9.474,11.916-22.462,33.449-38.965,64.6h57.129
		c18.26-32.616,38.109-57.982,59.546-76.099c21.435-18.114,42.357-27.173,62.769-27.173c10.057,0,18.237,2.71,24.536,8.13
		S1909.343,517.826,1909.343,526.418z M1719.353,529.934c0,2.051-2.882,6.152-8.643,12.305
		c-8.595,9.279-16.798,13.916-24.609,13.916c-5.566,0-10.206-1.978-13.916-5.933c-3.712-3.955-5.566-8.812-5.566-14.575
		c0-5.37,2-12.06,6.006-20.068c4.98-9.961,7.471-16.846,7.471-20.654c0-4.98-2.344-8.983-7.031-12.012
		c-4.688-3.026-10.84-4.541-18.457-4.541c-21.778,0-42.238,8.766-61.377,26.294c-19.142,17.53-28.711,36.255-28.711,56.177
		c0,10.254,3.124,18.629,9.375,25.122c6.249,6.496,14.355,9.741,24.316,9.741c19.237,0,35.449-8.885,48.633-26.66
		c0.194-0.586,0.487-0.927,0.879-1.025c0.78,0,1.172,0.439,1.172,1.318c0,2.051-3.126,5.812-9.375,11.279
		c-12.891,11.623-26.857,17.432-41.895,17.432c-10.547,0-19.142-3.417-25.781-10.254c-6.642-6.834-9.961-15.722-9.961-26.66
		c0-21.094,9.789-40.551,29.37-58.374c19.579-17.821,40.99-26.733,64.233-26.733c20.409,0,30.615,8.986,30.615,26.953
		c0,6.152-2.101,13.527-6.299,22.119c-4.2,8.595-6.299,14.308-6.299,17.139c0,7.423,4.003,11.133,12.012,11.133
		c4.882,0,10.448-2.293,16.699-6.885c6.249-4.589,11.083-10.009,14.502-16.26c0.487-0.975,0.975-1.465,1.465-1.465
		C1718.961,528.762,1719.353,529.153,1719.353,529.934z"/>
	<path fill="#FF0000" d="M1872.648,637.819c0,1.559-2.884,5.209-8.649,10.952c-8.602,8.569-16.516,12.852-23.747,12.852
		c-3.03,0-5.72-0.586-8.063-1.758c-12.9,18.263-25.019,27.393-36.355,27.393c-5.864,0-10.875-2.417-15.026-7.251
		c-4.154-4.834-6.23-10.62-6.23-17.358c0-15.038,9.862-29.54,29.59-43.506c13.866-9.862,25.292-14.795,34.277-14.795
		c8.397,0,12.598,4.493,12.598,13.477c0,11.231-5.91,24.756-17.725,40.576c1.952,1.172,4.149,1.758,6.592,1.758
		c4.395,0,9.528-2.044,15.404-6.132c5.873-4.088,10.673-9.002,14.396-14.747c1.078-1.364,1.863-2.046,2.353-2.046
		C1872.452,637.233,1872.648,637.43,1872.648,637.819z M1848.845,618.117c0-7.91-3.566-11.865-10.693-11.865
		c-8.888,0-19.728,8.496-32.52,25.488c-12.794,16.992-19.189,31.3-19.189,42.92c0,6.738,3.223,10.107,9.668,10.107
		c10.547,0,22.069-8.69,34.57-26.074c-2.833-3.124-4.248-6.347-4.248-9.668c0-4.784,1.904-9.716,5.713-14.795
		c3.809-5.077,7.519-7.617,11.133-7.617c1.561,0,2.637,0.978,3.223,2.93C1848.062,626.126,1848.845,622.317,1848.845,618.117z"/>
	<path fill="#FF0000" d="M2035.832,637.966c-0.099,0.293-0.586,1.076-1.465,2.348l-6.306,8.654
		c-18.381,25.527-31.973,38.29-40.771,38.29c-4.596,0-8.361-1.71-11.293-5.127c-2.934-3.417-4.399-7.812-4.399-13.184
		c0-5.468,1.854-11.375,5.566-17.725c0.682-1.172,4.248-6.395,10.693-15.674c8.203-11.719,12.305-19.384,12.305-22.998
		c0-4.003-2.003-6.006-6.006-6.006c-12.891,0-35.01,26.466-66.357,79.395c-1.955-0.392-4.64-0.586-8.057-0.586
		c-4.005,0-7.423,0.194-10.254,0.586l20.801-32.959c13.573-21.68,20.361-34.959,20.361-39.844c0-4.395-1.808-6.592-5.42-6.592
		c-5.372,0-14.161,7.716-26.367,23.145c-12.208,15.431-24.316,34.181-36.328,56.25c-2.248-0.392-5.127-0.586-8.643-0.586
		c-3.809,0-7.13,0.194-9.961,0.586l20.947-32.959c14.452-22.655,21.68-36.669,21.68-42.041c0-2.93-1.126-4.395-3.376-4.395
		c-4.797,0-14.729,10.476-29.798,31.423c-0.979,1.366-1.762,2.048-2.348,2.048c-0.392-0.096-0.586-0.389-0.586-0.879
		c0-0.876,4.498-6.967,13.497-18.271c8.803-11.012,15.603-16.519,20.396-16.519c3.129,0,5.818,1.49,8.068,4.468
		c2.25,2.98,3.376,6.519,3.376,10.62c0,5.665-2.882,13.527-8.643,23.584c17.578-25.781,30.663-38.672,39.258-38.672
		c4.102,0,7.471,1.662,10.107,4.98c2.637,3.321,3.955,7.471,3.955,12.451c0,5.566-2.589,12.648-7.764,21.24
		c18.553-25.781,32.469-38.672,41.748-38.672c4.198,0,7.738,1.808,10.62,5.42c2.879,3.614,4.321,8.009,4.321,13.184
		c0,6.056-2.394,13.136-7.178,21.24c-0.099,0.099-4.298,6.349-12.598,18.75c-4.786,7.031-7.178,12.403-7.178,16.113
		c0,4.005,2.005,6.006,6.015,6.006c7.626,0,20.242-12.323,37.846-36.971l4.545-6.308l2.641-3.229
		c0.49-0.975,0.978-1.465,1.467-1.465C2035.539,637.087,2035.832,637.38,2035.832,637.966z"/>
	<path fill="#FF0000" d="M2109.953,638.112c0,0.293-0.881,1.561-2.639,3.804l-6.303,7.896
		c-20.233,24.964-37.583,37.445-52.048,37.445c-6.843,0-12.586-2.467-17.228-7.397c-4.642-4.93-6.962-11.107-6.962-18.53
		c0-17.578,12.254-33.055,36.768-46.436c12.891-7.031,23.387-10.547,31.494-10.547c3.516,0,6.519,1.051,9.009,3.149
		c2.49,2.101,3.735,4.665,3.735,7.69c0,7.031-4.591,13.014-13.77,17.944c-9.181,4.933-24.513,9.547-45.996,13.843
		c-6.642,10.06-9.961,18.457-9.961,25.195c0,8.4,4.545,12.598,13.637,12.598c15.445,0,34.36-15.062,56.747-45.193
		c1.172-1.561,2.149-2.341,2.932-2.341C2109.756,637.332,2109.953,637.625,2109.953,638.112z M2097.575,610.939
		c0-3.124-1.71-4.688-5.127-4.688c-5.177,0-11.989,3.589-20.435,10.767c-8.448,7.178-16.725,16.479-24.829,27.905
		c14.062-3.612,25.976-8.716,35.742-15.308C2092.691,623.024,2097.575,616.799,2097.575,610.939z"/>
	<path fill="#FF0000" d="M2179.606,627.785c0,15.919-9.913,30.421-29.736,43.506c-16.113,10.646-28.711,15.967-37.793,15.967
		c-6.251,0-9.375-2.93-9.375-8.789c0-1.758,0.487-4.149,1.465-7.178l-56.104,93.604c-3.417-0.783-6.2-1.172-8.35-1.172
		c-3.223,0-6.395,0.586-9.521,1.758l120.264-197.754c2.637,0.879,5.223,1.318,7.764,1.318c2.637,0,5.859-0.439,9.668-1.318
		l-43.506,70.312c10.448-13.866,18.041-22.948,22.778-27.246c4.735-4.296,9.448-6.445,14.136-6.445
		c5.175,0,9.521,2.248,13.037,6.738C2177.849,615.579,2179.606,621.146,2179.606,627.785z M2168.767,616.066
		c0-6.347-2.833-9.521-8.496-9.521c-7.13,0-19.093,11.476-35.889,34.424c-12.989,17.775-19.482,29.981-19.482,36.621
		c0,4.98,2.293,7.471,6.885,7.471c8.983,0,20.728-8.764,35.229-26.294C2161.516,641.239,2168.767,627.005,2168.767,616.066z"/>
	<path fill="#FF0000" d="M2292.473,637.966c0,2.055-7.137,11.54-21.41,28.459c-11.538,13.889-20.631,20.833-27.278,20.833
		c-4.5,0-8.167-1.685-11-5.054c-2.835-3.369-4.252-7.592-4.252-12.671c0-5.273,1.561-10.986,4.688-17.139
		c-9.767,13.673-17.237,22.902-22.412,27.686c-5.177,4.784-10.206,7.178-15.088,7.178c-5.177,0-9.521-2.223-13.037-6.665
		s-5.273-10.034-5.273-16.772c0-18.75,13.231-35.351,39.697-49.805c11.62-6.445,20.995-9.668,28.125-9.668
		c6.054,0,9.082,2.93,9.082,8.789c0,1.662-0.392,3.859-1.172,6.592l7.471-14.209c2.93,0.685,5.516,1.025,7.764,1.025
		c2.637,0,6.054-0.341,10.254-1.025l-25.928,42.92c-8.986,15.04-13.477,24.953-13.477,29.736c0,4.591,1.907,6.885,5.72,6.885
		c3.912,0,10.171-4.475,18.777-13.424s17.358-19.977,26.257-33.085c0.586-0.975,1.124-1.465,1.614-1.465
		C2292.18,637.087,2292.473,637.38,2292.473,637.966z M2252.116,613.723c0-4.784-2.197-7.178-6.592-7.178
		c-8.986,0-20.778,8.789-35.376,26.367c-14.601,17.578-21.899,31.787-21.899,42.627c0,6.349,2.831,9.521,8.496,9.521
		c6.738,0,18.407-11.181,35.01-33.545C2245.328,633.157,2252.116,620.56,2252.116,613.723z"/>
	<path fill="#FF0000" d="M2392.961,638.112c0,1.561-5.28,8.242-15.839,20.041c-11.831,13.069-27.131,24.724-45.904,34.964
		l-7.324,13.33c-13.282,24.511-28.175,43.407-44.678,56.689c-15.82,12.792-29.491,19.189-41.016,19.189
		c-4.198,0-7.665-1.271-10.4-3.809c-2.733-2.541-4.102-5.665-4.102-9.375c0-20.021,22.609-40.333,67.822-60.938
		c9.764-4.493,16.063-7.521,18.896-9.082l24.902-45.85c-10.84,14.355-18.482,23.609-22.925,27.759
		c-4.445,4.149-9.009,6.226-13.696,6.226c-5.079,0-9.4-2.248-12.964-6.738c-3.566-4.491-5.347-9.961-5.347-16.406
		c0-16.894,11.034-32.227,33.105-45.996c14.745-9.178,26.317-13.77,34.717-13.77c5.859,0,8.789,3.223,8.789,9.668
		c0,1.758-0.439,3.859-1.318,6.299l8.203-14.795c2.637,0.685,4.93,1.025,6.885,1.025c2.538,0,6.249-0.341,11.133-1.025
		c-0.685,0.879-4.98,8.203-12.891,21.973l-36.328,62.695c12.792-7.214,23.021-14.188,30.688-20.917
		c7.665-6.729,16.333-16.432,26.001-29.109c1.465-1.95,2.44-2.927,2.93-2.927C2392.741,637.332,2392.961,637.625,2392.961,638.112z
		 M2308.952,701.613c-1.856,1.073-7.375,3.856-16.553,8.35c-44.531,22.069-66.797,41.895-66.797,59.473
		c0,3.026,1.124,5.566,3.369,7.617c2.248,2.051,5.127,3.076,8.643,3.076c10.744,0,21.192-5.493,31.348-16.479
		s22.899-30.688,38.232-59.106L2308.952,701.613z M2355.388,614.016c0-4.98-2.394-7.471-7.178-7.471
		c-8.789,0-20.435,8.766-34.937,26.294c-14.502,17.53-21.753,31.666-21.753,42.407c0,6.544,2.831,9.814,8.496,9.814
		c5.761,0,15.527-8.69,29.297-26.074C2346.695,637.014,2355.388,622.024,2355.388,614.016z"/>
	<path fill="#FF0000" d="M2467.082,638.112c0,0.293-0.881,1.561-2.639,3.804l-6.303,7.896
		c-20.233,24.964-37.583,37.445-52.048,37.445c-6.843,0-12.586-2.467-17.228-7.397c-4.642-4.93-6.962-11.107-6.962-18.53
		c0-17.578,12.254-33.055,36.768-46.436c12.891-7.031,23.387-10.547,31.494-10.547c3.516,0,6.519,1.051,9.009,3.149
		c2.49,2.101,3.735,4.665,3.735,7.69c0,7.031-4.591,13.014-13.77,17.944c-9.181,4.933-24.513,9.547-45.996,13.843
		c-6.642,10.06-9.961,18.457-9.961,25.195c0,8.4,4.545,12.598,13.637,12.598c15.445,0,34.36-15.062,56.747-45.193
		c1.172-1.561,2.149-2.341,2.932-2.341C2466.885,637.332,2467.082,637.625,2467.082,638.112z M2454.704,610.939
		c0-3.124-1.71-4.688-5.127-4.688c-5.177,0-11.989,3.589-20.435,10.767c-8.448,7.178-16.725,16.479-24.829,27.905
		c14.062-3.612,25.976-8.716,35.742-15.308C2449.82,623.024,2454.704,616.799,2454.704,610.939z"/>
</g>
</svg>