<?xml version="1.0" encoding="utf-8"?>
<svg xmlns="http://www.w3.org/2000/svg" viewBox="0 0 485.15701 402.83199">
<g transform="translate(-530.936,-90.6)">
	<path fill="#FF0000" d="M594.363,374.633c2.637-0.099,5.028-0.783,7.178-2.051c2.147-1.271,4.028-3.223,5.64-5.859
		s2.856-6.031,3.735-10.181c0.879-4.152,1.318-9.107,1.318-14.868c0-3.614-0.245-8.229-0.732-13.843
		c-0.49-5.614-1.025-11.888-1.611-18.823c-4.102,4.2-8.862,7.544-14.282,10.034s-11.744,3.735-18.97,3.735
		c-6.738,0-12.916-1.048-18.53-3.149c-5.617-2.099-10.451-5.347-14.502-9.741c-4.054-4.395-7.178-9.936-9.375-16.626
		c-2.197-6.688-3.296-14.671-3.296-23.95c0-9.764,1.415-19.702,4.248-29.81c2.831-10.107,6.761-20.043,11.792-29.81
		c5.028-9.764,10.961-19.263,17.798-28.491c6.834-9.229,14.232-17.919,22.192-26.074c7.958-8.153,16.308-15.624,25.049-22.412
		c8.739-6.786,17.528-12.621,26.367-17.505c8.837-4.882,17.553-8.666,26.147-11.353c8.592-2.685,16.699-4.028,24.316-4.028
		c4.198,0,8.592,0.563,13.184,1.685c4.589,1.124,8.789,3.102,12.598,5.933c3.809,2.833,6.958,6.69,9.448,11.572
		c2.49,4.884,3.735,11.085,3.735,18.604c0,5.177-1.611,10.938-4.834,17.285c-3.223,6.349-8.203,12.403-14.941,18.164l-1.172-1.172
		c4.688-4.882,7.958-9.814,9.814-14.795c1.854-4.98,2.783-10.35,2.783-16.113c0-4.98-0.929-9.471-2.783-13.477
		c-1.856-4.003-4.248-7.397-7.178-10.181s-6.203-4.93-9.814-6.445c-3.614-1.513-7.228-2.271-10.84-2.271
		c-11.916,0-23.854,2.271-35.815,6.812c-11.964,4.541-23.463,10.719-34.497,18.53c-11.037,7.814-21.339,16.969-30.908,27.466
		c-9.572,10.499-17.871,21.753-24.902,33.765s-12.575,24.44-16.626,37.28c-4.054,12.843-6.079,25.465-6.079,37.866
		c0,5.079,0.755,10.231,2.271,15.454c1.513,5.226,3.905,9.938,7.178,14.136c3.271,4.2,7.494,7.617,12.671,10.254
		c5.175,2.637,11.375,3.955,18.604,3.955c7.324,0,13.207-0.879,17.651-2.637c4.442-1.758,8.178-4.198,11.206-7.324
		c-0.783-8.789-1.465-17.967-2.051-27.539c-0.586-9.569-0.879-19.091-0.879-28.564c0-4.589,0.023-9.398,0.073-14.429
		c0.048-5.028,0.194-10.009,0.439-14.941c0.243-4.93,0.682-9.595,1.318-13.989c0.634-4.395,1.488-8.276,2.563-11.646
		c1.073-3.369,2.44-6.054,4.102-8.057c1.659-2,3.71-3.003,6.152-3.003c3.71,0,6.445,3.296,8.203,9.888s2.637,16.725,2.637,30.396
		c0,7.91-0.513,16.846-1.538,26.807s-2.809,20.119-5.347,30.469c-1.662,6.445-4.005,12.355-7.031,17.725
		c0.682,7.91,1.318,15.234,1.904,21.973s0.879,12.206,0.879,16.406c0,5.077-0.758,10.497-2.271,16.26
		c-1.515,5.761-3.712,11.06-6.592,15.894c-2.882,4.834-6.445,8.837-10.693,12.012c-4.248,3.172-9.059,4.761-14.429,4.761
		c-1.758,0-3.395-0.27-4.907-0.806c-1.515-0.538-2.783-1.197-3.809-1.978c-1.025-0.783-1.831-1.611-2.417-2.49
		s-0.879-1.71-0.879-2.49c0-0.783,0.22-1.662,0.659-2.637c0.439-0.978,0.975-1.904,1.611-2.783c0.634-0.879,1.268-1.611,1.904-2.197
		c0.634-0.586,1.146-0.879,1.538-0.879c0.487,0,0.78,0.169,0.879,0.513c0.096,0.341,0.169,0.732,0.22,1.172
		c0.048,0.439,0.121,0.902,0.22,1.392c0.096,0.487,0.389,0.879,0.879,1.172c1.073,0.586,2.367,1.122,3.882,1.611
		C588.332,374.681,590.848,374.828,594.363,374.633z M615.604,247.192c0,6.642,0.194,13.623,0.586,20.947
		c0.389,7.324,0.879,14.648,1.465,21.973c0.487-1.268,0.952-2.49,1.392-3.662s0.902-2.44,1.392-3.809
		c2.44-7.127,3.905-14.964,4.395-23.511c0.487-8.544,0.732-17.406,0.732-26.587c0-6.738-0.146-12.792-0.439-18.164
		c-0.293-5.37-0.732-9.936-1.318-13.696c-0.586-3.758-1.318-6.64-2.197-8.643c-0.879-2-1.904-3.003-3.076-3.003
		c-1.076,0-1.881,1.124-2.417,3.369c-0.538,2.248-0.929,5.177-1.172,8.789c-0.245,3.614-0.343,7.617-0.293,12.012
		c0.048,4.395,0.146,8.741,0.293,13.037c0.146,4.298,0.293,8.302,0.439,12.012C615.53,241.969,615.604,244.947,615.604,247.192z"/>
	<path fill="#FF0000" d="M705.691,272.094c-0.879,0-1.685-0.513-2.417-1.538s-1.685-2.124-2.856-3.296s-2.662-2.271-4.468-3.296
		c-1.808-1.025-4.175-1.538-7.104-1.538c-4.102,0-7.91,1.051-11.426,3.149c-3.516,2.101-6.544,4.738-9.082,7.91
		c-2.541,3.175-4.518,6.642-5.933,10.4c-1.417,3.761-2.124,7.301-2.124,10.62c0,5.177,1.318,9.425,3.955,12.744
		c2.637,3.321,6.152,4.98,10.547,4.98c3.417,0,6.42-0.659,9.009-1.978c2.586-1.318,4.761-3.051,6.519-5.2
		c-0.586-2.637-0.879-5.907-0.879-9.814c0-4.198,0.316-7.617,0.952-10.254c0.634-2.637,1.415-4.688,2.344-6.152
		c0.927-1.465,1.879-2.465,2.856-3.003c0.975-0.536,1.806-0.806,2.49-0.806c0.78,0,1.685,0.538,2.71,1.611
		c1.025,1.076,1.538,2.98,1.538,5.713c0,3.419-0.611,7.008-1.831,10.767c-1.222,3.761-2.907,7.35-5.054,10.767
		c1.172,3.028,2.978,5.226,5.42,6.592c2.44,1.369,5.223,2.051,8.35,2.051c2.733,0,5.296-0.609,7.69-1.831
		c2.392-1.22,4.637-2.856,6.738-4.907c2.099-2.051,4.076-4.417,5.933-7.104c1.854-2.685,3.563-5.443,5.127-8.276l0.879,0.586
		c-1.172,3.712-2.735,7.324-4.688,10.84c-1.955,3.516-4.2,6.642-6.738,9.375c-2.541,2.735-5.299,4.907-8.276,6.519
		c-2.98,1.611-6.079,2.417-9.302,2.417c-2.442,0-5.104-0.806-7.983-2.417c-2.882-1.611-5.25-4.516-7.104-8.716
		c-3.028,3.614-6.496,6.617-10.4,9.009c-3.907,2.394-8.107,3.589-12.598,3.589c-2.541,0-4.834-0.586-6.885-1.758
		s-3.786-2.733-5.2-4.688c-1.417-1.952-2.516-4.248-3.296-6.885c-0.783-2.637-1.172-5.42-1.172-8.35
		c0-4.98,1.099-9.961,3.296-14.941s5.127-9.471,8.789-13.477c3.662-4.003,7.86-7.251,12.598-9.741
		c4.735-2.49,9.691-3.735,14.868-3.735c3.809,0,7.006,0.417,9.595,1.245c2.586,0.831,4.662,1.808,6.226,2.93
		c1.561,1.124,2.685,2.271,3.369,3.442c0.682,1.172,1.025,2.101,1.025,2.783c0,1.369-0.709,2.321-2.124,2.856
		C708.156,271.827,706.863,272.094,705.691,272.094z M693.387,291.577c0,3.223,0.293,6.006,0.879,8.35
		c1.465-2.733,2.538-5.541,3.223-8.423c0.682-2.879,1.025-5.347,1.025-7.397c0-2.44-0.439-3.662-1.318-3.662
		s-1.735,1.076-2.563,3.223C693.801,285.816,693.387,288.453,693.387,291.577z"/>
	<path fill="#FF0000" d="M785.672,290.991c-0.197,0.685-0.952,2.516-2.271,5.493c-1.318,2.98-3.126,6.152-5.42,9.521
		c-2.296,3.369-5.031,6.397-8.203,9.082c-3.175,2.687-6.764,4.028-10.767,4.028c-5.177,0-9.865-1.978-14.062-5.933
		c-4.2-3.955-7.789-9.569-10.767-16.846c-2.98-7.274-5.273-16.088-6.885-26.44c-1.611-10.35-2.417-21.922-2.417-34.717
		c0-7.031,0.245-14.429,0.732-22.192c0.49-7.764,1.268-15.404,2.344-22.925c1.073-7.519,2.417-14.696,4.028-21.533
		c1.611-6.834,3.539-12.84,5.786-18.018c2.245-5.175,4.857-9.302,7.837-12.378c2.978-3.076,6.273-4.614,9.888-4.614
		c5.37,0,9.302,3.273,11.792,9.814c2.49,6.544,3.735,16.651,3.735,30.322c0,8.009-0.586,16.969-1.758,26.88
		c-1.172,9.913-3.175,20.045-6.006,30.396c-3.712,13.087-7.594,24.243-11.646,33.472c-4.054,9.229-7.496,16.578-10.327,22.046
		c1.073,3.809,2.271,7.276,3.589,10.4c1.318,3.126,2.806,5.836,4.468,8.13c1.659,2.296,3.465,4.079,5.42,5.347
		c1.952,1.271,4.102,1.904,6.445,1.904c2.93,0,5.663-0.879,8.203-2.637c2.538-1.758,4.809-3.809,6.812-6.152
		c2-2.344,3.735-4.735,5.2-7.178c1.465-2.44,2.586-4.395,3.369-5.859L785.672,290.991z M733.816,224.926
		c0,4.102,0.121,8.521,0.366,13.257c0.243,4.738,0.609,9.547,1.099,14.429c0.487,4.884,1.099,9.767,1.831,14.648
		c0.732,4.884,1.634,9.572,2.71,14.062c2.051-4.296,4.468-9.814,7.251-16.553s5.468-14.33,8.057-22.778
		c2.586-8.446,4.784-17.601,6.592-27.466c1.806-9.862,2.71-20.068,2.71-30.615c0-6.64-0.27-12.719-0.806-18.237
		c-0.538-5.516-1.344-10.254-2.417-14.209c-1.076-3.955-2.417-7.031-4.028-9.229s-3.493-3.296-5.64-3.296
		c-2.051,0-3.907,1.442-5.566,4.321c-1.662,2.882-3.149,6.665-4.468,11.353s-2.467,10.06-3.442,16.113
		c-0.978,6.056-1.783,12.257-2.417,18.604c-0.636,6.349-1.099,12.623-1.392,18.823C733.963,214.356,733.816,219.946,733.816,224.926
		z"/>
	<path fill="#FF0000" d="M836.062,290.991c-0.197,0.685-0.952,2.516-2.271,5.493c-1.318,2.98-3.126,6.152-5.42,9.521
		c-2.296,3.369-5.031,6.397-8.203,9.082c-3.175,2.687-6.764,4.028-10.767,4.028c-5.177,0-9.865-1.978-14.062-5.933
		c-4.2-3.955-7.789-9.569-10.767-16.846c-2.98-7.274-5.273-16.088-6.885-26.44c-1.611-10.35-2.417-21.922-2.417-34.717
		c0-7.031,0.245-14.429,0.732-22.192c0.49-7.764,1.268-15.404,2.344-22.925c1.073-7.519,2.417-14.696,4.028-21.533
		c1.611-6.834,3.539-12.84,5.786-18.018c2.245-5.175,4.857-9.302,7.837-12.378c2.978-3.076,6.273-4.614,9.888-4.614
		c5.37,0,9.302,3.273,11.792,9.814c2.49,6.544,3.735,16.651,3.735,30.322c0,8.009-0.586,16.969-1.758,26.88
		c-1.172,9.913-3.175,20.045-6.006,30.396c-3.712,13.087-7.594,24.243-11.646,33.472c-4.054,9.229-7.496,16.578-10.327,22.046
		c1.073,3.809,2.271,7.276,3.589,10.4c1.318,3.126,2.806,5.836,4.468,8.13c1.659,2.296,3.465,4.079,5.42,5.347
		c1.952,1.271,4.102,1.904,6.445,1.904c2.93,0,5.663-0.879,8.203-2.637c2.538-1.758,4.809-3.809,6.812-6.152
		c2-2.344,3.735-4.735,5.2-7.178c1.465-2.44,2.586-4.395,3.369-5.859L836.062,290.991z M784.207,224.926
		c0,4.102,0.121,8.521,0.366,13.257c0.243,4.738,0.609,9.547,1.099,14.429c0.487,4.884,1.099,9.767,1.831,14.648
		c0.732,4.884,1.634,9.572,2.71,14.062c2.051-4.296,4.468-9.814,7.251-16.553s5.468-14.33,8.057-22.778
		c2.586-8.446,4.784-17.601,6.592-27.466c1.806-9.862,2.71-20.068,2.71-30.615c0-6.64-0.27-12.719-0.806-18.237
		c-0.538-5.516-1.344-10.254-2.417-14.209c-1.076-3.955-2.417-7.031-4.028-9.229s-3.493-3.296-5.64-3.296
		c-2.051,0-3.907,1.442-5.566,4.321c-1.662,2.882-3.149,6.665-4.468,11.353s-2.467,10.06-3.442,16.113
		c-0.978,6.056-1.783,12.257-2.417,18.604c-0.636,6.349-1.099,12.623-1.392,18.823C784.354,214.356,784.207,219.946,784.207,224.926
		z"/>
	<path fill="#FF0000" d="M872.391,250.415c1.268,0.293,1.904,1.124,1.904,2.49c0,0.392-0.124,0.904-0.366,1.538
		c-0.245,0.636-0.538,1.271-0.879,1.904c-0.343,0.636-0.709,1.172-1.099,1.611c-0.392,0.439-0.732,0.659-1.025,0.659
		c-0.49,0-1.076-0.169-1.758-0.513c-0.685-0.341-1.662-0.732-2.93-1.172c-1.271-0.439-2.93-0.829-4.98-1.172
		c-2.051-0.341-4.738-0.513-8.057-0.513c-4.688,0-8.595,0.879-11.719,2.637c-3.126,1.758-4.688,4.2-4.688,7.324
		c0,2.248,0.952,4.127,2.856,5.64c1.904,1.515,4.149,2.71,6.738,3.589c2.586,0.879,5.223,1.515,7.91,1.904
		c2.685,0.392,4.761,0.586,6.226,0.586c1.073,0,1.781,0.172,2.124,0.513c0.341,0.343,0.513,0.659,0.513,0.952
		c0,0.783-0.318,1.245-0.952,1.392c-0.636,0.146-1.442,0.366-2.417,0.659c-2.541,0.879-5.127,1.978-7.764,3.296
		s-5.054,2.882-7.251,4.688c-2.197,1.808-3.98,3.834-5.347,6.079c-1.369,2.248-2.051,4.688-2.051,7.324
		c0,4.395,1.781,8.034,5.347,10.913c3.563,2.882,8.569,4.321,15.015,4.321c7.324,0,13.426-1.099,18.311-3.296
		c4.882-2.197,8.91-4.761,12.085-7.69c3.172-2.93,5.64-5.882,7.397-8.862c1.758-2.978,3.076-5.248,3.955-6.812l0.879,0.586
		c-1.662,4.786-3.786,9.229-6.372,13.33c-2.589,4.102-5.713,7.643-9.375,10.62c-3.662,2.98-7.936,5.324-12.817,7.031
		c-4.884,1.708-10.451,2.563-16.699,2.563c-3.809,0-7.324-0.465-10.547-1.392s-6.006-2.22-8.35-3.882
		c-2.344-1.659-4.152-3.71-5.42-6.152c-1.271-2.44-1.904-5.223-1.904-8.35c0-3.612,0.829-6.738,2.49-9.375
		c1.659-2.637,3.563-4.809,5.713-6.519c2.147-1.708,4.271-3.026,6.372-3.955c2.099-0.927,3.589-1.586,4.468-1.978
		c-3.028-0.487-5.713-1.318-8.057-2.49c-1.955-1.073-3.761-2.563-5.42-4.468c-1.662-1.904-2.49-4.516-2.49-7.837
		c0-3.026,0.732-5.786,2.197-8.276s3.442-4.564,5.933-6.226c2.49-1.659,5.37-2.953,8.643-3.882
		c3.271-0.927,6.761-1.392,10.474-1.392c2.147,0,4.321,0.146,6.519,0.439S870.143,249.634,872.391,250.415z"/>
	<path fill="#FF0000" d="M923.953,260.961c2.44,0,4.395,0.513,5.859,1.538s2.563,2.248,3.296,3.662
		c0.732,1.417,1.195,2.856,1.392,4.321c0.194,1.465,0.293,2.687,0.293,3.662c0,1.172-0.146,3.028-0.439,5.566
		c-0.293,2.541-0.586,5.177-0.879,7.91c-0.293,2.735-0.586,5.273-0.879,7.617s-0.439,3.907-0.439,4.688
		c0,1.955,0.146,3.735,0.439,5.347s0.829,3.053,1.611,4.321c0.78,1.271,1.854,2.248,3.223,2.93c1.366,0.685,3.172,1.025,5.42,1.025
		c4.102,0,8.397-2.051,12.891-6.152c4.491-4.102,8.69-9.764,12.598-16.992l0.879,0.586c-1.076,3.614-2.735,7.301-4.98,11.06
		c-2.248,3.761-4.834,7.203-7.764,10.327c-2.93,3.126-6.056,5.69-9.375,7.69c-3.321,2.003-6.544,3.003-9.668,3.003
		c-2.637,0-4.761-0.561-6.372-1.685c-1.611-1.122-2.856-2.538-3.735-4.248c-0.879-1.708-1.465-3.563-1.758-5.566
		c-0.293-2-0.439-3.882-0.439-5.64c0-2.147,0.194-4.662,0.586-7.544c0.389-2.879,0.806-5.761,1.245-8.643
		c0.439-2.879,0.854-5.589,1.245-8.13c0.389-2.538,0.586-4.541,0.586-6.006c0-1.268-0.22-2.293-0.659-3.076
		c-0.439-0.78-1.002-1.392-1.685-1.831c-0.685-0.439-1.369-0.707-2.051-0.806c-0.685-0.096-1.222-0.146-1.611-0.146
		c-1.076,0-2.467,0.146-4.175,0.439c-1.71,0.293-4.127,0.439-7.251,0.439c-0.879,0-1.758-0.048-2.637-0.146
		c-0.879-0.096-1.808-0.243-2.783-0.439c-0.293,3.809-0.904,7.521-1.831,11.133c-0.929,3.614-1.955,6.935-3.076,9.961
		c-1.124,3.028-2.271,5.64-3.442,7.837s-2.149,3.735-2.93,4.614c-1.271,0-1.904-0.586-1.904-1.758
		c0.096-0.586,0.609-1.781,1.538-3.589c0.927-1.806,1.952-4.125,3.076-6.958c1.122-2.831,2.197-6.2,3.223-10.107
		c1.025-3.905,1.634-8.251,1.831-13.037c-4.591-2.637-6.885-7.324-6.885-14.062c0-1.854,0.366-3.417,1.099-4.688
		c0.732-1.268,1.831-1.904,3.296-1.904c2.147,0,3.685,1.245,4.614,3.735c0.927,2.49,1.488,5.836,1.685,10.034
		c0.682,0.197,1.341,0.343,1.978,0.439c0.634,0.099,1.392,0.146,2.271,0.146c2.538,0,4.907-0.146,7.104-0.439
		S921.902,260.961,923.953,260.961z M901.541,257.446c0,0.392,0.194,0.783,0.586,1.172c-0.099-0.487-0.172-0.975-0.22-1.465
		c-0.05-0.487-0.124-0.879-0.22-1.172c-0.099-0.389-0.146-0.732-0.146-1.025c-0.293,0-0.538,0.146-0.732,0.439
		C900.612,255.688,900.856,256.373,901.541,257.446z"/>
	<path fill="#FF0000" d="M953.104,438.647c0-5.763,1.149-10.06,3.442-12.891c2.296-2.833,5.248-4.248,8.862-4.248
		c1.659,0,2.978,0.366,3.955,1.099c0.975,0.732,1.465,1.634,1.465,2.71c0,0.682-0.293,1.025-0.879,1.025
		c-0.392,0-0.806-0.124-1.245-0.366c-0.439-0.245-1.051-0.366-1.831-0.366c-1.076,0-2.149,0.513-3.223,1.538
		c-1.076,1.025-1.611,2.953-1.611,5.786c0,3.319,0.462,6.761,1.392,10.327c0.927,3.563,2.293,6.812,4.102,9.741
		c1.806,2.93,4.076,5.347,6.812,7.251c2.733,1.904,5.859,2.856,9.375,2.856c3.026,0,5.713-1.051,8.057-3.149
		c2.344-2.101,4.344-4.98,6.006-8.643c1.659-3.662,3.051-7.983,4.175-12.964c1.122-4.98,2-10.327,2.637-16.04
		c0.634-5.713,1.099-11.696,1.392-17.944c0.293-6.251,0.439-12.451,0.439-18.604c0-6.056-0.05-11.549-0.146-16.479
		c-0.099-4.933-0.22-9.595-0.366-13.989s-0.318-8.668-0.513-12.817c-0.197-4.152-0.366-8.496-0.513-13.037s-0.27-9.423-0.366-14.648
		c-0.099-5.223-0.146-11.06-0.146-17.505v-12.598c-1.369,4.102-3.053,8.35-5.054,12.744c-2.003,4.395-4.225,8.4-6.665,12.012
		c-2.442,3.614-5.031,6.592-7.764,8.936c-2.735,2.344-5.519,3.516-8.35,3.516c-4.591,0-7.837-1.268-9.741-3.809
		c-1.904-2.538-2.856-6.299-2.856-11.279c0-1.465,0.146-3.735,0.439-6.812s0.634-6.299,1.025-9.668
		c0.389-3.369,0.732-6.542,1.025-9.521c0.293-2.978,0.439-5.2,0.439-6.665c0-4.198-0.783-6.299-2.344-6.299
		c-0.197,0-0.343,0.025-0.439,0.073c-0.099,0.05-0.245,0.073-0.439,0.073c-0.197,0.099-0.343,0.146-0.439,0.146
		c-0.586,0-0.879-0.389-0.879-1.172c0-0.293,0.732-0.806,2.197-1.538s3.563-1.099,6.299-1.099c1.268,0,2.197,0.245,2.783,0.732
		c0.586,0.49,1,1.197,1.245,2.124c0.243,0.929,0.366,2.028,0.366,3.296c0,1.271,0,2.687,0,4.248c0,1.369-0.124,3.541-0.366,6.519
		c-0.245,2.98-0.513,6.104-0.806,9.375c-0.293,3.273-0.563,6.349-0.806,9.229c-0.245,2.882-0.366,4.907-0.366,6.079
		c0,3.809,0.609,6.471,1.831,7.983c1.22,1.515,2.904,2.271,5.054,2.271c1.659,0,3.442-0.902,5.347-2.71
		c1.904-1.806,3.758-4.175,5.566-7.104c1.806-2.93,3.516-6.226,5.127-9.888s3.099-7.347,4.468-11.06
		c1.366-3.71,2.465-7.251,3.296-10.62c0.829-3.369,1.392-6.175,1.685-8.423v-0.293v-1.172c0-1.172,0.316-2.197,0.952-3.076
		c0.634-0.879,1.415-1.561,2.344-2.051c0.927-0.487,1.904-0.854,2.93-1.099c1.025-0.243,1.978-0.366,2.856-0.366
		c0.586,0,0.927,0.197,1.025,0.586c0.096,0.392,0.146,0.685,0.146,0.879c0,0.293-0.245,3.809-0.732,10.547
		c-0.49,6.738-0.732,16.212-0.732,28.418c0,7.423,0.048,13.747,0.146,18.97c0.096,5.223,0.22,9.862,0.366,13.916
		c0.146,4.051,0.316,7.764,0.513,11.133c0.194,3.369,0.366,6.885,0.513,10.547s0.268,7.69,0.366,12.085
		c0.096,4.395,0.146,9.668,0.146,15.82c0,14.745-1.051,27.66-3.149,38.745c-2.101,11.083-4.907,20.311-8.423,27.686
		c-3.516,7.372-7.521,12.914-12.012,16.626c-4.493,3.71-9.132,5.566-13.916,5.566c-3.321,0-6.519-0.831-9.595-2.49
		c-3.076-1.662-5.786-3.907-8.13-6.738c-2.344-2.833-4.223-6.129-5.64-9.888C953.813,446.971,953.104,442.943,953.104,438.647z"/>
</g>
</svg>
