<?xml version="1.0" encoding="utf-8"?>
<svg xmlns="http://www.w3.org/2000/svg" viewBox="0 0 518.39003 236.39901">
<g transform="translate(-526.201,-84.279)">
	<path fill="#64BED8" d="M698.1,273.278c0,2.001-3.202,9.3-9.6,21.9c-14.602,4.2-33.403,8.503-56.4,12.9
		c-16.603,3.403-39.9,7.604-69.9,12.6c-2.803-4.195-5.503-10.392-8.1-18.59c-2.203-6.394-4.303-12.792-6.3-19.191
		c0-3.394,3.3-12.192,9.905-26.386c10.81-2.935,22.425-5.578,34.837-7.931c-3.206-12.628-6.004-27.76-8.404-45.398
		c-2.006-15.432-4.008-30.769-6.005-46.003c-2.4,0.202-10.106,1.5-23.114,3.9c-12.211,2.002-18.614,3-19.214,3
		c-1.401,0-3.103-5.297-5.1-15.9c-1.406-4.397-2.906-10.997-4.504-19.8c1.997-3.797,5.297-9.197,9.9-16.2
		c1.598-1.997,6.098-3.497,13.5-4.5c20.798-3.398,49.997-9.3,87.6-17.7c13.396-3,20.498-4.5,21.3-4.5c2.597,0,5.499,5.301,8.7,15.9
		c2.597,9.403,3.9,16.003,3.9,19.8c0,2.001-1.003,6.3-3,12.9c-2.001,6.6-3.501,10.2-4.5,10.8c-3,1.2-7.65,2.353-13.95,3.45
		c-6.3,1.102-10.95,2.25-13.95,3.45c0.797,6.802,2.597,15.501,5.4,26.1c3.6,13.8,5.798,22.5,6.6,26.1c0.797,7.2,3,18.201,6.6,33
		c0.999-0.197,5.897-1.299,14.7-3.3c6.398-1.598,11.297-2.4,14.7-2.4l4.2,1.2c1.599,2.602,3.699,9.15,6.3,19.65
		C696.797,262.628,698.1,269.678,698.1,273.278z M541.2,143.378c0-2.798-0.703-6.6-2.1-11.4c-2.203-7.397-3.3-11.199-3.3-11.4
		c-0.801,1.2-1.701,3-2.7,5.4c0,0.801,0.698,5.55,2.1,14.25c1.396,8.7,2.198,13.251,2.4,13.65L541.2,143.378z M689.7,272.978v-1.8
		c0-4.2-0.9-9.3-2.7-15.3c-1.603-4.8-3.202-9.699-4.8-14.7c-17.4,3.802-28.003,5.7-31.8,5.7c-3.6,0-6.501-5.892-8.7-17.686
		c-1.2-7.594-2.302-15.188-3.3-22.781c-1.603-4.997-3.801-12.591-6.6-22.786c-2.4-10.987-6.9-27.576-13.5-49.758
		c0-3,6.398-5.896,19.2-8.695c7.8-1.598,15.698-3.098,23.7-4.495c-0.398-13.589-2.391-22.383-5.977-26.381
		c-12,3.005-30.3,7.111-54.896,12.314c-1.401,0.202-19.913,3.188-55.528,8.963c0.999,5.381,2.597,13.453,4.8,24.206
		c13.997-3.6,26.798-5.4,38.4-5.4c2.798,0,4.8,1.003,6,3c1.997,3.202,3.797,10.003,5.4,20.4c0.999,7.603,2.1,15.103,3.3,22.5
		c0.6,3.6,3.6,14.503,9,32.7c3.998,13.8,6,24.501,6,32.1c0,4.604-2.803,7.702-8.4,9.3c-4.603,0.801-9.103,1.5-13.5,2.1
		c-8.4,1.603-18.403,3.703-30,6.3v2.4c0-0.797,3.099,9,9.3,29.4C600.698,289.581,638.897,282.381,689.7,272.978z M569.4,301.778
		c-0.202-2.798-1.702-7.697-4.5-14.7c-4.2-9.797-6.3-14.798-6.3-15c-2.203,6.6-3.3,10.2-3.3,10.8c0,0.801,3.398,9,10.2,24.6
		C566.499,306.479,567.797,304.581,569.4,301.778z M607.2,243.878c-0.403-11.597-3.202-27.197-8.4-46.8
		c-5.602-21.6-8.901-36.998-9.9-46.2l-5.1,6.3c0.398,4.003,1.397,9.403,3,16.2c2.199,8.203,3.497,13.603,3.9,16.2
		c0.797,5.602,3.6,24.703,8.4,57.3C601.298,246.479,603.999,245.481,607.2,243.878z"/>
	<path fill="#64BED8" d="M871.196,282.278c-14.203,6.403-30.202,9.6-48,9.6c-37.003,0-68.902-14.297-95.7-42.9
		c-4.003-4.397-7.702-13.599-11.1-27.6c-2.803-12.398-4.2-22.5-4.2-30.3c0-11.4,1.097-21.797,3.3-31.2
		c3.398-14.199,11.55-27.6,24.45-40.2c12.9-12.6,26.348-19.697,40.35-21.3c19.397-2.199,35.499-3.3,48.3-3.3c2.597,0,4.8,0,6.6,0
		c14.4,8.602,21.6,14.7,21.6,18.3c0,6.403-0.403,14.203-1.2,23.4c-1.2,12.6-2.602,19.153-4.2,19.65
		c-1.603,0.501-3.45,1.05-5.55,1.65c-2.1,0.6-9.75,3.104-22.95,7.5c-8.803,2.602-16.003,6.202-21.6,10.8
		c-2.803,2.203-5.503,5.653-8.1,10.35c-2.602,4.701-3.9,8.751-3.9,12.15c0,13.003,3.099,22.401,9.3,28.2h1.8
		c8.199,0,16.599-0.497,25.2-1.5c1.397-0.197,4.2-0.797,8.4-1.8c3.6-0.797,6.398-1.2,8.4-1.2c2.199,0,6.849,3.854,13.95,11.55
		c7.097,7.702,10.95,12.75,11.55,15.15C869.096,254.879,870.192,265.881,871.196,282.278z M844.196,263.378
		c-1.2-6.999-2.503-17.4-3.9-31.2c-10.603,3.6-27.801,5.4-51.6,5.4c-5.602,0-12.104-3.9-19.5-11.7c-7.402-7.8-11.902-14.7-13.5-20.7
		c-1.402-5.198-2.1-10.397-2.1-15.6c0-16.997,8.897-30.098,26.7-39.3c12.797-6.797,29.199-10.997,49.2-12.6
		c0.398-7.2,1.298-17.897,2.7-32.1h-10.2c-20.4,0-36.202,1.8-47.4,5.4c-16.2,5.001-28.5,14.4-36.9,28.2
		c-1.8,2.203-4.2,5.503-7.2,9.9c-5.203,9.802-7.8,23.503-7.8,41.1c0,6.6,1.5,15.9,4.5,27.9c3.197,13.2,6.398,21.802,9.6,25.8
		c7.8,9.202,19.097,16.5,33.9,21.9c13.2,4.8,26.498,7.2,39.9,7.2c2.4,0,7.898-1.299,16.5-3.9
		C834.896,266.678,840.596,264.779,844.196,263.378z M806.996,161.978c-5.203-2.799-10.5-4.2-15.9-4.2
		c-8.001,0-14.452,3.15-19.35,9.45c-4.903,6.3-7.35,13.551-7.35,21.75c0,7.2,1.697,13.603,5.1,19.2c1.997,3.403,6.3,8.503,12.9,15.3
		c-2.4-5.4-3.6-12.398-3.6-21C778.795,185.678,788.194,172.178,806.996,161.978z M846.896,117.878c0-1.2-0.53-2.4-1.58-3.6
		s-2.053-2.4-3.009-3.6c-0.197,7.2-0.867,17.902-2.011,32.1c2.1,1.2,3.825,2.7,5.166,4.5c0-3.398,0.239-8.349,0.717-14.85
		C846.657,125.931,846.896,121.08,846.896,117.878z M860.996,268.778c-0.403-4.997-0.9-9.999-1.5-15c-0.403-3.999-3.403-8.7-9-14.1
		v4.8C850.496,257.678,853.993,265.778,860.996,268.778z"/>
	<path fill="#64BED8" d="M1044.591,266.856c0,2.592-0.6,6.68-1.8,12.258c-1.402,6.581-2.602,10.266-3.6,11.062
		c-1.003,0.797-19.8,5.883-56.4,15.249c-36.6,9.37-55.604,14.053-57,14.053c-4.8,0-8.002-0.896-9.6-2.695
		c-1.003-2.794-2.4-6.389-4.2-10.786c-5.803-12.581-10.8-33.956-15-64.12c-2.803-22.369-5.602-44.841-8.4-67.416
		c-0.403-2.193-1.702-8.086-3.9-17.676c-1.8-7.388-2.7-13.28-2.7-17.677c0-3.792,1.449-9.136,4.35-16.026
		c2.897-6.891,5.747-11.039,8.55-12.436c5.199-2.597,23.747-7.641,55.65-15.131c31.898-7.491,50.747-11.236,56.55-11.236
		c3.797,0,6.797,5.001,9,15c1.599,7.2,2.4,13.8,2.4,19.8c0,1.8-0.9,5.002-2.7,9.6c-1.8,4.603-3.403,7.303-4.8,8.1
		c-6.6,4.003-17.301,7.5-32.1,10.5c-16.603,3.6-27.801,6.703-33.6,9.3c0.998,6.802,1.997,11.902,3,15.3l46.5-6
		c0.6,7.2,2.297,17.901,5.1,32.1c-1.603,7.401-2.803,11.901-3.6,13.5c-1.8,2.803-5.452,4.65-10.95,5.55
		c-5.503,0.9-10.95,1.753-16.35,2.55c-8.4,1.2-12.6,2.7-12.6,4.5l2.7,21c33.197-9,56.4-13.5,69.6-13.5
		c3.197,0,6.098,0.797,8.7,2.391c0.797,0.6,2.199,5.733,4.2,15.398C1043.588,259.033,1044.591,264.864,1044.591,266.856z
		 M923.691,294.578c0-4.598-1.2-11.297-3.6-20.1c-3.202-10.8-5.001-17.4-5.4-19.8c-3.802-21.6-7.603-43.097-11.4-64.5
		c-5.203-28.8-8.302-49.8-9.3-63c-2.602,6.6-3.9,10.8-3.9,12.6c0,3.6,0.797,9.703,2.4,18.3c2.199,11.602,3.3,17.803,3.3,18.6
		c3.797,25.603,6.197,41.503,7.2,47.7c2.597,17.001,5.597,32.803,9,47.4c1.8,7.2,4.2,17.901,7.2,32.1L923.691,294.578z
		 M1032.292,261.578c-1.604-9-2.4-15.497-2.4-19.5l-76.8,15l-2.7-1.8c-0.201-2.798-1.551-11.499-4.05-26.1
		c-2.503-14.597-3.75-21.999-3.75-22.2c0-2.597,6.6-5.1,19.8-7.5c8.4-1.397,16.8-2.799,25.2-4.2c-0.802-4.2-1.8-10.397-3-18.6h-2.1
		c-3.801,0-11.4,1.303-22.8,3.9c-11.4,2.602-17.503,3.9-18.3,3.9c-2.001,0-3.201-0.497-3.6-1.5c0-0.197-0.952-7.2-2.85-21
		c-1.903-13.8-2.85-21-2.85-21.6c0-1.8,0.797-3.099,2.4-3.9c0.797-0.398,24.999-7.2,72.6-20.4c-1.2-7.396-1.8-14.896-1.8-22.5h-7.5
		c-1.003,0-15.652,3.802-43.95,11.4c-28.303,7.603-45.15,12.201-50.55,13.8c0.398,5.4,1.2,13.401,2.4,24
		c2.597,15,6.098,37.702,10.5,68.1c0,0.403,1.997,10.003,6,28.8c0.398,4.2,1.2,10.303,2.4,18.3c0.197,1.603,1.8,6.501,4.8,14.7
		c1.997,6.202,3,11.001,3,14.4h2.1c7.8,0,23.7-3.6,47.7-10.8C1010.588,267.479,1027.29,262.581,1032.292,261.578z"/>
</g>
</svg>
