<?xml version="1.0" encoding="utf-8"?>
<svg xmlns="http://www.w3.org/2000/svg" viewBox="0 0 743.079 287.10001">
<g transform="translate(-535.8,-115.178)">
	<path fill="#F3F51A" d="M597.9,143.378l0.6-6h-34.8c-2.002,0-3-0.699-3-2.1c0-1.397,0.848-2.948,2.55-4.65
		c1.697-1.697,3.548-2.55,5.55-2.55h32.7c1.8-4.396,7.599-6.6,17.4-6.6c3,0,4.5,1.003,4.5,3v0.6l-1.8,2.7
		c17.4,0,30.3-0.197,38.7-0.6c1.2,0,1.8,0.652,1.8,1.95c0,1.303-1.003,2.85-3,4.65c-2.001,1.8-4.8,3-8.4,3.6H618v0.6
		c-7.603,21.403-13.95,51.103-19.05,89.1c-5.1,38.002-7.65,65.203-7.65,81.6c0,2.203,0.3,3.802,0.9,4.8
		c24-0.398,38.4-0.699,43.2-0.9c1.2,0,1.8,0.652,1.8,1.95c0,1.303-1.003,2.85-3,4.65c-2.002,1.8-4.8,3-8.4,3.6h-35.4
		c-2.001,1.599-4.251,2.4-6.75,2.4c-2.503,0-4.35-0.801-5.55-2.4h-39.3c-2.001,0-3-0.698-3-2.1c0-1.397,0.849-2.948,2.55-4.65
		c1.697-1.697,3.548-2.55,5.55-2.55h33.3c6.6-70.2,13.5-123.9,20.7-161.1V143.378z"/>
	<path fill="#F3F51A" d="M674.1,245.678l-0.9-3.9c0-0.797,1.299-4.847,3.9-12.15c2.597-7.298,5.498-12.999,8.7-17.1
		c3.197-4.097,8.1-6.15,14.7-6.15c2.597,0,4.097,0.9,4.5,2.7c-16.402,33.6-26.203,57.6-29.4,72c33-53.198,58.298-79.8,75.9-79.8
		c3.999,0,6,1.303,6,3.9c0,1.8-0.703,3.802-2.1,6c-10.2,17.001-19.702,36.501-28.5,58.5c-8.803,22.003-13.2,38.503-13.2,49.5
		c0,3.6,0.797,5.4,2.4,5.4l11.7-6c1.2,0,1.8,0.9,1.8,2.7s-2.203,4.2-6.6,7.2c-4.402,3-8.803,4.5-13.2,4.5
		c-5.803,0-8.7-4.102-8.7-12.3c0-8.198,1.598-17.499,4.8-27.9c3.197-10.397,8.198-23.7,15-39.9c6.797-16.2,10.448-24.999,10.95-26.4
		c0.497-1.397,0.75-2.7,0.75-3.9c0-1.2-0.3-1.8-0.9-1.8c-3.801,0-16.003,14.901-36.6,44.7c-20.602,29.803-31.102,47.4-31.5,52.8
		c-0.202,1.401-2.1,3.352-5.7,5.85s-6.352,3.75-8.25,3.75c-1.903,0-2.948-0.703-3.15-2.1c0.403,0.6,4.097-9.398,11.1-30
		C668.597,264.179,674.1,247.478,674.1,245.678z"/>
	<path fill="#F3F51A" d="M792.596,200.978l-1.2-4.2c0-0.6,0.3-1.8,0.9-3.6c3.999-12.797,7.65-21.3,10.95-25.5
		c3.3-4.2,8.147-6.3,14.55-6.3c2.798,0,4.397,0.9,4.8,2.7c-4.401,9.403-10.5,24.802-18.3,46.2h29.1c5.597,0,8.4,0.6,8.4,1.8
		c0,2.002-4.603,3.553-13.8,4.65c-9.201,1.102-18,1.65-26.4,1.65c-10.003,28.2-18.103,55.2-24.3,81c-1.003,4.003-1.5,7.303-1.5,9.9
		c0,2.602,1.097,3.9,3.3,3.9c3.999,0,9.849-3.548,17.55-10.65c7.697-7.097,11.948-10.65,12.75-10.65c0.797,0,1.2,1.153,1.2,3.45
		c0,2.302-1.102,3.952-3.3,4.95c-18.403,16.603-31.303,24.9-38.7,24.9c-4.603,0-6.9-2.897-6.9-8.7c0-3.197,1.35-9.197,4.05-18
		c2.7-8.799,10.148-35.1,22.35-78.9c-4.8,0.802-10.5,1.2-17.1,1.2c-6.6,0-9.9-0.797-9.9-2.4c0-1.599,1.298-3.347,3.9-5.25
		c2.597-1.898,4.697-2.85,6.3-2.85h19.2l1.2-4.2C792.296,203.678,792.596,201.981,792.596,200.978z"/>
	<path fill="#F3F51A" d="M855.292,265.778l-10.8-0.3c-6.6,16.8-9.9,29.602-9.9,38.4c0,8.803,3,13.2,9,13.2
		c6.999,0,16.8-7.898,29.4-23.7c4.2-5.4,6.698-8.1,7.5-8.1c1.397,0,2.1,0.802,2.1,2.4c0,5.602-5.503,13.35-16.5,23.25
		c-11.001,9.9-19.303,14.85-24.9,14.85c-5.602,0-10.453-1.552-14.55-4.65c-4.102-3.099-6.15-8.25-6.15-15.45
		c0-6.6,1.65-15.047,4.95-25.35c3.3-10.298,5.048-16.247,5.25-17.85c-3-0.797-4.5-2.349-4.5-4.65c0-2.297,1.697-3.45,5.1-3.45h2.1
		c7.997-15.797,12.6-24.9,13.8-27.3c5.597-10.598,16.298-15.9,32.1-15.9c6.797,0,11.499,6.103,14.1,18.3
		c1.2,6.201,1.8,11.353,1.8,15.45c0,4.102-1.5,7.702-4.5,10.8c-3,3.103-6.9,5.25-11.7,6.45
		C870.593,264.578,862.689,265.778,855.292,265.778z M847.193,257.078l12,0.6c8.198,0,14.1-0.9,17.7-2.7
		c3.6-1.8,5.447-5.349,5.55-10.65c0.098-5.297-0.352-9.75-1.35-13.35c-1.8-6.398-4.303-9.6-7.5-9.6c-4.003,0-8.751,4.303-14.25,12.9
		C853.839,242.879,849.79,250.478,847.193,257.078z"/>
	<path fill="#F3F51A" d="M911.99,245.978l-1.2-5.1c0-1.2,0.197-2.297,0.6-3.3c3.197-12.6,6.45-21.197,9.75-25.8
		c3.3-4.599,8.147-6.9,14.55-6.9c2.4,0,3.797,0.801,4.2,2.4c-0.202,0.6-1.65,4.102-4.35,10.5c-2.7,6.403-5.151,12.403-7.35,18
		c-6.201,15-11.001,30-14.4,45c6.6-12.999,16.8-28.65,30.6-46.95c13.8-18.3,25.2-27.45,34.2-27.45c4.8,0,7.2,3.051,7.2,9.15
		c0,6.103-2.301,12.352-6.9,18.75c-1.603,2.203-3.75,4.35-6.45,6.45c-2.7,2.1-4.701,3.15-6,3.15c-1.303,0-1.95-0.497-1.95-1.5
		c0-0.999,0.947-3.9,2.85-8.7c1.898-4.8,2.85-7.997,2.85-9.6c0-1.598-0.501-2.4-1.5-2.4c-7.003,0-17.353,10.8-31.05,32.4
		c-13.702,21.6-23.85,42.703-30.45,63.3c-1.2,1.603-3.103,3.202-5.7,4.8c-2.602,1.599-4.65,2.4-6.15,2.4s-2.55-0.501-3.15-1.5
		c0-5.4,0.647-10.298,1.95-14.7c1.298-4.397,2.948-6.999,4.95-7.8c4.396-16.598,7.5-28.997,9.3-37.2l3-12.6
		C911.788,249.381,911.99,247.778,911.99,245.978z"/>
	<path fill="#F3F51A" d="M1012.186,265.778l-10.8-0.3c-6.6,16.8-9.9,29.602-9.9,38.4c0,8.803,3,13.2,9,13.2
		c6.999,0,16.8-7.898,29.4-23.7c4.2-5.4,6.698-8.1,7.5-8.1c1.397,0,2.1,0.802,2.1,2.4c0,5.602-5.503,13.35-16.5,23.25
		c-11.001,9.9-19.303,14.85-24.9,14.85c-5.602,0-10.453-1.552-14.55-4.65c-4.102-3.099-6.15-8.25-6.15-15.45
		c0-6.6,1.65-15.047,4.95-25.35c3.3-10.298,5.048-16.247,5.25-17.85c-3-0.797-4.5-2.349-4.5-4.65c0-2.297,1.697-3.45,5.1-3.45h2.1
		c7.997-15.797,12.6-24.9,13.8-27.3c5.597-10.598,16.298-15.9,32.1-15.9c6.797,0,11.499,6.103,14.1,18.3
		c1.2,6.201,1.8,11.353,1.8,15.45c0,4.102-1.5,7.702-4.5,10.8c-3,3.103-6.9,5.25-11.7,6.45
		C1027.486,264.578,1019.583,265.778,1012.186,265.778z M1004.086,257.078l12,0.6c8.198,0,14.1-0.9,17.7-2.7
		c3.6-1.8,5.447-5.349,5.55-10.65c0.098-5.297-0.352-9.75-1.35-13.35c-1.8-6.398-4.303-9.6-7.5-9.6c-4.003,0-8.751,4.303-14.25,12.9
		C1010.733,242.879,1006.683,250.478,1004.086,257.078z"/>
	<path fill="#F3F51A" d="M1133.383,219.878c-0.403,4.003-3,9.703-7.8,17.1c-4.8,7.401-8.503,11.1-11.1,11.1
		c-0.802,0-1.2-0.75-1.2-2.25s1.097-4.997,3.3-10.5c2.199-5.498,3.3-9.047,3.3-10.65c0-3-1.8-4.5-5.4-4.5c-0.6,0-3.9,0.501-9.9,1.5
		c-5.001,1.2-11.55,4.402-19.65,9.6c-8.1,5.203-12.15,10.903-12.15,17.1c0,2.203,0.497,4.2,1.5,6c2.597,5.203,7.148,9.6,13.65,13.2
		c6.497,3.6,12.099,7.003,16.8,10.2c4.697,3.202,7.05,7.401,7.05,12.6c0,8.803-6.75,17.25-20.25,25.35
		c-13.5,8.1-25.05,12.15-34.65,12.15c-1.603,0-2.902-0.652-3.9-1.95c-1.003-1.303-1.5-2.653-1.5-4.05c0-2.4,1.097-3.6,3.3-3.6
		c6.6,0,15.849-2.048,27.75-6.15c11.897-4.097,17.85-8.55,17.85-13.35c0-4.997-7.102-11.798-21.3-20.4
		c-5.4-3.197-10.35-7.05-14.85-11.55s-6.75-8.648-6.75-12.45c0-3.797,1.05-6.999,3.15-9.6c2.1-2.597,4.148-4.95,6.15-7.05
		c1.997-2.1,3.9-3.947,5.7-5.55c1.8-1.598,3.848-3.197,6.15-4.8c2.297-1.599,4.35-3,6.15-4.2c1.8-1.2,3.9-2.4,6.3-3.6l5.7-3
		c4.2-1.997,7.2-3.3,9-3.9s3.698-1.298,5.7-2.1c4.598-1.8,8.297-2.7,11.1-2.7C1129.783,207.878,1133.383,211.881,1133.383,219.878z"
		/>
	<path fill="#F3F51A" d="M1170.882,200.978l-1.2-4.2c0-0.6,0.3-1.8,0.9-3.6c3.999-12.797,7.65-21.3,10.95-25.5
		c3.3-4.2,8.147-6.3,14.55-6.3c2.798,0,4.397,0.9,4.8,2.7c-4.401,9.403-10.5,24.802-18.3,46.2h29.1c5.597,0,8.4,0.6,8.4,1.8
		c0,2.002-4.603,3.553-13.8,4.65c-9.201,1.102-18,1.65-26.4,1.65c-10.003,28.2-18.103,55.2-24.3,81c-1.003,4.003-1.5,7.303-1.5,9.9
		c0,2.602,1.097,3.9,3.3,3.9c3.999,0,9.849-3.548,17.55-10.65c7.697-7.097,11.948-10.65,12.75-10.65c0.797,0,1.2,1.153,1.2,3.45
		c0,2.302-1.102,3.952-3.3,4.95c-18.403,16.603-31.303,24.9-38.7,24.9c-4.603,0-6.9-2.897-6.9-8.7c0-3.197,1.35-9.197,4.05-18
		c2.7-8.799,10.148-35.1,22.35-78.9c-4.8,0.802-10.5,1.2-17.1,1.2c-6.6,0-9.9-0.797-9.9-2.4c0-1.599,1.298-3.347,3.9-5.25
		c2.597-1.898,4.697-2.85,6.3-2.85h19.2l1.2-4.2C1170.583,203.678,1170.882,201.981,1170.882,200.978z"/>
	<path fill="#F3F51A" d="M1278.879,219.878c-0.403,4.003-3,9.703-7.8,17.1c-4.8,7.401-8.503,11.1-11.1,11.1
		c-0.802,0-1.2-0.75-1.2-2.25s1.097-4.997,3.3-10.5c2.199-5.498,3.3-9.047,3.3-10.65c0-3-1.8-4.5-5.4-4.5c-0.6,0-3.9,0.501-9.9,1.5
		c-5.001,1.2-11.55,4.402-19.65,9.6c-8.1,5.203-12.15,10.903-12.15,17.1c0,2.203,0.497,4.2,1.5,6c2.597,5.203,7.148,9.6,13.65,13.2
		c6.497,3.6,12.099,7.003,16.8,10.2c4.697,3.202,7.05,7.401,7.05,12.6c0,8.803-6.75,17.25-20.25,25.35
		c-13.5,8.1-25.05,12.15-34.65,12.15c-1.603,0-2.902-0.652-3.9-1.95c-1.003-1.303-1.5-2.653-1.5-4.05c0-2.4,1.097-3.6,3.3-3.6
		c6.6,0,15.849-2.048,27.75-6.15c11.897-4.097,17.85-8.55,17.85-13.35c0-4.997-7.102-11.798-21.3-20.4
		c-5.4-3.197-10.35-7.05-14.85-11.55s-6.75-8.648-6.75-12.45c0-3.797,1.05-6.999,3.15-9.6c2.1-2.597,4.148-4.95,6.15-7.05
		c1.997-2.1,3.9-3.947,5.7-5.55c1.8-1.598,3.848-3.197,6.15-4.8c2.297-1.599,4.35-3,6.15-4.2c1.8-1.2,3.9-2.4,6.3-3.6l5.7-3
		c4.2-1.997,7.2-3.3,9-3.9s3.698-1.298,5.7-2.1c4.598-1.8,8.297-2.7,11.1-2.7C1275.279,207.878,1278.879,211.881,1278.879,219.878z"
		/>
</g>
</svg>
