<?xml version="1.0" encoding="utf-8"?>
<svg xmlns="http://www.w3.org/2000/svg" viewBox="0 0 704.98299 287.10001">
<g transform="translate(-538.8,-115.178)">
	<path fill="#F3F51A" d="M635.7,323.078l-73.8-0.3c-2.001,1.599-4.251,2.4-6.75,2.4c-2.503,0-4.35-0.801-5.55-2.4h-8.7
		c-1.401,0-2.1-0.497-2.1-1.5c0-1.397,1.148-3.249,3.45-5.55c2.297-2.297,4.547-3.849,6.75-4.65c6-66.197,11.897-116.198,17.7-150
		v-9c0-7.396,1.847-13.65,5.55-18.75c3.698-5.1,9.347-7.65,16.95-7.65c3,0,4.5,0.9,4.5,2.7c0,1.8-1.102,5.203-3.3,10.2
		c-9,19.8-15.853,48.75-20.55,86.85c-4.702,38.1-7.05,65.85-7.05,83.25c0,1.402,0.3,3,0.9,4.8l79.8,0.3
		c12.797,0,24.3-1.599,34.5-4.8h0.3c0.797,0,1.2,1.251,1.2,3.75c0,2.503-0.9,4.65-2.7,6.45c-3,3-10.2,4.5-21.6,4.5L635.7,323.078z"
		/>
	<path fill="#F3F51A" d="M727.201,265.778l-10.8-0.3c-6.6,16.8-9.9,29.602-9.9,38.4c0,8.803,3,13.2,9,13.2
		c6.999,0,16.8-7.898,29.4-23.7c4.2-5.4,6.698-8.1,7.5-8.1c1.397,0,2.1,0.802,2.1,2.4c0,5.602-5.503,13.35-16.5,23.25
		c-11.001,9.9-19.303,14.85-24.9,14.85c-5.602,0-10.453-1.552-14.55-4.65c-4.102-3.099-6.15-8.25-6.15-15.45
		c0-6.6,1.65-15.047,4.95-25.35c3.3-10.298,5.048-16.247,5.25-17.85c-3-0.797-4.5-2.349-4.5-4.65c0-2.297,1.697-3.45,5.1-3.45h2.1
		c7.997-15.797,12.6-24.9,13.8-27.3c5.597-10.598,16.298-15.9,32.1-15.9c6.797,0,11.499,6.103,14.1,18.3
		c1.2,6.201,1.8,11.353,1.8,15.45c0,4.102-1.5,7.702-4.5,10.8c-3,3.103-6.9,5.25-11.7,6.45
		C742.501,264.578,734.598,265.778,727.201,265.778z M719.101,257.078l12,0.6c8.198,0,14.1-0.9,17.7-2.7
		c3.6-1.8,5.447-5.349,5.55-10.65c0.098-5.297-0.352-9.75-1.35-13.35c-1.8-6.398-4.303-9.6-7.5-9.6c-4.003,0-8.751,4.303-14.25,12.9
		C725.748,242.879,721.698,250.478,719.101,257.078z"/>
	<path fill="#F3F51A" d="M828.898,235.178l2.4-13.5c0-3.197-1.702-4.8-5.1-4.8c-2.4,0-6.15,1.65-11.25,4.95
		c-5.1,3.3-9.253,6.6-12.45,9.9c-3.202,3.3-8.4,13.903-15.6,31.8c-7.2,17.901-10.8,31.753-10.8,41.55c0,7.402,2.897,11.1,8.7,11.1
		c7.397,0,14.798-2.85,22.2-8.55c7.396-5.7,13.396-11.499,18-17.4c4.598-5.897,6.998-8.85,7.2-8.85c0.999,0.403,1.5,1.603,1.5,3.6
		c0,2.001-2.4,6.253-7.2,12.75c-4.8,6.501-11.452,12.703-19.95,18.6c-8.503,5.902-16.753,8.85-24.75,8.85
		c-12.202,0-18.3-6.999-18.3-21c0-13.997,4.5-30.698,13.5-50.1c9-19.396,16.8-30.6,23.4-33.6c3-1.2,6.3-2.7,9.9-4.5
		c7.2-3.797,12.9-5.7,17.1-5.7c9.398,0,14.1,4.702,14.1,14.1c0,5.602-1.102,9.703-3.3,12.3c-2.203,2.602-4.102,3.9-5.7,3.9
		C830.098,240.578,828.898,238.778,828.898,235.178z"/>
	<path fill="#F3F51A" d="M878.995,200.978l-1.2-4.2c0-0.6,0.3-1.8,0.9-3.6c3.999-12.797,7.65-21.3,10.95-25.5
		c3.3-4.2,8.147-6.3,14.55-6.3c2.798,0,4.397,0.9,4.8,2.7c-4.401,9.403-10.5,24.802-18.3,46.2h29.1c5.597,0,8.4,0.6,8.4,1.8
		c0,2.002-4.603,3.553-13.8,4.65c-9.201,1.102-18,1.65-26.4,1.65c-10.003,28.2-18.103,55.2-24.3,81c-1.003,4.003-1.5,7.303-1.5,9.9
		c0,2.602,1.097,3.9,3.3,3.9c3.999,0,9.849-3.548,17.55-10.65c7.697-7.097,11.948-10.65,12.75-10.65c0.797,0,1.2,1.153,1.2,3.45
		c0,2.302-1.102,3.952-3.3,4.95c-18.403,16.603-31.303,24.9-38.7,24.9c-4.603,0-6.9-2.897-6.9-8.7c0-3.197,1.35-9.197,4.05-18
		c2.7-8.799,10.148-35.1,22.35-78.9c-4.8,0.802-10.5,1.2-17.1,1.2c-6.6,0-9.9-0.797-9.9-2.4c0-1.599,1.298-3.347,3.9-5.25
		c2.597-1.898,4.697-2.85,6.3-2.85h19.2l1.2-4.2C878.695,203.678,878.995,201.981,878.995,200.978z"/>
	<path fill="#F3F51A" d="M929.391,246.878l-1.2-5.1c0-0.197,0.947-3.999,2.85-11.4c1.898-7.397,4.35-13.148,7.35-17.25
		c3-4.097,7.997-6.15,15-6.15c2.798,0,4.5,0.9,5.1,2.7c-24,59.001-36,89.902-36,92.7c0,0.801,0.347,1.2,1.05,1.2
		c0.699,0,3.047-1.598,7.05-4.8c19.997-15.398,37.598-36.999,52.8-64.8c0.197-6.197,2.1-12.6,5.7-19.2c3.6-6.6,8.896-9.9,15.9-9.9
		c2.198,0,3.398,0.9,3.6,2.7c-0.6,1.8-2.803,7.8-6.6,18c-3.802,10.2-7.2,19.604-10.2,28.2c-3,8.602-6.553,20.203-10.65,34.8
		c-4.102,14.602-6.15,22.852-6.15,24.75c0,1.903,0.197,2.85,0.6,2.85c1.598,0,5.648-2.499,12.15-7.5
		c6.497-4.997,10.749-7.5,12.75-7.5c1.997,0,3,0.501,3,1.5c0,2.4-7.402,8.1-22.2,17.1c-5.803,3.398-9.202,5.499-10.2,6.3
		c-1.003,0.797-2.803,2.7-5.4,5.7c-6.403,6.6-10.95,9.9-13.65,9.9c-2.7,0-4.05-1.102-4.05-3.3c0-1.402,1.598-3.553,4.8-6.45
		c3.197-2.901,5.297-5.452,6.3-7.65c3.398-8.198,10.2-32.1,20.4-71.7c-9.403,14.002-21.853,29.653-37.35,46.95
		c-15.501,17.302-27.15,25.95-34.95,25.95c-2.803,0-4.2-1.65-4.2-4.95s0.548-6.398,1.65-9.3c1.097-2.897,4.05-9.647,8.85-20.25
		C924.089,267.578,929.391,252.878,929.391,246.878z"/>
	<path fill="#F3F51A" d="M1022.389,245.978l-1.2-5.1c0-1.2,0.197-2.297,0.6-3.3c3.197-12.6,6.45-21.197,9.75-25.8
		c3.3-4.599,8.147-6.9,14.55-6.9c2.4,0,3.797,0.801,4.2,2.4c-0.202,0.6-1.65,4.102-4.35,10.5c-2.7,6.403-5.151,12.403-7.35,18
		c-6.201,15-11.001,30-14.4,45c6.6-12.999,16.8-28.65,30.6-46.95c13.8-18.3,25.2-27.45,34.2-27.45c4.8,0,7.2,3.051,7.2,9.15
		c0,6.103-2.301,12.352-6.9,18.75c-1.603,2.203-3.75,4.35-6.45,6.45c-2.7,2.1-4.701,3.15-6,3.15c-1.303,0-1.95-0.497-1.95-1.5
		c0-0.999,0.947-3.9,2.85-8.7c1.898-4.8,2.85-7.997,2.85-9.6c0-1.598-0.501-2.4-1.5-2.4c-7.003,0-17.353,10.8-31.05,32.4
		c-13.702,21.6-23.85,42.703-30.45,63.3c-1.2,1.603-3.103,3.202-5.7,4.8c-2.602,1.599-4.65,2.4-6.15,2.4s-2.55-0.501-3.15-1.5
		c0-5.4,0.647-10.298,1.95-14.7c1.298-4.397,2.948-6.999,4.95-7.8c4.396-16.598,7.5-28.997,9.3-37.2l3-12.6
		C1022.188,249.381,1022.389,247.778,1022.389,245.978z"/>
	<path fill="#F3F51A" d="M1122.585,265.778l-10.8-0.3c-6.6,16.8-9.9,29.602-9.9,38.4c0,8.803,3,13.2,9,13.2
		c6.999,0,16.8-7.898,29.4-23.7c4.2-5.4,6.698-8.1,7.5-8.1c1.397,0,2.1,0.802,2.1,2.4c0,5.602-5.503,13.35-16.5,23.25
		c-11.001,9.9-19.303,14.85-24.9,14.85c-5.602,0-10.453-1.552-14.55-4.65c-4.102-3.099-6.15-8.25-6.15-15.45
		c0-6.6,1.65-15.047,4.95-25.35c3.3-10.298,5.048-16.247,5.25-17.85c-3-0.797-4.5-2.349-4.5-4.65c0-2.297,1.697-3.45,5.1-3.45h2.1
		c7.997-15.797,12.6-24.9,13.8-27.3c5.597-10.598,16.298-15.9,32.1-15.9c6.797,0,11.499,6.103,14.1,18.3
		c1.2,6.201,1.8,11.353,1.8,15.45c0,4.102-1.5,7.702-4.5,10.8c-3,3.103-6.9,5.25-11.7,6.45
		C1137.886,264.578,1129.982,265.778,1122.585,265.778z M1114.486,257.078l12,0.6c8.198,0,14.1-0.9,17.7-2.7
		c3.6-1.8,5.447-5.349,5.55-10.65c0.098-5.297-0.352-9.75-1.35-13.35c-1.8-6.398-4.303-9.6-7.5-9.6c-4.003,0-8.751,4.303-14.25,12.9
		C1121.132,242.879,1117.083,250.478,1114.486,257.078z"/>
	<path fill="#F3F51A" d="M1243.783,219.878c-0.403,4.003-3,9.703-7.8,17.1c-4.8,7.401-8.503,11.1-11.1,11.1
		c-0.802,0-1.2-0.75-1.2-2.25s1.097-4.997,3.3-10.5c2.199-5.498,3.3-9.047,3.3-10.65c0-3-1.8-4.5-5.4-4.5c-0.6,0-3.9,0.501-9.9,1.5
		c-5.001,1.2-11.55,4.402-19.65,9.6c-8.1,5.203-12.15,10.903-12.15,17.1c0,2.203,0.497,4.2,1.5,6c2.597,5.203,7.148,9.6,13.65,13.2
		c6.497,3.6,12.099,7.003,16.8,10.2c4.697,3.202,7.05,7.401,7.05,12.6c0,8.803-6.75,17.25-20.25,25.35
		c-13.5,8.1-25.05,12.15-34.65,12.15c-1.603,0-2.902-0.652-3.9-1.95c-1.003-1.303-1.5-2.653-1.5-4.05c0-2.4,1.097-3.6,3.3-3.6
		c6.6,0,15.849-2.048,27.75-6.15c11.897-4.097,17.85-8.55,17.85-13.35c0-4.997-7.102-11.798-21.3-20.4
		c-5.4-3.197-10.35-7.05-14.85-11.55s-6.75-8.648-6.75-12.45c0-3.797,1.05-6.999,3.15-9.6c2.1-2.597,4.148-4.95,6.15-7.05
		c1.997-2.1,3.9-3.947,5.7-5.55c1.8-1.598,3.848-3.197,6.15-4.8c2.297-1.599,4.35-3,6.15-4.2c1.8-1.2,3.9-2.4,6.3-3.6l5.7-3
		c4.2-1.997,7.2-3.3,9-3.9s3.698-1.298,5.7-2.1c4.598-1.8,8.297-2.7,11.1-2.7C1240.183,207.878,1243.783,211.881,1243.783,219.878z"
		/>
</g>
</svg>
