<?xml version="1.0" encoding="utf-8"?>
<svg xmlns="http://www.w3.org/2000/svg" viewBox="0 0 4218.3092 300.58802">
<g transform="translate(-403.631,-481.737)">
	<path fill="#FF0000" d="M688.688,498.732c0,6.935-8.521,20.265-25.562,39.99c-17.042,19.728-33.618,35.5-49.731,47.314
		c-12.213,26.759-24.815,46.289-37.809,58.594s-30.53,21.291-52.608,26.953c38.855,10.353,62.114,16.381,69.777,18.091
		c7.663,1.708,15.01,2.563,22.042,2.563c10.153,0,19.329-3.688,27.53-11.06c0.879-0.487,1.415-0.732,1.611-0.732
		c0.487,0.197,0.78,0.439,0.879,0.732c0,1.57-2.589,4.166-7.761,7.796c-9.567,6.569-23.481,9.855-41.737,9.855
		c-13.376,0-26.262-1.271-38.66-3.809c-12.399-2.541-31.289-7.862-56.671-15.967c-16.306,3.223-33.096,4.834-50.375,4.834
		c-30.656,0-45.982-4.688-45.982-14.062c0-8.789,11.714-13.184,35.145-13.184c18.157,0,45.248,4.688,81.273,14.062
		c10.749-4.198,20.299-10.423,28.654-18.677c8.354-8.251,18.885-21.947,31.588-41.089c-29.103,25.392-56.3,38.086-81.592,38.086
		c-17.189,0-30.885-5.077-41.089-15.234c-10.206-10.155-15.308-23.877-15.308-41.162c0-26.463,12.524-51.562,37.573-75.293
		s51.537-35.596,79.468-35.596c12.891,0,23.167,3.321,30.835,9.961c7.665,6.642,11.499,15.626,11.499,26.953
		c0,20.021-9.375,40.723-28.125,62.109s-36.866,32.08-54.346,32.08c-7.423,0-13.696-2.344-18.823-7.031s-7.69-10.448-7.69-17.285
		c0-5.273,1.634-9.837,4.907-13.696c3.271-3.856,7.152-5.786,11.646-5.786c6.054,0,9.082,2.98,9.082,8.936
		c0,3.223-1.172,6.079-3.516,8.569s-4.98,3.735-7.91,3.735c-4.786,0-7.082-2.197-6.885-6.592c0.096-2.831-0.245-4.248-1.025-4.248
		c-2.149,0-3.223,3.028-3.223,9.082c0,6.152,2.318,11.279,6.958,15.381c4.637,4.102,10.423,6.152,17.358,6.152
		c16.113,0,33.275-10.521,51.489-31.567c18.212-21.043,27.319-40.892,27.319-59.546c0-10.057-3.442-18.333-10.327-24.829
		c-6.885-6.493-15.699-9.741-26.44-9.741c-25.88,0-50.661,12.941-74.341,38.818c-23.683,25.88-35.522,52.833-35.522,80.859
		c0,13.184,4.223,23.536,12.671,31.055c8.446,7.521,20.043,11.279,34.79,11.279c12.694,0,25.316-3.124,37.866-9.375
		c12.547-6.249,28.001-17.139,46.362-32.666c15.331-25.683,26.463-43.506,33.398-53.467c6.64-9.569,14.598-19.237,23.877-29.004
		c18.065-18.944,31.883-28.418,41.455-28.418C686.686,493.459,688.688,495.217,688.688,498.732z M495.155,677.59
		c-34.269-10.84-57.552-16.26-69.853-16.26c-12.79,0-19.183,2.833-19.183,8.496c0,7.617,14.985,11.426,44.957,11.426
		C467.282,681.252,481.976,680.032,495.155,677.59z M686.198,498.732c0-2.147-1.172-3.223-3.516-3.223
		c-7.228,0-17.139,7.375-29.736,22.119c-11.231,13.184-23.73,34.522-37.5,64.014c16.699-13.573,32.666-29.271,47.9-47.095
		C678.581,516.727,686.198,504.789,686.198,498.732z"/>
	<path fill="#FF0000" d="M706.34,638.112c0,0.293-0.881,1.561-2.639,3.804l-6.303,7.896c-20.233,24.964-37.583,37.445-52.048,37.445
		c-6.843,0-12.586-2.467-17.228-7.397c-4.642-4.93-6.962-11.107-6.962-18.53c0-17.578,12.254-33.055,36.768-46.436
		c12.891-7.031,23.387-10.547,31.494-10.547c3.516,0,6.519,1.051,9.009,3.149c2.49,2.101,3.735,4.665,3.735,7.69
		c0,7.031-4.591,13.014-13.77,17.944c-9.181,4.933-24.513,9.547-45.996,13.843c-6.642,10.06-9.961,18.457-9.961,25.195
		c0,8.4,4.545,12.598,13.637,12.598c15.445,0,34.36-15.062,56.747-45.193c1.172-1.561,2.149-2.341,2.932-2.341
		C706.143,637.332,706.34,637.625,706.34,638.112z M693.962,610.939c0-3.124-1.71-4.688-5.127-4.688
		c-5.177,0-11.989,3.589-20.435,10.767c-8.448,7.178-16.725,16.479-24.829,27.905c14.062-3.612,25.976-8.716,35.742-15.308
		C689.078,623.024,693.962,616.799,693.962,610.939z"/>
	<path fill="#FF0000" d="M760.319,604.348l-1.172,2.197h-19.189l-32.666,55.811c-4.005,6.738-6.006,12.11-6.006,16.113
		c0,4.395,2.298,6.592,6.894,6.592c8.899,0,23.909-15.502,45.032-46.509c0.685-0.975,1.271-1.465,1.76-1.465
		c0.586,0,0.879,0.293,0.879,0.879c-0.099,0.293-0.586,1.076-1.465,2.348l-6.306,8.654c-18.381,25.527-32.215,38.29-41.503,38.29
		c-4.596,0-8.432-1.662-11.513-4.98c-3.081-3.319-4.619-7.471-4.619-12.451c0-5.859,2.586-13.184,7.764-21.973l24.609-41.309
		h-14.941l1.465-2.197h14.648l17.139-28.418c2.93,0.783,5.713,1.172,8.35,1.172c2.733,0,5.566-0.389,8.496-1.172l-16.846,28.418
		H760.319z"/>
	<path fill="#FF0000" d="M862.858,604.348l-1.172,2.197h-19.189l-32.666,55.811c-4.005,6.738-6.006,12.11-6.006,16.113
		c0,4.395,2.298,6.592,6.894,6.592c8.899,0,23.909-15.502,45.032-46.509c0.685-0.975,1.271-1.465,1.76-1.465
		c0.586,0,0.879,0.293,0.879,0.879c-0.099,0.293-0.586,1.076-1.465,2.348l-6.306,8.654c-18.381,25.527-32.215,38.29-41.503,38.29
		c-4.596,0-8.432-1.662-11.513-4.98c-3.081-3.319-4.619-7.471-4.619-12.451c0-5.859,2.586-13.184,7.764-21.973l24.609-41.309
		h-14.941l1.465-2.197h14.648l17.139-28.418c2.93,0.783,5.713,1.172,8.35,1.172c2.733,0,5.566-0.389,8.496-1.172l-16.846,28.418
		H862.858z"/>
	<path fill="#FF0000" d="M951.994,637.673c0,0.783-0.49,1.664-1.467,2.641l-6.306,8.654c-18.379,25.527-32.066,38.29-41.061,38.29
		c-4.695,0-8.533-1.685-11.513-5.054c-2.982-3.369-4.472-7.592-4.472-12.671c0-6.834,3.71-15.77,11.133-26.807
		c11.62-17.088,17.432-27.246,17.432-30.469c0-3.809-2.003-5.713-6.006-5.713c-5.859,0-13.868,5.763-24.023,17.285
		c-9.767,11.037-23.195,31.934-40.283,62.695c-2.93-0.586-5.42-0.879-7.471-0.879c-2.149,0-5.031,0.293-8.643,0.879l21.533-38.965
		c2.93-5.566,7.42-13.77,13.477-24.609c3.223-5.273,13.133-22.069,29.736-50.391l22.266-37.793c2.93,0.586,5.42,0.879,7.471,0.879
		c3.905,0,7.617-0.487,11.133-1.465c-10.158,16.31-25.294,40.723-45.41,73.242c-0.586,0.978-8.155,13.575-22.705,37.793
		c18.358-27.246,32.86-40.869,43.506-40.869c4.198,0,7.787,1.808,10.767,5.42c2.978,3.614,4.468,8.009,4.468,13.184
		c0,6.738-4.298,16.457-12.891,29.15c-9.572,14.161-14.355,23.048-14.355,26.66c0,4.2,2.101,6.299,6.308,6.299
		c7.626,0,20.242-12.323,37.848-36.971l4.546-6.308l2.641-3.227c0.487-0.978,1.073-1.467,1.758-1.467
		C951.797,637.087,951.994,637.284,951.994,637.673z"/>
	<path fill="#FF0000" d="M1026.115,638.112c0,0.293-0.881,1.561-2.639,3.804l-6.303,7.896
		c-20.233,24.964-37.583,37.445-52.048,37.445c-6.843,0-12.586-2.467-17.228-7.397c-4.642-4.93-6.962-11.107-6.962-18.53
		c0-17.578,12.254-33.055,36.768-46.436c12.891-7.031,23.387-10.547,31.494-10.547c3.516,0,6.519,1.051,9.009,3.149
		c2.49,2.101,3.735,4.665,3.735,7.69c0,7.031-4.591,13.014-13.77,17.944c-9.181,4.933-24.513,9.547-45.996,13.843
		c-6.642,10.06-9.961,18.457-9.961,25.195c0,8.4,4.545,12.598,13.637,12.598c15.445,0,34.36-15.062,56.747-45.193
		c1.172-1.561,2.149-2.341,2.932-2.341C1025.918,637.332,1026.115,637.625,1026.115,638.112z M1013.737,610.939
		c0-3.124-1.71-4.688-5.127-4.688c-5.177,0-11.989,3.589-20.435,10.767c-8.448,7.178-16.725,16.479-24.829,27.905
		c14.062-3.612,25.976-8.716,35.742-15.308C1008.853,623.024,1013.737,616.799,1013.737,610.939z"/>
	<path fill="#FF0000" d="M1124.553,637.819c0,1.465-5.427,8.242-16.278,20.334c-11.146,12.483-26.351,24.138-45.611,34.964
		l-7.471,13.037c-15.136,25.877-30.077,44.872-44.824,56.982c-15.624,12.792-29.004,19.189-40.137,19.189
		c-9.961,0-14.941-4.591-14.941-13.77c0-11.231,7.569-22.755,22.705-34.57c8.302-6.445,15.333-11.33,21.094-14.648
		c8.888-5.079,22.559-11.572,41.016-19.482l2.051-1.025l25.635-45.557c7.127-12.401,16.308-28.319,27.539-47.754
		c2.733,0.685,5.028,1.025,6.885,1.025c2.733,0,6.347-0.341,10.84-1.025c-7.814,12.696-19.629,32.716-35.449,60.059l-13.477,24.609
		c12.582-7.022,22.847-14.042,30.796-21.064c7.949-7.022,16.558-16.676,25.825-28.963c1.17-1.95,2.193-2.927,3.072-2.927
		C1124.187,637.233,1124.429,637.43,1124.553,637.819z M1040.983,701.613c-27.832,14.159-45.506,23.827-53.027,29.004
		c-20.409,14.062-30.615,26.903-30.615,38.525c0,3.124,1.172,5.736,3.516,7.837c2.344,2.099,5.273,3.149,8.789,3.149
		c10.254,0,20.412-5.713,30.469-17.139c8.496-9.572,21.533-29.054,39.111-58.447L1040.983,701.613z M1128.581,577.688
		c0,3.321-1.442,6.397-4.321,9.229c-2.882,2.833-6.031,4.248-9.448,4.248c-4.005,0-6.006-2.099-6.006-6.299
		c0-3.124,1.439-6.152,4.321-9.082c2.879-2.93,5.933-4.395,9.155-4.395C1126.48,571.389,1128.581,573.49,1128.581,577.688z"/>
	<path fill="#FF0000" d="M1211.125,637.819c0,1.559-2.884,5.209-8.649,10.952c-8.602,8.569-16.516,12.852-23.747,12.852
		c-3.03,0-5.72-0.586-8.063-1.758c-12.9,18.263-25.019,27.393-36.355,27.393c-5.864,0-10.875-2.417-15.026-7.251
		c-4.154-4.834-6.23-10.62-6.23-17.358c0-15.038,9.862-29.54,29.59-43.506c13.866-9.862,25.292-14.795,34.277-14.795
		c8.397,0,12.598,4.493,12.598,13.477c0,11.231-5.91,24.756-17.725,40.576c1.952,1.172,4.149,1.758,6.592,1.758
		c4.395,0,9.528-2.044,15.404-6.132c5.873-4.088,10.673-9.002,14.396-14.747c1.078-1.364,1.863-2.046,2.353-2.046
		C1210.928,637.233,1211.125,637.43,1211.125,637.819z M1187.321,618.117c0-7.91-3.566-11.865-10.693-11.865
		c-8.888,0-19.728,8.496-32.52,25.488c-12.794,16.992-19.189,31.3-19.189,42.92c0,6.738,3.223,10.107,9.668,10.107
		c10.547,0,22.069-8.69,34.57-26.074c-2.833-3.124-4.248-6.347-4.248-9.668c0-4.784,1.904-9.716,5.713-14.795
		c3.809-5.077,7.519-7.617,11.133-7.617c1.561,0,2.637,0.978,3.223,2.93C1186.539,626.126,1187.321,622.317,1187.321,618.117z"/>
	<path fill="#FF0000" d="M1305.314,637.966c0,2.25-7.088,11.737-21.263,28.459c-11.732,13.889-21.021,20.833-27.864,20.833
		c-4.303,0-7.947-1.735-10.927-5.2c-2.982-3.465-4.472-7.64-4.472-12.524c0-3.809,1.904-9.13,5.713-15.967l-2.93,3.955
		c-8.986,11.524-15.578,19.24-19.775,23.145c-4.591,4.395-8.936,6.592-13.037,6.592c-4.298,0-7.91-1.685-10.84-5.054
		s-4.395-7.494-4.395-12.378c0-5.663,2.197-12.158,6.592-19.482l26.66-44.824c3.319,0.685,5.907,1.025,7.764,1.025
		c1.854,0,5.175-0.341,9.961-1.025l-34.863,57.422c-3.516,5.859-5.273,11.037-5.273,15.527c0,4.395,1.854,6.592,5.566,6.592
		c9.862,0,25.683-18.407,47.461-55.225l14.355-24.316c3.026,0.685,5.566,1.025,7.617,1.025c2.44,0,5.907-0.341,10.4-1.025
		l-23.438,38.232c-11.133,18.164-16.699,29.835-16.699,35.01c0,4.2,2.005,6.299,6.015,6.299c7.823,0,20.535-12.323,38.139-36.971
		l4.548-6.308l2.639-3.229c0.49-0.975,0.978-1.465,1.467-1.465C1305.021,637.087,1305.314,637.38,1305.314,637.966z"/>
	<path fill="#FF0000" d="M1388.811,637.966c0,0.785-2.934,4.36-8.803,10.728c-7.437,8.231-14.431,12.344-20.986,12.344
		c-7.437,0-11.153-4.296-11.153-12.891c0-2.733,0.586-6.2,1.758-10.4c-6.152,5.372-11.158,10.693-15.015,15.967
		c-3.859,5.273-10.524,16.017-19.995,32.227c-5.177-0.392-8.203-0.586-9.082-0.586c-0.392,0-3.369,0.194-8.936,0.586l24.023-38.965
		c12.012-19.53,18.018-31.641,18.018-36.328c0-2.733-1.126-4.102-3.376-4.102c-5.479,0-15.413,10.521-29.798,31.565
		c-0.881,1.369-1.664,2.053-2.348,2.053c-0.392-0.096-0.586-0.389-0.586-0.879c0.096-0.49,0.293-0.881,0.586-1.174l2.641-3.669
		c15.063-20.062,25.285-30.093,30.666-30.093c7.823,0,11.737,5.031,11.737,15.088c0,7.521-4.005,17.482-12.012,29.883
		c5.077-5.859,9.911-10.643,14.502-14.355c3.71-8.69,8.324-15.967,13.843-21.826c5.516-5.859,10.474-8.789,14.868-8.789
		c3.026,0,4.541,1.318,4.541,3.955c0,4.688-6.789,11.378-20.361,20.068c-2.149,1.369-5.372,3.369-9.668,6.006l-1.758,1.465
		c-1.369,4.493-2.051,8.203-2.051,11.133c0,8.203,3.081,12.305,9.247,12.305c7.631,0,15.946-6.319,24.95-18.96
		c1.955-2.154,3.179-3.232,3.669-3.232C1388.518,637.087,1388.811,637.38,1388.811,637.966z"/>
	<path fill="#FF0000" d="M1505.998,637.966c0,2.055-7.088,11.54-21.263,28.459c-11.636,13.889-20.778,20.833-27.424,20.833
		c-4.399,0-8.091-1.71-11.074-5.127c-2.982-3.417-4.472-7.617-4.472-12.598c0-4.395,0.902-8.471,2.71-12.231
		c1.806-3.758,6.519-11.206,14.136-22.339c7.91-11.719,11.865-19.189,11.865-22.412c0-4.003-2.101-6.006-6.299-6.006
		c-14.259,0-36.232,26.466-65.918,79.395c-4.786-0.392-7.667-0.586-8.643-0.586c-3.419,0-6.642,0.194-9.668,0.586l22.852-36.182
		c12.987-20.702,19.482-33.641,19.482-38.818c0-2.93-1.225-4.395-3.669-4.395c-4.992,0-14.827,10.521-29.505,31.565
		c-0.881,1.273-1.565,1.957-2.055,2.053c-0.49,0-0.783-0.293-0.879-0.879c0.096-0.49,0.293-0.881,0.586-1.174l2.788-3.669
		c14.964-20.062,25.04-30.093,30.224-30.093c3.326,0,6.162,1.515,8.51,4.541c2.348,3.028,3.522,6.642,3.522,10.84
		c0,6.251-3.662,14.941-10.986,26.074c11.522-15.917,20.384-26.807,26.587-32.666c6.2-5.859,11.938-8.789,17.212-8.789
		c4.296,0,7.91,1.758,10.84,5.273s4.395,7.862,4.395,13.037c0,6.544-4.493,16.553-13.477,30.029
		c-9.181,13.77-13.77,22.559-13.77,26.367c0,4.005,2.005,6.006,6.015,6.006c8.702,0,23.714-15.502,45.032-46.509
		c0.49-0.975,0.978-1.465,1.467-1.465C1505.705,637.087,1505.998,637.38,1505.998,637.966z"/>
	<path fill="#FF0000" d="M1579.826,638.112c0,0.293-0.881,1.561-2.639,3.804l-6.303,7.896
		c-20.233,24.964-37.583,37.445-52.048,37.445c-6.843,0-12.586-2.467-17.228-7.397c-4.642-4.93-6.962-11.107-6.962-18.53
		c0-17.578,12.254-33.055,36.768-46.436c12.891-7.031,23.387-10.547,31.494-10.547c3.516,0,6.519,1.051,9.009,3.149
		c2.49,2.101,3.735,4.665,3.735,7.69c0,7.031-4.591,13.014-13.77,17.944c-9.181,4.933-24.513,9.547-45.996,13.843
		c-6.642,10.06-9.961,18.457-9.961,25.195c0,8.4,4.545,12.598,13.637,12.598c15.445,0,34.36-15.062,56.747-45.193
		c1.172-1.561,2.149-2.341,2.932-2.341C1579.629,637.332,1579.826,637.625,1579.826,638.112z M1567.448,610.939
		c0-3.124-1.71-4.688-5.127-4.688c-5.177,0-11.989,3.589-20.435,10.767c-8.448,7.178-16.725,16.479-24.829,27.905
		c14.062-3.612,25.976-8.716,35.742-15.308C1562.564,623.024,1567.448,616.799,1567.448,610.939z"/>
	<path fill="#FF0000" d="M1671.965,638.112c0,1.465-5.379,8.144-16.132,20.041c-11.929,13.069-27.475,24.87-46.637,35.403
		l-7.178,12.891c-14.161,25.39-28.956,44.286-44.385,56.689c-15.917,12.792-29.736,19.189-41.455,19.189
		c-4.003,0-7.347-1.271-10.034-3.809c-2.685-2.541-4.028-5.665-4.028-9.375c0-19.629,22.609-39.942,67.822-60.938
		c3.71-1.856,9.276-4.445,16.699-7.764l2.197-1.318l25.781-45.85c-10.158,13.966-17.53,23.122-22.119,27.466
		c-4.591,4.344-9.229,6.519-13.916,6.519c-4.005,0-7.496-1.71-10.474-5.127c-2.98-3.417-4.468-7.42-4.468-12.012
		c0-5.566,3.465-14.257,10.4-26.074l22.559-38.086c2.245,0.392,4.834,0.586,7.764,0.586c2.538,0,6.054-0.341,10.547-1.025
		l-28.857,46.875c-8.203,13.282-12.305,21.973-12.305,26.074c0,4.395,2,6.592,6.006,6.592c10.547,0,26.756-18.7,48.633-56.104
		l13.477-22.998c2.245,0.392,4.98,0.586,8.203,0.586c2.637,0,5.907-0.341,9.814-1.025c-12.11,19.24-28.517,47.461-49.219,84.668
		c11.927-6.143,21.998-12.797,30.212-19.965c8.212-7.168,17.404-17.285,27.573-30.354c1.369-1.755,2.248-2.634,2.639-2.634
		C1671.672,637.233,1671.965,637.526,1671.965,638.112z M1587.37,701.613c-1.563,0.879-7.082,3.662-16.553,8.35
		c-44.433,22.069-66.65,41.895-66.65,59.473c0,7.324,4.102,10.986,12.305,10.986c10.353,0,20.654-5.617,30.908-16.846
		c10.254-11.231,22.948-30.908,38.086-59.033L1587.37,701.613z"/>
	<path fill="#FF0000" d="M1812.004,637.819c0,1.559-2.884,5.209-8.649,10.952c-8.602,8.569-16.516,12.852-23.747,12.852
		c-3.03,0-5.72-0.586-8.063-1.758c-12.9,18.263-25.019,27.393-36.355,27.393c-5.864,0-10.875-2.417-15.026-7.251
		c-4.154-4.834-6.23-10.62-6.23-17.358c0-15.038,9.862-29.54,29.59-43.506c13.866-9.862,25.292-14.795,34.277-14.795
		c8.397,0,12.598,4.493,12.598,13.477c0,11.231-5.91,24.756-17.725,40.576c1.952,1.172,4.149,1.758,6.592,1.758
		c4.395,0,9.528-2.044,15.404-6.132c5.873-4.088,10.673-9.002,14.396-14.747c1.078-1.364,1.863-2.046,2.353-2.046
		C1811.807,637.233,1812.004,637.43,1812.004,637.819z M1788.2,618.117c0-7.91-3.566-11.865-10.693-11.865
		c-8.888,0-19.728,8.496-32.52,25.488c-12.794,16.992-19.189,31.3-19.189,42.92c0,6.738,3.223,10.107,9.668,10.107
		c10.547,0,22.069-8.69,34.57-26.074c-2.833-3.124-4.248-6.347-4.248-9.668c0-4.784,1.904-9.716,5.713-14.795
		c3.809-5.077,7.519-7.617,11.133-7.617c1.561,0,2.637,0.978,3.223,2.93C1787.417,626.126,1788.2,622.317,1788.2,618.117z"/>
	<path fill="#FF0000" d="M1911.54,533.01c0,8.693-6.155,19.606-18.464,32.739c-12.309,13.136-28.43,26.001-48.356,38.599h25.195
		l-1.318,2.197h-25.488l-12.016,23.291c-14.751,28.81-27.354,50.514-37.807,65.112c-10.451,14.598-22.515,27.612-36.193,39.038
		c-18.853,15.624-36.388,23.438-52.606,23.438c-7.228,0-10.842-1.051-10.842-3.149c0-0.978,0.538-1.465,1.611-1.465
		c0.783,0,1.369,0.096,1.758,0.293c3.518,1.025,6.839,1.538,9.965,1.538c13.188,0,26.475-5.91,39.855-17.725
		c8.208-7.228,15.388-15.724,21.542-25.488c5.081-7.814,17.095-29.1,36.046-63.867l22.565-41.016h-15.674l1.172-2.197h15.969
		c12.504-21.19,26.326-39.525,41.469-55.005c15.141-15.477,26.813-23.218,35.021-23.218
		C1909.34,526.125,1911.54,528.421,1911.54,533.01z M1909.782,532.717c0-3.223-1.614-4.834-4.836-4.834
		c-7.425,0-17.535,8.496-30.333,25.488c-6.349,8.595-15.923,24.609-28.72,48.047c16.022-11.133,30.675-23.827,43.961-38.086
		C1903.138,549.075,1909.782,538.869,1909.782,532.717z"/>
	<path fill="#FF0000" d="M1981.999,534.182c-41.016,68.262-64.918,108.398-71.704,120.41c-6.789,12.012-10.181,19.972-10.181,23.877
		c0,4.395,1.856,6.592,5.573,6.592c8.215,0,23.275-15.502,45.181-46.509c0.488-0.975,1.074-1.465,1.76-1.465
		c0.389,0.099,0.586,0.392,0.586,0.879c0,0.588-0.49,1.371-1.465,2.348l-6.308,8.654c-18.48,25.527-32.119,38.29-40.917,38.29
		c-4.205,0-7.652-1.588-10.339-4.761c-2.689-3.172-4.033-7.201-4.033-12.085c0-5.37,1.245-10.57,3.735-15.601
		c2.49-5.028,10.961-19.556,25.415-43.579c17.674-29.393,32.567-54.881,44.678-76.465c2.93,0.783,5.516,1.172,7.764,1.172
		C1975.455,535.939,1978.873,535.354,1981.999,534.182z"/>
	<path fill="#FF0000" d="M2003.312,637.966c-0.099,0.293-0.586,1.076-1.465,2.348l-6.306,8.654
		c-18.381,25.527-32.412,38.29-42.089,38.29c-4.596,0-8.432-1.637-11.513-4.907c-3.081-3.271-4.619-7.347-4.619-12.231
		c0-5.663,3.369-14.257,10.107-25.781l22.852-38.818c3.026,0.685,5.42,1.025,7.178,1.025c2.637,0,6.347-0.341,11.133-1.025
		l-33.252,54.639c-4.786,7.91-7.178,14.015-7.178,18.311c0,4.395,2.298,6.592,6.894,6.592c8.702,0,24.007-15.502,45.911-46.509
		c0.49-0.975,0.978-1.465,1.467-1.465C2003.02,637.087,2003.312,637.38,2003.312,637.966z M2001.188,577.395
		c0,3.419-1.442,6.617-4.321,9.595c-2.882,2.98-6.031,4.468-9.448,4.468c-4.395,0-6.592-2.197-6.592-6.592
		c0-3.223,1.513-6.322,4.541-9.302c3.026-2.978,6.2-4.468,9.521-4.468C1999.087,571.096,2001.188,573.197,2001.188,577.395z"/>
	<path fill="#FF0000" d="M2102.849,533.01c0,8.693-6.155,19.606-18.464,32.739c-12.309,13.136-28.43,26.001-48.356,38.599h25.195
		l-1.318,2.197h-25.488l-12.016,23.291c-14.751,28.81-27.354,50.514-37.807,65.112c-10.451,14.598-22.515,27.612-36.193,39.038
		c-18.853,15.624-36.388,23.438-52.606,23.438c-7.228,0-10.842-1.051-10.842-3.149c0-0.978,0.538-1.465,1.611-1.465
		c0.783,0,1.369,0.096,1.758,0.293c3.518,1.025,6.839,1.538,9.965,1.538c13.188,0,26.475-5.91,39.855-17.725
		c8.208-7.228,15.388-15.724,21.542-25.488c5.081-7.814,17.095-29.1,36.046-63.867l22.565-41.016h-15.674l1.172-2.197h15.969
		c12.504-21.19,26.326-39.525,41.469-55.005c15.141-15.477,26.813-23.218,35.021-23.218
		C2100.649,526.125,2102.849,528.421,2102.849,533.01z M2101.091,532.717c0-3.223-1.614-4.834-4.836-4.834
		c-7.425,0-17.535,8.496-30.333,25.488c-6.349,8.595-15.923,24.609-28.72,48.047c16.022-11.133,30.675-23.827,43.961-38.086
		C2094.446,549.075,2101.091,538.869,2101.091,532.717z"/>
	<path fill="#FF0000" d="M2117.277,638.112c0,0.293-0.881,1.561-2.639,3.804l-6.303,7.896
		c-20.233,24.964-37.583,37.445-52.048,37.445c-6.843,0-12.586-2.467-17.228-7.397c-4.642-4.93-6.962-11.107-6.962-18.53
		c0-17.578,12.254-33.055,36.768-46.436c12.891-7.031,23.387-10.547,31.494-10.547c3.516,0,6.519,1.051,9.009,3.149
		c2.49,2.101,3.735,4.665,3.735,7.69c0,7.031-4.591,13.014-13.77,17.944c-9.181,4.933-24.513,9.547-45.996,13.843
		c-6.642,10.06-9.961,18.457-9.961,25.195c0,8.4,4.545,12.598,13.637,12.598c15.445,0,34.36-15.062,56.747-45.193
		c1.172-1.561,2.149-2.341,2.932-2.341C2117.081,637.332,2117.277,637.625,2117.277,638.112z M2104.899,610.939
		c0-3.124-1.71-4.688-5.127-4.688c-5.177,0-11.989,3.589-20.435,10.767c-8.448,7.178-16.725,16.479-24.829,27.905
		c14.062-3.612,25.976-8.716,35.742-15.308C2100.015,623.024,2104.899,616.799,2104.899,610.939z"/>
	<path fill="#FF0000" d="M2248.894,535.939l-65.771,103.857c10.254-14.062,17.919-23.485,22.998-28.271
		c5.077-4.784,9.911-7.178,14.502-7.178c5.468,0,9.936,2.223,13.403,6.665c3.465,4.445,5.2,10.034,5.2,16.772
		c0,14.747-9.375,29.249-28.125,43.506c-13.966,10.646-26.367,15.967-37.207,15.967c-5.079,0-9.206-1.93-12.378-5.786
		c-3.175-3.856-4.761-8.862-4.761-15.015c0-7.324,4.688-18.505,14.062-33.545l60.645-97.266c2.637,0.783,5.468,1.172,8.496,1.172
		C2242.302,536.818,2245.279,536.525,2248.894,535.939z M2228.532,616.359c0-6.542-2.735-9.814-8.203-9.814
		c-7.13,0-19.288,11.769-36.475,35.303c-12.891,17.578-19.336,29.396-19.336,35.449c0,5.177,2.538,7.764,7.617,7.764
		c8.789,0,20.384-8.764,34.79-26.294C2221.329,641.239,2228.532,627.103,2228.532,616.359z"/>
	<path fill="#FF0000" d="M2323.088,638.112c0,0.293-0.881,1.561-2.639,3.804l-6.303,7.896
		c-20.233,24.964-37.583,37.445-52.048,37.445c-6.843,0-12.586-2.467-17.228-7.397c-4.642-4.93-6.962-11.107-6.962-18.53
		c0-17.578,12.254-33.055,36.768-46.436c12.891-7.031,23.387-10.547,31.494-10.547c3.516,0,6.519,1.051,9.009,3.149
		c2.49,2.101,3.735,4.665,3.735,7.69c0,7.031-4.591,13.014-13.77,17.944c-9.181,4.933-24.513,9.547-45.996,13.843
		c-6.642,10.06-9.961,18.457-9.961,25.195c0,8.4,4.545,12.598,13.637,12.598c15.445,0,34.36-15.062,56.747-45.193
		c1.172-1.561,2.149-2.341,2.932-2.341C2322.891,637.332,2323.088,637.625,2323.088,638.112z M2310.71,610.939
		c0-3.124-1.71-4.688-5.127-4.688c-5.177,0-11.989,3.589-20.435,10.767c-8.448,7.178-16.725,16.479-24.829,27.905
		c14.062-3.612,25.976-8.716,35.742-15.308C2305.826,623.024,2310.71,616.799,2310.71,610.939z"/>
	<path fill="#FF0000" d="M2454.704,535.939l-65.771,103.857c10.254-14.062,17.919-23.485,22.998-28.271
		c5.077-4.784,9.911-7.178,14.502-7.178c5.468,0,9.936,2.223,13.403,6.665c3.465,4.445,5.2,10.034,5.2,16.772
		c0,14.747-9.375,29.249-28.125,43.506c-13.966,10.646-26.367,15.967-37.207,15.967c-5.079,0-9.206-1.93-12.378-5.786
		c-3.175-3.856-4.761-8.862-4.761-15.015c0-7.324,4.688-18.505,14.062-33.545l60.645-97.266c2.637,0.783,5.468,1.172,8.496,1.172
		C2448.112,536.818,2451.09,536.525,2454.704,535.939z M2434.343,616.359c0-6.542-2.735-9.814-8.203-9.814
		c-7.13,0-19.288,11.769-36.475,35.303c-12.891,17.578-19.336,29.396-19.336,35.449c0,5.177,2.538,7.764,7.617,7.764
		c8.789,0,20.384-8.764,34.79-26.294C2427.14,641.239,2434.343,627.103,2434.343,616.359z"/>
	<path fill="#FF0000" d="M2528.898,638.112c0,0.293-0.881,1.561-2.639,3.804l-6.303,7.896
		c-20.233,24.964-37.583,37.445-52.048,37.445c-6.843,0-12.586-2.467-17.228-7.397c-4.642-4.93-6.962-11.107-6.962-18.53
		c0-17.578,12.254-33.055,36.768-46.436c12.891-7.031,23.387-10.547,31.494-10.547c3.516,0,6.519,1.051,9.009,3.149
		c2.49,2.101,3.735,4.665,3.735,7.69c0,7.031-4.591,13.014-13.77,17.944c-9.181,4.933-24.513,9.547-45.996,13.843
		c-6.642,10.06-9.961,18.457-9.961,25.195c0,8.4,4.545,12.598,13.637,12.598c15.445,0,34.36-15.062,56.747-45.193
		c1.172-1.561,2.149-2.341,2.932-2.341C2528.702,637.332,2528.898,637.625,2528.898,638.112z M2516.521,610.939
		c0-3.124-1.71-4.688-5.127-4.688c-5.177,0-11.989,3.589-20.435,10.767c-8.448,7.178-16.725,16.479-24.829,27.905
		c14.062-3.612,25.976-8.716,35.742-15.308C2511.636,623.024,2516.521,616.799,2516.521,610.939z"/>
	<path fill="#FF0000" d="M2631.877,637.966c0,2.055-7.137,11.54-21.41,28.459c-11.538,13.889-20.631,20.833-27.278,20.833
		c-4.5,0-8.167-1.685-11-5.054c-2.835-3.369-4.252-7.592-4.252-12.671c0-5.273,1.561-10.986,4.688-17.139
		c-9.767,13.673-17.237,22.902-22.412,27.686c-5.177,4.784-10.206,7.178-15.088,7.178c-5.177,0-9.521-2.223-13.037-6.665
		s-5.273-10.034-5.273-16.772c0-18.75,13.231-35.351,39.697-49.805c11.62-6.445,20.995-9.668,28.125-9.668
		c6.054,0,9.082,2.93,9.082,8.789c0,1.662-0.392,3.859-1.172,6.592l7.471-14.209c2.93,0.685,5.516,1.025,7.764,1.025
		c2.637,0,6.054-0.341,10.254-1.025l-25.928,42.92c-8.986,15.04-13.477,24.953-13.477,29.736c0,4.591,1.907,6.885,5.72,6.885
		c3.912,0,10.171-4.475,18.777-13.424s17.358-19.977,26.257-33.085c0.586-0.975,1.124-1.465,1.614-1.465
		C2631.584,637.087,2631.877,637.38,2631.877,637.966z M2591.521,613.723c0-4.784-2.197-7.178-6.592-7.178
		c-8.986,0-20.778,8.789-35.376,26.367c-14.601,17.578-21.899,31.787-21.899,42.627c0,6.349,2.831,9.521,8.496,9.521
		c6.738,0,18.407-11.181,35.01-33.545C2584.732,633.157,2591.521,620.56,2591.521,613.723z"/>
	<path fill="#FF0000" d="M2726.066,637.966c0,2.25-7.088,11.737-21.263,28.459c-11.732,13.889-21.021,20.833-27.864,20.833
		c-4.303,0-7.947-1.735-10.927-5.2c-2.982-3.465-4.472-7.64-4.472-12.524c0-3.809,1.904-9.13,5.713-15.967l-2.93,3.955
		c-8.986,11.524-15.578,19.24-19.775,23.145c-4.591,4.395-8.936,6.592-13.037,6.592c-4.298,0-7.91-1.685-10.84-5.054
		s-4.395-7.494-4.395-12.378c0-5.663,2.197-12.158,6.592-19.482l26.66-44.824c3.319,0.685,5.907,1.025,7.764,1.025
		c1.854,0,5.175-0.341,9.961-1.025l-34.863,57.422c-3.516,5.859-5.273,11.037-5.273,15.527c0,4.395,1.854,6.592,5.566,6.592
		c9.862,0,25.683-18.407,47.461-55.225l14.355-24.316c3.026,0.685,5.566,1.025,7.617,1.025c2.44,0,5.907-0.341,10.4-1.025
		l-23.438,38.232c-11.133,18.164-16.699,29.835-16.699,35.01c0,4.2,2.005,6.299,6.015,6.299c7.823,0,20.535-12.323,38.139-36.971
		l4.548-6.308l2.639-3.229c0.49-0.975,0.978-1.465,1.467-1.465C2725.773,637.087,2726.066,637.38,2726.066,637.966z"/>
	<path fill="#FF0000" d="M2780.046,604.348l-1.172,2.197h-19.189l-32.666,55.811c-4.005,6.738-6.006,12.11-6.006,16.113
		c0,4.395,2.298,6.592,6.894,6.592c8.899,0,23.909-15.502,45.032-46.509c0.685-0.975,1.271-1.465,1.76-1.465
		c0.586,0,0.879,0.293,0.879,0.879c-0.099,0.293-0.586,1.076-1.465,2.348l-6.306,8.654c-18.381,25.527-32.215,38.29-41.503,38.29
		c-4.596,0-8.432-1.662-11.513-4.98c-3.081-3.319-4.619-7.471-4.619-12.451c0-5.859,2.586-13.184,7.764-21.973l24.609-41.309
		h-14.941l1.465-2.197h14.648l17.139-28.418c2.93,0.783,5.713,1.172,8.35,1.172c2.733,0,5.566-0.389,8.496-1.172l-16.846,28.418
		H2780.046z"/>
	<path fill="#FF0000" d="M2825.676,637.966c-0.099,0.293-0.586,1.076-1.465,2.348l-6.306,8.654
		c-18.381,25.527-32.412,38.29-42.089,38.29c-4.596,0-8.432-1.637-11.513-4.907c-3.081-3.271-4.619-7.347-4.619-12.231
		c0-5.663,3.369-14.257,10.107-25.781l22.852-38.818c3.026,0.685,5.42,1.025,7.178,1.025c2.637,0,6.347-0.341,11.133-1.025
		l-33.252,54.639c-4.786,7.91-7.178,14.015-7.178,18.311c0,4.395,2.298,6.592,6.894,6.592c8.702,0,24.007-15.502,45.911-46.509
		c0.49-0.975,0.978-1.465,1.467-1.465C2825.383,637.087,2825.676,637.38,2825.676,637.966z M2823.552,577.395
		c0,3.419-1.442,6.617-4.321,9.595c-2.882,2.98-6.031,4.468-9.448,4.468c-4.395,0-6.592-2.197-6.592-6.592
		c0-3.223,1.513-6.322,4.541-9.302c3.026-2.978,6.2-4.468,9.521-4.468C2821.451,571.096,2823.552,573.197,2823.552,577.395z"/>
	<path fill="#FF0000" d="M2925.212,533.01c0,8.693-6.154,19.606-18.464,32.739c-12.31,13.136-28.43,26.001-48.356,38.599h25.196
		l-1.318,2.197h-25.489l-12.016,23.291c-14.751,28.81-27.354,50.514-37.807,65.112c-10.451,14.598-22.515,27.612-36.193,39.038
		c-18.853,15.624-36.388,23.438-52.606,23.438c-7.228,0-10.842-1.051-10.842-3.149c0-0.978,0.538-1.465,1.611-1.465
		c0.783,0,1.369,0.096,1.758,0.293c3.518,1.025,6.839,1.538,9.965,1.538c13.188,0,26.475-5.91,39.855-17.725
		c8.208-7.228,15.388-15.724,21.542-25.488c5.081-7.814,17.095-29.1,36.046-63.867l22.565-41.016h-15.674l1.172-2.197h15.969
		c12.504-21.19,26.326-39.525,41.469-55.005c15.141-15.477,26.813-23.218,35.021-23.218
		C2923.013,526.125,2925.212,528.421,2925.212,533.01z M2923.454,532.717c0-3.223-1.613-4.834-4.836-4.834
		c-7.425,0-17.535,8.496-30.334,25.488c-6.35,8.595-15.923,24.609-28.72,48.047c16.022-11.133,30.675-23.827,43.961-38.086
		C2916.81,549.075,2923.454,538.869,2923.454,532.717z"/>
	<path fill="#FF0000" d="M2959.709,637.966c0,2.25-7.089,11.737-21.263,28.459c-11.732,13.889-21.021,20.833-27.864,20.833
		c-4.304,0-7.947-1.735-10.927-5.2c-2.982-3.465-4.473-7.64-4.473-12.524c0-3.809,1.904-9.13,5.713-15.967l-2.93,3.955
		c-8.986,11.524-15.578,19.24-19.775,23.145c-4.591,4.395-8.936,6.592-13.037,6.592c-4.298,0-7.91-1.685-10.84-5.054
		s-4.395-7.494-4.395-12.378c0-5.663,2.197-12.158,6.592-19.482l26.66-44.824c3.318,0.685,5.907,1.025,7.764,1.025
		c1.854,0,5.175-0.341,9.961-1.025l-34.863,57.422c-3.516,5.859-5.273,11.037-5.273,15.527c0,4.395,1.854,6.592,5.566,6.592
		c9.862,0,25.683-18.407,47.461-55.225l14.355-24.316c3.025,0.685,5.566,1.025,7.617,1.025c2.439,0,5.907-0.341,10.4-1.025
		l-23.438,38.232c-11.133,18.164-16.699,29.835-16.699,35.01c0,4.2,2.005,6.299,6.015,6.299c7.823,0,20.536-12.323,38.139-36.971
		l4.548-6.308l2.64-3.229c0.489-0.975,0.977-1.465,1.467-1.465C2959.416,637.087,2959.709,637.38,2959.709,637.966z"/>
	<path fill="#FF0000" d="M3036.54,534.182c-41.016,68.262-64.918,108.398-71.704,120.41c-6.789,12.012-10.181,19.972-10.181,23.877
		c0,4.395,1.856,6.592,5.573,6.592c8.215,0,23.275-15.502,45.182-46.509c0.487-0.975,1.073-1.465,1.76-1.465
		c0.389,0.099,0.586,0.392,0.586,0.879c0,0.588-0.49,1.371-1.465,2.348l-6.308,8.654c-18.48,25.527-32.119,38.29-40.918,38.29
		c-4.204,0-7.651-1.588-10.338-4.761c-2.689-3.172-4.033-7.201-4.033-12.085c0-5.37,1.245-10.57,3.735-15.601
		c2.49-5.028,10.961-19.556,25.415-43.579c17.674-29.393,32.567-54.881,44.678-76.465c2.93,0.783,5.516,1.172,7.764,1.172
		C3029.996,535.939,3033.413,535.354,3036.54,534.182z"/>
	<path fill="#FF0000" d="M3137.614,534.182c-41.016,68.262-64.918,108.398-71.704,120.41c-6.789,12.012-10.181,19.972-10.181,23.877
		c0,4.395,1.856,6.592,5.573,6.592c8.215,0,23.275-15.502,45.182-46.509c0.487-0.975,1.073-1.465,1.76-1.465
		c0.389,0.099,0.586,0.392,0.586,0.879c0,0.588-0.49,1.371-1.465,2.348l-6.308,8.654c-18.48,25.527-32.119,38.29-40.918,38.29
		c-4.204,0-7.651-1.588-10.338-4.761c-2.689-3.172-4.033-7.201-4.033-12.085c0-5.37,1.245-10.57,3.735-15.601
		c2.49-5.028,10.961-19.556,25.415-43.579c17.674-29.393,32.567-54.881,44.678-76.465c2.93,0.783,5.516,1.172,7.764,1.172
		C3131.07,535.939,3134.487,535.354,3137.614,534.182z"/>
	<path fill="#FF0000" d="M3158.928,637.966c-0.099,0.293-0.586,1.076-1.465,2.348l-6.306,8.654
		c-18.382,25.527-32.412,38.29-42.089,38.29c-4.597,0-8.433-1.637-11.513-4.907c-3.081-3.271-4.619-7.347-4.619-12.231
		c0-5.663,3.369-14.257,10.107-25.781l22.852-38.818c3.025,0.685,5.42,1.025,7.178,1.025c2.637,0,6.347-0.341,11.133-1.025
		l-33.252,54.639c-4.786,7.91-7.178,14.015-7.178,18.311c0,4.395,2.298,6.592,6.894,6.592c8.702,0,24.008-15.502,45.912-46.509
		c0.489-0.975,0.977-1.465,1.467-1.465C3158.635,637.087,3158.928,637.38,3158.928,637.966z M3156.804,577.395
		c0,3.419-1.442,6.617-4.321,9.595c-2.882,2.98-6.031,4.468-9.448,4.468c-4.395,0-6.592-2.197-6.592-6.592
		c0-3.223,1.513-6.322,4.541-9.302c3.025-2.978,6.2-4.468,9.521-4.468C3154.702,571.096,3156.804,573.197,3156.804,577.395z"/>
	<path fill="#FF0000" d="M3236.931,534.182c-0.783,1.369-2.003,3.369-3.662,6.006c-2.541,4.102-6.35,10.206-11.426,18.311
		c-2.442,4.2-6.203,10.499-11.279,18.896l-25.195,40.723c-8.4,13.575-15.527,25.88-21.387,36.914
		c-6.544,12.305-11.817,21.826-15.82,28.564l-1.904,2.93c-2.637-0.586-5.226-0.879-7.764-0.879c-2.149,0-5.324,0.293-9.521,0.879
		c2.248-3.809,4.735-8.104,7.471-12.891l16.992-29.59c2.538-4.395,6.347-11.034,11.426-19.922l53.76-89.941
		c4.003,0.783,6.98,1.172,8.936,1.172C3229.508,535.354,3232.632,534.964,3236.931,534.182z M3249.602,637.966
		c-0.099,0.293-0.588,1.076-1.467,2.348l-6.306,8.654c-18.478,25.527-32.41,38.29-41.794,38.29c-4.205,0-7.92-1.419-11.146-4.252
		c-3.228-2.836-4.839-6.063-4.839-9.684c0-3.129,2.732-10.121,8.203-20.977l0.146-0.588c1.854-3.616,2.783-6.306,2.783-8.068
		c0-2.152-1.611-4.157-4.834-6.015c-3.713,1.565-6.789,2.348-9.229,2.348c-3.42,0-5.127-0.977-5.127-2.934
		c0-1.657,1.611-2.486,4.834-2.486c3.124,0,6.006,0.488,8.643,1.463c4.882-2.143,12.693-9.403,23.438-21.778
		c5.761-6.624,11.668-9.938,17.725-9.938c7.42,0,11.133,3.516,11.133,10.547c0,4.688-1.882,9.352-5.64,13.989
		c-3.761,4.64-7.496,6.958-11.206,6.958c-4.2,0-6.299-1.904-6.299-5.713c0-3.516,3.172-7.274,9.521-11.279
		c2.637-1.659,3.955-4.003,3.955-7.031c0-2.344-1.516-3.516-4.541-3.516c-4.2,0-9.474,3.701-15.82,11.103
		c-8.107,9.256-14.699,15.003-19.775,17.242c10.155,4.697,15.234,10.124,15.234,16.285c0,3.424-2.395,10.025-7.178,19.805
		c-2.051,4.109-3.076,6.944-3.076,8.508c0,2.545,1.611,3.815,4.834,3.815c9.178,0,24.17-15.502,44.971-46.509
		c0.682-0.975,1.318-1.465,1.904-1.465C3249.283,637.087,3249.602,637.38,3249.602,637.966z"/>
	<path fill="#FF0000" d="M3323.283,638.112c0,0.293-0.881,1.561-2.639,3.804l-6.304,7.896
		c-20.233,24.964-37.582,37.445-52.048,37.445c-6.844,0-12.586-2.467-17.228-7.397s-6.963-11.107-6.963-18.53
		c0-17.578,12.254-33.055,36.768-46.436c12.891-7.031,23.387-10.547,31.494-10.547c3.516,0,6.519,1.051,9.009,3.149
		c2.49,2.101,3.735,4.665,3.735,7.69c0,7.031-4.592,13.014-13.77,17.944c-9.181,4.933-24.514,9.547-45.996,13.843
		c-6.643,10.06-9.961,18.457-9.961,25.195c0,8.4,4.546,12.598,13.637,12.598c15.445,0,34.359-15.062,56.747-45.193
		c1.172-1.561,2.148-2.341,2.932-2.341C3323.086,637.332,3323.283,637.625,3323.283,638.112z M3310.905,610.939
		c0-3.124-1.71-4.688-5.127-4.688c-5.178,0-11.989,3.589-20.435,10.767c-8.448,7.178-16.725,16.479-24.829,27.905
		c14.062-3.612,25.976-8.716,35.742-15.308C3306.021,623.024,3310.905,616.799,3310.905,610.939z"/>
	<path fill="#FF0000" d="M3425.749,581.13c0,3.896-6.104,11.634-18.311,23.218c-0.586,3.028-0.879,5.665-0.879,7.91
		c0,5.665,2.586,14.648,7.764,26.953c2.637,6.152,3.955,11.33,3.955,15.527c0,8.789-4.273,16.406-12.817,22.852
		c-8.547,6.445-18.677,9.668-30.396,9.668c-6.643,0-11.938-1.881-15.894-5.64s-5.933-8.812-5.933-15.161
		c0-7.324,2.611-14.452,7.837-21.387c5.223-6.933,10.62-10.4,16.187-10.4c0.975,0,1.854,0.197,2.637,0.586l11.719-14.355
		c3.516-4.198,8.203-10.009,14.062-17.432c1.659-6.834,4.197-12.694,7.617-17.578c3.417-4.882,6.786-7.324,10.107-7.324
		C3424.966,578.566,3425.749,579.422,3425.749,581.13z M3405.388,638.918c0-2.93-0.099-5.834-0.293-8.716
		c-0.197-2.879-0.293-7.006-0.293-12.378c0-4.395,0.194-8.057,0.586-10.986c-5.471,6.935-13.381,16.699-23.73,29.297
		c1.854,1.563,2.783,3.468,2.783,5.713c0,5.763-4.738,9.668-14.209,11.719c-3.809,0.879-7.104,2.955-9.888,6.226
		c-2.783,3.273-4.175,6.715-4.175,10.327c0,3.907,1.414,7.178,4.248,9.814c2.831,2.637,6.347,3.955,10.547,3.955
		c8.203,0,15.989-4.761,23.364-14.282C3401.7,660.085,3405.388,649.856,3405.388,638.918z"/>
	<path fill="#FF0000" d="M3528.654,637.966c0,2.25-7.089,11.737-21.263,28.459c-11.732,13.889-21.021,20.833-27.864,20.833
		c-4.304,0-7.947-1.735-10.927-5.2c-2.982-3.465-4.473-7.64-4.473-12.524c0-3.809,1.904-9.13,5.713-15.967l-2.93,3.955
		c-8.986,11.524-15.578,19.24-19.775,23.145c-4.592,4.395-8.936,6.592-13.037,6.592c-4.299,0-7.91-1.685-10.84-5.054
		s-4.395-7.494-4.395-12.378c0-5.663,2.197-12.158,6.592-19.482l26.66-44.824c3.318,0.685,5.907,1.025,7.764,1.025
		c1.854,0,5.175-0.341,9.961-1.025l-34.863,57.422c-3.516,5.859-5.273,11.037-5.273,15.527c0,4.395,1.854,6.592,5.566,6.592
		c9.862,0,25.683-18.407,47.461-55.225l14.355-24.316c3.025,0.685,5.566,1.025,7.617,1.025c2.439,0,5.907-0.341,10.4-1.025
		l-23.438,38.232c-11.133,18.164-16.699,29.835-16.699,35.01c0,4.2,2.005,6.299,6.015,6.299c7.823,0,20.536-12.323,38.139-36.971
		l4.548-6.308l2.64-3.229c0.489-0.975,0.977-1.465,1.467-1.465C3528.361,637.087,3528.654,637.38,3528.654,637.966z"/>
	<path fill="#FF0000" d="M3691.545,637.966c-0.099,0.293-0.586,1.076-1.465,2.348l-6.306,8.654
		c-18.382,25.527-31.973,38.29-40.771,38.29c-4.597,0-8.361-1.71-11.293-5.127c-2.935-3.417-4.399-7.812-4.399-13.184
		c0-5.468,1.854-11.375,5.566-17.725c0.682-1.172,4.248-6.395,10.693-15.674c8.203-11.719,12.305-19.384,12.305-22.998
		c0-4.003-2.003-6.006-6.006-6.006c-12.891,0-35.01,26.466-66.357,79.395c-1.955-0.392-4.64-0.586-8.057-0.586
		c-4.006,0-7.423,0.194-10.254,0.586l20.801-32.959c13.572-21.68,20.361-34.959,20.361-39.844c0-4.395-1.809-6.592-5.42-6.592
		c-5.372,0-14.161,7.716-26.367,23.145c-12.209,15.431-24.316,34.181-36.328,56.25c-2.248-0.392-5.127-0.586-8.643-0.586
		c-3.809,0-7.13,0.194-9.961,0.586l20.947-32.959c14.451-22.655,21.68-36.669,21.68-42.041c0-2.93-1.126-4.395-3.376-4.395
		c-4.798,0-14.729,10.476-29.798,31.423c-0.979,1.366-1.763,2.048-2.349,2.048c-0.392-0.096-0.586-0.389-0.586-0.879
		c0-0.876,4.497-6.967,13.497-18.271c8.803-11.012,15.603-16.519,20.396-16.519c3.129,0,5.818,1.49,8.068,4.468
		c2.25,2.98,3.376,6.519,3.376,10.62c0,5.665-2.882,13.527-8.643,23.584c17.578-25.781,30.663-38.672,39.258-38.672
		c4.102,0,7.471,1.662,10.107,4.98c2.637,3.321,3.955,7.471,3.955,12.451c0,5.566-2.589,12.648-7.764,21.24
		c18.553-25.781,32.469-38.672,41.748-38.672c4.197,0,7.738,1.808,10.62,5.42c2.879,3.614,4.321,8.009,4.321,13.184
		c0,6.056-2.395,13.136-7.178,21.24c-0.099,0.099-4.299,6.349-12.598,18.75c-4.786,7.031-7.178,12.403-7.178,16.113
		c0,4.005,2.005,6.006,6.015,6.006c7.627,0,20.243-12.323,37.846-36.971l4.546-6.308l2.642-3.229
		c0.489-0.975,0.977-1.465,1.467-1.465C3691.252,637.087,3691.545,637.38,3691.545,637.966z"/>
	<path fill="#FF0000" d="M3854.729,637.966c-0.099,0.293-0.586,1.076-1.465,2.348l-6.306,8.654
		c-18.382,25.527-31.973,38.29-40.771,38.29c-4.597,0-8.361-1.71-11.293-5.127c-2.935-3.417-4.399-7.812-4.399-13.184
		c0-5.468,1.854-11.375,5.566-17.725c0.682-1.172,4.248-6.395,10.693-15.674c8.203-11.719,12.305-19.384,12.305-22.998
		c0-4.003-2.003-6.006-6.006-6.006c-12.891,0-35.01,26.466-66.357,79.395c-1.955-0.392-4.64-0.586-8.057-0.586
		c-4.006,0-7.423,0.194-10.254,0.586l20.801-32.959c13.572-21.68,20.361-34.959,20.361-39.844c0-4.395-1.809-6.592-5.42-6.592
		c-5.372,0-14.161,7.716-26.367,23.145c-12.209,15.431-24.316,34.181-36.328,56.25c-2.248-0.392-5.127-0.586-8.643-0.586
		c-3.809,0-7.13,0.194-9.961,0.586l20.947-32.959c14.451-22.655,21.68-36.669,21.68-42.041c0-2.93-1.126-4.395-3.376-4.395
		c-4.798,0-14.729,10.476-29.798,31.423c-0.979,1.366-1.763,2.048-2.349,2.048c-0.392-0.096-0.586-0.389-0.586-0.879
		c0-0.876,4.497-6.967,13.497-18.271c8.803-11.012,15.603-16.519,20.396-16.519c3.129,0,5.818,1.49,8.068,4.468
		c2.25,2.98,3.376,6.519,3.376,10.62c0,5.665-2.882,13.527-8.643,23.584c17.578-25.781,30.663-38.672,39.258-38.672
		c4.102,0,7.471,1.662,10.107,4.98c2.637,3.321,3.955,7.471,3.955,12.451c0,5.566-2.589,12.648-7.764,21.24
		c18.553-25.781,32.469-38.672,41.748-38.672c4.197,0,7.738,1.808,10.62,5.42c2.879,3.614,4.321,8.009,4.321,13.184
		c0,6.056-2.395,13.136-7.178,21.24c-0.099,0.099-4.299,6.349-12.598,18.75c-4.786,7.031-7.178,12.403-7.178,16.113
		c0,4.005,2.005,6.006,6.015,6.006c7.627,0,20.243-12.323,37.846-36.971l4.546-6.308l2.642-3.229
		c0.489-0.975,0.977-1.465,1.467-1.465C3854.436,637.087,3854.729,637.38,3854.729,637.966z"/>
	<path fill="#FF0000" d="M3928.85,638.112c0,0.293-0.881,1.561-2.639,3.804l-6.304,7.896
		c-20.233,24.964-37.582,37.445-52.048,37.445c-6.844,0-12.586-2.467-17.228-7.397s-6.963-11.107-6.963-18.53
		c0-17.578,12.254-33.055,36.768-46.436c12.891-7.031,23.387-10.547,31.494-10.547c3.516,0,6.519,1.051,9.009,3.149
		c2.49,2.101,3.735,4.665,3.735,7.69c0,7.031-4.592,13.014-13.77,17.944c-9.181,4.933-24.514,9.547-45.996,13.843
		c-6.643,10.06-9.961,18.457-9.961,25.195c0,8.4,4.546,12.598,13.637,12.598c15.445,0,34.359-15.062,56.747-45.193
		c1.172-1.561,2.148-2.341,2.932-2.341C3928.652,637.332,3928.85,637.625,3928.85,638.112z M3916.472,610.939
		c0-3.124-1.71-4.688-5.127-4.688c-5.178,0-11.989,3.589-20.435,10.767c-8.448,7.178-16.725,16.479-24.829,27.905
		c14.062-3.612,25.976-8.716,35.742-15.308C3911.587,623.024,3916.472,616.799,3916.472,610.939z"/>
	<path fill="#FF0000" d="M4012.346,637.966c0,0.785-2.935,4.36-8.803,10.728c-7.437,8.231-14.431,12.344-20.986,12.344
		c-7.437,0-11.153-4.296-11.153-12.891c0-2.733,0.586-6.2,1.758-10.4c-6.152,5.372-11.158,10.693-15.015,15.967
		c-3.859,5.273-10.524,16.017-19.995,32.227c-5.178-0.392-8.203-0.586-9.082-0.586c-0.392,0-3.369,0.194-8.936,0.586l24.023-38.965
		c12.012-19.53,18.018-31.641,18.018-36.328c0-2.733-1.126-4.102-3.376-4.102c-5.479,0-15.413,10.521-29.798,31.565
		c-0.882,1.369-1.664,2.053-2.349,2.053c-0.392-0.096-0.586-0.389-0.586-0.879c0.096-0.49,0.293-0.881,0.586-1.174l2.642-3.669
		c15.062-20.062,25.284-30.093,30.665-30.093c7.823,0,11.737,5.031,11.737,15.088c0,7.521-4.006,17.482-12.012,29.883
		c5.076-5.859,9.91-10.643,14.502-14.355c3.71-8.69,8.324-15.967,13.843-21.826c5.516-5.859,10.474-8.789,14.868-8.789
		c3.025,0,4.541,1.318,4.541,3.955c0,4.688-6.789,11.378-20.361,20.068c-2.149,1.369-5.372,3.369-9.668,6.006l-1.758,1.465
		c-1.369,4.493-2.051,8.203-2.051,11.133c0,8.203,3.081,12.305,9.247,12.305c7.631,0,15.946-6.319,24.95-18.96
		c1.955-2.154,3.179-3.232,3.669-3.232C4012.053,637.087,4012.346,637.38,4012.346,637.966z"/>
	<path fill="#FF0000" d="M4164.47,533.01c0,8.693-6.154,19.606-18.464,32.739c-12.31,13.136-28.43,26.001-48.355,38.599h25.195
		l-1.318,2.197h-25.488l-12.017,23.291c-14.752,28.81-27.354,50.514-37.807,65.112c-10.451,14.598-22.516,27.612-36.193,39.038
		c-18.853,15.624-36.388,23.438-52.606,23.438c-7.228,0-10.842-1.051-10.842-3.149c0-0.978,0.538-1.465,1.611-1.465
		c0.783,0,1.369,0.096,1.758,0.293c3.518,1.025,6.839,1.538,9.966,1.538c13.188,0,26.475-5.91,39.854-17.725
		c8.208-7.228,15.388-15.724,21.543-25.488c5.081-7.814,17.095-29.1,36.046-63.867l22.566-41.016h-15.674l1.172-2.197h15.969
		c12.504-21.19,26.326-39.525,41.469-55.005c15.141-15.477,26.813-23.218,35.021-23.218
		C4162.271,526.125,4164.47,528.421,4164.47,533.01z M4162.712,532.717c0-3.223-1.613-4.834-4.836-4.834
		c-7.425,0-17.535,8.496-30.334,25.488c-6.35,8.595-15.924,24.609-28.72,48.047c16.021-11.133,30.675-23.827,43.961-38.086
		C4156.067,549.075,4162.712,538.869,4162.712,532.717z"/>
	<path fill="#FF0000" d="M4181.901,534.182c-41.016,68.262-64.918,108.398-71.704,120.41c-6.789,12.012-10.181,19.972-10.181,23.877
		c0,4.395,1.856,6.592,5.573,6.592c8.215,0,23.275-15.502,45.182-46.509c0.487-0.975,1.073-1.465,1.76-1.465
		c0.389,0.099,0.586,0.392,0.586,0.879c0,0.588-0.49,1.371-1.465,2.348l-6.308,8.654c-18.48,25.527-32.119,38.29-40.918,38.29
		c-4.204,0-7.651-1.588-10.338-4.761c-2.689-3.172-4.033-7.201-4.033-12.085c0-5.37,1.245-10.57,3.735-15.601
		c2.49-5.028,10.961-19.556,25.415-43.579c17.674-29.393,32.567-54.881,44.678-76.465c2.93,0.783,5.516,1.172,7.764,1.172
		C4175.357,535.939,4178.774,535.354,4181.901,534.182z"/>
	<path fill="#FF0000" d="M4229.948,534.182c-41.016,68.262-64.918,108.398-71.704,120.41c-6.789,12.012-10.181,19.972-10.181,23.877
		c0,4.395,1.856,6.592,5.573,6.592c8.215,0,23.275-15.502,45.182-46.509c0.487-0.975,1.073-1.465,1.76-1.465
		c0.389,0.099,0.586,0.392,0.586,0.879c0,0.588-0.49,1.371-1.465,2.348l-6.308,8.654c-18.48,25.527-32.119,38.29-40.918,38.29
		c-4.204,0-7.651-1.588-10.338-4.761c-2.689-3.172-4.033-7.201-4.033-12.085c0-5.37,1.245-10.57,3.735-15.601
		c2.49-5.028,10.961-19.556,25.415-43.579c17.674-29.393,32.567-54.881,44.678-76.465c2.93,0.783,5.516,1.172,7.764,1.172
		C4223.404,535.939,4226.821,535.354,4229.948,534.182z"/>
	<path fill="#FF0000" d="M4287.883,637.819c0,1.559-2.884,5.209-8.649,10.952c-8.602,8.569-16.517,12.852-23.746,12.852
		c-3.031,0-5.72-0.586-8.063-1.758c-12.9,18.263-25.02,27.393-36.356,27.393c-5.863,0-10.874-2.417-15.025-7.251
		c-4.154-4.834-6.23-10.62-6.23-17.358c0-15.038,9.862-29.54,29.59-43.506c13.865-9.862,25.291-14.795,34.277-14.795
		c8.397,0,12.598,4.493,12.598,13.477c0,11.231-5.91,24.756-17.725,40.576c1.952,1.172,4.149,1.758,6.592,1.758
		c4.395,0,9.528-2.044,15.403-6.132c5.874-4.088,10.673-9.002,14.397-14.747c1.078-1.364,1.862-2.046,2.353-2.046
		C4287.686,637.233,4287.883,637.43,4287.883,637.819z M4264.079,618.117c0-7.91-3.566-11.865-10.693-11.865
		c-8.888,0-19.728,8.496-32.52,25.488c-12.795,16.992-19.189,31.3-19.189,42.92c0,6.738,3.223,10.107,9.668,10.107
		c10.547,0,22.068-8.69,34.57-26.074c-2.834-3.124-4.248-6.347-4.248-9.668c0-4.784,1.904-9.716,5.713-14.795
		c3.809-5.077,7.519-7.617,11.133-7.617c1.561,0,2.637,0.978,3.223,2.93C4263.296,626.126,4264.079,622.317,4264.079,618.117z"/>
	<path fill="#FF0000" d="M4415.471,637.673c0,1.078-3.131,4.85-9.391,11.313c-8.414,8.913-15.8,13.369-22.158,13.369
		c-4.306,0-7.924-2.344-10.858-7.031c-8.693,12.012-15.772,20.338-21.24,24.976c-5.471,4.637-10.986,6.958-16.553,6.958
		c-4.98,0-9.133-1.685-12.451-5.054c-3.321-3.369-4.98-7.494-4.98-12.378c0-4.102,1.318-9.032,3.955-14.795
		c-14.648,21.485-26.173,32.227-34.57,32.227c-4.2,0-7.741-1.71-10.62-5.127c-2.882-3.417-4.321-7.519-4.321-12.305
		c0-5.566,2.879-13.28,8.643-23.145l24.316-41.162c3.904,0.685,6.786,1.025,8.643,1.025c1.659,0,4.882-0.341,9.668-1.025
		l-33.252,54.346c-5.273,8.496-7.91,14.699-7.91,18.604c0,4.395,2,6.592,6.006,6.592c4.395,0,10.961-4.882,19.702-14.648
		c8.738-9.764,17.406-21.973,26.001-36.621l16.406-28.271c5.273,0.49,8.592,0.732,9.961,0.732c3.417,0,6.2-0.243,8.35-0.732
		l-30.615,49.512c-6.738,11.037-10.107,18.654-10.107,22.852c0,4.786,2.49,7.178,7.471,7.178c9.961,0,22.068-10.497,36.328-31.494
		c-0.586-3.612-0.879-6.299-0.879-8.057c0-8.69,2.71-17.725,8.13-27.1s10.668-14.062,15.747-14.062c2.245,0,3.369,1.515,3.369,4.541
		c0,8.203-8.009,23.195-24.023,44.971c2.444,4.395,5.674,6.592,9.687,6.592c7.335,0,16.335-6.612,27.001-19.839
		c1.955-2.349,3.275-3.525,3.962-3.525C4415.178,637.087,4415.372,637.284,4415.471,637.673z"/>
	<path fill="#FF0000" d="M4489.152,638.112c0,0.293-0.881,1.561-2.639,3.804l-6.304,7.896
		c-20.233,24.964-37.582,37.445-52.048,37.445c-6.844,0-12.586-2.467-17.228-7.397s-6.963-11.107-6.963-18.53
		c0-17.578,12.254-33.055,36.768-46.436c12.891-7.031,23.387-10.547,31.494-10.547c3.516,0,6.519,1.051,9.009,3.149
		c2.49,2.101,3.735,4.665,3.735,7.69c0,7.031-4.592,13.014-13.77,17.944c-9.181,4.933-24.514,9.547-45.996,13.843
		c-6.643,10.06-9.961,18.457-9.961,25.195c0,8.4,4.546,12.598,13.637,12.598c15.445,0,34.359-15.062,56.747-45.193
		c1.172-1.561,2.148-2.341,2.932-2.341C4488.955,637.332,4489.152,637.625,4489.152,638.112z M4476.774,610.939
		c0-3.124-1.71-4.688-5.127-4.688c-5.178,0-11.989,3.589-20.435,10.767c-8.448,7.178-16.725,16.479-24.829,27.905
		c14.062-3.612,25.976-8.716,35.742-15.308C4471.89,623.024,4476.774,616.799,4476.774,610.939z"/>
	<path fill="#FF0000" d="M4572.648,637.966c0,0.785-2.935,4.36-8.803,10.728c-7.437,8.231-14.431,12.344-20.986,12.344
		c-7.437,0-11.153-4.296-11.153-12.891c0-2.733,0.586-6.2,1.758-10.4c-6.152,5.372-11.158,10.693-15.015,15.967
		c-3.859,5.273-10.524,16.017-19.995,32.227c-5.178-0.392-8.203-0.586-9.082-0.586c-0.392,0-3.369,0.194-8.936,0.586l24.023-38.965
		c12.012-19.53,18.018-31.641,18.018-36.328c0-2.733-1.126-4.102-3.376-4.102c-5.479,0-15.413,10.521-29.798,31.565
		c-0.882,1.369-1.664,2.053-2.349,2.053c-0.392-0.096-0.586-0.389-0.586-0.879c0.096-0.49,0.293-0.881,0.586-1.174l2.642-3.669
		c15.062-20.062,25.284-30.093,30.665-30.093c7.823,0,11.737,5.031,11.737,15.088c0,7.521-4.006,17.482-12.012,29.883
		c5.076-5.859,9.91-10.643,14.502-14.355c3.71-8.69,8.324-15.967,13.843-21.826c5.516-5.859,10.474-8.789,14.868-8.789
		c3.025,0,4.541,1.318,4.541,3.955c0,4.688-6.789,11.378-20.361,20.068c-2.149,1.369-5.372,3.369-9.668,6.006l-1.758,1.465
		c-1.369,4.493-2.051,8.203-2.051,11.133c0,8.203,3.081,12.305,9.247,12.305c7.631,0,15.946-6.319,24.95-18.96
		c1.955-2.154,3.179-3.232,3.669-3.232C4572.355,637.087,4572.648,637.38,4572.648,637.966z"/>
	<path fill="#FF0000" d="M4621.94,581.13c0,3.896-6.104,11.634-18.311,23.218c-0.586,3.028-0.879,5.665-0.879,7.91
		c0,5.665,2.586,14.648,7.764,26.953c2.637,6.152,3.955,11.33,3.955,15.527c0,8.789-4.273,16.406-12.817,22.852
		c-8.547,6.445-18.677,9.668-30.396,9.668c-6.643,0-11.938-1.881-15.894-5.64s-5.933-8.812-5.933-15.161
		c0-7.324,2.611-14.452,7.837-21.387c5.223-6.933,10.62-10.4,16.187-10.4c0.975,0,1.854,0.197,2.637,0.586l11.719-14.355
		c3.516-4.198,8.203-10.009,14.062-17.432c1.659-6.834,4.197-12.694,7.617-17.578c3.417-4.882,6.786-7.324,10.107-7.324
		C4621.157,578.566,4621.94,579.422,4621.94,581.13z M4601.579,638.918c0-2.93-0.099-5.834-0.293-8.716
		c-0.197-2.879-0.293-7.006-0.293-12.378c0-4.395,0.194-8.057,0.586-10.986c-5.471,6.935-13.381,16.699-23.73,29.297
		c1.854,1.563,2.783,3.468,2.783,5.713c0,5.763-4.738,9.668-14.209,11.719c-3.809,0.879-7.104,2.955-9.888,6.226
		c-2.783,3.273-4.175,6.715-4.175,10.327c0,3.907,1.414,7.178,4.248,9.814c2.831,2.637,6.347,3.955,10.547,3.955
		c8.203,0,15.989-4.761,23.364-14.282C4597.892,660.085,4601.579,649.856,4601.579,638.918z"/>
</g>
</svg>