<?xml version="1.0" encoding="utf-8"?>
<svg xmlns="http://www.w3.org/2000/svg" viewBox="0 0 792.14126 236.39901">
<g transform="translate(-525.14775,-84.279)">
	<path fill="#64BED8" d="M704.4,314.678c-1.8,0-11.1-3.999-27.9-12c-15-7.2-25.003-12.197-30-15c3.999-18.797,11.1-40.5,21.3-65.1
		v-1.5c-1.003,0.6-4.003,4.003-9,10.2c-4.2,5.602-6.9,8.4-8.1,8.4c-2.203,0-7.852-1.247-16.95-3.75
		c-9.103-2.499-14.55-4.397-16.35-5.7c-1.8-1.299-3.103-3.947-3.9-7.95c-0.403-3.197-0.802-6.398-1.2-9.6
		c-2.203,12.6-5.803,31.603-10.8,57c-1.003,4.003-3.703,8.503-8.1,13.5c-5.001,5.4-9.403,8.1-13.2,8.1c-1.2,0-6.9-1.697-17.1-5.1
		c-11.203-3.797-18.052-5.948-20.55-6.45c-2.503-0.497-5.451-1.749-8.85-3.75c-4.003-2.199-6.6-4.299-7.8-6.3
		c-1.003-1.8-1.003-6.497,0-14.1c2.199-19.997,4.397-39.998,6.6-60c2.798-22.598,5.798-42.497,9-59.7
		c0.197-3.797,1.5-9.099,3.9-15.9c12.398-16.997,29.4-25.5,51-25.5c35.798,0,54.9,2.301,57.3,6.9c1.2,2.203,2.297,5.301,3.3,9.3
		c1.2,5.602,1.898,8.902,2.1,9.9c3-6.6,6.098-11.146,9.3-13.65c3.197-2.499,8.199-3.75,15-3.75c1.997,0,10.298,2.902,24.9,8.7
		c17.597,6.6,27,10.102,28.2,10.5c3.999,1.2,7.997,2.4,12,3.6c5.4,1.8,8.7,3.9,9.9,6.3c0.6,1.401,0.9,4.2,0.9,8.4
		c0,12.6-4.2,39.3-12.6,80.1c-8.803,41.803-15.703,67.303-20.7,76.5c-1.2,2.001-4.65,5.4-10.35,10.2
		C709.95,312.278,706.2,314.678,704.4,314.678z M568.2,111.578c-7.2,5.4-12,10.2-14.4,14.4c-0.6,1.2-1.603,6.501-3,15.9
		c-3.201,17.203-8.1,48.501-14.7,93.9c-0.403,6.202-1.102,14.901-2.1,26.1c2.798-0.999,7.097-2.499,12.9-4.5
		c1.397-7.8,3.398-19.397,6-34.8C555.9,197.978,561,160.979,568.2,111.578z M750.6,138.278c-13.603-4.599-33.9-12.099-60.9-22.5
		c-15,26.602-24.6,39.9-28.8,39.9c-2.602,0-5.4-7.097-8.4-21.3c-3.202-15.999-5.602-25.097-7.2-27.3c-20.001-3-32.901-4.5-38.7-4.5
		c-4.8,0-13.8,0.703-27,2.1c-2.602,10.003-4.702,22.003-6.3,36c-1.2,12.202-2.4,24.403-3.6,36.6c-0.6,5.001-2.902,18.202-6.9,39.6
		c-3,16.2-4.401,29.503-4.2,39.9c3.999,1.2,15,5.001,33,11.4c3.999-20.198,7.997-40.397,12-60.6
		c6.797-33.197,11.198-50.896,13.2-53.1c0.797-0.6,1.8-0.9,3-0.9c2.799,0,6.6,9.202,11.4,27.6c3,11.602,6.098,23.203,9.3,34.8
		c3.6,1.003,9.197,2.203,16.8,3.6c6.797-10.8,13.5-21.6,20.1-32.4c11.199-17.798,17.7-26.7,19.5-26.7c3.6,0,5.4,3.201,5.4,9.6
		c0,14.803-2.602,32.4-7.8,52.8c-4.8,17.203-9.6,34.401-14.4,51.6c14.597,4.603,27.3,8.901,38.1,12.9
		c2.198-4.997,3.698-9.699,4.5-14.1c11.798-53.198,20.7-96,26.7-128.4L750.6,138.278z M630.6,217.478
		c-2.203-9.197-5.503-22.898-9.9-41.1c-0.202,0.202-1.2,3.703-3,10.5c-1.003,4.2-1.5,7.8-1.5,10.8c0,3.202,0.797,7.402,2.4,12.6
		c1.8,6.802,2.897,11.1,3.3,12.9C623.897,221.781,626.798,219.878,630.6,217.478z M684.9,216.278c-2.203,1.003-5.301,2.901-9.3,5.7
		c-1.003,1.2-4.003,10.003-9,26.4c-4.603,14.602-7.603,24.501-9,29.7c3.999-2.4,8.4-4.598,13.2-6.6
		C676.599,253.881,681.3,235.478,684.9,216.278z M680.1,113.078h-6c-2.001,2.002-4.453,5.602-7.35,10.8
		c-2.901,5.203-4.35,9-4.35,11.4c0,1.2,0.3,2.7,0.9,4.5C669.9,129.179,675.497,120.278,680.1,113.078z"/>
	<path fill="#64BED8" d="M942.898,273.278c0,2.001-3.202,9.3-9.6,21.9c-14.602,4.2-33.403,8.503-56.4,12.9
		c-16.603,3.403-39.9,7.604-69.9,12.6c-2.803-4.195-5.503-10.392-8.1-18.59c-2.203-6.394-4.303-12.792-6.3-19.191
		c0-3.394,3.3-12.192,9.905-26.386c10.81-2.935,22.425-5.578,34.837-7.931c-3.206-12.628-6.004-27.76-8.404-45.398
		c-2.006-15.432-4.008-30.769-6.005-46.003c-2.4,0.202-10.106,1.5-23.114,3.9c-12.211,2.002-18.614,3-19.214,3
		c-1.401,0-3.103-5.297-5.1-15.9c-1.406-4.397-2.906-10.997-4.504-19.8c1.997-3.797,5.297-9.197,9.9-16.2
		c1.598-1.997,6.098-3.497,13.5-4.5c20.798-3.398,49.997-9.3,87.6-17.7c13.396-3,20.498-4.5,21.3-4.5c2.597,0,5.499,5.301,8.7,15.9
		c2.597,9.403,3.9,16.003,3.9,19.8c0,2.001-1.003,6.3-3,12.9c-2.001,6.6-3.501,10.2-4.5,10.8c-3,1.2-7.65,2.353-13.95,3.45
		c-6.3,1.102-10.95,2.25-13.95,3.45c0.797,6.802,2.597,15.501,5.4,26.1c3.6,13.8,5.798,22.5,6.6,26.1c0.797,7.2,3,18.201,6.6,33
		c0.999-0.197,5.897-1.299,14.7-3.3c6.398-1.598,11.297-2.4,14.7-2.4l4.2,1.2c1.599,2.602,3.699,9.15,6.3,19.65
		C941.595,262.628,942.898,269.678,942.898,273.278z M785.999,143.378c0-2.798-0.703-6.6-2.1-11.4c-2.203-7.397-3.3-11.199-3.3-11.4
		c-0.801,1.2-1.701,3-2.7,5.4c0,0.801,0.698,5.55,2.1,14.25c1.396,8.7,2.198,13.251,2.4,13.65L785.999,143.378z M934.499,272.978
		v-1.8c0-4.2-0.9-9.3-2.7-15.3c-1.603-4.8-3.202-9.699-4.8-14.7c-17.4,3.802-28.003,5.7-31.8,5.7c-3.6,0-6.501-5.892-8.7-17.686
		c-1.2-7.594-2.302-15.188-3.3-22.781c-1.603-4.997-3.801-12.591-6.6-22.786c-2.4-10.987-6.9-27.576-13.5-49.758
		c0-3,6.398-5.896,19.2-8.695c7.8-1.598,15.698-3.098,23.7-4.495c-0.398-13.589-2.391-22.383-5.977-26.381
		c-12,3.005-30.3,7.111-54.896,12.314c-1.401,0.202-19.913,3.188-55.528,8.963c0.999,5.381,2.597,13.453,4.8,24.206
		c13.997-3.6,26.798-5.4,38.4-5.4c2.798,0,4.8,1.003,6,3c1.997,3.202,3.797,10.003,5.4,20.4c0.999,7.603,2.1,15.103,3.3,22.5
		c0.6,3.6,3.6,14.503,9,32.7c3.998,13.8,6,24.501,6,32.1c0,4.604-2.803,7.702-8.4,9.3c-4.603,0.801-9.103,1.5-13.5,2.1
		c-8.4,1.603-18.403,3.703-30,6.3v2.4c0-0.797,3.099,9,9.3,29.4C845.497,289.581,883.695,282.381,934.499,272.978z M814.198,301.778
		c-0.202-2.798-1.702-7.697-4.5-14.7c-4.2-9.797-6.3-14.798-6.3-15c-2.203,6.6-3.3,10.2-3.3,10.8c0,0.801,3.398,9,10.2,24.6
		C811.297,306.479,812.595,304.581,814.198,301.778z M851.999,243.878c-0.403-11.597-3.202-27.197-8.4-46.8
		c-5.602-21.6-8.901-36.998-9.9-46.2l-5.1,6.3c0.398,4.003,1.397,9.403,3,16.2c2.199,8.203,3.497,13.603,3.9,16.2
		c0.797,5.602,3.6,24.703,8.4,57.3C846.097,246.479,848.797,245.481,851.999,243.878z"/>
	<path fill="#64BED8" d="M1154.094,256.178c0,2.803-1.603,5.001-4.8,6.6c-5.203,1.603-12.9,4.401-23.1,8.4
		c-5.602,3.202-13.8,7.402-24.6,12.6c-1.2,0.403-4.303,1.903-9.3,4.5c-4.003,2.001-6.403,3-7.2,3c-3.801,0-9.201-4.097-16.2-12.3
		c-7.003-8.199-10.603-13.599-10.8-16.2c-1.603-13.8-4.903-29.198-9.9-46.2c-4.8,1.003-10.8,2.803-18,5.4
		c3.797,26.001,5.7,44.602,5.7,55.8c0,6.403-0.703,10.303-2.1,11.7c-2.203,2.602-6.9,6.3-14.1,11.1c-0.403,1.003-1.5,2.302-3.3,3.9
		c-15,8.001-24.703,12-29.1,12c-2.203,0-8.1-3.3-17.7-9.9c-7.603-5.4-11.602-8.297-12-8.7c-5.001-4.2-7.5-8.199-7.5-12
		c0-7.8,1.997-18.197,6-31.2c2.597-7.997,5.199-15.999,7.8-24c0.6-2.198,8.4-34.5,23.405-96.9c2.597-10.599,6.197-20.297,10.8-29.1
		c1.397-0.797,3.398-1.898,6-3.3c4.997-2.597,10.599-4.397,16.8-5.4c4.397-0.398,8.897-0.9,13.5-1.5c2.799-0.6,7.997-1.8,15.6-3.6
		c6.398-1.599,9.999-2.4,10.8-2.4c1.997,0,5.695,1.35,11.095,4.05s8.499,4.552,9.3,5.55c3,7.604,7.397,17.7,13.2,30.3
		c4.397,8.4,9.6,19.8,15.6,34.2c6.998,16.402,12.3,28.303,15.9,35.7c5.4,10.8,10.898,21.6,16.5,32.4
		C1150.194,246.081,1154.094,254.58,1154.094,256.178z M1121.094,234.578l-61.884-135.6c-5.606,2.602-15.019,4.95-28.237,7.05
		s-22.73,4.646-28.538,7.641c-3.604,10.997-6.108,20.292-7.509,27.886c-2.606,13.992-4.908,24.886-6.91,32.682
		c-1.186,5.404-6.417,26.222-15.693,62.447c-7.885,29.184-11.822,45.075-11.822,47.672c0,1.411,0.398,2.517,1.2,3.323h3.609
		c4.406,0,12.82-3.098,25.247-9.3c10.017-5.199,17.029-9.197,21.037-12c0-2.798-0.501-10.2-1.5-22.2v-33.6
		c0-2.798,6.099-6.9,18.3-12.3c10.997-4.997,17.7-7.5,20.1-7.5c4.2,0,8.198,7.903,12,23.7c2.798,13.2,5.498,26.4,8.1,39.6
		c4.599-1.997,13.299-4.898,26.1-8.7C1105.691,242.181,1114.494,238.581,1121.094,234.578z M1022.394,287.467
		c-1.402-1.012-3.103-2.526-5.1-4.551c-2.001-2.025-3.403-3.038-4.2-3.038c-0.801,0-6.403,2.629-16.8,7.889
		c-5.4,2.634-12.802,5.161-22.2,7.589c8.4,7.083,12.999,10.622,13.8,10.622c1.2,0,6.197-2.222,15-6.675
		C1012.691,294.447,1019.192,290.504,1022.394,287.467z M1046.394,158.978c0,3.801-1.003,6.103-3,6.9c-14.203,6-22.603,9-25.2,9
		c-4.2,0-6.3-2.499-6.3-7.5c0-11.199,2.499-21.197,7.5-30c6.398-3.398,12.6-4.997,18.6-4.8
		C1040.994,135.578,1043.792,144.381,1046.394,158.978z M1032.894,157.778c-0.6-1.2-1.702-3.047-3.3-5.55
		c-1.603-2.499-2.7-4.35-3.3-5.55c-1.2,6.6-1.8,11.302-1.8,14.1C1026.294,160.178,1029.092,159.179,1032.894,157.778z
		 M1136.994,254.678c-5.002-6.797-7.702-10.2-8.1-10.2c-1.003,0-4.8,1.5-11.4,4.5c-8.4,3.6-13.8,5.901-16.2,6.9
		c-5.001,1.003-11.803,2.602-20.4,4.8c-2.001,0.802-4.003,1.65-6,2.55c-2.001,0.9-3.3,2.25-3.9,4.05c7.8,7.8,12.797,11.7,15,11.7
		c0.797,0,7.598-3.099,20.4-9.3C1122.191,261.878,1132.391,256.881,1136.994,254.678z"/>
	<path fill="#64BED8" d="M1317.289,210.578c0,14.602-3.6,30.104-10.8,46.5c-9,20.4-21,34.003-36,40.8
		c-4.603,2.602-9.3,5.203-14.1,7.8c-4.003,2.001-8.7,3-14.1,3c-19.8,0-36.3-5.1-49.5-15.3c-7.2-5.4-14.203-17.297-21-35.7
		c-6.6-17.198-9.9-31.097-9.9-41.7v-28.2c0,0.802,1.5-6.698,4.5-22.5c0.797-5.798,3-15,6.6-27.6c3.6-8.597,11.198-18.197,22.8-28.8
		c9.797-8.798,16.5-13.599,20.1-14.4c13.997-3.999,23.499-6,28.5-6c15.6,0,29.597,8.803,42,26.4c9.6,13.8,17.499,31.702,23.7,53.7
		C1314.889,186.179,1317.289,200.181,1317.289,210.578z M1218.589,281.092c-13.8-9.558-24.6-23.1-32.4-40.631
		c-7.2-15.933-10.8-32.465-10.8-49.594c0-11.55,0.398-19.917,1.2-25.097c0.6-4.378,2.798-12.942,6.6-25.692
		c-1.566,0.999-3.525,3.788-5.874,8.367c-1.763,7.172-3.525,14.241-5.288,21.211c-1.763,7.969-2.742,15.535-2.939,22.707
		c-0.202,9.956,0.989,20.812,3.577,32.564c2.184,8.564,4.373,17.128,6.562,25.692c0.792,2.99,2.283,6.675,4.472,11.053
		c1.987,3.586,3.975,7.271,5.962,11.053c3.178,6.178,5.766,9.764,7.753,10.758c0.797,0.6,3.281,0.896,7.458,0.896
		c0.792,0,3.028-0.497,6.708-1.491C1215.256,281.894,1217.596,281.293,1218.589,281.092z M1307.989,215.678
		c0-19.997-5.001-42.6-15-67.8c-13.401-33.797-31.102-50.7-53.1-50.7c-21,0-36.3,12.403-45.9,37.2
		c-6.202,16.401-9.3,35.203-9.3,56.4c0,34.003,12.698,61.303,38.1,81.9c3.197,2.602,8.147,5.203,14.85,7.8
		c6.699,2.602,12.047,3.9,16.05,3.9c16.598,0,30.098-7.997,40.5-24C1303.386,246.578,1307.989,231.681,1307.989,215.678z
		 M1281.889,198.278c0,9.802-2.001,18.103-6,24.9c-5.001,8.602-12.202,12.9-21.6,12.9c-14.001,0-23.803-10.396-29.4-31.2
		c-3-11.798-4.5-25.298-4.5-40.5c0-26.4,6-39.6,18-39.6c6.398,0,10.8,1.2,13.2,3.6c7.598,7.003,14.55,17.85,20.85,32.55
		C1278.739,175.628,1281.889,188.078,1281.889,198.278z M1262.089,197.978c0-6-2.1-14.297-6.3-24.9c-5.4-13.8-11.803-20.7-19.2-20.7
		c-3.202,0-5.7,1.401-7.5,4.2v23.7c0,3.802,1.8,11.901,5.4,24.3c4.397,14.803,8.7,22.2,12.9,22.2c3.197,0,6.398-3.197,9.6-9.6
		c3-5.597,4.5-10.5,4.5-14.7c0-0.398,0.099-1.097,0.3-2.1C1261.986,199.379,1262.089,198.578,1262.089,197.978z M1274.689,210.878
		c-2.002-0.398-5.002,1.5-9,5.7c-5.002,5.203-7.8,7.903-8.4,8.1c-0.201,0,0.549,0.202,2.25,0.6c1.697,0.403,4.05,0.6,7.05,0.6
		c1.598-1.2,3.398-3.6,5.4-7.2C1273.986,215.078,1274.886,212.481,1274.689,210.878z"/>
</g>
</svg>
