<?xml version="1.0" encoding="utf-8"?>
<svg xmlns="http://www.w3.org/2000/svg" viewBox="0 0 627.88003 287.10001">
<g transform="translate(-545.1,-115.178)">
	<path fill="#F3F51A" d="M566.4,133.778l-11.7,0.6c-4.402-0.197-6.6-0.999-6.6-2.4c0-3.398,7.298-5.1,21.9-5.1
		c0.6-3.398,2.648-6.197,6.15-8.4c3.497-2.199,7.298-3.3,11.4-3.3c4.097,0,6.15,1.2,6.15,3.6c-0.6,1.401-1.402,2.85-2.4,4.35
		c-1.003,1.5-1.8,3.15-2.4,4.95c54.999,5.002,82.5,20.602,82.5,46.8c0,12.6-5.151,24.501-15.45,35.7
		c-10.303,11.203-21.202,18.802-32.7,22.8c-11.503,4.003-24,6-37.5,6s-21.253-0.497-23.25-1.5c-2.803,15.801-4.2,32.353-4.2,49.65
		c0,17.302,0.6,27.352,1.8,30.15c0,0.802-0.3,1.402-0.9,1.8c-0.6,0.403-0.9,0.703-0.9,0.9c-0.801,2.001-3.201,3-7.2,3
		c-4.003,0-6-1.599-6-4.8c0-13.8,2.447-39.797,7.35-78c4.898-38.198,9.646-68.198,14.25-90v-0.6l-0.9-3.9
		c0-3.398,0.797-7.5,2.4-12.3H566.4z M657.6,170.078c-1.8-5.597-5.55-10.65-11.25-15.15c-5.7-4.5-12.352-8.048-19.95-10.65
		c-14.803-4.997-28.003-8.1-39.6-9.3h-0.3c-3.403,6.801-7.702,21.801-12.9,45c-5.203,23.203-8.302,39.9-9.3,50.1
		c1.2,1.2,6.549,1.8,16.05,1.8c9.497,0,15.647-0.197,18.45-0.6c13.599-1.397,26.897-7.148,39.9-17.25
		c12.998-10.097,19.5-22.148,19.5-36.15C658.2,174.479,657.999,171.878,657.6,170.078z"/>
	<path fill="#F3F51A" d="M674.401,245.978l-1.2-5.1c0-1.2,0.197-2.297,0.6-3.3c3.197-12.6,6.45-21.197,9.75-25.8
		c3.3-4.599,8.147-6.9,14.55-6.9c2.4,0,3.797,0.801,4.2,2.4c-0.202,0.6-1.65,4.102-4.35,10.5c-2.7,6.403-5.151,12.403-7.35,18
		c-6.201,15-11.001,30-14.4,45c6.6-12.999,16.8-28.65,30.6-46.95c13.8-18.3,25.2-27.45,34.2-27.45c4.8,0,7.2,3.051,7.2,9.15
		c0,6.103-2.301,12.352-6.9,18.75c-1.603,2.203-3.75,4.35-6.45,6.45c-2.7,2.1-4.701,3.15-6,3.15c-1.303,0-1.95-0.497-1.95-1.5
		c0-0.999,0.947-3.9,2.85-8.7c1.898-4.8,2.85-7.997,2.85-9.6c0-1.598-0.501-2.4-1.5-2.4c-7.003,0-17.353,10.8-31.05,32.4
		c-13.702,21.6-23.85,42.703-30.45,63.3c-1.2,1.603-3.103,3.202-5.7,4.8c-2.602,1.599-4.65,2.4-6.15,2.4s-2.55-0.501-3.15-1.5
		c0-5.4,0.647-10.298,1.95-14.7c1.298-4.397,2.948-6.999,4.95-7.8c4.396-16.598,7.5-28.997,9.3-37.2l3-12.6
		C674.2,249.381,674.401,247.778,674.401,245.978z"/>
	<path fill="#F3F51A" d="M818.998,233.378c3.797,0.6,5.7,1.753,5.7,3.45c0,1.702-1.5,3.253-4.5,4.65c-3,1.401-5.7,2.1-8.1,2.1
		c0,23.4-6.103,43.402-18.3,60c-12.202,16.604-24.3,24.9-36.3,24.9c-11.602,0-17.4-8.4-17.4-25.2c0-14.798,5.597-34.997,16.8-60.6
		c4.2-9.6,9.347-17.747,15.45-24.45c6.099-6.699,12.249-10.05,18.45-10.05h2.1c0-2.798,0.797-5.198,2.4-7.2
		c1.599-1.997,3.797-3,6.6-3c2.798,0.201,5.297,6.051,7.5,17.55C811.596,227.031,814.798,232.979,818.998,233.378z M803.698,241.178
		c-1.8-0.999-4.003-4.547-6.6-10.65c-2.602-6.099-4.401-9.15-5.4-9.15c-6.202,0-13.401,9.15-21.6,27.45
		c-8.203,18.3-13.003,31.252-14.4,38.85c-1.401,7.603-2.1,13.303-2.1,17.1c0,9.802,2.799,14.7,8.4,14.7
		c7.997,0,16.95-8.147,26.85-24.45C798.748,278.729,803.698,260.781,803.698,241.178z"/>
	<path fill="#F3F51A" d="M849.294,245.978l-0.9-4.5c0-1.397,0.197-2.597,0.6-3.6c3.197-12.398,6.398-20.747,9.6-25.05
		c3.197-4.298,7.997-6.45,14.4-6.45c2.597,0,4.2,0.9,4.8,2.7c-14.203,34.003-27.703,79.303-40.5,135.9
		c-4.8,20.798-11.653,35.55-20.55,44.25c-8.897,8.7-18.249,13.05-28.05,13.05c-16.997,0-25.5-9.202-25.5-27.6
		c0-4.8,0.651-9.202,1.95-13.2c1.303-4.003,2.55-6,3.75-6c0.802,0,1.303,0.6,1.5,1.8v3c0,10.8,2.002,19.599,6,26.4
		c4.003,6.797,8.602,10.2,13.8,10.2c10.8,0,19.401-10.102,25.8-30.3c11.798-37.8,22.697-76.298,32.7-115.5
		C849.092,249.479,849.294,247.778,849.294,245.978z M888.444,155.378c3.3,0,4.95,0.9,4.95,2.7c0,1.8-1.5,3.553-4.5,5.25
		c-3,1.702-5.4,3.9-7.2,6.6c-1.8,2.7-3.103,5.25-3.9,7.65c-2.002,6.403-4.702,9.6-8.1,9.6c-1.402,0-2.7-1.547-3.9-4.65
		c-1.2-3.099-1.903-5.648-2.1-7.65c0-4.2,3.3-8.499,9.9-12.9C880.194,157.581,885.144,155.378,888.444,155.378z"/>
	<path fill="#F3F51A" d="M913.19,265.778l-10.8-0.3c-6.6,16.8-9.9,29.602-9.9,38.4c0,8.803,3,13.2,9,13.2
		c6.999,0,16.8-7.898,29.4-23.7c4.2-5.4,6.698-8.1,7.5-8.1c1.397,0,2.1,0.802,2.1,2.4c0,5.602-5.503,13.35-16.5,23.25
		c-11.001,9.9-19.303,14.85-24.9,14.85c-5.602,0-10.453-1.552-14.55-4.65c-4.102-3.099-6.15-8.25-6.15-15.45
		c0-6.6,1.65-15.047,4.95-25.35c3.3-10.298,5.048-16.247,5.25-17.85c-3-0.797-4.5-2.349-4.5-4.65c0-2.297,1.697-3.45,5.1-3.45h2.1
		c7.997-15.797,12.6-24.9,13.8-27.3c5.597-10.598,16.298-15.9,32.1-15.9c6.797,0,11.499,6.103,14.1,18.3
		c1.2,6.201,1.8,11.353,1.8,15.45c0,4.102-1.5,7.702-4.5,10.8c-3,3.103-6.9,5.25-11.7,6.45
		C928.49,264.578,920.587,265.778,913.19,265.778z M905.09,257.078l12,0.6c8.198,0,14.1-0.9,17.7-2.7
		c3.6-1.8,5.447-5.349,5.55-10.65c0.098-5.297-0.352-9.75-1.35-13.35c-1.8-6.398-4.303-9.6-7.5-9.6c-4.003,0-8.751,4.303-14.25,12.9
		C911.737,242.879,907.687,250.478,905.09,257.078z"/>
	<path fill="#F3F51A" d="M1014.888,235.178l2.4-13.5c0-3.197-1.702-4.8-5.1-4.8c-2.4,0-6.15,1.65-11.25,4.95
		c-5.1,3.3-9.253,6.6-12.45,9.9c-3.202,3.3-8.4,13.903-15.6,31.8c-7.2,17.901-10.8,31.753-10.8,41.55c0,7.402,2.897,11.1,8.7,11.1
		c7.397,0,14.798-2.85,22.2-8.55c7.396-5.7,13.396-11.499,18-17.4c4.598-5.897,6.998-8.85,7.2-8.85c0.999,0.403,1.5,1.603,1.5,3.6
		c0,2.001-2.4,6.253-7.2,12.75c-4.8,6.501-11.452,12.703-19.95,18.6c-8.503,5.902-16.753,8.85-24.75,8.85
		c-12.202,0-18.3-6.999-18.3-21c0-13.997,4.5-30.698,13.5-50.1c9-19.396,16.8-30.6,23.4-33.6c3-1.2,6.3-2.7,9.9-4.5
		c7.2-3.797,12.9-5.7,17.1-5.7c9.398,0,14.1,4.702,14.1,14.1c0,5.602-1.102,9.703-3.3,12.3c-2.203,2.602-4.102,3.9-5.7,3.9
		C1016.087,240.578,1014.888,238.778,1014.888,235.178z"/>
	<path fill="#F3F51A" d="M1064.984,200.978l-1.2-4.2c0-0.6,0.3-1.8,0.9-3.6c3.999-12.797,7.65-21.3,10.95-25.5
		c3.3-4.2,8.147-6.3,14.55-6.3c2.798,0,4.397,0.9,4.8,2.7c-4.401,9.403-10.5,24.802-18.3,46.2h29.1c5.597,0,8.4,0.6,8.4,1.8
		c0,2.002-4.603,3.553-13.8,4.65c-9.201,1.102-18,1.65-26.4,1.65c-10.003,28.2-18.103,55.2-24.3,81c-1.003,4.003-1.5,7.303-1.5,9.9
		c0,2.602,1.097,3.9,3.3,3.9c3.999,0,9.849-3.548,17.55-10.65c7.697-7.097,11.948-10.65,12.75-10.65c0.797,0,1.2,1.153,1.2,3.45
		c0,2.302-1.102,3.952-3.3,4.95c-18.403,16.603-31.303,24.9-38.7,24.9c-4.603,0-6.9-2.897-6.9-8.7c0-3.197,1.35-9.197,4.05-18
		c2.7-8.799,10.148-35.1,22.35-78.9c-4.8,0.802-10.5,1.2-17.1,1.2c-6.6,0-9.9-0.797-9.9-2.4c0-1.599,1.298-3.347,3.9-5.25
		c2.597-1.898,4.697-2.85,6.3-2.85h19.2l1.2-4.2C1064.684,203.678,1064.984,201.981,1064.984,200.978z"/>
	<path fill="#F3F51A" d="M1172.98,219.878c-0.403,4.003-3,9.703-7.8,17.1c-4.8,7.401-8.503,11.1-11.1,11.1
		c-0.802,0-1.2-0.75-1.2-2.25s1.097-4.997,3.3-10.5c2.199-5.498,3.3-9.047,3.3-10.65c0-3-1.8-4.5-5.4-4.5c-0.6,0-3.9,0.501-9.9,1.5
		c-5.001,1.2-11.55,4.402-19.65,9.6c-8.1,5.203-12.15,10.903-12.15,17.1c0,2.203,0.497,4.2,1.5,6c2.597,5.203,7.148,9.6,13.65,13.2
		c6.497,3.6,12.099,7.003,16.8,10.2c4.697,3.202,7.05,7.401,7.05,12.6c0,8.803-6.75,17.25-20.25,25.35
		c-13.5,8.1-25.05,12.15-34.65,12.15c-1.603,0-2.902-0.652-3.9-1.95c-1.003-1.303-1.5-2.653-1.5-4.05c0-2.4,1.097-3.6,3.3-3.6
		c6.6,0,15.849-2.048,27.75-6.15c11.897-4.097,17.85-8.55,17.85-13.35c0-4.997-7.102-11.798-21.3-20.4
		c-5.4-3.197-10.35-7.05-14.85-11.55s-6.75-8.648-6.75-12.45c0-3.797,1.05-6.999,3.15-9.6c2.1-2.597,4.148-4.95,6.15-7.05
		c1.997-2.1,3.9-3.947,5.7-5.55c1.8-1.598,3.848-3.197,6.15-4.8c2.297-1.599,4.35-3,6.15-4.2c1.8-1.2,3.9-2.4,6.3-3.6l5.7-3
		c4.2-1.997,7.2-3.3,9-3.9s3.698-1.298,5.7-2.1c4.598-1.8,8.297-2.7,11.1-2.7C1169.38,207.878,1172.98,211.881,1172.98,219.878z"/>
</g>
</svg>
