<?xml version="1.0" encoding="utf-8"?>
<svg xmlns="http://www.w3.org/2000/svg" viewBox="0 0 1067.432 295.167">
<g transform="translate(-522,-130.15)">
	<path fill="#00A0C6" d="M522,226.391h17.578v-88.04c0-0.682,0.146-1.316,0.439-1.902H522v-6.299h178.711v6.299h-38.525
		c9.375,3.804,16.699,10.238,21.973,19.304c4.882,8.288,7.324,17.599,7.324,27.933c0,18.818-6.935,33.053-20.801,42.705h30.029
		v2.344H667.02c-7.423,4.2-15.919,6.299-25.488,6.299h-88.33v83.789c0,1.563-0.439,2.882-1.318,3.955h148.828v6.299H522v-6.299
		h18.75c-0.783-1.073-1.172-2.392-1.172-3.955v-90.088H522V226.391z M700.711,425.317H522v-6.299h178.711V425.317z M641.238,145.678
		h-88.037v75.586h88.33c11.426,0,20.556-3.955,27.393-11.865c6.152-7.127,9.229-15.77,9.229-25.928
		c0-10.254-3.076-18.944-9.229-26.074C662.087,149.585,652.858,145.678,641.238,145.678z"/>
	<path fill="#00A0C6" d="M697.342,130.151h107.227v6.299H697.342V130.151z M697.342,226.391h107.227v2.344h-15.381
		c1.366,0.978,2.051,2.442,2.051,4.395v84.961c0,2.051-0.732,3.614-2.197,4.688h15.527v6.299H697.342v-6.299h36.035
		c-18.164-3.809-27.246-15.038-27.246-33.691v-55.811c0-1.952,0.927-3.465,2.783-4.541h-11.572V226.391z M804.568,425.317H697.342
		v-6.299h107.227V425.317z M781.131,228.735h-64.16c1.268,0.978,1.904,2.49,1.904,4.541v55.811c0,7.617,2.783,13.477,8.35,17.578
		c4.784,3.614,10.986,5.42,18.604,5.42c8.397,0,15.868-2,22.412-6.006c6.933-4.296,10.4-9.521,10.4-15.674v-56.982
		C778.641,231.372,779.469,229.811,781.131,228.735z M757.693,322.778h23.145c-1.369-0.879-2.051-2.293-2.051-4.248v-3.809
		C773.415,318.53,766.384,321.217,757.693,322.778z"/>
	<path fill="#00A0C6" d="M800.027,226.391h8.789v-86.87c0-1.17,0.194-2.193,0.586-3.072h-9.375v-6.299h110.01v6.299h-89.648
		c0.586,1.073,0.879,2.097,0.879,3.072v86.87h88.77v2.344H864.92c11.034,2.344,20.165,7.887,27.393,16.626
		c7.226,8.741,10.84,18.823,10.84,30.249c0,11.33-3.614,21.412-10.84,30.249c-7.228,8.839-16.31,14.479-27.246,16.919h44.971v6.299
		h-110.01v-6.299h11.279c-1.662-1.172-2.49-2.831-2.49-4.98v-89.062h-8.789V226.391z M910.037,425.317h-110.01v-6.299h110.01
		V425.317z M818.777,322.778h25.195c-8.595-1.952-16.164-6.152-22.705-12.598v7.617
		C821.268,319.947,820.437,321.606,818.777,322.778z M890.701,275.61c0-9.961-3.493-18.457-10.474-25.488
		c-6.983-7.031-15.406-10.547-25.269-10.547c-7.716,0-14.648,2.197-20.801,6.592s-10.499,10.06-13.037,16.992v24.316
		c2.733,7.13,7.152,12.916,13.257,17.358c6.102,4.445,12.964,6.665,20.581,6.665c9.862,0,18.285-3.516,25.269-10.547
		C887.208,293.92,890.701,285.475,890.701,275.61z M843.826,228.735h-22.559v12.158
		C827.614,234.645,835.133,230.591,843.826,228.735z"/>
	<path fill="#00A0C6" d="M906.082,226.391h14.648v-87.602c0-0.877,0.146-1.657,0.439-2.339h-15.088v-6.299h48.047v6.299h-20.654
		c0.293,0.682,0.439,1.462,0.439,2.339v87.602h20.215v2.344h-20.215v90.088c0,1.563-0.439,2.882-1.318,3.955h21.533v6.299h-48.047
		v-6.299h15.967c-0.879-1.073-1.318-2.392-1.318-3.955v-90.088h-14.648V226.391z M954.129,425.317h-48.047v-6.299h48.047V425.317z"
		/>
	<path fill="#00A0C6" d="M948.562,130.151h42.334v6.299h-42.334V130.151z M948.562,226.391h42.334v2.344h-19.775
		c2.051,1.465,3.076,3.566,3.076,6.299v83.35c0,1.955-0.636,3.419-1.904,4.395h18.604v6.299h-42.334v-6.299h16.26
		c-2.442-1.561-3.662-3.809-3.662-6.738v-81.152c0-2.93,0.78-4.98,2.344-6.152h-14.941V226.391z M990.896,425.317h-42.334v-6.299
		h42.334V425.317z M977.859,179.077c0,2.833-1.025,5.226-3.076,7.178c-2.051,1.955-4.493,2.93-7.324,2.93
		c-6.738,0-10.107-3.369-10.107-10.107s3.369-10.107,10.107-10.107c2.831,0,5.273,0.978,7.324,2.93
		C976.834,173.854,977.859,176.246,977.859,179.077z"/>
	<path fill="#00A0C6" d="M986.648,130.151h95.801v6.299h-95.801V130.151z M986.648,226.391h95.801v2.344h-41.602
		c13.671,1.369,24.559,7.521,32.666,18.457c0.975,1.369,1.465,2.783,1.465,4.248c0,4.688-2.344,7.031-7.031,7.031
		c-2.051,0-3.761-0.927-5.127-2.783c-6.738-9.082-15.578-13.623-26.514-13.623c-9.181,0-16.969,3.248-23.364,9.741
		c-6.397,6.496-9.595,14.527-9.595,24.097c0,9.668,3.246,17.896,9.741,24.683c6.493,6.789,14.33,10.181,23.511,10.181
		c10.84,0,19.677-4.589,26.514-13.77c1.366-1.952,3.076-2.93,5.127-2.93c4.688,0,7.031,2.394,7.031,7.178
		c0,1.465-0.49,2.882-1.465,4.248c-6.251,8.496-14.308,14.259-24.17,17.285h32.812v6.299h-95.801v-6.299h36.035
		c-9.668-3.026-17.604-8.862-23.804-17.505c-6.203-8.643-9.302-18.48-9.302-29.517c0-12.499,4.003-23.167,12.012-32.007
		c8.006-8.837,17.967-13.843,29.883-15.015h-44.824V226.391z M1082.449,425.317h-95.801v-6.299h95.801V425.317z"/>
	<path fill="#00A0C6" d="M1078.201,130.151h111.035v6.299h-111.035V130.151z M1078.201,226.391h111.035v2.344h-15.381
		c1.073,1.172,1.611,2.637,1.611,4.395v84.375c0,2.442-0.929,4.2-2.783,5.273h16.553v6.299h-111.035v-6.299h41.016
		c-10.938-2.44-20.021-8.104-27.246-16.992c-7.228-8.885-10.84-19.043-10.84-30.469c0-11.229,3.442-21.142,10.327-29.736
		c6.885-8.592,15.601-14.209,26.147-16.846h-39.404V226.391z M1189.236,425.317h-111.035v-6.299h111.035V425.317z M1164.334,263.452
		c-2.541-6.933-7.082-12.694-13.623-17.285c-6.544-4.589-13.623-6.885-21.24-6.885c-9.961,0-18.434,3.516-25.415,10.547
		c-6.983,7.031-10.474,15.527-10.474,25.488c0,9.865,3.49,18.311,10.474,25.342c6.981,7.031,15.454,10.547,25.415,10.547
		c7.713,0,14.77-2.22,21.167-6.665c6.395-4.442,10.961-10.181,13.696-17.212C1164.334,279.418,1164.334,271.46,1164.334,263.452z
		 M1140.164,322.778h25.781c-1.955-1.073-2.93-2.831-2.93-5.273v-7.617C1156.374,316.529,1148.756,320.826,1140.164,322.778z
		 M1164.627,228.735h-23.291c8.496,2.051,15.722,6.006,21.68,11.865v-7.471C1163.016,231.372,1163.551,229.907,1164.627,228.735z"/>
	<path fill="#00A0C6" d="M1184.256,130.151h78.516v6.299h-38.086c2.147,0.975,3.223,2.73,3.223,5.264v78.964h21.24
		c3.905,0,6.006,1.904,6.299,5.713h7.324v2.344h-7.471c-0.879,3.321-3.126,4.98-6.738,4.98h-20.654v83.936
		c0,2.248-0.879,3.955-2.637,5.127h37.5v6.299h-78.516v-6.299h32.959c-1.662-1.172-2.49-2.879-2.49-5.127v-83.936h-20.801
		c-3.614,0-5.812-1.659-6.592-4.98h-3.076v-2.344h2.93c0.389-3.809,2.733-5.713,7.031-5.713h20.508v-78.525
		c0-2.728,1.172-4.63,3.516-5.704h-33.984V130.151z M1262.771,425.317h-78.516v-6.299h78.516V425.317z"/>
	<path fill="#00A0C6" d="M1258.377,130.151h42.334v6.299h-42.334V130.151z M1258.377,226.391h42.334v2.344h-19.775
		c2.051,1.465,3.076,3.566,3.076,6.299v83.35c0,1.955-0.636,3.419-1.904,4.395h18.604v6.299h-42.334v-6.299h16.26
		c-2.442-1.561-3.662-3.809-3.662-6.738v-81.152c0-2.93,0.78-4.98,2.344-6.152h-14.941V226.391z M1300.711,425.317h-42.334v-6.299
		h42.334V425.317z M1287.674,179.077c0,2.833-1.025,5.226-3.076,7.178c-2.051,1.955-4.493,2.93-7.324,2.93
		c-6.738,0-10.107-3.369-10.107-10.107s3.369-10.107,10.107-10.107c2.831,0,5.273,0.978,7.324,2.93
		C1286.648,173.854,1287.674,176.246,1287.674,179.077z"/>
	<path fill="#00A0C6" d="M1296.463,130.151h103.418v6.299h-103.418V130.151z M1296.463,226.391h103.418v2.344h-43.799
		c10.547,2.442,19.311,8.057,26.294,16.846c6.981,8.789,10.474,18.849,10.474,30.176c0,11.426-3.442,21.51-10.327,30.249
		c-6.885,8.741-15.601,14.333-26.147,16.772h43.506v6.299h-103.418v-6.299h39.404c-10.547-2.44-19.263-8.031-26.147-16.772
		c-6.885-8.739-10.327-18.823-10.327-30.249s3.465-21.533,10.4-30.322c6.933-8.789,15.674-14.355,26.221-16.699h-39.551V226.391z
		 M1399.881,425.317h-103.418v-6.299h103.418V425.317z M1380.691,275.756c0-9.862-3.369-18.26-10.107-25.195
		c-6.738-6.933-14.894-10.4-24.463-10.4c-9.572,0-17.75,3.468-24.536,10.4c-6.789,6.935-10.181,15.333-10.181,25.195
		c0,9.865,3.392,18.288,10.181,25.269c6.786,6.983,14.964,10.474,24.536,10.474c9.569,0,17.725-3.49,24.463-10.474
		C1377.322,294.044,1380.691,285.621,1380.691,275.756z"/>
	<path fill="#00A0C6" d="M1395.779,130.151h106.201v6.299h-106.201V130.151z M1395.779,226.391h106.201v2.344h-39.697
		c18.26,3.809,27.393,15.04,27.393,33.691v55.811c0,1.955-0.879,3.468-2.637,4.541h14.941v6.299h-106.201v-6.299h10.84
		c-1.369-0.975-2.051-2.44-2.051-4.395v-84.814c0-2.147,0.78-3.758,2.344-4.834h-11.133V226.391z M1501.98,425.317h-106.201v-6.299
		h106.201V425.317z M1438.406,228.735h-23.584c1.465,0.879,2.197,2.344,2.197,4.395l0.146,3.809
		C1422.634,233.033,1429.713,230.298,1438.406,228.735z M1414.822,322.778h64.014c-1.271-0.975-1.904-2.49-1.904-4.541v-55.811
		c0-7.617-2.735-13.477-8.203-17.578c-4.884-3.516-11.133-5.273-18.75-5.273c-8.302,0-15.724,2.003-22.266,6.006
		c-7.031,4.2-10.547,9.375-10.547,15.527v56.982C1417.166,320.141,1416.383,321.705,1414.822,322.778z"/>
	<path fill="#00A0C6" d="M1498.465,130.151h90.967v6.299h-90.967V130.151z M1498.465,226.391h90.967v2.344h-29.59
		c7.812,2.248,13.231,5.226,16.26,8.936c2.051,2.442,3.076,4.64,3.076,6.592c0,1.758-0.831,3.273-2.49,4.541
		c-3.223,2.541-6.152,2.149-8.789-1.172c-4.493-5.566-11.623-8.446-21.387-8.643c-6.152-0.194-11.817,0.978-16.992,3.516
		c-5.177,2.541-7.96,5.617-8.35,9.229c-0.49,5.079,4.735,9.082,15.674,12.012c17.285,4.786,27.44,7.96,30.469,9.521
		c10.741,5.47,15.527,13.722,14.355,24.756c-1.369,13.087-9.082,21.339-23.145,24.756h30.908v6.299h-90.967v-6.299h38.232
		c-14.454-2.93-25.635-8.936-33.545-18.018c-1.172-1.268-1.758-2.637-1.758-4.102c0-4.395,2.197-6.592,6.592-6.592
		c1.758,0,3.271,0.732,4.541,2.197c3.809,4.2,9.13,7.764,15.967,10.693c6.834,2.93,12.987,4.347,18.457,4.248
		c5.859,0,10.888-1.318,15.088-3.955c4.198-2.637,6.542-6.152,7.031-10.547c0.682-6.445-4.2-11.572-14.648-15.381
		c-9.961-3.026-19.922-6.054-29.883-9.082c-10.84-4.395-16.26-10.595-16.26-18.604c0-1.366,0.096-2.783,0.293-4.248
		c1.854-9.961,9.862-16.846,24.023-20.654h-34.131V226.391z M1589.432,425.317h-90.967v-6.299h90.967V425.317z"/>
</g>
</svg>