<?xml version="1.0" encoding="utf-8"?>
<svg xmlns="http://www.w3.org/2000/svg" viewBox="0 0 637.95349 402.83199">
<g transform="translate(-521.999,-90.6)">
	<path fill="#FF0000" d="M701.736,317.358c-0.586,1.172-1.904,2.955-3.955,5.347s-4.566,4.784-7.544,7.178
		c-2.98,2.392-6.397,4.468-10.254,6.226c-3.859,1.758-7.936,2.637-12.231,2.637c-5.47,0-10.67-1.563-15.601-4.688
		c-4.933-3.126-9.62-6.983-14.062-11.572c-4.445-4.589-8.643-9.521-12.598-14.795s-7.741-10.057-11.353-14.355
		c-1.563,0.293-3.126,0.465-4.688,0.513c-1.563,0.05-3.126,0.073-4.688,0.073c-2.833,0-5.42-0.169-7.764-0.513
		c-2.344-0.341-4.347-0.952-6.006-1.831c-0.49,5.566-0.952,11.133-1.392,16.699s-0.952,11.183-1.538,16.846
		c0,1.366-0.563,2.367-1.685,3.003c-1.124,0.634-2.369,0.952-3.735,0.952c-1.076,0-2.051-0.197-2.93-0.586
		c-0.879-0.392-1.318-0.879-1.318-1.465c0-0.685,0.487-1.417,1.465-2.197c2.147-33.202,3.832-66.552,5.054-100.049
		c1.22-33.495,2.367-67.431,3.442-101.807c-8.693,2.833-16.919,6.372-24.683,10.62s-14.552,9.132-20.361,14.648
		c-5.812,5.519-10.426,11.549-13.843,18.091c-3.419,6.544-5.127,13.477-5.127,20.801c0,2.442,0.268,4.688,0.806,6.738
		c0.536,2.051,1.195,3.882,1.978,5.493c0.78,1.611,1.586,2.98,2.417,4.102c0.829,1.124,1.538,1.978,2.124,2.563l-1.904,1.318
		c-0.49-0.586-1.172-1.488-2.051-2.71c-0.879-1.22-1.735-2.758-2.563-4.614c-0.831-1.854-1.563-4.003-2.197-6.445
		c-0.636-2.44-0.952-5.175-0.952-8.203c0-8.592,1.831-16.626,5.493-24.097s8.569-14.232,14.722-20.288
		c6.152-6.054,13.257-11.4,21.313-16.04c8.057-4.637,16.429-8.519,25.122-11.646c0.194-3.319,0.341-6.64,0.439-9.961
		c0.096-3.319,0.243-6.688,0.439-10.107c0-0.879,0.634-1.538,1.904-1.978c1.268-0.439,2.538-0.659,3.809-0.659
		c1.073,0,2.025,0.146,2.856,0.439c0.829,0.293,1.245,0.732,1.245,1.318c0,0.392-0.197,0.783-0.586,1.172
		c-0.197,2.833-0.343,5.665-0.439,8.496c-0.099,2.833-0.245,5.617-0.439,8.35c12.499-3.417,24.316-5.127,35.449-5.127
		c10.057,0,19.604,1.369,28.638,4.102c9.032,2.735,16.967,7.008,23.804,12.817c6.834,5.812,12.254,13.234,16.26,22.266
		c4.003,9.034,6.006,19.899,6.006,32.593c0,7.716-1.025,15.651-3.076,23.804c-2.051,8.155-4.933,16.139-8.643,23.95
		c-3.712,7.814-8.155,15.333-13.33,22.559c-5.177,7.228-10.938,13.795-17.285,19.702c-6.349,5.91-13.136,11.037-20.361,15.381
		c-7.228,4.347-14.747,7.496-22.559,9.448c3.809,3.809,7.544,7.936,11.206,12.378c3.662,4.445,7.445,8.546,11.353,12.305
		c3.905,3.761,8.08,6.885,12.524,9.375c4.442,2.49,9.35,3.735,14.722,3.735c2.93,0,5.882-0.392,8.862-1.172
		c2.978-0.783,5.736-1.783,8.276-3.003c2.538-1.222,4.809-2.614,6.812-4.175c2-1.561,3.442-3.076,4.321-4.541L701.736,317.358z
		 M597.586,120.629c-0.879,25.978-1.588,51.954-2.124,77.93c-0.538,25.978-1.735,52.492-3.589,79.541
		c0.487-0.194,1.025-0.341,1.611-0.439c0.586-0.096,1.268-0.146,2.051-0.146c4.491,0,8.643,0.952,12.451,2.856
		s7.471,4.42,10.986,7.544c7.713-1.465,15.015-3.955,21.899-7.471s13.257-7.837,19.116-12.964s11.133-10.863,15.82-17.212
		c4.688-6.347,8.69-13.085,12.012-20.215c3.319-7.127,5.859-14.477,7.617-22.046c1.758-7.567,2.637-15.111,2.637-22.632
		c0-9.862-1.222-19.018-3.662-27.466c-2.442-8.446-6.349-15.747-11.719-21.899c-5.372-6.152-12.355-10.961-20.947-14.429
		c-8.595-3.465-19.093-5.2-31.494-5.2C619.508,116.381,608.62,117.798,597.586,120.629z M604.764,289.233c0.975,0,1.904,0,2.783,0
		s1.758-0.096,2.637-0.293c-2.248-2.245-4.395-4.125-6.445-5.64c-2.051-1.513-4.005-2.271-5.859-2.271
		c-1.758,0-3.149,0.343-4.175,1.025c-1.025,0.685-1.538,1.563-1.538,2.637c0,1.369,1.245,2.467,3.735,3.296
		C598.392,288.819,601.344,289.233,604.764,289.233z"/>
	<path fill="#FF0000" d="M753.006,250.415c1.268,0.293,1.904,1.124,1.904,2.49c0,0.392-0.124,0.904-0.366,1.538
		c-0.245,0.636-0.538,1.271-0.879,1.904c-0.343,0.636-0.709,1.172-1.099,1.611c-0.392,0.439-0.732,0.659-1.025,0.659
		c-0.49,0-1.076-0.169-1.758-0.513c-0.685-0.341-1.662-0.732-2.93-1.172c-1.271-0.439-2.93-0.829-4.98-1.172
		c-2.051-0.341-4.738-0.513-8.057-0.513c-4.688,0-8.595,0.879-11.719,2.637c-3.126,1.758-4.688,4.2-4.688,7.324
		c0,2.248,0.952,4.127,2.856,5.64c1.904,1.515,4.149,2.71,6.738,3.589c2.586,0.879,5.223,1.515,7.91,1.904
		c2.685,0.392,4.761,0.586,6.226,0.586c1.073,0,1.781,0.172,2.124,0.513c0.341,0.343,0.513,0.659,0.513,0.952
		c0,0.783-0.318,1.245-0.952,1.392c-0.636,0.146-1.442,0.366-2.417,0.659c-2.541,0.879-5.127,1.978-7.764,3.296
		s-5.054,2.882-7.251,4.688c-2.197,1.808-3.98,3.834-5.347,6.079c-1.369,2.248-2.051,4.688-2.051,7.324
		c0,4.395,1.781,8.034,5.347,10.913c3.563,2.882,8.569,4.321,15.015,4.321c7.324,0,13.426-1.099,18.311-3.296
		c4.882-2.197,8.91-4.761,12.085-7.69c3.172-2.93,5.64-5.882,7.397-8.862c1.758-2.978,3.076-5.248,3.955-6.812l0.879,0.586
		c-1.662,4.786-3.786,9.229-6.372,13.33c-2.589,4.102-5.713,7.643-9.375,10.62c-3.662,2.98-7.936,5.324-12.817,7.031
		c-4.884,1.708-10.451,2.563-16.699,2.563c-3.809,0-7.324-0.465-10.547-1.392s-6.006-2.22-8.35-3.882
		c-2.344-1.659-4.152-3.71-5.42-6.152c-1.271-2.44-1.904-5.223-1.904-8.35c0-3.612,0.829-6.738,2.49-9.375
		c1.659-2.637,3.563-4.809,5.713-6.519c2.147-1.708,4.271-3.026,6.372-3.955c2.099-0.927,3.589-1.586,4.468-1.978
		c-3.028-0.487-5.713-1.318-8.057-2.49c-1.955-1.073-3.761-2.563-5.42-4.468c-1.662-1.904-2.49-4.516-2.49-7.837
		c0-3.026,0.732-5.786,2.197-8.276s3.442-4.564,5.933-6.226c2.49-1.659,5.37-2.953,8.643-3.882
		c3.271-0.927,6.761-1.392,10.474-1.392c2.147,0,4.321,0.146,6.519,0.439S750.758,249.634,753.006,250.415z"/>
	<path fill="#FF0000" d="M771.316,305.053c3.319-5.273,6.299-10.668,8.936-16.187c2.637-5.516,4.834-10.913,6.592-16.187
		c-2.344-3.319-4.321-6.713-5.933-10.181c-1.611-3.465-2.417-7.054-2.417-10.767c0-3.612,0.341-6.885,1.025-9.814
		c0.682-2.93,1.611-5.42,2.783-7.471s2.49-3.637,3.955-4.761c1.465-1.122,2.978-1.685,4.541-1.685c2.147,0,3.882,1.076,5.2,3.223
		c1.318,2.149,1.879,4.884,1.685,8.203c-0.197,3.907-0.709,8.107-1.538,12.598c-0.831,4.493-2.028,9.082-3.589,13.77
		c1.952,2.248,3.978,4.468,6.079,6.665c2.099,2.197,4.003,4.468,5.713,6.812c1.708,2.344,3.124,4.859,4.248,7.544
		c1.122,2.687,1.685,5.592,1.685,8.716c0,4.298-0.806,8.253-2.417,11.865c-1.611,3.614-3.541,6.738-5.786,9.375
		c-2.248,2.637-4.591,4.688-7.031,6.152c-2.442,1.465-4.541,2.197-6.299,2.197c-3.028,0-5.347-0.783-6.958-2.344
		s-2.417-3.271-2.417-5.127c0-1.465,0.243-2.93,0.732-4.395c0.487-1.465,1.048-2.806,1.685-4.028c0.634-1.22,1.268-2.22,1.904-3.003
		c0.634-0.78,1.099-1.172,1.392-1.172c0.487,0,0.806,0.172,0.952,0.513c0.146,0.343,0.22,0.659,0.22,0.952
		c0,0.49-0.05,1.172-0.146,2.051c-0.099,0.879-0.146,1.611-0.146,2.197c0,1.662,0.561,3.028,1.685,4.102
		c1.122,1.076,2.953,1.611,5.493,1.611c1.073,0,2.293-0.243,3.662-0.732c1.366-0.487,2.685-1.268,3.955-2.344
		c1.268-1.073,2.318-2.417,3.149-4.028c0.829-1.611,1.245-3.539,1.245-5.786c0-2.051-0.49-4.198-1.465-6.445
		c-0.978-2.245-2.248-4.541-3.809-6.885c-1.563-2.344-3.296-4.735-5.2-7.178c-1.904-2.44-3.786-4.93-5.64-7.471
		c-2.248,5.566-4.713,10.963-7.397,16.187c-2.687,5.226-5.543,10.034-8.569,14.429L771.316,305.053z M782.449,244.116
		c0,3.712,0.682,7.008,2.051,9.888c1.366,2.882,3.172,5.69,5.42,8.423c0.78-3.026,1.318-5.933,1.611-8.716s0.439-5.443,0.439-7.983
		c0-6.834-1.515-10.254-4.541-10.254c-0.879,0-1.93,0.659-3.149,1.978C783.058,238.769,782.449,240.992,782.449,244.116z"/>
	<path fill="#FF0000" d="M867.85,250.415c1.268,0.293,1.904,1.124,1.904,2.49c0,0.392-0.124,0.904-0.366,1.538
		c-0.245,0.636-0.538,1.271-0.879,1.904c-0.343,0.636-0.709,1.172-1.099,1.611c-0.392,0.439-0.732,0.659-1.025,0.659
		c-0.49,0-1.076-0.169-1.758-0.513c-0.685-0.341-1.662-0.732-2.93-1.172c-1.271-0.439-2.93-0.829-4.98-1.172
		c-2.051-0.341-4.738-0.513-8.057-0.513c-4.688,0-8.595,0.879-11.719,2.637c-3.126,1.758-4.688,4.2-4.688,7.324
		c0,2.248,0.952,4.127,2.856,5.64c1.904,1.515,4.149,2.71,6.738,3.589c2.586,0.879,5.223,1.515,7.91,1.904
		c2.685,0.392,4.761,0.586,6.226,0.586c1.073,0,1.781,0.172,2.124,0.513c0.341,0.343,0.513,0.659,0.513,0.952
		c0,0.783-0.318,1.245-0.952,1.392c-0.636,0.146-1.442,0.366-2.417,0.659c-2.541,0.879-5.127,1.978-7.764,3.296
		s-5.054,2.882-7.251,4.688c-2.197,1.808-3.98,3.834-5.347,6.079c-1.369,2.248-2.051,4.688-2.051,7.324
		c0,4.395,1.781,8.034,5.347,10.913c3.563,2.882,8.569,4.321,15.015,4.321c7.324,0,13.426-1.099,18.311-3.296
		c4.882-2.197,8.91-4.761,12.085-7.69c3.172-2.93,5.64-5.882,7.397-8.862c1.758-2.978,3.076-5.248,3.955-6.812l0.879,0.586
		c-1.662,4.786-3.786,9.229-6.372,13.33c-2.589,4.102-5.713,7.643-9.375,10.62c-3.662,2.98-7.936,5.324-12.817,7.031
		c-4.884,1.708-10.451,2.563-16.699,2.563c-3.809,0-7.324-0.465-10.547-1.392s-6.006-2.22-8.35-3.882
		c-2.344-1.659-4.152-3.71-5.42-6.152c-1.271-2.44-1.904-5.223-1.904-8.35c0-3.612,0.829-6.738,2.49-9.375
		c1.659-2.637,3.563-4.809,5.713-6.519c2.147-1.708,4.271-3.026,6.372-3.955c2.099-0.927,3.589-1.586,4.468-1.978
		c-3.028-0.487-5.713-1.318-8.057-2.49c-1.955-1.073-3.761-2.563-5.42-4.468c-1.662-1.904-2.49-4.516-2.49-7.837
		c0-3.026,0.732-5.786,2.197-8.276s3.442-4.564,5.933-6.226c2.49-1.659,5.37-2.953,8.643-3.882
		c3.271-0.927,6.761-1.392,10.474-1.392c2.147,0,4.321,0.146,6.519,0.439S865.602,249.634,867.85,250.415z"/>
	<path fill="#FF0000" d="M941.092,272.094c-0.879,0-1.685-0.513-2.417-1.538s-1.685-2.124-2.856-3.296s-2.662-2.271-4.468-3.296
		c-1.808-1.025-4.175-1.538-7.104-1.538c-4.102,0-7.91,1.051-11.426,3.149c-3.516,2.101-6.544,4.738-9.082,7.91
		c-2.541,3.175-4.518,6.642-5.933,10.4c-1.417,3.761-2.124,7.301-2.124,10.62c0,5.177,1.318,9.425,3.955,12.744
		c2.637,3.321,6.152,4.98,10.547,4.98c3.417,0,6.42-0.659,9.009-1.978c2.586-1.318,4.761-3.051,6.519-5.2
		c-0.586-2.637-0.879-5.907-0.879-9.814c0-4.198,0.316-7.617,0.952-10.254c0.634-2.637,1.415-4.688,2.344-6.152
		c0.927-1.465,1.879-2.465,2.856-3.003c0.975-0.536,1.806-0.806,2.49-0.806c0.78,0,1.685,0.538,2.71,1.611
		c1.025,1.076,1.538,2.98,1.538,5.713c0,3.419-0.611,7.008-1.831,10.767c-1.222,3.761-2.907,7.35-5.054,10.767
		c1.172,3.028,2.978,5.226,5.42,6.592c2.44,1.369,5.223,2.051,8.35,2.051c2.733,0,5.296-0.609,7.69-1.831
		c2.392-1.22,4.637-2.856,6.738-4.907c2.099-2.051,4.076-4.417,5.933-7.104c1.854-2.685,3.563-5.443,5.127-8.276l0.879,0.586
		c-1.172,3.712-2.735,7.324-4.688,10.84c-1.955,3.516-4.2,6.642-6.738,9.375c-2.541,2.735-5.299,4.907-8.276,6.519
		c-2.98,1.611-6.079,2.417-9.302,2.417c-2.442,0-5.104-0.806-7.983-2.417c-2.882-1.611-5.25-4.516-7.104-8.716
		c-3.028,3.614-6.496,6.617-10.4,9.009c-3.907,2.394-8.107,3.589-12.598,3.589c-2.541,0-4.834-0.586-6.885-1.758
		s-3.786-2.733-5.2-4.688c-1.417-1.952-2.516-4.248-3.296-6.885c-0.783-2.637-1.172-5.42-1.172-8.35
		c0-4.98,1.099-9.961,3.296-14.941s5.127-9.471,8.789-13.477c3.662-4.003,7.86-7.251,12.598-9.741
		c4.735-2.49,9.691-3.735,14.868-3.735c3.809,0,7.006,0.417,9.595,1.245c2.586,0.831,4.662,1.808,6.226,2.93
		c1.561,1.124,2.685,2.271,3.369,3.442c0.682,1.172,1.025,2.101,1.025,2.783c0,1.369-0.709,2.321-2.124,2.856
		C943.557,271.827,942.264,272.094,941.092,272.094z M928.787,291.577c0,3.223,0.293,6.006,0.879,8.35
		c1.465-2.733,2.538-5.541,3.223-8.423c0.682-2.879,1.025-5.347,1.025-7.397c0-2.44-0.439-3.662-1.318-3.662
		s-1.735,1.076-2.563,3.223C929.201,285.816,928.787,288.453,928.787,291.577z"/>
	<path fill="#FF0000" d="M994.705,260.961c2.44,0,4.395,0.513,5.859,1.538s2.563,2.248,3.296,3.662
		c0.732,1.417,1.195,2.856,1.392,4.321c0.194,1.465,0.293,2.687,0.293,3.662c0,1.172-0.146,3.028-0.439,5.566
		c-0.293,2.541-0.586,5.177-0.879,7.91c-0.293,2.735-0.586,5.273-0.879,7.617s-0.439,3.907-0.439,4.688
		c0,1.955,0.146,3.735,0.439,5.347s0.829,3.053,1.611,4.321c0.78,1.271,1.854,2.248,3.223,2.93c1.366,0.685,3.172,1.025,5.42,1.025
		c4.102,0,8.397-2.051,12.891-6.152c4.491-4.102,8.69-9.764,12.598-16.992l0.879,0.586c-1.076,3.614-2.735,7.301-4.98,11.06
		c-2.248,3.761-4.834,7.203-7.764,10.327c-2.93,3.126-6.056,5.69-9.375,7.69c-3.321,2.003-6.544,3.003-9.668,3.003
		c-2.637,0-4.761-0.561-6.372-1.685c-1.611-1.122-2.856-2.538-3.735-4.248c-0.879-1.708-1.465-3.563-1.758-5.566
		c-0.293-2-0.439-3.882-0.439-5.64c0-2.147,0.194-4.662,0.586-7.544c0.389-2.879,0.806-5.761,1.245-8.643
		c0.439-2.879,0.854-5.589,1.245-8.13c0.389-2.538,0.586-4.541,0.586-6.006c0-1.268-0.22-2.293-0.659-3.076
		c-0.439-0.78-1.002-1.392-1.685-1.831c-0.685-0.439-1.369-0.707-2.051-0.806c-0.685-0.096-1.222-0.146-1.611-0.146
		c-1.076,0-2.467,0.146-4.175,0.439c-1.71,0.293-4.127,0.439-7.251,0.439c-0.879,0-1.758-0.048-2.637-0.146
		c-0.879-0.096-1.808-0.243-2.783-0.439c-0.293,3.809-0.904,7.521-1.831,11.133c-0.929,3.614-1.955,6.935-3.076,9.961
		c-1.124,3.028-2.271,5.64-3.442,7.837s-2.149,3.735-2.93,4.614c-1.271,0-1.904-0.586-1.904-1.758
		c0.096-0.586,0.609-1.781,1.538-3.589c0.927-1.806,1.952-4.125,3.076-6.958c1.122-2.831,2.197-6.2,3.223-10.107
		c1.025-3.905,1.634-8.251,1.831-13.037c-4.591-2.637-6.885-7.324-6.885-14.062c0-1.854,0.366-3.417,1.099-4.688
		c0.732-1.268,1.831-1.904,3.296-1.904c2.147,0,3.685,1.245,4.614,3.735c0.927,2.49,1.488,5.836,1.685,10.034
		c0.682,0.197,1.341,0.343,1.978,0.439c0.634,0.099,1.392,0.146,2.271,0.146c2.538,0,4.907-0.146,7.104-0.439
		S992.654,260.961,994.705,260.961z M972.293,257.446c0,0.392,0.194,0.783,0.586,1.172c-0.099-0.487-0.172-0.975-0.22-1.465
		c-0.05-0.487-0.124-0.879-0.22-1.172c-0.099-0.389-0.146-0.732-0.146-1.025c-0.293,0-0.538,0.146-0.732,0.439
		C971.364,255.688,971.608,256.373,972.293,257.446z"/>
	<path fill="#FF0000" d="M1069.998,257.006c1.465,0,2.978,0.197,4.541,0.586c1.561,0.392,2.978,0.952,4.248,1.685
		c1.268,0.732,2.318,1.637,3.149,2.71c0.829,1.076,1.245,2.344,1.245,3.809c0,3.126-0.952,5.859-2.856,8.203
		s-3.98,4.347-6.226,6.006c-2.637,1.856-5.617,3.516-8.936,4.98l-0.879-1.465c1.758-0.975,3.319-2.099,4.688-3.369
		c1.172-1.073,2.245-2.417,3.223-4.028c0.975-1.611,1.465-3.442,1.465-5.493c0-1.952-0.879-3.758-2.637-5.42
		c-1.758-1.659-4.2-2.49-7.324-2.49c-3.126,0-5.933,0.806-8.423,2.417s-4.614,3.712-6.372,6.299
		c-1.758,2.589-3.126,5.519-4.102,8.789c-0.978,3.273-1.465,6.569-1.465,9.888c0,2.833,0.414,5.543,1.245,8.13
		c0.829,2.589,2.074,4.859,3.735,6.812c1.659,1.955,3.809,3.493,6.445,4.614c2.637,1.124,5.809,1.685,9.521,1.685
		c3.612,0,6.786-0.462,9.521-1.392c2.733-0.927,5.028-1.927,6.885-3.003c2.147-1.268,4.003-2.783,5.566-4.541l1.172,0.879
		c-1.955,3.126-4.298,5.91-7.031,8.35c-2.442,2.051-5.47,3.932-9.082,5.64c-3.614,1.71-7.96,2.563-13.037,2.563
		c-2.735,0-5.543-0.462-8.423-1.392c-2.882-0.927-5.493-2.344-7.837-4.248s-4.273-4.344-5.786-7.324
		c-1.515-2.978-2.271-6.468-2.271-10.474c0-5.175,0.902-10.155,2.71-14.941c1.806-4.784,4.321-8.983,7.544-12.598
		c3.223-3.612,7.031-6.493,11.426-8.643C1060.037,258.082,1064.821,257.006,1069.998,257.006z"/>
	<path fill="#FF0000" d="M1099.441,300.512c0-2.538,0.146-6.665,0.439-12.378s0.634-12.964,1.025-21.753
		c0.389-8.789,0.732-19.043,1.025-30.762s0.439-24.852,0.439-39.404c0-7.127-0.025-13.989-0.073-20.581
		c-0.05-6.592-0.124-12.451-0.22-17.578c-0.099-5.127-0.172-9.276-0.22-12.451c-0.05-3.172-0.073-4.907-0.073-5.2
		c0-0.78,0.121-1.465,0.366-2.051c0.243-0.586,0.755-1.122,1.538-1.611c0.586-0.293,1.293-0.707,2.124-1.245
		c0.829-0.536,1.685-0.806,2.563-0.806c1.073,0,1.904,0.293,2.49,0.879c0.586,0.49,1.048,1.392,1.392,2.71
		c0.341,1.318,0.609,3.566,0.806,6.738c0.194,3.175,0.316,7.569,0.366,13.184c0.048,5.617,0.073,12.868,0.073,21.753
		c0,8.203-0.197,16.699-0.586,25.488c-0.392,8.789-0.856,17.432-1.392,25.928c-0.538,8.496-1.124,16.651-1.758,24.463
		c-0.636,7.814-1.222,14.845-1.758,21.094c-0.538,6.251-1.002,11.451-1.392,15.601c-0.392,4.152-0.586,6.812-0.586,7.983
		c0,0.49,0,1.076,0,1.758c0,0.685,0.048,1.344,0.146,1.978c0.096,0.636,0.243,1.172,0.439,1.611
		c0.194,0.439,0.487,0.659,0.879,0.659c0.975,0,2-1.561,3.076-4.688c1.073-3.124,2.44-7.324,4.102-12.598
		c1.073-3.319,2.293-6.688,3.662-10.107c1.366-3.417,2.806-6.519,4.321-9.302c1.513-2.783,3.076-5.054,4.688-6.812
		s3.197-2.637,4.761-2.637c1.172,0,2.172,0.343,3.003,1.025c0.829,0.685,1.538,1.538,2.124,2.563s1.025,2.124,1.318,3.296
		s0.536,2.296,0.732,3.369c0.096,1.172,0.243,2.93,0.439,5.273c0.194,2.344,0.389,5.031,0.586,8.057
		c0.194,3.028,0.414,6.203,0.659,9.521c0.243,3.321,0.513,6.496,0.806,9.521c0.487,5.47,1.806,9.425,3.955,11.865
		c2.147,2.442,4.93,3.662,8.35,3.662c1.366,0,2.44-0.096,3.223-0.293c0.78-0.194,1.513-0.293,2.197-0.293
		c0.487,0,0.586,0.49,0.293,1.465c-0.197,0.392-1.025,1.051-2.49,1.978c-1.465,0.929-4.054,1.392-7.764,1.392
		c-3.126,0-5.738-0.513-7.837-1.538c-2.101-1.025-3.761-2.637-4.98-4.834c-1.222-2.197-2.149-5.077-2.783-8.643
		c-0.636-3.563-1.051-7.837-1.245-12.817c-0.197-2.831-0.366-5.786-0.513-8.862s-0.392-5.882-0.732-8.423
		c-0.343-2.538-0.806-4.614-1.392-6.226s-1.417-2.417-2.49-2.417c-0.879,0-1.856,1.002-2.93,3.003
		c-1.076,2.003-2.124,4.347-3.149,7.031c-1.025,2.687-1.978,5.372-2.856,8.057c-0.879,2.687-1.563,4.761-2.051,6.226
		c-0.392,1.172-0.978,3.126-1.758,5.859c-0.783,2.735-1.71,5.519-2.783,8.35c-1.076,2.833-2.248,5.324-3.516,7.471
		c-1.271,2.149-2.589,3.223-3.955,3.223c-1.172,0-2.101-0.659-2.783-1.978c-0.685-1.318-1.197-2.93-1.538-4.834
		c-0.343-1.904-0.563-3.856-0.659-5.859C1099.489,303.565,1099.441,301.881,1099.441,300.512z"/>
</g>
</svg>
