<?xml version="1.0" encoding="utf-8"?>
<svg xmlns="http://www.w3.org/2000/svg" viewBox="0 0 546.386 402.83199">
<g transform="translate(-521.999,-90.6)">
	<path fill="#FF0000" d="M701.736,317.358c-0.586,1.172-1.904,2.955-3.955,5.347s-4.566,4.784-7.544,7.178
		c-2.98,2.392-6.397,4.468-10.254,6.226c-3.859,1.758-7.936,2.637-12.231,2.637c-5.47,0-10.67-1.563-15.601-4.688
		c-4.933-3.126-9.62-6.983-14.062-11.572c-4.445-4.589-8.643-9.521-12.598-14.795s-7.741-10.057-11.353-14.355
		c-1.563,0.293-3.126,0.465-4.688,0.513c-1.563,0.05-3.126,0.073-4.688,0.073c-2.833,0-5.42-0.169-7.764-0.513
		c-2.344-0.341-4.347-0.952-6.006-1.831c-0.49,5.566-0.952,11.133-1.392,16.699s-0.952,11.183-1.538,16.846
		c0,1.366-0.563,2.367-1.685,3.003c-1.124,0.634-2.369,0.952-3.735,0.952c-1.076,0-2.051-0.197-2.93-0.586
		c-0.879-0.392-1.318-0.879-1.318-1.465c0-0.685,0.487-1.417,1.465-2.197c2.147-33.202,3.832-66.552,5.054-100.049
		c1.22-33.495,2.367-67.431,3.442-101.807c-8.693,2.833-16.919,6.372-24.683,10.62s-14.552,9.132-20.361,14.648
		c-5.812,5.519-10.426,11.549-13.843,18.091c-3.419,6.544-5.127,13.477-5.127,20.801c0,2.442,0.268,4.688,0.806,6.738
		c0.536,2.051,1.195,3.882,1.978,5.493c0.78,1.611,1.586,2.98,2.417,4.102c0.829,1.124,1.538,1.978,2.124,2.563l-1.904,1.318
		c-0.49-0.586-1.172-1.488-2.051-2.71c-0.879-1.22-1.735-2.758-2.563-4.614c-0.831-1.854-1.563-4.003-2.197-6.445
		c-0.636-2.44-0.952-5.175-0.952-8.203c0-8.592,1.831-16.626,5.493-24.097s8.569-14.232,14.722-20.288
		c6.152-6.054,13.257-11.4,21.313-16.04c8.057-4.637,16.429-8.519,25.122-11.646c0.194-3.319,0.341-6.64,0.439-9.961
		c0.096-3.319,0.243-6.688,0.439-10.107c0-0.879,0.634-1.538,1.904-1.978c1.268-0.439,2.538-0.659,3.809-0.659
		c1.073,0,2.025,0.146,2.856,0.439c0.829,0.293,1.245,0.732,1.245,1.318c0,0.392-0.197,0.783-0.586,1.172
		c-0.197,2.833-0.343,5.665-0.439,8.496c-0.099,2.833-0.245,5.617-0.439,8.35c12.499-3.417,24.316-5.127,35.449-5.127
		c10.057,0,19.604,1.369,28.638,4.102c9.032,2.735,16.967,7.008,23.804,12.817c6.834,5.812,12.254,13.234,16.26,22.266
		c4.003,9.034,6.006,19.899,6.006,32.593c0,7.716-1.025,15.651-3.076,23.804c-2.051,8.155-4.933,16.139-8.643,23.95
		c-3.712,7.814-8.155,15.333-13.33,22.559c-5.177,7.228-10.938,13.795-17.285,19.702c-6.349,5.91-13.136,11.037-20.361,15.381
		c-7.228,4.347-14.747,7.496-22.559,9.448c3.809,3.809,7.544,7.936,11.206,12.378c3.662,4.445,7.445,8.546,11.353,12.305
		c3.905,3.761,8.08,6.885,12.524,9.375c4.442,2.49,9.35,3.735,14.722,3.735c2.93,0,5.882-0.392,8.862-1.172
		c2.978-0.783,5.736-1.783,8.276-3.003c2.538-1.222,4.809-2.614,6.812-4.175c2-1.561,3.442-3.076,4.321-4.541L701.736,317.358z
		 M597.586,120.629c-0.879,25.978-1.588,51.954-2.124,77.93c-0.538,25.978-1.735,52.492-3.589,79.541
		c0.487-0.194,1.025-0.341,1.611-0.439c0.586-0.096,1.268-0.146,2.051-0.146c4.491,0,8.643,0.952,12.451,2.856
		s7.471,4.42,10.986,7.544c7.713-1.465,15.015-3.955,21.899-7.471s13.257-7.837,19.116-12.964s11.133-10.863,15.82-17.212
		c4.688-6.347,8.69-13.085,12.012-20.215c3.319-7.127,5.859-14.477,7.617-22.046c1.758-7.567,2.637-15.111,2.637-22.632
		c0-9.862-1.222-19.018-3.662-27.466c-2.442-8.446-6.349-15.747-11.719-21.899c-5.372-6.152-12.355-10.961-20.947-14.429
		c-8.595-3.465-19.093-5.2-31.494-5.2C619.508,116.381,608.62,117.798,597.586,120.629z M604.764,289.233c0.975,0,1.904,0,2.783,0
		s1.758-0.096,2.637-0.293c-2.248-2.245-4.395-4.125-6.445-5.64c-2.051-1.513-4.005-2.271-5.859-2.271
		c-1.758,0-3.149,0.343-4.175,1.025c-1.025,0.685-1.538,1.563-1.538,2.637c0,1.369,1.245,2.467,3.735,3.296
		C598.392,288.819,601.344,289.233,604.764,289.233z"/>
	<path fill="#FF0000" d="M753.006,250.415c1.268,0.293,1.904,1.124,1.904,2.49c0,0.392-0.124,0.904-0.366,1.538
		c-0.245,0.636-0.538,1.271-0.879,1.904c-0.343,0.636-0.709,1.172-1.099,1.611c-0.392,0.439-0.732,0.659-1.025,0.659
		c-0.49,0-1.076-0.169-1.758-0.513c-0.685-0.341-1.662-0.732-2.93-1.172c-1.271-0.439-2.93-0.829-4.98-1.172
		c-2.051-0.341-4.738-0.513-8.057-0.513c-4.688,0-8.595,0.879-11.719,2.637c-3.126,1.758-4.688,4.2-4.688,7.324
		c0,2.248,0.952,4.127,2.856,5.64c1.904,1.515,4.149,2.71,6.738,3.589c2.586,0.879,5.223,1.515,7.91,1.904
		c2.685,0.392,4.761,0.586,6.226,0.586c1.073,0,1.781,0.172,2.124,0.513c0.341,0.343,0.513,0.659,0.513,0.952
		c0,0.783-0.318,1.245-0.952,1.392c-0.636,0.146-1.442,0.366-2.417,0.659c-2.541,0.879-5.127,1.978-7.764,3.296
		s-5.054,2.882-7.251,4.688c-2.197,1.808-3.98,3.834-5.347,6.079c-1.369,2.248-2.051,4.688-2.051,7.324
		c0,4.395,1.781,8.034,5.347,10.913c3.563,2.882,8.569,4.321,15.015,4.321c7.324,0,13.426-1.099,18.311-3.296
		c4.882-2.197,8.91-4.761,12.085-7.69c3.172-2.93,5.64-5.882,7.397-8.862c1.758-2.978,3.076-5.248,3.955-6.812l0.879,0.586
		c-1.662,4.786-3.786,9.229-6.372,13.33c-2.589,4.102-5.713,7.643-9.375,10.62c-3.662,2.98-7.936,5.324-12.817,7.031
		c-4.884,1.708-10.451,2.563-16.699,2.563c-3.809,0-7.324-0.465-10.547-1.392s-6.006-2.22-8.35-3.882
		c-2.344-1.659-4.152-3.71-5.42-6.152c-1.271-2.44-1.904-5.223-1.904-8.35c0-3.612,0.829-6.738,2.49-9.375
		c1.659-2.637,3.563-4.809,5.713-6.519c2.147-1.708,4.271-3.026,6.372-3.955c2.099-0.927,3.589-1.586,4.468-1.978
		c-3.028-0.487-5.713-1.318-8.057-2.49c-1.955-1.073-3.761-2.563-5.42-4.468c-1.662-1.904-2.49-4.516-2.49-7.837
		c0-3.026,0.732-5.786,2.197-8.276s3.442-4.564,5.933-6.226c2.49-1.659,5.37-2.953,8.643-3.882
		c3.271-0.927,6.761-1.392,10.474-1.392c2.147,0,4.321,0.146,6.519,0.439S750.758,249.634,753.006,250.415z"/>
	<path fill="#FF0000" d="M771.316,305.053c3.319-5.273,6.299-10.668,8.936-16.187c2.637-5.516,4.834-10.913,6.592-16.187
		c-2.344-3.319-4.321-6.713-5.933-10.181c-1.611-3.465-2.417-7.054-2.417-10.767c0-3.612,0.341-6.885,1.025-9.814
		c0.682-2.93,1.611-5.42,2.783-7.471s2.49-3.637,3.955-4.761c1.465-1.122,2.978-1.685,4.541-1.685c2.147,0,3.882,1.076,5.2,3.223
		c1.318,2.149,1.879,4.884,1.685,8.203c-0.197,3.907-0.709,8.107-1.538,12.598c-0.831,4.493-2.028,9.082-3.589,13.77
		c1.952,2.248,3.978,4.468,6.079,6.665c2.099,2.197,4.003,4.468,5.713,6.812c1.708,2.344,3.124,4.859,4.248,7.544
		c1.122,2.687,1.685,5.592,1.685,8.716c0,4.298-0.806,8.253-2.417,11.865c-1.611,3.614-3.541,6.738-5.786,9.375
		c-2.248,2.637-4.591,4.688-7.031,6.152c-2.442,1.465-4.541,2.197-6.299,2.197c-3.028,0-5.347-0.783-6.958-2.344
		s-2.417-3.271-2.417-5.127c0-1.465,0.243-2.93,0.732-4.395c0.487-1.465,1.048-2.806,1.685-4.028c0.634-1.22,1.268-2.22,1.904-3.003
		c0.634-0.78,1.099-1.172,1.392-1.172c0.487,0,0.806,0.172,0.952,0.513c0.146,0.343,0.22,0.659,0.22,0.952
		c0,0.49-0.05,1.172-0.146,2.051c-0.099,0.879-0.146,1.611-0.146,2.197c0,1.662,0.561,3.028,1.685,4.102
		c1.122,1.076,2.953,1.611,5.493,1.611c1.073,0,2.293-0.243,3.662-0.732c1.366-0.487,2.685-1.268,3.955-2.344
		c1.268-1.073,2.318-2.417,3.149-4.028c0.829-1.611,1.245-3.539,1.245-5.786c0-2.051-0.49-4.198-1.465-6.445
		c-0.978-2.245-2.248-4.541-3.809-6.885c-1.563-2.344-3.296-4.735-5.2-7.178c-1.904-2.44-3.786-4.93-5.64-7.471
		c-2.248,5.566-4.713,10.963-7.397,16.187c-2.687,5.226-5.543,10.034-8.569,14.429L771.316,305.053z M782.449,244.116
		c0,3.712,0.682,7.008,2.051,9.888c1.366,2.882,3.172,5.69,5.42,8.423c0.78-3.026,1.318-5.933,1.611-8.716s0.439-5.443,0.439-7.983
		c0-6.834-1.515-10.254-4.541-10.254c-0.879,0-1.93,0.659-3.149,1.978C783.058,238.769,782.449,240.992,782.449,244.116z"/>
	<path fill="#FF0000" d="M866.678,292.749c0-0.682,0.023-1.513,0.073-2.49c0.048-0.975,0.073-1.952,0.073-2.93
		c0-0.975,0.023-1.831,0.073-2.563c0.048-0.732,0.073-1.245,0.073-1.538c0-0.682-0.124-1.122-0.366-1.318
		c-0.245-0.194-0.513,0.343-0.806,1.611c-0.197,0.392-0.586,1.515-1.172,3.369c-0.586,1.856-1.417,4.079-2.49,6.665
		c-1.076,2.589-2.369,5.372-3.882,8.35c-1.515,2.98-3.296,5.713-5.347,8.203s-4.347,4.566-6.885,6.226
		c-2.541,1.662-5.324,2.49-8.35,2.49c-4.591,0-7.837-1.245-9.741-3.735s-2.856-6.226-2.856-11.206c0-1.465,0.146-3.589,0.439-6.372
		s0.634-5.663,1.025-8.643c0.389-2.978,0.732-5.809,1.025-8.496c0.293-2.685,0.439-4.761,0.439-6.226
		c0-4.198-1.076-6.299-3.223-6.299c-0.49,0-0.929,0.05-1.318,0.146c-0.392,0.099-0.685,0.146-0.879,0.146
		c-0.783,0-1.172-0.389-1.172-1.172c0-0.293,0.414-0.806,1.245-1.538c0.829-0.732,2.611-1.099,5.347-1.099
		c3.124,0,5.296,1.172,6.519,3.516c1.22,2.344,1.831,5.079,1.831,8.203c0,1.369-0.124,3.296-0.366,5.786
		c-0.245,2.49-0.513,5.104-0.806,7.837c-0.293,2.735-0.563,5.347-0.806,7.837c-0.245,2.49-0.366,4.321-0.366,5.493
		c0,3.712,0.609,6.324,1.831,7.837c1.22,1.515,2.904,2.271,5.054,2.271c2.051,0,4.076-0.806,6.079-2.417
		c2-1.611,3.856-3.563,5.566-5.859c1.708-2.293,3.197-4.662,4.468-7.104c1.268-2.44,2.293-4.491,3.076-6.152
		c0.78-2.147,1.465-4.491,2.051-7.031c0.586-2.538,1.146-5.102,1.685-7.69c0.536-2.586,1-5.054,1.392-7.397
		c0.389-2.344,0.78-4.395,1.172-6.152c0.194-0.879,1.122-1.488,2.783-1.831c1.659-0.341,3.319-0.513,4.98-0.513
		c0.879,0,1.318,0.293,1.318,0.879c0,2.442-0.05,5.763-0.146,9.961c-0.099,4.2-0.146,8.496-0.146,12.891
		c0,10.938,0.659,18.823,1.978,23.657s3.93,7.251,7.837,7.251c0.879,0,1.634-0.096,2.271-0.293c0.634-0.194,1.195-0.293,1.685-0.293
		c0.389,0,0.586,0.197,0.586,0.586c0-0.293,0-0.243,0,0.146c0,0.392-0.22,0.904-0.659,1.538c-0.439,0.636-1.271,1.222-2.49,1.758
		c-1.222,0.538-3.053,0.806-5.493,0.806c-2.637,0-4.811-0.462-6.519-1.392c-1.71-0.927-3.102-2.465-4.175-4.614
		c-1.076-2.147-1.881-4.955-2.417-8.423C867.238,301.954,866.872,297.729,866.678,292.749z"/>
	<path fill="#FF0000" d="M901.541,247.778c0.586-0.586,1.318-0.879,2.197-0.879c1.758,0,3.124,0.879,4.102,2.637
		c0.975,1.758,1.465,5.079,1.465,9.961c0,1.465,0,3.493,0,6.079c0,2.589-0.025,5.42-0.073,8.496
		c-0.05,3.076-0.073,6.226-0.073,9.448s-0.025,6.226-0.073,9.009c-0.05,2.783-0.073,5.177-0.073,7.178c0,2.003,0,3.296,0,3.882
		c0,2.149,0.341,3.223,1.025,3.223c0.389,0,0.902-0.609,1.538-1.831c0.634-1.22,1.366-2.806,2.197-4.761
		c0.829-1.952,1.732-4.125,2.71-6.519c0.975-2.392,2-4.809,3.076-7.251c1.758-3.905,3.319-7.544,4.688-10.913
		c1.366-3.369,2.71-6.299,4.028-8.789s2.733-4.417,4.248-5.786c1.513-1.366,3.296-2.051,5.347-2.051
		c2.831,0,4.882,1.295,6.152,3.882c1.268,2.589,1.904,6.862,1.904,12.817c0,2.344-0.025,5.2-0.073,8.569
		c-0.05,3.369-0.073,6.617-0.073,9.741c0,3.126-0.025,5.91-0.073,8.35c-0.05,2.442-0.073,3.859-0.073,4.248
		c0,1.271,0.096,1.904,0.293,1.904c0.194,0,0.513-0.487,0.952-1.465c0.439-0.975,0.975-2.293,1.611-3.955
		c0.634-1.659,1.366-3.589,2.197-5.786c0.829-2.197,1.685-4.468,2.563-6.812c1.758-4.589,3.271-8.617,4.541-12.085
		c1.268-3.465,2.49-6.372,3.662-8.716s2.367-4.125,3.589-5.347c1.22-1.22,2.563-1.831,4.028-1.831c0.389,0,1.048,0.073,1.978,0.22
		c0.927,0.146,1.879,0.49,2.856,1.025c0.975,0.538,1.806,1.318,2.49,2.344c0.682,1.025,1.025,2.467,1.025,4.321
		c0,1.076,0.048,3.175,0.146,6.299c0.096,3.126,0.243,6.519,0.439,10.181c0.194,3.662,0.366,7.203,0.513,10.62
		c0.146,3.419,0.316,5.958,0.513,7.617c0.096,2.248,0.536,4.028,1.318,5.347c0.78,1.318,1.561,2.394,2.344,3.223
		c0.78,0.831,1.513,1.442,2.197,1.831c0.682,0.392,1.025,0.732,1.025,1.025c0,0.49-0.611,0.952-1.831,1.392
		c-1.222,0.439-2.417,0.659-3.589,0.659c-3.809,0-6.496-1.172-8.057-3.516c-1.563-2.344-2.563-5.566-3.003-9.668
		s-0.636-8.885-0.586-14.355c0.048-5.468-0.172-11.375-0.659-17.725c-0.197-1.073-0.392-1.879-0.586-2.417
		c-0.197-0.536-0.685-0.806-1.465-0.806c-0.685,0-1.465,0.831-2.344,2.49c-0.879,1.662-1.808,3.735-2.783,6.226
		c-0.978,2.49-1.978,5.2-3.003,8.13s-2.028,5.713-3.003,8.35c-0.685,1.758-1.515,4.054-2.49,6.885
		c-0.978,2.833-2.028,5.592-3.149,8.276c-1.124,2.687-2.321,4.98-3.589,6.885c-1.271,1.904-2.589,2.856-3.955,2.856
		c-1.465,0-2.516-0.561-3.149-1.685c-0.636-1.122-1.051-2.904-1.245-5.347c-0.197-2.44-0.27-5.566-0.22-9.375
		c0.048-3.809,0.073-8.35,0.073-13.623v-16.553c0-2.733-0.318-4.417-0.952-5.054c-0.636-0.634-1.344-0.952-2.124-0.952
		c-1.076,0-2.003,0.465-2.783,1.392c-0.783,0.929-1.71,2.662-2.783,5.2c-0.49,1.076-1.197,2.71-2.124,4.907
		c-0.929,2.197-1.978,4.665-3.149,7.397c-1.172,2.735-2.394,5.592-3.662,8.569c-1.271,2.98-2.49,5.786-3.662,8.423
		s-2.223,4.958-3.149,6.958c-0.929,2.003-1.588,3.346-1.978,4.028c-1.271,1.662-2.344,2.76-3.223,3.296
		c-0.879,0.538-1.904,0.806-3.076,0.806c-0.49,0-1.002-0.121-1.538-0.366c-0.538-0.243-1.051-0.682-1.538-1.318
		c-0.49-0.634-0.904-1.561-1.245-2.783c-0.343-1.22-0.513-2.806-0.513-4.761v-50.098c0-2.051-0.293-3.442-0.879-4.175
		s-1.245-1.195-1.978-1.392c-0.732-0.194-1.392-0.293-1.978-0.293s-0.879-0.243-0.879-0.732c0-0.487,0.366-1,1.099-1.538
		c0.732-0.536,1.538-1.025,2.417-1.465s1.708-0.829,2.49-1.172C900.856,248.096,901.344,247.876,901.541,247.778z"/>
	<path fill="#FF0000" d="M1040.408,250.415c1.268,0.293,1.904,1.124,1.904,2.49c0,0.392-0.124,0.904-0.366,1.538
		c-0.245,0.636-0.538,1.271-0.879,1.904c-0.343,0.636-0.709,1.172-1.099,1.611c-0.392,0.439-0.732,0.659-1.025,0.659
		c-0.49,0-1.076-0.169-1.758-0.513c-0.685-0.341-1.662-0.732-2.93-1.172c-1.271-0.439-2.93-0.829-4.98-1.172
		c-2.051-0.341-4.738-0.513-8.057-0.513c-4.688,0-8.595,0.879-11.719,2.637c-3.126,1.758-4.688,4.2-4.688,7.324
		c0,2.248,0.952,4.127,2.856,5.64c1.904,1.515,4.149,2.71,6.738,3.589c2.586,0.879,5.223,1.515,7.91,1.904
		c2.685,0.392,4.761,0.586,6.226,0.586c1.073,0,1.781,0.172,2.124,0.513c0.341,0.343,0.513,0.659,0.513,0.952
		c0,0.783-0.318,1.245-0.952,1.392c-0.636,0.146-1.442,0.366-2.417,0.659c-2.541,0.879-5.127,1.978-7.764,3.296
		s-5.054,2.882-7.251,4.688c-2.197,1.808-3.98,3.834-5.347,6.079c-1.369,2.248-2.051,4.688-2.051,7.324
		c0,4.395,1.781,8.034,5.347,10.913c3.563,2.882,8.569,4.321,15.015,4.321c7.324,0,13.426-1.099,18.311-3.296
		c4.882-2.197,8.91-4.761,12.085-7.69c3.172-2.93,5.64-5.882,7.397-8.862c1.758-2.978,3.076-5.248,3.955-6.812l0.879,0.586
		c-1.662,4.786-3.786,9.229-6.372,13.33c-2.589,4.102-5.713,7.643-9.375,10.62c-3.662,2.98-7.936,5.324-12.817,7.031
		c-4.884,1.708-10.451,2.563-16.699,2.563c-3.809,0-7.324-0.465-10.547-1.392s-6.006-2.22-8.35-3.882
		c-2.344-1.659-4.152-3.71-5.42-6.152c-1.271-2.44-1.904-5.223-1.904-8.35c0-3.612,0.829-6.738,2.49-9.375
		c1.659-2.637,3.563-4.809,5.713-6.519c2.147-1.708,4.271-3.026,6.372-3.955c2.099-0.927,3.589-1.586,4.468-1.978
		c-3.028-0.487-5.713-1.318-8.057-2.49c-1.955-1.073-3.761-2.563-5.42-4.468c-1.662-1.904-2.49-4.516-2.49-7.837
		c0-3.026,0.732-5.786,2.197-8.276s3.442-4.564,5.933-6.226c2.49-1.659,5.37-2.953,8.643-3.882
		c3.271-0.927,6.761-1.392,10.474-1.392c2.147,0,4.321,0.146,6.519,0.439S1038.161,249.634,1040.408,250.415z"/>
</g>
</svg>
