<?xml version="1.0" encoding="utf-8"?>
<svg xmlns="http://www.w3.org/2000/svg" viewBox="0 0 1338.5561 294.00001">
<g transform="translate(-379.355,-509.889)">
	<path fill="#FF0000" d="M577.355,514.089c7.397,0,11.1,4.701,11.1,14.1c0,5.002-1.251,18.45-3.75,40.35
		c-2.503,21.9-4.05,39.15-4.65,51.75c9.999-0.6,16.2-1.697,18.6-3.3c2.4-1.599,3.647-1.8,3.75-0.6c0.098,1.2-1.603,2.85-5.1,4.95
		c-3.501,2.1-9.253,3.75-17.25,4.95c0,3.6,0,9.802,0,18.6c0,19.401,3.3,32.302,9.9,38.7c2.4,2.4,4.449,3.6,6.15,3.6
		c1.697,0,3.699-0.352,6-1.05c2.297-0.703,5.25-3,8.85-6.9s6.699-8.85,9.3-14.85c0.797-1.8,1.547-2.55,2.25-2.25
		c0.698,0.3,1.05,0.75,1.05,1.35s-0.103,1.303-0.3,2.1c-2.602,7.401-6.703,13.603-12.3,18.6c-12.202,11.199-23.1,12.497-32.7,3.9
		c-5.002-4.397-8.152-10.8-9.45-19.2c-1.303-8.4-1.95-16.05-1.95-22.95c0-6.9,0.099-12.947,0.3-18.15c-3,0.202-15.501,0.3-37.5,0.3
		c-10.603,11.602-22.003,22.5-34.2,32.7c1.397,0.202,2.897,0.3,4.5,0.3c14.4,0,27.197-7.397,38.4-22.2
		c0.797-0.999,1.397-0.9,1.8,0.3v1.2c-12,15.802-25.402,23.7-40.2,23.7c-2.602,0-5.1-0.197-7.5-0.6
		c-31.2,24.999-57.801,37.5-79.8,37.5c-11.803,0-20.902-3.3-27.3-9.9c-4.003-4.402-6-9.797-6-16.2c0-9.398,3.347-17.4,10.05-24
		c6.698-6.6,14.7-11.447,24-14.55c9.3-3.099,21.45-5.85,36.45-8.25c-5.001-11.4-7.5-22.697-7.5-33.9
		c0-30.398,8.597-52.697,25.8-66.9c9.197-7.397,18.6-11.1,28.2-11.1c3.398,0,6.9,0.502,10.5,1.5c12.6,3.202,20.897,11.4,24.9,24.6
		c1.598,5.001,2.4,10.402,2.4,16.2c0,19.2-8.001,40.702-24,64.5h13.5c3.999-3.999,11.897-14.25,23.7-30.75
		c11.799-16.5,20.7-28.547,26.7-36.15c1.997-12.999,3-21.398,3-25.2c0-6.999-1.8-10.5-5.4-10.5c-4.2,0-9.802,4.102-16.8,12.3
		c-3.801,4.402-6.103,7.5-6.9,9.3c-0.801,1.8-1.8,2.301-3,1.5c-1.2-1.599,0.6-5.4,5.4-11.4
		C560.354,520.089,569.354,514.089,577.355,514.089z M383.256,671.289c0,5.602,2.798,10.402,8.4,14.4
		c6.999,5.199,16.298,7.8,27.9,7.8c21,0,43.097-10.5,66.3-31.5l-6.9-2.7c-20.602,18-40.603,27-60,27c-5.803,0-11.503-0.801-17.1-2.4
		c-1.003-0.197-1.303-0.698-0.9-1.5c0.398-0.797,0.9-1.097,1.5-0.9c23.4,6.197,47.897-1.8,73.5-24
		c-9.202-5.4-16.702-13.097-22.5-23.1c-19.2,3.802-33.6,7.2-43.2,10.2C392.256,650.79,383.256,659.692,383.256,671.289z
		 M518.556,602.289c7.599-15.6,11.4-28.598,11.4-39c0-10.397-1.903-18.999-5.7-25.8c-6.403-11.597-16.153-17.4-29.25-17.4
		c-13.102,0-24.403,6.6-33.9,19.8c-9.501,13.2-14.25,31.303-14.25,54.3c0,12,2.4,23.1,7.2,33.3c18.197-2.597,35.597-3.999,52.2-4.2
		C511.056,616.29,515.152,609.292,518.556,602.289z M502.956,627.789c-14.803,1.402-30,3.403-45.6,6
		c6,9.802,13.097,16.903,21.3,21.3C487.252,647.289,495.353,638.19,502.956,627.789z M514.056,627.188c-2.203,0-4.5,0.104-6.9,0.3
		c-7.8,11.4-16.303,21.202-25.5,29.4c2.597,1.003,4.898,1.8,6.9,2.4c4.2-3.999,9.797-9.647,16.8-16.95
		c6.999-7.299,11.897-12.249,14.7-14.85C518.256,627.292,516.254,627.188,514.056,627.188z M535.056,621.489
		c2.798,0.202,6.75,0.3,11.85,0.3s12.047-0.197,20.85-0.6c0.6-15.6,2.498-33.9,5.7-54.9c-5.001,8.803-9.75,16.251-14.25,22.35
		c-4.5,6.103-9.103,12.403-13.8,18.9C540.704,614.04,537.254,618.69,535.056,621.489z"/>
	<path fill="#FF0000" d="M633.155,629.589c-4.603,16.401-6.9,28.2-6.9,35.4c0,7.2,0.947,11.503,2.85,12.9
		c1.898,1.401,4.247,2.1,7.05,2.1c2.798,0,7.5-1.5,14.1-4.5s11.7-6.797,15.3-11.4c3.6-4.599,5.297-5.7,5.1-3.3
		c-0.202,2.001-0.801,3.802-1.8,5.4c-3.6,4.604-9.501,8.953-17.7,13.05c-8.203,4.102-14.7,6.15-19.5,6.15
		c-1.2,0-2.301-0.103-3.3-0.3c-7.8-1.8-11.7-8.897-11.7-21.3c0-5.798,0.9-12.9,2.7-21.3c-2.001,0.403-3-0.099-3-1.5
		c0-1.8,1.8-4.599,5.4-8.4c12-49.997,27.797-83.199,47.4-99.6c4.397-3.6,8.4-5.4,12-5.4c7.8,0,11.7,3.6,11.7,10.8
		c-0.403,16.003-7.8,32.901-22.2,50.7c-7.401,9-13.35,15.9-17.85,20.7C648.305,614.589,641.752,621.188,633.155,629.589z
		 M688.355,539.589c0-4.997-1.303-7.5-3.9-7.5c-8.203,0-19.2,15.201-33,45.6c-8.002,18.202-13.8,33.3-17.4,45.3
		c10.997-10.397,22.8-24.197,35.4-41.4C682.055,564.39,688.355,550.389,688.355,539.589z"/>
	<path fill="#FF0000" d="M682.95,629.589c-4.603,16.401-6.9,28.2-6.9,35.4c0,7.2,0.947,11.503,2.85,12.9
		c1.898,1.401,4.247,2.1,7.05,2.1c2.798,0,7.5-1.5,14.1-4.5s11.7-6.797,15.3-11.4c3.6-4.599,5.297-5.7,5.1-3.3
		c-0.202,2.001-0.801,3.802-1.8,5.4c-3.6,4.604-9.501,8.953-17.7,13.05c-8.203,4.102-14.7,6.15-19.5,6.15
		c-1.2,0-2.301-0.103-3.3-0.3c-7.8-1.8-11.7-8.897-11.7-21.3c0-5.798,0.9-12.9,2.7-21.3c-2.001,0.403-3-0.099-3-1.5
		c0-1.8,1.8-4.599,5.4-8.4c12-49.997,27.797-83.199,47.4-99.6c4.397-3.6,8.4-5.4,12-5.4c7.8,0,11.7,3.6,11.7,10.8
		c-0.403,16.003-7.8,32.901-22.2,50.7c-7.401,9-13.35,15.9-17.85,20.7C698.1,614.589,691.547,621.188,682.95,629.589z
		 M738.15,539.589c0-4.997-1.303-7.5-3.9-7.5c-8.203,0-19.2,15.201-33,45.6c-8.002,18.202-13.8,33.3-17.4,45.3
		c10.997-10.397,22.8-24.197,35.4-41.4C731.85,564.39,738.15,550.389,738.15,539.589z"/>
	<path fill="#FF0000" d="M825.143,626.289c-2.602-3.398-5.302-5.1-8.1-5.1c-8.001,0-17.7,8.803-29.1,26.4
		c-5.803,8.803-10.8,20.301-15,34.5c-0.202,1.603-1.102,2.4-2.7,2.4c-1.8,0-2.7-0.797-2.7-2.4l4.5-31.8
		c1.997-15.999,3.099-26.048,3.3-30.15c0.197-4.097,2.897-6.947,8.1-8.55c1.599-0.398,3.249-0.6,4.95-0.6
		c1.697,0,2.648,0.9,2.85,2.7c0,0.6-0.104,1.252-0.3,1.95c-0.202,0.703-1.65,6-4.35,15.9c-2.7,9.9-4.453,15.75-5.25,17.55
		c4.8-8.4,10.898-16.547,18.3-24.45c7.397-7.898,13.097-11.85,17.1-11.85h0.3c5.4,0,8.897,3.3,10.5,9.9
		c0.398,1.604,0.6,2.953,0.6,4.05c0,1.102-0.3,1.65-0.9,1.65C826.643,628.59,825.94,627.892,825.143,626.289z"/>
	<path fill="#FF0000" d="M834.439,667.989c0,6,1.8,9,5.4,9c1.997,0,6.947-3.249,14.85-9.75c7.898-6.497,12.15-10.05,12.75-10.65
		c0.6-0.6,1.097-0.75,1.5-0.45c0.398,0.3,0.6,0.6,0.6,0.9c0,0.3-0.103,0.652-0.3,1.05c-3,5.001-9.3,11.001-18.9,18
		c-6.403,5.203-11.803,7.8-16.2,7.8c-6.802,0-10.2-5.798-10.2-17.4c0-2.199,0.197-5.349,0.6-9.45c0.398-4.097,3.6-16.749,9.6-37.95
		c0.398-1.599,2.648-2.4,6.75-2.4c4.097,0,6.15,1.153,6.15,3.45c0,2.302-0.75,5.302-2.25,9c-1.5,3.703-3.253,5.751-5.25,6.15
		c-1.003,0.202-2.1,5.203-3.3,15C835.039,660.09,834.439,665.992,834.439,667.989z M857.539,591.789c1.397,0,2.1,0.45,2.1,1.35
		s-1.2,2.751-3.6,5.55c-5.203,6.403-10.303,7.604-15.3,3.6c-0.802-0.6-0.9-1.2-0.3-1.8
		C847.438,594.69,853.138,591.789,857.539,591.789z"/>
	<path fill="#FF0000" d="M905.988,621.789c-5.901,5.001-11.7,11.452-17.4,19.35c-5.7,7.903-9.75,14.803-12.15,20.7
		c-2.4,5.901-3.6,10.2-3.6,12.9c0,2.7,0.9,4.05,2.7,4.05c5.4,0,16.299-12,32.7-36c6.398-8.198,9.6-8.1,9.6,0.3
		c-0.202,1.401-0.3,3.201-0.3,5.4c0,7.603,0.197,14.4,0.6,20.4c5.4-3.6,10.547-7.599,15.45-12c4.898-4.397,7.35-5.897,7.35-4.5
		c0,1.401-1.303,3.501-3.9,6.3c-8.602,8.602-14.803,14.1-18.6,16.5c0.797,6.202,1.2,13.95,1.2,23.25c0,9.3-1.5,19.847-4.5,31.65
		c-4.401,18-12.6,33.497-24.6,46.5c-9.201,9.797-19.701,17.1-31.5,21.9c-7.8,3.6-16.2,5.4-25.2,5.4c-15.197,0-27.197-4.401-36-13.2
		c-6-6.6-9-13.603-9-21c0-15.403,13.603-32.001,40.8-49.8c12-7.603,26.503-16.003,43.5-25.2c16.997-9.201,29.4-16.2,37.2-21
		c-2.602-12.797-4.303-19.598-5.1-20.4c-8.001,12.6-13.8,20.602-17.4,24c-6,5.602-10.903,8.199-14.7,7.8
		c-6.6-1.003-9.9-5.447-9.9-13.35c0-7.898,2.55-16.697,7.65-26.4c5.1-9.699,11.85-18.45,20.25-26.25c8.4-7.8,16.8-11.7,25.2-11.7
		c3.999,0,7.898,1.003,11.7,3c3.398,2.001,5.1,5.151,5.1,9.45c0,4.303-1.903,6.75-5.7,7.35c1.396-2.4,2.1-4.65,2.1-6.75
		c0-2.1-0.951-3.646-2.85-4.65c-1.903-0.999-3.75-1.5-5.55-1.5C916.938,614.289,911.885,616.792,905.988,621.789z M806.238,751.688
		c-7.997,8.4-12,15.398-12,21c0,5.597,2.001,10.397,6,14.4c5.602,5.597,14.602,8.4,27,8.4c9.403,0,19.401-2.203,30-6.6
		c12.999-5.001,24.3-12.6,33.9-22.8c14.798-16.2,22.2-36.802,22.2-61.8c0-8.001-0.703-16.401-2.1-25.2
		C854.44,713.289,819.438,737.485,806.238,751.688z"/>
	<path fill="#FF0000" d="M985.337,657.489c0,12.6,2.198,18.9,6.6,18.9c6,0,14.199-6.497,24.6-19.5c1.997-2.4,3.15-3.75,3.45-4.05
		c0.3-0.3,0.647,0.15,1.05,1.35l0.3,0.6c-1.604,4.003-6.45,10.003-14.55,18c-8.1,8.001-14.953,12-20.55,12
		c-2.001,0-3.9-0.501-5.7-1.5c-5.001-2.4-7.5-11.198-7.5-26.4c0-2.4,0.197-5.747,0.6-10.05c0.398-4.299,0.797-6.647,1.2-7.05
		c0-0.197-0.253-0.047-0.75,0.45c-0.502,0.501-1.303,1.401-2.4,2.7c-1.102,1.303-2.25,2.653-3.45,4.05
		c-1.2,1.401-2.602,3.202-4.2,5.4c-1.603,2.203-3.103,4.102-4.5,5.7c-3.6,4.003-6.403,7.603-8.4,10.8c-0.6,7.2-3.202,12.202-7.8,15
		c-1.003,0.6-1.753,0.9-2.25,0.9c-0.502,0-0.75-1.847-0.75-5.55c0-3.699,1.298-13.247,3.9-28.65c2.597-15.398,4.997-25.997,7.2-31.8
		c-6.201,1.603-9.501,4.102-9.9,7.5c-0.403,2.4-1.05,3.553-1.95,3.45c-0.9-0.099-1.35-0.947-1.35-2.55c0-6.197,5.1-10.8,15.3-13.8
		c5.199-16.997,12.797-33.797,22.8-50.4c9.998-16.599,21.098-29.499,33.3-38.7c12.197-9.6,24.6-14.4,37.2-14.4
		c5.4,0,10.697,1.102,15.9,3.3c7.8,3.403,13.298,9.104,16.5,17.1c1.397,3.6,2.1,7.303,2.1,11.1c0,11.602-5.7,21.703-17.1,30.3
		c-8.001,6.202-18.703,12.352-32.1,18.45c-13.401,6.103-24.352,10.603-32.85,13.5c-8.503,2.901-20.953,6.952-37.35,12.15
		c-3.201,8.602-6.6,24.6-10.2,48c2.798-4.2,7.2-10.148,13.2-17.85c6-7.697,9.9-12.75,11.7-15.15c0.999-4.397,3.347-7.95,7.05-10.65
		c3.699-2.7,5.55-2.147,5.55,1.65c0,1.003-0.652,5.602-1.95,13.8C985.984,643.792,985.337,651.09,985.337,657.489z
		 M1076.537,533.589c-3.801-9.999-13.303-15-28.5-15c-14.203,0-28.102,4.903-41.7,14.7c-6,4.2-12.703,11.803-20.1,22.8
		c-4.2,6.403-7.753,13.35-10.65,20.85c-2.902,7.5-5.503,14.503-7.8,21c-2.301,6.502-3.853,10.753-4.65,12.75
		c13.397-3.797,30.75-10.65,52.05-20.55c21.3-9.9,37.05-18.797,47.25-26.7c10.2-7.898,15.3-15.646,15.3-23.25
		C1077.737,537.99,1077.334,535.792,1076.537,533.589z"/>
	<path fill="#FF0000" d="M1052.534,611.289c14.597,0,21.9,0.9,21.9,2.7c0,0.403-2.4,0.9-7.2,1.5c-15.403,1.603-23.803,2.602-25.2,3
		c-9.801,24-14.7,41.1-14.7,51.3c0,3.202,0.647,5.55,1.95,7.05c1.299,1.5,2.799,2.151,4.5,1.95c1.697-0.197,3.099-0.398,4.2-0.6
		c1.097-0.197,2.798-0.848,5.1-1.95c2.297-1.097,4.148-1.95,5.55-2.55c3.398-1.598,9.9-6.098,19.5-13.5
		c3.398-2.4,5.199-2.896,5.4-1.5c0,2.602-5.353,7.702-16.05,15.3c-10.702,7.603-19.453,11.4-26.25,11.4c-0.202,0-0.403,0-0.6,0
		c-6.202-0.403-10.2-2.1-12-5.1c-0.801-1.598-1.2-3.999-1.2-7.2c0-3.197,0.347-7.05,1.05-11.55c0.698-4.5,2.25-10.247,4.65-17.25
		c2.4-6.999,4.547-12.999,6.45-18c1.898-4.997,2.747-7.5,2.55-7.5c-2.203,0-9.6,0.9-22.2,2.7c-1.003,0.202-1.5-0.849-1.5-3.15
		c0-2.297,1.05-3.849,3.15-4.65c2.1-0.797,9.647-1.5,22.65-2.1c6.197-21.197,10.8-34.898,13.8-41.1c0.6-1.397,1.5-2.1,2.7-2.1
		s2.897,1.401,5.1,4.2c2.198,2.803,3.3,4.903,3.3,6.3c0,1.401-0.202,2.503-0.6,3.3l-14.7,29.4
		C1046.632,611.392,1049.534,611.289,1052.534,611.289z"/>
	<path fill="#FF0000" d="M1063.332,692.289c-7.2,0-10.8-1.8-10.8-5.4c0-1.2,0.853-2.452,2.55-3.75
		c1.702-1.298,4.148-2.048,7.35-2.25c19.397-1.599,29.798-2.597,31.2-3c1.397-2.198,2.1-4.749,2.1-7.65c0-2.897-2.7-6.647-8.1-11.25
		c-5.4-4.599-9.3-9.398-11.7-14.4c-2.4-4.997-3.6-9-3.6-12s0.797-5.799,2.4-8.4c6.999-11.597,15.197-17.4,24.6-17.4
		c7.997,0,13.2,2.7,15.6,8.1c0.6,1.603,0.647,3,0.15,4.2c-0.501,1.2-1.05,1.701-1.65,1.5c-0.6-0.197-1.003-0.797-1.2-1.8
		c-0.403-3.6-2.1-5.4-5.1-5.4c-1.603,0-3.501,0.501-5.7,1.5c-8.203,3.202-13.903,8.803-17.1,16.8c-0.802,2.002-1.2,4.102-1.2,6.3
		c0,2.203,0.699,4.903,2.1,8.1c1.397,3.201,3.699,6.201,6.9,9c5.597,4.8,8.4,9.801,8.4,15c0,2.001-0.502,4.003-1.5,6
		c10.2-4.8,18.098-9.197,23.7-13.2l0.6,0.3c-0.202,2.602-5.203,6.502-15,11.7c-3.202,1.8-6,3.403-8.4,4.8l-3.3,2.1
		c-2.001,3.797-8.503,6.699-19.5,8.7C1071.53,691.688,1066.932,692.289,1063.332,692.289z"/>
	<path fill="#FF0000" d="M1235.528,626.289c-2.602-3.398-5.302-5.1-8.1-5.1c-8.001,0-17.7,8.803-29.1,26.4
		c-5.803,8.803-10.8,20.301-15,34.5c-0.202,1.603-1.102,2.4-2.7,2.4c-1.8,0-2.7-0.797-2.7-2.4l4.5-31.8
		c1.997-15.999,3.099-26.048,3.3-30.15c0.197-4.097,2.897-6.947,8.1-8.55c1.599-0.398,3.249-0.6,4.95-0.6
		c1.697,0,2.648,0.9,2.85,2.7c0,0.6-0.104,1.252-0.3,1.95c-0.202,0.703-1.65,6-4.35,15.9c-2.7,9.9-4.453,15.75-5.25,17.55
		c4.8-8.4,10.898-16.547,18.3-24.45c7.397-7.898,13.097-11.85,17.1-11.85h0.3c5.4,0,8.897,3.3,10.5,9.9
		c0.398,1.604,0.6,2.953,0.6,4.05c0,1.102-0.3,1.65-0.9,1.65C1237.028,628.59,1236.325,627.892,1235.528,626.289z"/>
	<path fill="#FF0000" d="M1283.524,613.389c3.797,3,5.7,6.802,5.7,11.4c0,4.603-2.203,9.9-6.6,15.9h6c3,0,2.897,0.553-0.3,1.65
		c-3.201,1.102-6.201,1.95-9,2.55c-2.001,2.4-4.303,4.552-6.9,6.45c-2.602,1.903-3.801,2.053-3.6,0.45l1.5-2.7l3-3.3
		c-16.2,1.2-24.801,1.903-25.8,2.1c-2.203,5.4-3.3,11.203-3.3,17.4c0,6.202,1.5,10.552,4.5,13.05c3,2.503,5.597,3.75,7.8,3.75
		c13.8,0,27.797-7.5,42-22.5c1.8-1.8,2.7-1.697,2.7,0.3c0,0.6-0.6,1.603-1.8,3c-4.003,4.8-9.6,9.403-16.8,13.8
		c-11.602,7.397-20.953,11.1-28.05,11.1c-7.102,0-12.75-1.95-16.95-5.85c-4.2-3.9-6.3-9.848-6.3-17.85c0-2.799,0.45-6.497,1.35-11.1
		c0.9-4.599,3.197-10.547,6.9-17.85c3.699-7.298,8.199-13.5,13.5-18.6c5.297-5.1,10.5-7.65,15.6-7.65
		S1278.725,610.389,1283.524,613.389z M1276.324,640.989c3.398-6.999,5.1-12.6,5.1-16.8c0-4.2-1.8-6.3-5.4-6.3
		s-8.001,2.503-13.2,7.5c-5.203,5.001-9.3,10.401-12.3,16.2C1265.323,641.19,1273.924,640.989,1276.324,640.989z"/>
	<path fill="#FF0000" d="M1298.521,692.289c-7.2,0-10.8-1.8-10.8-5.4c0-1.2,0.853-2.452,2.55-3.75
		c1.702-1.298,4.148-2.048,7.35-2.25c19.397-1.599,29.798-2.597,31.2-3c1.397-2.198,2.1-4.749,2.1-7.65c0-2.897-2.7-6.647-8.1-11.25
		c-5.4-4.599-9.3-9.398-11.7-14.4c-2.4-4.997-3.6-9-3.6-12s0.797-5.799,2.4-8.4c6.999-11.597,15.197-17.4,24.6-17.4
		c7.997,0,13.2,2.7,15.6,8.1c0.6,1.603,0.647,3,0.15,4.2c-0.501,1.2-1.05,1.701-1.65,1.5c-0.6-0.197-1.003-0.797-1.2-1.8
		c-0.403-3.6-2.1-5.4-5.1-5.4c-1.603,0-3.501,0.501-5.7,1.5c-8.203,3.202-13.903,8.803-17.1,16.8c-0.802,2.002-1.2,4.102-1.2,6.3
		c0,2.203,0.699,4.903,2.1,8.1c1.397,3.201,3.699,6.201,6.9,9c5.597,4.8,8.4,9.801,8.4,15c0,2.001-0.502,4.003-1.5,6
		c10.2-4.8,18.098-9.197,23.7-13.2l0.6,0.3c-0.202,2.602-5.203,6.502-15,11.7c-3.202,1.8-6,3.403-8.4,4.8l-3.3,2.1
		c-2.001,3.797-8.503,6.699-19.5,8.7C1306.72,691.688,1302.122,692.289,1298.521,692.289z"/>
	<path fill="#FF0000" d="M1410.421,613.389c3.797,3,5.7,6.802,5.7,11.4c0,4.603-2.203,9.9-6.6,15.9h6c3,0,2.897,0.553-0.3,1.65
		c-3.201,1.102-6.201,1.95-9,2.55c-2.001,2.4-4.303,4.552-6.9,6.45c-2.602,1.903-3.801,2.053-3.6,0.45l1.5-2.7l3-3.3
		c-16.2,1.2-24.801,1.903-25.8,2.1c-2.203,5.4-3.3,11.203-3.3,17.4c0,6.202,1.5,10.552,4.5,13.05c3,2.503,5.597,3.75,7.8,3.75
		c13.8,0,27.797-7.5,42-22.5c1.8-1.8,2.7-1.697,2.7,0.3c0,0.6-0.6,1.603-1.8,3c-4.003,4.8-9.6,9.403-16.8,13.8
		c-11.602,7.397-20.953,11.1-28.05,11.1c-7.102,0-12.75-1.95-16.95-5.85c-4.2-3.9-6.3-9.848-6.3-17.85c0-2.799,0.45-6.497,1.35-11.1
		c0.9-4.599,3.197-10.547,6.9-17.85c3.699-7.298,8.199-13.5,13.5-18.6c5.297-5.1,10.5-7.65,15.6-7.65
		S1405.621,610.389,1410.421,613.389z M1403.221,640.989c3.398-6.999,5.1-12.6,5.1-16.8c0-4.2-1.8-6.3-5.4-6.3
		s-8.001,2.503-13.2,7.5c-5.203,5.001-9.3,10.401-12.3,16.2C1392.219,641.19,1400.821,640.989,1403.221,640.989z"/>
	<path fill="#FF0000" d="M1483.018,626.289c-2.602-3.398-5.302-5.1-8.1-5.1c-8.001,0-17.7,8.803-29.1,26.4
		c-5.803,8.803-10.8,20.301-15,34.5c-0.202,1.603-1.102,2.4-2.7,2.4c-1.8,0-2.7-0.797-2.7-2.4l4.5-31.8
		c1.997-15.999,3.099-26.048,3.3-30.15c0.197-4.097,2.897-6.947,8.1-8.55c1.599-0.398,3.249-0.6,4.95-0.6
		c1.697,0,2.648,0.9,2.85,2.7c0,0.6-0.104,1.252-0.3,1.95c-0.202,0.703-1.65,6-4.35,15.9c-2.7,9.9-4.453,15.75-5.25,17.55
		c4.8-8.4,10.898-16.547,18.3-24.45c7.397-7.898,13.097-11.85,17.1-11.85h0.3c5.4,0,8.897,3.3,10.5,9.9
		c0.398,1.604,0.6,2.953,0.6,4.05c0,1.102-0.3,1.65-0.9,1.65C1484.518,628.59,1483.815,627.892,1483.018,626.289z"/>
	<path fill="#FF0000" d="M1551.264,627.489c2.1,0,4.35-0.9,6.75-2.7c1.2,0.202,1.8,0.703,1.8,1.5c0,2.001-1.05,3.403-3.15,4.2
		c-2.1,0.801-4.303,1.2-6.6,1.2c-2.301,0-4.852-0.797-7.65-2.4c0,3-1.852,8.001-5.55,15c-3.703,7.003-8.152,13.303-13.35,18.9
		c-12.802,14.203-23.901,21.3-33.3,21.3c-1.604,0-3.104-0.202-4.5-0.6c-3.802-0.797-5.7-3.849-5.7-9.15
		c0-5.297,0.9-10.547,2.7-15.75c4.8-14.4,7.2-23.648,7.2-27.75c0-4.097-1.401-6.647-4.2-7.65c-1.8-0.797-0.6-4.097,3.6-9.9
		c0.999-1.396,3.75-1.8,8.25-1.2s6.75,1.603,6.75,3c0,4.603-1.701,13.003-5.1,25.2c-4.2,16.2-6.3,26.4-6.3,30.6
		c0,4.2,1.097,6.3,3.3,6.3c5.4,0,13.396-6.099,24-18.3c11.198-13.8,17.297-24.698,18.3-32.7c-2.803-3.197-4.702-6.647-5.7-10.35
		c-1.003-3.699-1.153-6.75-0.45-9.15c0.698-2.4,1.547-3.699,2.55-3.9c0.999-0.197,1.8-0.3,2.4-0.3c2.597,0,4.397,1.453,5.4,4.35
		c0.998,2.901,1.5,5.301,1.5,7.2c0,1.903,0,3.45,0,4.65l-0.9,6C1546.511,626.692,1549.164,627.489,1551.264,627.489z"/>
	<path fill="#FF0000" d="M1602.114,613.389c3.797,3,5.7,6.802,5.7,11.4c0,4.603-2.203,9.9-6.6,15.9h6c3,0,2.897,0.553-0.3,1.65
		c-3.201,1.102-6.201,1.95-9,2.55c-2.001,2.4-4.303,4.552-6.9,6.45c-2.602,1.903-3.801,2.053-3.6,0.45l1.5-2.7l3-3.3
		c-16.2,1.2-24.801,1.903-25.8,2.1c-2.203,5.4-3.3,11.203-3.3,17.4c0,6.202,1.5,10.552,4.5,13.05c3,2.503,5.597,3.75,7.8,3.75
		c13.8,0,27.797-7.5,42-22.5c1.8-1.8,2.7-1.697,2.7,0.3c0,0.6-0.6,1.603-1.8,3c-4.003,4.8-9.6,9.403-16.8,13.8
		c-11.602,7.397-20.953,11.1-28.05,11.1c-7.102,0-12.75-1.95-16.95-5.85c-4.2-3.9-6.3-9.848-6.3-17.85c0-2.799,0.45-6.497,1.35-11.1
		c0.9-4.599,3.197-10.547,6.9-17.85c3.699-7.298,8.199-13.5,13.5-18.6c5.297-5.1,10.5-7.65,15.6-7.65
		S1597.314,610.389,1602.114,613.389z M1594.914,640.989c3.398-6.999,5.1-12.6,5.1-16.8c0-4.2-1.8-6.3-5.4-6.3
		s-8.001,2.503-13.2,7.5c-5.203,5.001-9.3,10.401-12.3,16.2C1583.913,641.19,1592.514,640.989,1594.914,640.989z"/>
	<path fill="#FF0000" d="M1687.011,623.289c-4.003,11.001-6,22.05-6,33.15c0,11.1,1.397,17.752,4.2,19.95
		c0.999,0.403,2.447,0.6,4.35,0.6c1.898,0,5.048-1.2,9.45-3.6c4.397-2.4,8.55-5.198,12.45-8.4c3.9-3.197,5.948-4.65,6.15-4.35
		c0.197,0.3,0.3,0.651,0.3,1.05c0,2.002-2.301,5.1-6.9,9.3c-4.603,4.2-9.853,7.65-15.75,10.35c-5.901,2.7-10.2,4.05-12.9,4.05
		s-4.65-0.253-5.85-0.75c-1.2-0.501-2.203-1.35-3-2.55c-0.801-1.2-1.35-2.648-1.65-4.35c-0.3-1.697-0.553-3.6-0.75-5.7
		c-0.202-2.1-0.202-4.247,0-6.45c0.197-2.199,0.398-4.35,0.6-6.45c0.197-2.1,0.45-4.148,0.75-6.15c0.3-1.997,0.548-3.699,0.75-5.1
		c0.197-1.397,0.497-3,0.9-4.8l-3.6,4.2c-20.001,25.2-33.501,37.8-40.5,37.8c-0.403,0-0.703,0-0.9,0c-6.403-1.003-9.6-5.4-9.6-13.2
		c0-2.597,0.3-5.597,0.9-9c3.197-13.997,10.247-26.747,21.15-38.25c10.898-11.499,21.047-17.25,30.45-17.25c3.797,0,7.8,1.003,12,3
		c2.798-6.197,6.849-17.1,12.15-32.7c5.297-15.6,10.847-24.9,16.65-27.9c0.797-0.398,1.5-0.6,2.1-0.6c2.199,0,3,2.503,2.4,7.5
		c0,0.6-1.5,3.802-4.5,9.6c-9.802,19.402-16.05,32.55-18.75,39.45c-2.7,6.9-4.252,10.753-4.65,11.55c2.199,4.8,1.997,7.003-0.6,6.6
		L1687.011,623.289z M1631.812,662.889c-2.002,5.001-3,8.901-3,11.7c0,2.803,0.9,4.2,2.7,4.2c4.997,0,14.297-9.197,27.9-27.6
		c6.797-9.197,12.249-17.146,16.35-23.85c4.097-6.699,6.15-10.65,6.15-11.85c0-1.2-2.1-1.8-6.3-1.8s-11.353,5.203-21.45,15.6
		C1644.06,639.69,1636.611,650.889,1631.812,662.889z"/>
</g>
</svg>