<?xml version="1.0" encoding="utf-8"?>
<svg xmlns="http://www.w3.org/2000/svg" viewBox="0 0 1337.8421 295.167">
<g transform="translate(-522,-130.15)">
	<path fill="#00A0C6" d="M522,226.391h78.955v-80.566h-65.771c-4.884,0-7.324-2.163-7.324-6.491c0-1.057,0.243-2.019,0.732-2.884
		H522v-6.299h175.781v6.299h-10.107c0.487,0.865,0.732,1.827,0.732,2.884c0,4.328-2.442,6.491-7.324,6.491h-66.797v80.566h83.496
		v2.344h-83.496v90.381c0,1.465-0.343,2.687-1.025,3.662h84.521v6.299H522v-6.299h80.42c-0.978-1.073-1.465-2.392-1.465-3.955
		v-90.088H522V226.391z M697.781,425.317H522v-6.299h175.781V425.317z"/>
	<path fill="#00A0C6" d="M694.266,130.151h111.035v6.299H694.266V130.151z M694.266,226.391h111.035v2.344H789.92
		c1.073,1.172,1.611,2.637,1.611,4.395v84.375c0,2.442-0.929,4.2-2.783,5.273h16.553v6.299H694.266v-6.299h41.016
		c-10.938-2.44-20.021-8.104-27.246-16.992c-7.228-8.885-10.84-19.043-10.84-30.469c0-11.229,3.442-21.142,10.327-29.736
		c6.885-8.592,15.601-14.209,26.147-16.846h-39.404V226.391z M805.301,425.317H694.266v-6.299h111.035V425.317z M780.398,263.452
		c-2.541-6.933-7.082-12.694-13.623-17.285c-6.544-4.589-13.623-6.885-21.24-6.885c-9.961,0-18.434,3.516-25.415,10.547
		c-6.983,7.031-10.474,15.527-10.474,25.488c0,9.865,3.49,18.311,10.474,25.342c6.981,7.031,15.454,10.547,25.415,10.547
		c7.713,0,14.77-2.22,21.167-6.665c6.395-4.442,10.961-10.181,13.696-17.212C780.398,279.418,780.398,271.46,780.398,263.452z
		 M756.229,322.778h25.781c-1.955-1.073-2.93-2.831-2.93-5.273v-7.617C772.438,316.529,764.821,320.826,756.229,322.778z
		 M780.691,228.735H757.4c8.496,2.051,15.722,6.006,21.68,11.865v-7.471C779.08,231.372,779.616,229.907,780.691,228.735z"/>
	<path fill="#00A0C6" d="M800.32,226.391h14.648v-87.602c0-0.877,0.146-1.657,0.439-2.339H800.32v-6.299h48.047v6.299h-20.654
		c0.293,0.682,0.439,1.462,0.439,2.339v87.602h20.215v2.344h-20.215v90.088c0,1.563-0.439,2.882-1.318,3.955h21.533v6.299H800.32
		v-6.299h15.967c-0.879-1.073-1.318-2.392-1.318-3.955v-90.088H800.32V226.391z M848.367,425.317H800.32v-6.299h48.047V425.317z"/>
	<path fill="#00A0C6" d="M842.801,226.391h8.789v-88.772c0-0.389,0.048-0.778,0.146-1.169h-8.936v-6.299h103.418v6.299h-81.592
		c0.096,0.392,0.146,0.78,0.146,1.169v88.772h81.445v2.344h-22.852c3.516,3.419,3.271,6.544-0.732,9.375L869.9,275.024
		l64.746,37.207c1.952,1.172,2.93,2.687,2.93,4.541c0,2.93-1.611,4.933-4.834,6.006h13.477v6.299H842.801v-6.299h11.426
		c-1.758-1.172-2.637-2.831-2.637-4.98v-89.062h-8.789V226.391z M946.219,425.317H842.801v-6.299h103.418V425.317z M862.137,322.778
		h65.771c-0.392-0.194-0.831-0.389-1.318-0.586l-61.816-35.156v30.762C864.773,319.947,863.895,321.606,862.137,322.778z
		 M913.846,228.735h-49.072v34.277L913.846,228.735z"/>
	<path fill="#00A0C6" d="M940.506,130.151h90.967v6.299h-90.967V130.151z M940.506,226.391h90.967v2.344h-29.59
		c7.812,2.248,13.231,5.226,16.26,8.936c2.051,2.442,3.076,4.64,3.076,6.592c0,1.758-0.831,3.273-2.49,4.541
		c-3.223,2.541-6.152,2.149-8.789-1.172c-4.493-5.566-11.623-8.446-21.387-8.643c-6.152-0.194-11.817,0.978-16.992,3.516
		c-5.177,2.541-7.96,5.617-8.35,9.229c-0.49,5.079,4.735,9.082,15.674,12.012c17.285,4.786,27.44,7.96,30.469,9.521
		c10.741,5.47,15.527,13.722,14.355,24.756c-1.369,13.087-9.082,21.339-23.145,24.756h30.908v6.299h-90.967v-6.299h38.232
		c-14.454-2.93-25.635-8.936-33.545-18.018c-1.172-1.268-1.758-2.637-1.758-4.102c0-4.395,2.197-6.592,6.592-6.592
		c1.758,0,3.271,0.732,4.541,2.197c3.809,4.2,9.13,7.764,15.967,10.693c6.834,2.93,12.987,4.347,18.457,4.248
		c5.859,0,10.888-1.318,15.088-3.955c4.198-2.637,6.542-6.152,7.031-10.547c0.682-6.445-4.2-11.572-14.648-15.381
		c-9.961-3.026-19.922-6.054-29.883-9.082c-10.84-4.395-16.26-10.595-16.26-18.604c0-1.366,0.096-2.783,0.293-4.248
		c1.854-9.961,9.862-16.846,24.023-20.654h-34.131V226.391z M1031.473,425.317h-90.967v-6.299h90.967V425.317z"/>
	<path fill="#00A0C6" d="M1132.4,145.518l-40.283,80.873h46.143v2.344h-47.168l-45.996,92.432c-0.293,0.586-0.636,1.124-1.025,1.611
		h94.189v6.299h-111.475v-6.299h8.057c-2.149-2.051-2.541-4.491-1.172-7.324l43.066-86.719h-49.951v-2.344h51.123l43.066-86.577
		c0.293-0.975,1.122-2.097,2.49-3.365h-96.68v-6.299h111.475v6.299h-5.42C1134.891,137.912,1134.744,140.936,1132.4,145.518z
		 M1138.26,425.317h-111.475v-6.299h111.475V425.317z"/>
	<path fill="#00A0C6" d="M1136.648,226.391h17.578v-88.04c0-0.682,0.146-1.316,0.439-1.902h-18.018v-6.299h178.711v6.299h-38.525
		c9.375,3.804,16.699,10.238,21.973,19.304c4.882,8.288,7.324,17.599,7.324,27.933c0,18.818-6.935,33.053-20.801,42.705h30.029
		v2.344h-33.691c-7.423,4.2-15.919,6.299-25.488,6.299h-88.33v83.789c0,1.563-0.439,2.882-1.318,3.955h148.828v6.299h-178.711
		v-6.299h18.75c-0.783-1.073-1.172-2.392-1.172-3.955v-90.088h-17.578V226.391z M1315.359,425.317h-178.711v-6.299h178.711V425.317z
		 M1255.887,145.678h-88.037v75.586h88.33c11.426,0,20.556-3.955,27.393-11.865c6.152-7.127,9.229-15.77,9.229-25.928
		c0-10.254-3.076-18.944-9.229-26.074C1276.735,149.585,1267.507,145.678,1255.887,145.678z"/>
	<path fill="#00A0C6" d="M1311.99,130.151h103.418v6.299H1311.99V130.151z M1311.99,226.391h103.418v2.344h-43.799
		c10.547,2.442,19.311,8.057,26.294,16.846c6.981,8.789,10.474,18.849,10.474,30.176c0,11.426-3.442,21.51-10.327,30.249
		c-6.885,8.741-15.601,14.333-26.147,16.772h43.506v6.299H1311.99v-6.299h39.404c-10.547-2.44-19.263-8.031-26.147-16.772
		c-6.885-8.739-10.327-18.823-10.327-30.249s3.465-21.533,10.4-30.322c6.933-8.789,15.674-14.355,26.221-16.699h-39.551V226.391z
		 M1415.408,425.317H1311.99v-6.299h103.418V425.317z M1396.219,275.756c0-9.862-3.369-18.26-10.107-25.195
		c-6.738-6.933-14.894-10.4-24.463-10.4c-9.572,0-17.75,3.468-24.536,10.4c-6.789,6.935-10.181,15.333-10.181,25.195
		c0,9.865,3.392,18.288,10.181,25.269c6.786,6.983,14.964,10.474,24.536,10.474c9.569,0,17.725-3.49,24.463-10.474
		C1392.85,294.044,1396.219,285.621,1396.219,275.756z"/>
	<path fill="#00A0C6" d="M1411.307,130.151h90.967v6.299h-90.967V130.151z M1411.307,226.391h90.967v2.344h-29.59
		c7.812,2.248,13.231,5.226,16.26,8.936c2.051,2.442,3.076,4.64,3.076,6.592c0,1.758-0.831,3.273-2.49,4.541
		c-3.223,2.541-6.152,2.149-8.789-1.172c-4.493-5.566-11.623-8.446-21.387-8.643c-6.152-0.194-11.817,0.978-16.992,3.516
		c-5.177,2.541-7.96,5.617-8.35,9.229c-0.49,5.079,4.735,9.082,15.674,12.012c17.285,4.786,27.44,7.96,30.469,9.521
		c10.741,5.47,15.527,13.722,14.355,24.756c-1.369,13.087-9.082,21.339-23.145,24.756h30.908v6.299h-90.967v-6.299h38.232
		c-14.454-2.93-25.635-8.936-33.545-18.018c-1.172-1.268-1.758-2.637-1.758-4.102c0-4.395,2.197-6.592,6.592-6.592
		c1.758,0,3.271,0.732,4.541,2.197c3.809,4.2,9.13,7.764,15.967,10.693c6.834,2.93,12.987,4.347,18.457,4.248
		c5.859,0,10.888-1.318,15.088-3.955c4.198-2.637,6.542-6.152,7.031-10.547c0.682-6.445-4.2-11.572-14.648-15.381
		c-9.961-3.026-19.922-6.054-29.883-9.082c-10.84-4.395-16.26-10.595-16.26-18.604c0-1.366,0.096-2.783,0.293-4.248
		c1.854-9.961,9.862-16.846,24.023-20.654h-34.131V226.391z M1502.273,425.317h-90.967v-6.299h90.967V425.317z"/>
	<path fill="#00A0C6" d="M1497.586,130.151h78.516v6.299h-38.086c2.147,0.975,3.223,2.73,3.223,5.264v78.964h21.24
		c3.905,0,6.006,1.904,6.299,5.713h7.324v2.344h-7.471c-0.879,3.321-3.126,4.98-6.738,4.98h-20.654v83.936
		c0,2.248-0.879,3.955-2.637,5.127h37.5v6.299h-78.516v-6.299h32.959c-1.662-1.172-2.49-2.879-2.49-5.127v-83.936h-20.801
		c-3.614,0-5.812-1.659-6.592-4.98h-3.076v-2.344h2.93c0.389-3.809,2.733-5.713,7.031-5.713h20.508v-78.525
		c0-2.728,1.172-4.63,3.516-5.704h-33.984V130.151z M1576.102,425.317h-78.516v-6.299h78.516V425.317z"/>
	<path fill="#00A0C6" d="M1571.707,130.151h106.201v6.299h-106.201V130.151z M1571.707,226.391h106.201v2.344h-44.385
		c10.84,2.248,19.629,7.375,26.367,15.381c6.834,8.302,10.254,18.164,10.254,29.59c0,4.102-2.101,6.152-6.299,6.152h-75.879
		c1.561,8.789,5.713,16.26,12.451,22.412s14.502,9.229,23.291,9.229c7.127,0,13.33-1.758,18.604-5.273
		c2.637-1.854,6.006-5.127,10.107-9.814c3.124-3.612,5.614-5.42,7.471-5.42c0.975,0,2.051,0.392,3.223,1.172
		c3.516,2.149,4.198,4.98,2.051,8.496c-7.228,11.719-17.53,19.093-30.908,22.119h43.652v6.299h-106.201v-6.299h41.455
		c-11.037-2.538-20.215-8.397-27.539-17.578c-7.324-9.178-10.986-19.579-10.986-31.201c0-11.426,3.417-21.263,10.254-29.517
		c6.834-8.251,15.722-13.5,26.66-15.747h-39.844V226.391z M1677.908,425.317h-106.201v-6.299h106.201V425.317z M1657.107,267.407
		c-1.465-8.397-5.347-15.038-11.646-19.922c-6.299-4.882-13.989-7.324-23.071-7.324c-8.986,0-16.603,2.417-22.852,7.251
		c-6.251,4.834-10.107,11.499-11.572,19.995H1657.107z"/>
	<path fill="#00A0C6" d="M1673.074,130.151h100.488v6.299h-100.488V130.151z M1673.074,226.391h100.488v2.344h-32.52
		c11.426,3.321,19.384,8.888,23.877,16.699c0.682,1.076,1.025,2.197,1.025,3.369c0,4.298-2.248,6.445-6.738,6.445
		c-2.344,0-4.152-1.122-5.42-3.369c-1.563-2.637-4.64-5.223-9.229-7.764c-4.884-2.637-9.327-3.955-13.33-3.955
		c-9.767,0-17.871,1.758-24.316,5.273c-6.837,3.809-10.792,8.986-11.865,15.527l-0.146,0.439v56.982
		c0,1.955-0.636,3.419-1.904,4.395h80.566v6.299h-100.488v-6.299h12.451c-2.442-1.561-3.662-3.809-3.662-6.738v-81.152
		c0-2.93,0.78-4.98,2.344-6.152h-11.133V226.391z M1773.562,425.317h-100.488v-6.299h100.488V425.317z M1716.141,228.735h-24.463
		c2.051,1.563,3.076,3.712,3.076,6.445v2.637C1700.417,233.521,1707.546,230.493,1716.141,228.735z"/>
	<path fill="#00A0C6" d="M1768.875,130.151h90.967v6.299h-90.967V130.151z M1768.875,226.391h90.967v2.344h-29.59
		c7.812,2.248,13.231,5.226,16.26,8.936c2.051,2.442,3.076,4.64,3.076,6.592c0,1.758-0.831,3.273-2.49,4.541
		c-3.223,2.541-6.152,2.149-8.789-1.172c-4.493-5.566-11.623-8.446-21.387-8.643c-6.152-0.194-11.817,0.978-16.992,3.516
		c-5.177,2.541-7.96,5.617-8.35,9.229c-0.49,5.079,4.735,9.082,15.674,12.012c17.285,4.786,27.44,7.96,30.469,9.521
		c10.741,5.47,15.527,13.722,14.355,24.756c-1.369,13.087-9.082,21.339-23.145,24.756h30.908v6.299h-90.967v-6.299h38.232
		c-14.454-2.93-25.635-8.936-33.545-18.018c-1.172-1.268-1.758-2.637-1.758-4.102c0-4.395,2.197-6.592,6.592-6.592
		c1.758,0,3.271,0.732,4.541,2.197c3.809,4.2,9.13,7.764,15.967,10.693c6.834,2.93,12.987,4.347,18.457,4.248
		c5.859,0,10.888-1.318,15.088-3.955c4.198-2.637,6.542-6.152,7.031-10.547c0.682-6.445-4.2-11.572-14.648-15.381
		c-9.961-3.026-19.922-6.054-29.883-9.082c-10.84-4.395-16.26-10.595-16.26-18.604c0-1.366,0.096-2.783,0.293-4.248
		c1.854-9.961,9.862-16.846,24.023-20.654h-34.131V226.391z M1859.842,425.317h-90.967v-6.299h90.967V425.317z"/>
</g>
</svg>