<?xml version="1.0" encoding="utf-8"?>
<svg xmlns="http://www.w3.org/2000/svg" viewBox="0 0 626.07503 402.83199">
<g transform="translate(-522,-90.6)">
	<path fill="#FF0000" d="M761.062,125.317c0.879,0.586,1.904,1.344,3.076,2.271c1.172,0.929,2.318,2.076,3.442,3.442
		c1.122,1.369,2.074,2.93,2.856,4.688c0.78,1.758,1.172,3.712,1.172,5.859c0,2.541-0.439,4.98-1.318,7.324s-2.271,4.395-4.175,6.152
		s-4.347,3.149-7.324,4.175c-2.98,1.025-6.519,1.538-10.62,1.538c-5.079,0-10.133-0.487-15.161-1.465
		c-5.031-0.975-10.107-2.271-15.234-3.882s-10.304-3.442-15.527-5.493c-5.226-2.051-10.524-4.149-15.894-6.299
		c-0.293,32.911-1.344,64.552-3.149,94.922c-1.808,30.373-4.665,59.962-8.569,88.77c-1.172,3.319-2.321,5.64-3.442,6.958
		c-1.124,1.318-2.174,1.978-3.149,1.978c-0.783,0-1.369-0.318-1.758-0.952c-0.392-0.636-0.586-1.392-0.586-2.271v-1.025
		c1.758-14.159,3.099-28.052,4.028-41.675c0.927-13.623,1.659-27.196,2.197-40.723c0.536-13.524,0.927-27.196,1.172-41.016
		c0.243-13.817,0.561-28.052,0.952-42.7c0.194-4.882,0.341-9.448,0.439-13.696c0.096-4.248,0.146-8.569,0.146-12.964
		c-7.814-2.733-15.992-5.077-24.536-7.031c-8.546-1.952-17.555-2.93-27.026-2.93c-13.77,0-26.417,1.295-37.939,3.882
		c-11.524,2.589-21.437,6.764-29.736,12.524c-8.302,5.763-14.747,13.257-19.336,22.485c-4.591,9.229-6.885,20.485-6.885,33.765
		c0,4.884,0.732,9.865,2.197,14.941c1.465,5.079,3.882,9.693,7.251,13.843c3.369,4.152,7.764,7.544,13.184,10.181
		s12.085,3.955,19.995,3.955c6.834,0,12.646-1,17.432-3.003c4.784-2,8.837-4.417,12.158-7.251c3.319-2.831,6.029-5.786,8.13-8.862
		c2.099-3.076,3.832-5.736,5.2-7.983l2.051,1.172c-0.685,1.369-1.637,3.149-2.856,5.347c-1.222,2.197-2.783,4.566-4.688,7.104
		c-1.904,2.541-4.175,5.127-6.812,7.764s-5.69,5.031-9.155,7.178c-3.468,2.149-7.35,3.882-11.646,5.2
		c-4.298,1.318-9.082,1.978-14.355,1.978c-6.738,0-12.891-1.195-18.457-3.589c-5.566-2.392-10.327-5.761-14.282-10.107
		c-3.955-4.344-7.031-9.595-9.229-15.747S522,211.01,522,203.393c0-9.276,1.341-17.821,4.028-25.635
		c2.685-7.812,6.395-14.843,11.133-21.094c4.735-6.249,10.327-11.742,16.772-16.479c6.445-4.735,13.403-8.69,20.874-11.865
		c7.471-3.172,15.282-5.566,23.438-7.178c8.153-1.611,16.333-2.417,24.536-2.417c9.764,0,18.944,0.929,27.539,2.783
		c8.592,1.856,16.795,4.152,24.609,6.885v-15.967c0-1.366,0.293-2.563,0.879-3.589s1.341-1.854,2.271-2.49
		c0.927-0.634,1.927-1.122,3.003-1.465c1.073-0.341,2.051-0.513,2.93-0.513c0.78,0,1.415,0.146,1.904,0.439
		c0.487,0.293,0.732,0.732,0.732,1.318v26.514c5.663,2.149,11.206,4.298,16.626,6.445c5.42,2.149,10.814,4.102,16.187,5.859
		c5.37,1.758,10.741,3.175,16.113,4.248c5.37,1.076,10.888,1.611,16.553,1.611c1.854,0,3.735-0.243,5.64-0.732
		c1.904-0.487,3.612-1.195,5.127-2.124c1.513-0.927,2.733-2.124,3.662-3.589c0.927-1.465,1.392-3.172,1.392-5.127
		c0-3.124-0.831-5.614-2.49-7.471c-1.662-1.854-3.419-3.465-5.273-4.834L761.062,125.317z"/>
	<path fill="#FF0000" d="M755.057,250.415c1.268,0.293,1.904,1.124,1.904,2.49c0,0.392-0.124,0.904-0.366,1.538
		c-0.245,0.636-0.538,1.271-0.879,1.904c-0.343,0.636-0.709,1.172-1.099,1.611c-0.392,0.439-0.732,0.659-1.025,0.659
		c-0.49,0-1.076-0.169-1.758-0.513c-0.685-0.341-1.662-0.732-2.93-1.172c-1.271-0.439-2.93-0.829-4.98-1.172
		c-2.051-0.341-4.738-0.513-8.057-0.513c-4.688,0-8.595,0.879-11.719,2.637c-3.126,1.758-4.688,4.2-4.688,7.324
		c0,2.248,0.952,4.127,2.856,5.64c1.904,1.515,4.149,2.71,6.738,3.589c2.586,0.879,5.223,1.515,7.91,1.904
		c2.685,0.392,4.761,0.586,6.226,0.586c1.073,0,1.781,0.172,2.124,0.513c0.341,0.343,0.513,0.659,0.513,0.952
		c0,0.783-0.318,1.245-0.952,1.392c-0.636,0.146-1.442,0.366-2.417,0.659c-2.541,0.879-5.127,1.978-7.764,3.296
		s-5.054,2.882-7.251,4.688c-2.197,1.808-3.98,3.834-5.347,6.079c-1.369,2.248-2.051,4.688-2.051,7.324
		c0,4.395,1.781,8.034,5.347,10.913c3.563,2.882,8.569,4.321,15.015,4.321c7.324,0,13.426-1.099,18.311-3.296
		c4.882-2.197,8.91-4.761,12.085-7.69c3.172-2.93,5.64-5.882,7.397-8.862c1.758-2.978,3.076-5.248,3.955-6.812l0.879,0.586
		c-1.662,4.786-3.786,9.229-6.372,13.33c-2.589,4.102-5.713,7.643-9.375,10.62c-3.662,2.98-7.936,5.324-12.817,7.031
		c-4.884,1.708-10.451,2.563-16.699,2.563c-3.809,0-7.324-0.465-10.547-1.392s-6.006-2.22-8.35-3.882
		c-2.344-1.659-4.152-3.71-5.42-6.152c-1.271-2.44-1.904-5.223-1.904-8.35c0-3.612,0.829-6.738,2.49-9.375
		c1.659-2.637,3.563-4.809,5.713-6.519c2.147-1.708,4.271-3.026,6.372-3.955c2.099-0.927,3.589-1.586,4.468-1.978
		c-3.028-0.487-5.713-1.318-8.057-2.49c-1.955-1.073-3.761-2.563-5.42-4.468c-1.662-1.904-2.49-4.516-2.49-7.837
		c0-3.026,0.732-5.786,2.197-8.276s3.442-4.564,5.933-6.226c2.49-1.659,5.37-2.953,8.643-3.882
		c3.271-0.927,6.761-1.392,10.474-1.392c2.147,0,4.321,0.146,6.519,0.439S752.809,249.634,755.057,250.415z"/>
	<path fill="#FF0000" d="M828.299,272.094c-0.879,0-1.685-0.513-2.417-1.538s-1.685-2.124-2.856-3.296s-2.662-2.271-4.468-3.296
		c-1.808-1.025-4.175-1.538-7.104-1.538c-4.102,0-7.91,1.051-11.426,3.149c-3.516,2.101-6.544,4.738-9.082,7.91
		c-2.541,3.175-4.518,6.642-5.933,10.4c-1.417,3.761-2.124,7.301-2.124,10.62c0,5.177,1.318,9.425,3.955,12.744
		c2.637,3.321,6.152,4.98,10.547,4.98c3.417,0,6.42-0.659,9.009-1.978c2.586-1.318,4.761-3.051,6.519-5.2
		c-0.586-2.637-0.879-5.907-0.879-9.814c0-4.198,0.316-7.617,0.952-10.254c0.634-2.637,1.415-4.688,2.344-6.152
		c0.927-1.465,1.879-2.465,2.856-3.003c0.975-0.536,1.806-0.806,2.49-0.806c0.78,0,1.685,0.538,2.71,1.611
		c1.025,1.076,1.538,2.98,1.538,5.713c0,3.419-0.611,7.008-1.831,10.767c-1.222,3.761-2.907,7.35-5.054,10.767
		c1.172,3.028,2.978,5.226,5.42,6.592c2.44,1.369,5.223,2.051,8.35,2.051c2.733,0,5.296-0.609,7.69-1.831
		c2.392-1.22,4.637-2.856,6.738-4.907c2.099-2.051,4.076-4.417,5.933-7.104c1.854-2.685,3.563-5.443,5.127-8.276l0.879,0.586
		c-1.172,3.712-2.735,7.324-4.688,10.84c-1.955,3.516-4.2,6.642-6.738,9.375c-2.541,2.735-5.299,4.907-8.276,6.519
		c-2.98,1.611-6.079,2.417-9.302,2.417c-2.442,0-5.104-0.806-7.983-2.417c-2.882-1.611-5.25-4.516-7.104-8.716
		c-3.028,3.614-6.496,6.617-10.4,9.009c-3.907,2.394-8.107,3.589-12.598,3.589c-2.541,0-4.834-0.586-6.885-1.758
		s-3.786-2.733-5.2-4.688c-1.417-1.952-2.516-4.248-3.296-6.885c-0.783-2.637-1.172-5.42-1.172-8.35
		c0-4.98,1.099-9.961,3.296-14.941s5.127-9.471,8.789-13.477c3.662-4.003,7.86-7.251,12.598-9.741
		c4.735-2.49,9.691-3.735,14.868-3.735c3.809,0,7.006,0.417,9.595,1.245c2.586,0.831,4.662,1.808,6.226,2.93
		c1.561,1.124,2.685,2.271,3.369,3.442c0.682,1.172,1.025,2.101,1.025,2.783c0,1.369-0.709,2.321-2.124,2.856
		C830.764,271.827,829.471,272.094,828.299,272.094z M815.994,291.577c0,3.223,0.293,6.006,0.879,8.35
		c1.465-2.733,2.538-5.541,3.223-8.423c0.682-2.879,1.025-5.347,1.025-7.397c0-2.44-0.439-3.662-1.318-3.662
		s-1.735,1.076-2.563,3.223C816.408,285.816,815.994,288.453,815.994,291.577z"/>
	<path fill="#FF0000" d="M888.211,257.006c1.465,0,2.978,0.197,4.541,0.586c1.561,0.392,2.978,0.952,4.248,1.685
		c1.268,0.732,2.318,1.637,3.149,2.71c0.829,1.076,1.245,2.344,1.245,3.809c0,3.126-0.952,5.859-2.856,8.203
		s-3.98,4.347-6.226,6.006c-2.637,1.856-5.617,3.516-8.936,4.98l-0.879-1.465c1.758-0.975,3.319-2.099,4.688-3.369
		c1.172-1.073,2.245-2.417,3.223-4.028c0.975-1.611,1.465-3.442,1.465-5.493c0-1.952-0.879-3.758-2.637-5.42
		c-1.758-1.659-4.2-2.49-7.324-2.49c-3.126,0-5.933,0.806-8.423,2.417s-4.614,3.712-6.372,6.299
		c-1.758,2.589-3.126,5.519-4.102,8.789c-0.978,3.273-1.465,6.569-1.465,9.888c0,2.833,0.414,5.543,1.245,8.13
		c0.829,2.589,2.074,4.859,3.735,6.812c1.659,1.955,3.809,3.493,6.445,4.614c2.637,1.124,5.809,1.685,9.521,1.685
		c3.612,0,6.786-0.462,9.521-1.392c2.733-0.927,5.028-1.927,6.885-3.003c2.147-1.268,4.003-2.783,5.566-4.541l1.172,0.879
		c-1.955,3.126-4.298,5.91-7.031,8.35c-2.442,2.051-5.47,3.932-9.082,5.64c-3.614,1.71-7.96,2.563-13.037,2.563
		c-2.735,0-5.543-0.462-8.423-1.392c-2.882-0.927-5.493-2.344-7.837-4.248s-4.273-4.344-5.786-7.324
		c-1.515-2.978-2.271-6.468-2.271-10.474c0-5.175,0.902-10.155,2.71-14.941c1.806-4.784,4.321-8.983,7.544-12.598
		c3.223-3.612,7.031-6.493,11.426-8.643C878.25,258.082,883.034,257.006,888.211,257.006z"/>
	<path fill="#FF0000" d="M917.654,300.512c0-2.538,0.146-6.665,0.439-12.378s0.634-12.964,1.025-21.753
		c0.389-8.789,0.732-19.043,1.025-30.762s0.439-24.852,0.439-39.404c0-7.127-0.025-13.989-0.073-20.581
		c-0.05-6.592-0.124-12.451-0.22-17.578c-0.099-5.127-0.172-9.276-0.22-12.451c-0.05-3.172-0.073-4.907-0.073-5.2
		c0-0.78,0.121-1.465,0.366-2.051c0.243-0.586,0.755-1.122,1.538-1.611c0.586-0.293,1.293-0.707,2.124-1.245
		c0.829-0.536,1.685-0.806,2.563-0.806c1.073,0,1.904,0.293,2.49,0.879c0.586,0.49,1.048,1.392,1.392,2.71
		c0.341,1.318,0.609,3.566,0.806,6.738c0.194,3.175,0.316,7.569,0.366,13.184c0.048,5.617,0.073,12.868,0.073,21.753
		c0,8.203-0.197,16.699-0.586,25.488c-0.392,8.789-0.856,17.432-1.392,25.928c-0.538,8.496-1.124,16.651-1.758,24.463
		c-0.636,7.814-1.222,14.845-1.758,21.094c-0.538,6.251-1.002,11.451-1.392,15.601c-0.392,4.152-0.586,6.812-0.586,7.983
		c0,0.49,0,1.076,0,1.758c0,0.685,0.048,1.344,0.146,1.978c0.096,0.636,0.243,1.172,0.439,1.611
		c0.194,0.439,0.487,0.659,0.879,0.659c0.975,0,2-1.561,3.076-4.688c1.073-3.124,2.44-7.324,4.102-12.598
		c1.073-3.319,2.293-6.688,3.662-10.107c1.366-3.417,2.806-6.519,4.321-9.302c1.513-2.783,3.076-5.054,4.688-6.812
		s3.197-2.637,4.761-2.637c1.172,0,2.172,0.343,3.003,1.025c0.829,0.685,1.538,1.538,2.124,2.563s1.025,2.124,1.318,3.296
		s0.536,2.296,0.732,3.369c0.096,1.172,0.243,2.93,0.439,5.273c0.194,2.344,0.389,5.031,0.586,8.057
		c0.194,3.028,0.414,6.203,0.659,9.521c0.243,3.321,0.513,6.496,0.806,9.521c0.487,5.47,1.806,9.425,3.955,11.865
		c2.147,2.442,4.93,3.662,8.35,3.662c1.366,0,2.44-0.096,3.223-0.293c0.78-0.194,1.513-0.293,2.197-0.293
		c0.487,0,0.586,0.49,0.293,1.465c-0.197,0.392-1.025,1.051-2.49,1.978c-1.465,0.929-4.054,1.392-7.764,1.392
		c-3.126,0-5.738-0.513-7.837-1.538c-2.101-1.025-3.761-2.637-4.98-4.834c-1.222-2.197-2.149-5.077-2.783-8.643
		c-0.636-3.563-1.051-7.837-1.245-12.817c-0.197-2.831-0.366-5.786-0.513-8.862s-0.392-5.882-0.732-8.423
		c-0.343-2.538-0.806-4.614-1.392-6.226s-1.417-2.417-2.49-2.417c-0.879,0-1.856,1.002-2.93,3.003
		c-1.076,2.003-2.124,4.347-3.149,7.031c-1.025,2.687-1.978,5.372-2.856,8.057c-0.879,2.687-1.563,4.761-2.051,6.226
		c-0.392,1.172-0.978,3.126-1.758,5.859c-0.783,2.735-1.71,5.519-2.783,8.35c-1.076,2.833-2.248,5.324-3.516,7.471
		c-1.271,2.149-2.589,3.223-3.955,3.223c-1.172,0-2.101-0.659-2.783-1.978c-0.685-1.318-1.197-2.93-1.538-4.834
		c-0.343-1.904-0.563-3.856-0.659-5.859C917.702,303.565,917.654,301.881,917.654,300.512z"/>
	<path fill="#FF0000" d="M985.184,261.84c0.78,0,1.538,0.22,2.271,0.659s1.366,0.904,1.904,1.392
		c0.536,0.49,0.975,1.002,1.318,1.538c0.341,0.538,0.513,0.856,0.513,0.952c0,0.099-0.124,0.611-0.366,1.538
		c-0.245,0.929-0.538,2.467-0.879,4.614c-0.343,2.149-0.636,4.958-0.879,8.423c-0.245,3.468-0.366,7.789-0.366,12.964
		c0,6.935,0.854,11.769,2.563,14.502c1.708,2.735,3.783,4.102,6.226,4.102c2.44,0,4.857-0.732,7.251-2.197
		c2.392-1.465,4.662-3.369,6.812-5.713c2.147-2.344,4.175-5.003,6.079-7.983c1.904-2.978,3.589-5.98,5.054-9.009l0.879,0.586
		c-0.392,0.978-0.978,2.467-1.758,4.468c-0.783,2.003-1.758,4.175-2.93,6.519s-2.563,4.761-4.175,7.251s-3.468,4.738-5.566,6.738
		c-2.101,2.003-4.395,3.662-6.885,4.98s-5.2,1.978-8.13,1.978c-2.051,0-3.932-0.389-5.64-1.172c-1.71-0.78-3.223-2.22-4.541-4.321
		c-1.318-2.099-2.344-5.003-3.076-8.716c-0.732-3.71-1.099-8.496-1.099-14.355c0-3.026,0.121-6.273,0.366-9.741
		c0.243-3.465,0.586-6.688,1.025-9.668c0.439-2.978,1-5.443,1.685-7.397C983.522,262.818,984.305,261.84,985.184,261.84z
		 M988.699,225.512c2.44,0,4.198,0.856,5.273,2.563c1.073,1.71,1.611,3.786,1.611,6.226c0,2.833-0.783,5.031-2.344,6.592
		c-1.563,1.563-3.468,2.344-5.713,2.344c-1.662,0-3.273-0.634-4.834-1.904c-1.563-1.268-2.344-3.319-2.344-6.152
		c0-3.124,0.78-5.516,2.344-7.178C984.254,226.343,986.257,225.512,988.699,225.512z"/>
	<path fill="#FF0000" d="M1025.906,257.446c0.487,0,0.879,0.392,1.172,1.172c0.293,0.783,0.513,1.71,0.659,2.783
		c0.146,1.076,0.22,2.223,0.22,3.442c0,1.222,0,2.321,0,3.296c0,2.541-0.073,5.152-0.22,7.837c-0.146,2.687-0.293,5.273-0.439,7.764
		s-0.27,4.786-0.366,6.885c-0.099,2.101-0.146,3.834-0.146,5.2c0,2.541,0.096,4.566,0.293,6.079
		c0.194,1.515,0.682,2.271,1.465,2.271c0.487,0,1.122-0.634,1.904-1.904c0.78-1.268,1.634-2.806,2.563-4.614
		c0.927-1.806,1.831-3.735,2.71-5.786s1.708-3.856,2.49-5.42c0.975-2.051,2.074-4.321,3.296-6.812
		c1.22-2.49,2.513-4.834,3.882-7.031c1.366-2.197,2.806-4.028,4.321-5.493c1.513-1.465,3.099-2.197,4.761-2.197
		c1.073,0,2.025,0.293,2.856,0.879c0.829,0.586,1.538,1.344,2.124,2.271c0.586,0.929,1.048,1.904,1.392,2.93
		c0.341,1.025,0.609,1.978,0.806,2.856c0.293,2.248,0.609,5.786,0.952,10.62c0.341,4.834,0.806,9.986,1.392,15.454
		c0.487,5.47,1.806,9.448,3.955,11.938c2.147,2.49,4.93,3.735,8.35,3.735c1.366,0,2.465-0.096,3.296-0.293
		c0.829-0.194,1.538-0.293,2.124-0.293c0.487,0,0.586,0.49,0.293,1.465c-0.099,0.197-0.318,0.465-0.659,0.806
		c-0.343,0.343-0.904,0.709-1.685,1.099c-0.783,0.392-1.831,0.732-3.149,1.025s-2.907,0.439-4.761,0.439
		c-3.126,0-5.713-0.513-7.764-1.538s-3.712-2.66-4.98-4.907c-1.271-2.245-2.197-5.15-2.783-8.716
		c-0.586-3.563-0.978-7.837-1.172-12.817c-0.197-2.344-0.366-4.614-0.513-6.812s-0.392-4.149-0.732-5.859
		c-0.343-1.708-0.806-3.076-1.392-4.102s-1.417-1.538-2.49-1.538c-0.879,0-1.93,0.879-3.149,2.637
		c-1.222,1.758-2.417,3.834-3.589,6.226c-1.172,2.394-2.271,4.859-3.296,7.397c-1.025,2.541-1.881,4.541-2.563,6.006
		c-2.149,4.591-3.932,8.35-5.347,11.279c-1.417,2.93-2.955,5.763-4.614,8.496c-0.49,0.783-1.002,1.417-1.538,1.904
		c-0.538,0.49-1.197,0.732-1.978,0.732c-1.172,0-2.101-0.975-2.783-2.93c-0.685-1.952-1.197-4.198-1.538-6.738
		c-0.343-2.538-0.563-5.102-0.659-7.69c-0.099-2.586-0.146-4.564-0.146-5.933c0-1.561,0.023-3.465,0.073-5.713
		c0.048-2.245,0.121-4.442,0.22-6.592c0.096-2.147,0.169-4.102,0.22-5.859c0.048-1.758,0.073-2.93,0.073-3.516
		s-0.025-1.392-0.073-2.417c-0.05-1.025-0.073-2.051-0.073-3.076s-0.025-1.952-0.073-2.783c-0.05-0.829-0.073-1.392-0.073-1.685
		c0-0.78,0.22-1.439,0.659-1.978c0.439-0.536,0.902-0.952,1.392-1.245c0.487-0.293,1.268-0.806,2.344-1.538
		C1024.489,257.812,1025.32,257.446,1025.906,257.446z"/>
	<path fill="#FF0000" d="M1131.521,258.325c2.733,0,5.028,0.197,6.885,0.586c1.854,0.392,3.319,0.904,4.395,1.538
		c1.073,0.636,1.831,1.318,2.271,2.051s0.659,1.442,0.659,2.124c0,1.076-0.513,2.296-1.538,3.662
		c-1.025,1.369-1.93,2.051-2.71,2.051c-0.392,0-0.904-0.169-1.538-0.513c-0.636-0.341-1.563-0.682-2.783-1.025
		c-1.222-0.341-2.735-0.682-4.541-1.025c-1.808-0.341-4.079-0.513-6.812-0.513c-11.231,0-19.922,2.467-26.074,7.397
		c-6.152,4.933-9.229,11.696-9.229,20.288c0,1.465,0.316,3.076,0.952,4.834c0.634,1.758,1.611,3.369,2.93,4.834
		s3.026,2.71,5.127,3.735c2.099,1.025,4.662,1.538,7.69,1.538c5.761,0,10.668-1.073,14.722-3.223
		c4.051-2.147,7.445-4.589,10.181-7.324c0-0.487,0.048-0.927,0.146-1.318c0.096-0.389,0.243-0.829,0.439-1.318
		c0.682-3.319,1.586-6.42,2.71-9.302c1.122-2.879,2.318-5.37,3.589-7.471c1.268-2.099,2.538-3.735,3.809-4.907
		c1.268-1.172,2.344-1.758,3.223-1.758c1.073,0,1.685,0.343,1.831,1.025c0.146,0.685,0.22,1.271,0.22,1.758
		c0,1.758-1.002,4.665-3.003,8.716c-2.003,4.054-4.713,8.327-8.13,12.817c-0.783,4.688-1.563,10.597-2.344,17.725
		c-0.783,7.13-1.515,15.282-2.197,24.463c-0.685,9.178-1.245,19.263-1.685,30.249s-0.659,22.632-0.659,34.937
		c0,10.254,0.194,20.142,0.586,29.663c0.389,9.521,0.806,17.944,1.245,25.269s0.854,13.257,1.245,17.798
		c0.389,4.541,0.586,7.006,0.586,7.397c0,1.366-0.124,2.417-0.366,3.149c-0.245,0.732-0.758,1.488-1.538,2.271
		c-0.586,0.586-1.295,1.22-2.124,1.904c-0.831,0.682-1.685,1.025-2.563,1.025c-1.172,0-2.003-0.392-2.49-1.172
		c-0.586-0.685-1.222-2.101-1.904-4.248c-0.685-2.149-1.295-5.738-1.831-10.767c-0.538-5.031-1.002-11.891-1.392-20.581
		c-0.392-8.693-0.586-20.021-0.586-33.984c0-12.305,0.389-24.195,1.172-35.669c0.78-11.476,1.781-22.266,3.003-32.373
		c1.22-10.107,2.563-19.435,4.028-27.979s2.831-16.04,4.102-22.485c-4.102,4.102-8.62,7.569-13.55,10.4
		c-4.933,2.833-10.181,4.248-15.747,4.248c-2.541,0-5.006-0.366-7.397-1.099c-2.394-0.732-4.493-1.879-6.299-3.442
		c-1.808-1.561-3.248-3.516-4.321-5.859c-1.076-2.344-1.611-5.077-1.611-8.203c0-4.198,1.195-8.764,3.589-13.696
		c2.392-4.93,5.761-9.471,10.107-13.623c4.344-4.149,9.544-7.617,15.601-10.4C1117.653,259.716,1124.293,258.325,1131.521,258.325z
		 M1139.725,286.45c-0.392,0.49-0.732,1.222-1.025,2.197c-0.293,0.978-0.586,2.149-0.879,3.516c0.389-0.487,0.732-0.902,1.025-1.245
		c0.293-0.341,0.536-0.659,0.732-0.952c0.194-0.389,0.341-0.732,0.439-1.025c0.389-1.366,0.682-2.44,0.879-3.223
		c0.194-0.682,0.243-1.048,0.146-1.099C1140.944,284.571,1140.505,285.182,1139.725,286.45z"/>
</g>
</svg>
