<?xml version="1.0" encoding="utf-8"?>
<svg xmlns="http://www.w3.org/2000/svg" viewBox="0 0 1949.6461 287.10001">
<g transform="translate(-530.4,-115.178)">
	<path fill="#F3F51A" d="M600.6,308.678l2.1,7.8c0,2.602-0.952,4.701-2.85,6.3c-1.903,1.599-4.05,2.4-6.45,2.4
		c-4.8,0-7.2-2.203-7.2-6.6c0.797-9,1.898-22.2,3.3-39.6c1.397-17.4,2.499-31.2,3.3-41.4c2.4-27,6-52.697,10.8-77.1v-9
		c0-4.2,0.999-8.897,3-14.1h-73.2c-2.001,0-3-0.699-3-2.1c0-1.397,0.849-2.948,2.55-4.65c1.697-1.697,3.548-2.55,5.55-2.55H615
		c2.798-1.8,6.047-2.7,9.75-2.7c3.698,0,5.648,0.801,5.85,2.4c36.999,0,59.897-0.197,68.7-0.6c1.2,0,1.8,0.652,1.8,1.95
		c0,1.303-1.003,2.85-3,4.65c-2.001,1.8-4.8,3-8.4,3.6h-63c-7.604,21.202-13.852,50.503-18.75,87.9
		C603.047,262.679,600.6,290.481,600.6,308.678z"/>
	<path fill="#F3F51A" d="M696.902,265.778l-10.8-0.3c-6.6,16.8-9.9,29.602-9.9,38.4c0,8.803,3,13.2,9,13.2
		c6.999,0,16.8-7.898,29.4-23.7c4.2-5.4,6.698-8.1,7.5-8.1c1.397,0,2.1,0.802,2.1,2.4c0,5.602-5.503,13.35-16.5,23.25
		c-11.001,9.9-19.303,14.85-24.9,14.85c-5.602,0-10.453-1.552-14.55-4.65c-4.102-3.099-6.15-8.25-6.15-15.45
		c0-6.6,1.65-15.047,4.95-25.35c3.3-10.298,5.048-16.247,5.25-17.85c-3-0.797-4.5-2.349-4.5-4.65c0-2.297,1.697-3.45,5.1-3.45h2.1
		c7.997-15.797,12.6-24.9,13.8-27.3c5.597-10.598,16.298-15.9,32.1-15.9c6.797,0,11.499,6.103,14.1,18.3
		c1.2,6.201,1.8,11.353,1.8,15.45c0,4.102-1.5,7.702-4.5,10.8c-3,3.103-6.9,5.25-11.7,6.45
		C712.202,264.578,704.299,265.778,696.902,265.778z M688.802,257.078l12,0.6c8.198,0,14.1-0.9,17.7-2.7
		c3.6-1.8,5.447-5.349,5.55-10.65c0.098-5.297-0.352-9.75-1.35-13.35c-1.8-6.398-4.303-9.6-7.5-9.6c-4.003,0-8.751,4.303-14.25,12.9
		C695.449,242.879,691.399,250.478,688.802,257.078z"/>
	<path fill="#F3F51A" d="M757.199,228.278l-7.8,0.6c-2.602,0-4.003-1.2-4.2-3.6c-0.202-0.6,1.097-1.749,3.9-3.45
		c2.798-1.697,5.147-2.597,7.05-2.7c1.898-0.099,4.298-1.749,7.2-4.95c2.897-3.197,4.65-4.8,5.25-4.8h0.3
		c3.398,0,7.097,5.4,11.1,16.2c3.999,10.8,6.6,19.303,7.8,25.5c2.597-4.8,9.497-13.247,20.7-25.35
		c11.198-12.099,18.099-18.15,20.7-18.15c2.198,0,3.3,2.002,3.3,6c0,4.003-1.303,6.9-3.9,8.7c-1.8,0.6-2.803,0.9-3,0.9l-0.9-0.3
		c-0.6,0-3.802,2.901-9.6,8.7c-17.001,17.4-25.5,26.4-25.5,27l7.8,27.6c5.199,18.6,7.8,29.602,7.8,33c0,3.403-1.303,7.05-3.9,10.95
		c-2.602,3.9-5.203,5.85-7.8,5.85c-0.802,0-1.903-4.003-3.3-12c-5.203-30.398-8.902-48.497-11.1-54.3
		c-4.603,6-11.302,14.302-20.1,24.9c-19.401,23.4-32.897,41.897-40.5,55.5c-2.198,3.999-4.247,6-6.15,6
		c-1.898,0-2.85-2.053-2.85-6.15c0-4.102,4.5-12,13.5-23.7c9-11.7,19.397-24.197,31.2-37.5c11.798-13.299,19.2-22.247,22.2-26.85
		c-0.403-2.199-0.801-4.148-1.2-5.85c-0.403-1.697-0.9-3.647-1.5-5.85c-0.6-2.198-1.252-4.247-1.95-6.15
		c-0.703-1.898-1.603-3.849-2.7-5.85c-1.102-1.997-2.25-3.698-3.45-5.1C763.199,229.881,760.396,228.278,757.199,228.278z"/>
	<path fill="#F3F51A" d="M863.998,200.978l-1.2-4.2c0-0.6,0.3-1.8,0.9-3.6c3.999-12.797,7.65-21.3,10.95-25.5
		c3.3-4.2,8.147-6.3,14.55-6.3c2.798,0,4.397,0.9,4.8,2.7c-4.401,9.403-10.5,24.802-18.3,46.2h29.1c5.597,0,8.4,0.6,8.4,1.8
		c0,2.002-4.603,3.553-13.8,4.65c-9.201,1.102-18,1.65-26.4,1.65c-10.003,28.2-18.103,55.2-24.3,81c-1.003,4.003-1.5,7.303-1.5,9.9
		c0,2.602,1.097,3.9,3.3,3.9c3.999,0,9.849-3.548,17.55-10.65c7.697-7.097,11.948-10.65,12.75-10.65c0.797,0,1.2,1.153,1.2,3.45
		c0,2.302-1.102,3.952-3.3,4.95c-18.403,16.603-31.303,24.9-38.7,24.9c-4.603,0-6.9-2.897-6.9-8.7c0-3.197,1.35-9.197,4.05-18
		c2.7-8.799,10.148-35.1,22.35-78.9c-4.8,0.802-10.5,1.2-17.1,1.2c-6.6,0-9.9-0.797-9.9-2.4c0-1.599,1.298-3.347,3.9-5.25
		c2.597-1.898,4.697-2.85,6.3-2.85h19.2l1.2-4.2C863.698,203.678,863.998,201.981,863.998,200.978z"/>
	<path fill="#F3F51A" d="M978.895,220.478c-0.202,4.003-2.1,13.003-5.7,27c4.397-2.199,7.148-3.3,8.25-3.3
		c1.097,0,1.65,0.202,1.65,0.6c0,1.003-1.252,2.503-3.75,4.5c-2.503,2.001-5.053,3.501-7.65,4.5c-7.8,25.8-15.403,42.802-22.8,51
		c-2.803,3-8.503,7.153-17.1,12.45c-8.602,5.301-13.903,7.95-15.9,7.95c-8.203,0-14.302-1.903-18.3-5.7l-1.2,2.7
		c-0.202,0.6-1.003,0.9-2.4,0.9c-1.402,0-3.202-1.2-5.4-3.6c-2.203-2.4-3.3-5.147-3.3-8.25c0-3.099,2.4-10.749,7.2-22.95
		c0.6-1.599,1.547-2.798,2.85-3.6c1.298-0.797,2.048-1.5,2.25-2.1c21.6-56.198,38.7-105.9,51.3-149.1c6-4.8,10.298-7.2,12.9-7.2
		c1.997,0,3,1.5,3,4.5c-2.203,8.203-9.202,28.303-21,60.3c-11.803,32.002-21.501,57.202-29.1,75.6
		c7.599-11.4,17.648-24.15,30.15-38.25c12.497-14.1,21.848-21.15,28.05-21.15c3.999,0,6,3.703,6,11.1V220.478z M956.694,260.978
		c-23.602,12.403-38.803,22.303-45.6,29.7c-1.2,2.4-2.653,5.503-4.35,9.3c-1.702,3.801-2.85,6.3-3.45,7.5
		c4.8,5.4,9.699,8.1,14.7,8.1c8.198,0,15.848-6.098,22.95-18.3C948.042,285.081,953.292,272.978,956.694,260.978z M959.095,254.378
		c3.197-8.4,4.997-17.1,5.4-26.1c0-4.2-1.003-6.3-3-6.3c-6.6,0-22.702,20.4-48.3,61.2
		C925.194,273.381,940.495,263.781,959.095,254.378z"/>
	<path fill="#F3F51A" d="M1058.692,233.378c3.797,0.6,5.7,1.753,5.7,3.45c0,1.702-1.5,3.253-4.5,4.65c-3,1.401-5.7,2.1-8.1,2.1
		c0,23.4-6.103,43.402-18.3,60c-12.202,16.604-24.3,24.9-36.3,24.9c-11.602,0-17.4-8.4-17.4-25.2c0-14.798,5.597-34.997,16.8-60.6
		c4.2-9.6,9.347-17.747,15.45-24.45c6.099-6.699,12.249-10.05,18.45-10.05h2.1c0-2.798,0.797-5.198,2.4-7.2
		c1.599-1.997,3.797-3,6.6-3c2.798,0.201,5.297,6.051,7.5,17.55C1051.291,227.031,1054.492,232.979,1058.692,233.378z
		 M1043.392,241.178c-1.8-0.999-4.003-4.547-6.6-10.65c-2.602-6.099-4.401-9.15-5.4-9.15c-6.202,0-13.401,9.15-21.6,27.45
		c-8.203,18.3-13.003,31.252-14.4,38.85c-1.401,7.603-2.1,13.303-2.1,17.1c0,9.802,2.799,14.7,8.4,14.7
		c7.997,0,16.95-8.147,26.85-24.45C1038.442,278.729,1043.392,260.781,1043.392,241.178z"/>
	<path fill="#F3F51A" d="M1136.988,233.378c3.797,0.6,5.7,1.753,5.7,3.45c0,1.702-1.5,3.253-4.5,4.65c-3,1.401-5.7,2.1-8.1,2.1
		c0,23.4-6.103,43.402-18.3,60c-12.202,16.604-24.3,24.9-36.3,24.9c-11.602,0-17.4-8.4-17.4-25.2c0-14.798,5.597-34.997,16.8-60.6
		c4.2-9.6,9.347-17.747,15.45-24.45c6.099-6.699,12.249-10.05,18.45-10.05h2.1c0-2.798,0.797-5.198,2.4-7.2
		c1.599-1.997,3.797-3,6.6-3c2.798,0.201,5.297,6.051,7.5,17.55C1129.586,227.031,1132.788,232.979,1136.988,233.378z
		 M1121.688,241.178c-1.8-0.999-4.003-4.547-6.6-10.65c-2.602-6.099-4.401-9.15-5.4-9.15c-6.202,0-13.401,9.15-21.6,27.45
		c-8.203,18.3-13.003,31.252-14.4,38.85c-1.401,7.603-2.1,13.303-2.1,17.1c0,9.802,2.799,14.7,8.4,14.7
		c7.997,0,16.95-8.147,26.85-24.45C1116.738,278.729,1121.688,260.781,1121.688,241.178z"/>
	<path fill="#F3F51A" d="M1180.484,172.478l-0.9-3.9c0-0.797,1.298-4.847,3.9-12.15c2.597-7.298,5.499-12.999,8.7-17.1
		c3.197-4.097,8.1-6.15,14.7-6.15c2.799,0,4.299,0.9,4.5,2.7c-12,24.202-21.75,45.9-29.25,65.1c-7.5,19.2-14.151,40.401-19.95,63.6
		l13.8-12.3c16.8-15,32.1-28.397,45.9-40.2c5.4-3.998,9.099-6,11.1-6c1.997,0,3,0.403,3,1.2c0,2.203-2.7,5.4-8.1,9.6
		c-12.403,7.2-24.15,16.852-35.25,28.95c-11.1,12.104-16.65,20.053-16.65,23.85c0,7.2,3.099,16.2,9.3,27
		c6.197,10.8,11.447,18,15.75,21.6c4.298,3.6,6.45,6.398,6.45,8.4c0,1.2-0.9,1.8-2.7,1.8c-4.003,0-8.602-2.7-13.8-8.1
		c-7.8-8.4-16.102-20.597-24.9-36.6l-6.3-11.1c-8.602,23.803-13.102,38.803-13.5,45c0,1.402-1.852,3.652-5.55,6.75
		c-3.703,3.099-6.651,4.65-8.85,4.65c-1.401,0-2.1-0.9-2.1-2.7c0-0.802,0.497-2.7,1.5-5.7c8.597-21.398,17.948-48.15,28.05-80.25
		c10.097-32.1,16.148-51.15,18.15-57.15C1179.481,177.278,1180.484,173.678,1180.484,172.478z"/>
	<path fill="#F3F51A" d="M1296.883,219.878c-0.403,4.003-3,9.703-7.8,17.1c-4.8,7.401-8.503,11.1-11.1,11.1
		c-0.802,0-1.2-0.75-1.2-2.25s1.097-4.997,3.3-10.5c2.199-5.498,3.3-9.047,3.3-10.65c0-3-1.8-4.5-5.4-4.5c-0.6,0-3.9,0.501-9.9,1.5
		c-5.001,1.2-11.55,4.402-19.65,9.6c-8.1,5.203-12.15,10.903-12.15,17.1c0,2.203,0.497,4.2,1.5,6c2.597,5.203,7.148,9.6,13.65,13.2
		c6.497,3.6,12.099,7.003,16.8,10.2c4.697,3.202,7.05,7.401,7.05,12.6c0,8.803-6.75,17.25-20.25,25.35
		c-13.5,8.1-25.05,12.15-34.65,12.15c-1.603,0-2.902-0.652-3.9-1.95c-1.003-1.303-1.5-2.653-1.5-4.05c0-2.4,1.097-3.6,3.3-3.6
		c6.6,0,15.849-2.048,27.75-6.15c11.897-4.097,17.85-8.55,17.85-13.35c0-4.997-7.102-11.798-21.3-20.4
		c-5.4-3.197-10.35-7.05-14.85-11.55s-6.75-8.648-6.75-12.45c0-3.797,1.05-6.999,3.15-9.6c2.1-2.597,4.148-4.95,6.15-7.05
		c1.997-2.1,3.9-3.947,5.7-5.55c1.8-1.598,3.848-3.197,6.15-4.8c2.297-1.599,4.35-3,6.15-4.2c1.8-1.2,3.9-2.4,6.3-3.6l5.7-3
		c4.2-1.997,7.2-3.3,9-3.9s3.698-1.298,5.7-2.1c4.598-1.8,8.297-2.7,11.1-2.7C1293.283,207.878,1296.883,211.881,1296.883,219.878z"
		/>
	<path fill="#F3F51A" d="M1368.582,245.978l-1.2-5.1c0-1.2,0.197-2.297,0.6-3.3c3.197-12.6,6.45-21.197,9.75-25.8
		c3.3-4.599,8.147-6.9,14.55-6.9c2.4,0,3.797,0.801,4.2,2.4c-0.202,0.6-1.65,4.102-4.35,10.5c-2.7,6.403-5.151,12.403-7.35,18
		c-6.201,15-11.001,30-14.4,45c6.6-12.999,16.8-28.65,30.6-46.95c13.8-18.3,25.2-27.45,34.2-27.45c4.8,0,7.2,3.051,7.2,9.15
		c0,6.103-2.301,12.352-6.9,18.75c-1.603,2.203-3.75,4.35-6.45,6.45c-2.7,2.1-4.701,3.15-6,3.15c-1.303,0-1.95-0.497-1.95-1.5
		c0-0.999,0.947-3.9,2.85-8.7c1.898-4.8,2.85-7.997,2.85-9.6c0-1.598-0.501-2.4-1.5-2.4c-7.003,0-17.353,10.8-31.05,32.4
		c-13.702,21.6-23.85,42.703-30.45,63.3c-1.2,1.603-3.103,3.202-5.7,4.8c-2.602,1.599-4.65,2.4-6.15,2.4s-2.55-0.501-3.15-1.5
		c0-5.4,0.647-10.298,1.95-14.7c1.298-4.397,2.948-6.999,4.95-7.8c4.396-16.598,7.5-28.997,9.3-37.2l3-12.6
		C1368.38,249.381,1368.582,247.778,1368.582,245.978z"/>
	<path fill="#F3F51A" d="M1468.778,265.778l-10.8-0.3c-6.6,16.8-9.9,29.602-9.9,38.4c0,8.803,3,13.2,9,13.2
		c6.999,0,16.8-7.898,29.4-23.7c4.2-5.4,6.698-8.1,7.5-8.1c1.397,0,2.1,0.802,2.1,2.4c0,5.602-5.503,13.35-16.5,23.25
		c-11.001,9.9-19.303,14.85-24.9,14.85c-5.602,0-10.453-1.552-14.55-4.65c-4.102-3.099-6.15-8.25-6.15-15.45
		c0-6.6,1.65-15.047,4.95-25.35c3.3-10.298,5.048-16.247,5.25-17.85c-3-0.797-4.5-2.349-4.5-4.65c0-2.297,1.697-3.45,5.1-3.45h2.1
		c7.997-15.797,12.6-24.9,13.8-27.3c5.597-10.598,16.298-15.9,32.1-15.9c6.797,0,11.499,6.103,14.1,18.3
		c1.2,6.201,1.8,11.353,1.8,15.45c0,4.102-1.5,7.702-4.5,10.8c-3,3.103-6.9,5.25-11.7,6.45
		C1484.078,264.578,1476.175,265.778,1468.778,265.778z M1460.678,257.078l12,0.6c8.198,0,14.1-0.9,17.7-2.7
		c3.6-1.8,5.447-5.349,5.55-10.65c0.098-5.297-0.352-9.75-1.35-13.35c-1.8-6.398-4.303-9.6-7.5-9.6c-4.003,0-8.751,4.303-14.25,12.9
		C1467.325,242.879,1463.275,250.478,1460.678,257.078z"/>
	<path fill="#F3F51A" d="M1570.475,235.178l2.4-13.5c0-3.197-1.702-4.8-5.1-4.8c-2.4,0-6.15,1.65-11.25,4.95
		c-5.1,3.3-9.253,6.6-12.45,9.9c-3.202,3.3-8.4,13.903-15.6,31.8c-7.2,17.901-10.8,31.753-10.8,41.55c0,7.402,2.897,11.1,8.7,11.1
		c7.397,0,14.798-2.85,22.2-8.55c7.396-5.7,13.396-11.499,18-17.4c4.598-5.897,6.998-8.85,7.2-8.85c0.999,0.403,1.5,1.603,1.5,3.6
		c0,2.001-2.4,6.253-7.2,12.75c-4.8,6.501-11.452,12.703-19.95,18.6c-8.503,5.902-16.753,8.85-24.75,8.85
		c-12.202,0-18.3-6.999-18.3-21c0-13.997,4.5-30.698,13.5-50.1c9-19.396,16.8-30.6,23.4-33.6c3-1.2,6.3-2.7,9.9-4.5
		c7.2-3.797,12.9-5.7,17.1-5.7c9.398,0,14.1,4.702,14.1,14.1c0,5.602-1.102,9.703-3.3,12.3c-2.203,2.602-4.102,3.9-5.7,3.9
		C1571.675,240.578,1570.475,238.778,1570.475,235.178z"/>
	<path fill="#F3F51A" d="M1658.372,233.378c3.797,0.6,5.7,1.753,5.7,3.45c0,1.702-1.5,3.253-4.5,4.65c-3,1.401-5.7,2.1-8.1,2.1
		c0,23.4-6.103,43.402-18.3,60c-12.202,16.604-24.3,24.9-36.3,24.9c-11.602,0-17.4-8.4-17.4-25.2c0-14.798,5.597-34.997,16.8-60.6
		c4.2-9.6,9.347-17.747,15.45-24.45c6.099-6.699,12.249-10.05,18.45-10.05h2.1c0-2.798,0.797-5.198,2.4-7.2
		c1.599-1.997,3.797-3,6.6-3c2.798,0.201,5.297,6.051,7.5,17.55C1650.97,227.031,1654.171,232.979,1658.372,233.378z
		 M1643.071,241.178c-1.8-0.999-4.003-4.547-6.6-10.65c-2.602-6.099-4.401-9.15-5.4-9.15c-6.202,0-13.401,9.15-21.6,27.45
		c-8.203,18.3-13.003,31.252-14.4,38.85c-1.401,7.603-2.1,13.303-2.1,17.1c0,9.802,2.799,14.7,8.4,14.7
		c7.997,0,16.95-8.147,26.85-24.45C1638.122,278.729,1643.071,260.781,1643.071,241.178z"/>
	<path fill="#F3F51A" d="M1678.167,245.678l-0.9-3.9c0-0.797,1.247-4.8,3.75-12c2.499-7.2,5.447-12.9,8.85-17.1
		c3.398-4.2,8.297-6.3,14.7-6.3c2.597,0,4.097,0.9,4.5,2.7c-16.402,33.6-26.203,57.6-29.4,72c33.398-53.198,58.697-79.8,75.9-79.8
		c3.999,0,6,1.303,6,3.9c0,1.8-0.703,3.802-2.1,6c-17.4,29.4-28.401,55.303-33,77.7c9.797-19.397,19.148-34.449,28.05-45.15
		c8.897-10.697,22.148-22.449,39.75-35.25c3.797-3,8.25-4.5,13.35-4.5s7.65,1.401,7.65,4.2c0,1.402-0.6,3.3-1.8,5.7
		c-24.202,42.801-38.803,77.301-43.8,103.5c-0.6,2.001-0.9,4.2-0.9,6.6c0,2.4,0.9,3.6,2.7,3.6c0.797,0,2.85-0.951,6.15-2.85
		c3.3-1.903,5.349-2.85,6.15-2.85c0.797,0,1.2,0.947,1.2,2.85c0,1.898-2.203,4.247-6.6,7.05c-4.401,2.798-8.803,4.2-13.2,4.2
		c-5.803,0-8.7-4.003-8.7-12c0-9,3-20.799,9-35.4c1.997-4.997,4.8-11.597,8.4-19.8c10.599-23.597,15.9-37.298,15.9-41.1
		c0-1.397-0.403-2.1-1.2-2.1c-0.802,0-2.001,0.502-3.6,1.5c-10.401,7.003-21.403,18.3-33,33.9c-11.602,15.6-20.203,33.801-25.8,54.6
		c-0.403,1.604-2.503,3.45-6.3,5.55c-3.801,2.1-6.952,3.15-9.45,3.15c-2.503,0-3.75-0.9-3.75-2.7l0.3-1.2
		c5.597-26.4,15-57.099,28.2-92.1c0.998-2.597,1.5-4.397,1.5-5.4c0-0.999-0.3-1.5-0.9-1.5c-1.003,0-2.503,1.102-4.5,3.3
		c-12.801,14.803-24.103,29.503-33.9,44.1c-9.801,14.602-16.65,25.702-20.55,33.3c-3.9,7.604-7.753,13.8-11.55,18.6
		c-3.801,4.8-7.8,7.2-12,7.2c-1.603,0-2.4-0.75-2.4-2.25s0.45-3.347,1.35-5.55c0.9-2.198,1.847-4.396,2.85-6.6l2.1-3.9
		c3.197-7.8,7.5-20.1,12.9-36.9C1675.467,255.878,1678.167,246.878,1678.167,245.678z"/>
	<path fill="#F3F51A" d="M1838.665,265.778l-10.8-0.3c-6.6,16.8-9.9,29.602-9.9,38.4c0,8.803,3,13.2,9,13.2
		c6.999,0,16.8-7.898,29.4-23.7c4.2-5.4,6.698-8.1,7.5-8.1c1.397,0,2.1,0.802,2.1,2.4c0,5.602-5.503,13.35-16.5,23.25
		c-11.001,9.9-19.303,14.85-24.9,14.85c-5.602,0-10.453-1.552-14.55-4.65c-4.102-3.099-6.15-8.25-6.15-15.45
		c0-6.6,1.65-15.047,4.95-25.35c3.3-10.298,5.048-16.247,5.25-17.85c-3-0.797-4.5-2.349-4.5-4.65c0-2.297,1.697-3.45,5.1-3.45h2.1
		c7.997-15.797,12.6-24.9,13.8-27.3c5.597-10.598,16.298-15.9,32.1-15.9c6.797,0,11.499,6.103,14.1,18.3
		c1.2,6.201,1.8,11.353,1.8,15.45c0,4.102-1.5,7.702-4.5,10.8c-3,3.103-6.9,5.25-11.7,6.45
		C1853.965,264.578,1846.062,265.778,1838.665,265.778z M1830.565,257.078l12,0.6c8.198,0,14.1-0.9,17.7-2.7
		c3.6-1.8,5.447-5.349,5.55-10.65c0.098-5.297-0.352-9.75-1.35-13.35c-1.8-6.398-4.303-9.6-7.5-9.6c-4.003,0-8.751,4.303-14.25,12.9
		C1837.211,242.879,1833.162,250.478,1830.565,257.078z"/>
	<path fill="#F3F51A" d="M1900.462,245.678l-0.9-3.9c0-0.797,1.299-4.847,3.9-12.15c2.597-7.298,5.498-12.999,8.7-17.1
		c3.197-4.097,8.1-6.15,14.7-6.15c2.597,0,4.097,0.9,4.5,2.7c-16.402,33.6-26.203,57.6-29.4,72c33-53.198,58.298-79.8,75.9-79.8
		c3.999,0,6,1.303,6,3.9c0,1.8-0.703,3.802-2.1,6c-10.2,17.001-19.702,36.501-28.5,58.5c-8.803,22.003-13.2,38.503-13.2,49.5
		c0,3.6,0.797,5.4,2.4,5.4l11.7-6c1.2,0,1.8,0.9,1.8,2.7s-2.203,4.2-6.6,7.2c-4.402,3-8.803,4.5-13.2,4.5
		c-5.803,0-8.7-4.102-8.7-12.3c0-8.198,1.598-17.499,4.8-27.9c3.197-10.397,8.198-23.7,15-39.9c6.797-16.2,10.448-24.999,10.95-26.4
		c0.497-1.397,0.75-2.7,0.75-3.9c0-1.2-0.3-1.8-0.9-1.8c-3.801,0-16.003,14.901-36.6,44.7c-20.602,29.803-31.102,47.4-31.5,52.8
		c-0.202,1.401-2.1,3.352-5.7,5.85s-6.352,3.75-8.25,3.75c-1.903,0-2.948-0.703-3.15-2.1c0.403,0.6,4.097-9.398,11.1-30
		C1894.958,264.179,1900.462,247.478,1900.462,245.678z"/>
	<path fill="#F3F51A" d="M2099.358,128.378c0.6,0.403,0.9,1.753,0.9,4.05c0,2.302-1.552,7.8-4.65,16.5
		c-3.103,8.7-7.401,20.001-12.9,33.9c-5.503,13.903-9.75,25.252-12.75,34.05c0.197-0.197,0.548-0.3,1.05-0.3
		c0.497,0,1.2,0.703,2.1,2.1c0.9,1.402,1.35,2.7,1.35,3.9c0,1.2-1.153,1.8-3.45,1.8c-2.302,0-3.553-0.3-3.75-0.9
		c-4.003,9-9.052,23.602-15.15,43.8c-6.103,20.203-9.15,32.602-9.15,37.2c0,4.603,1.298,6.9,3.9,6.9c4.997,0,12.099-5.297,21.3-15.9
		c3-3.6,4.8-5.4,5.4-5.4s0.9,0.403,0.9,1.2c0,0.802-0.103,1.702-0.3,2.7c-0.802,2.4-1.402,3.6-1.8,3.6
		c-4.603,4.604-11.001,9.854-19.2,15.75c-8.203,5.902-14.602,8.85-19.2,8.85c-3.801,0-5.7-2.1-5.7-6.3c0-10.8,3.797-27.3,11.4-49.5
		c-8.602,12.202-19.05,25.003-31.35,38.4c-12.3,13.401-21.952,20.1-28.95,20.1c-4.2,0-6.3-3-6.3-9c0-8.597,3-21.047,9-37.35
		c6-16.298,13.148-31.097,21.45-44.4c8.297-13.298,15.248-19.95,20.85-19.95h1.2c1.397,0,3.047-0.75,4.95-2.25
		c1.898-1.5,4.148-2.25,6.75-2.25c2.597,0,6.646,0.802,12.15,2.4c5.499,1.604,8.4,2.4,8.7,2.4c0.3,0,4.05-9.75,11.25-29.25
		c7.2-19.5,10.997-29.85,11.4-31.05c-2.203,0-3.3-1.2-3.3-3.6c0-5.597,3-12.9,9-21.9c0.797-1.598,2.447-2.4,4.95-2.4
		C2093.907,126.278,2096.556,126.981,2099.358,128.378z M2056.458,221.078c0-2.198-5.901-3.3-17.7-3.3c-3.403,0-5.902,0.202-7.5,0.6
		c-4.402,1.2-12.854,13.303-25.35,36.3c-12.501,23.001-18.75,39.802-18.75,50.4c0,3.202,0.999,4.8,3,4.8
		c1.997,0,4.898-1.599,8.7-4.8c3.797-3.197,7.299-6.6,10.5-10.2c10.8-12,16.299-18.3,16.5-18.9c9.6-10.8,18.3-25.397,26.1-43.8
		C2054.757,225.179,2056.257,221.481,2056.458,221.078z"/>
	<path fill="#F3F51A" d="M2172.855,298.778c-2.4,2.4-4.35,4.2-5.85,5.4c-1.5,1.2-3.202,2.653-5.1,4.35
		c-1.903,1.702-3.553,3.052-4.95,4.05c-1.402,1.003-3.104,2.203-5.1,3.6c-2.001,1.402-3.802,2.4-5.4,3c-4.003,2.001-7.003,3-9,3
		c-4.2,0-6.703-2.499-7.5-7.5c0-8.4,3.3-23.897,9.9-46.5c-26.803,37.003-46.003,55.5-57.6,55.5c-4.8,0-7.2-4.097-7.2-12.3
		c0-8.199,2.747-20.147,8.25-35.85c5.499-15.698,12.249-29.897,20.25-42.6c7.997-12.698,15-19.05,21-19.05h0.9l3.3-2.4
		c1.8-1.997,4.397-3,7.8-3c3.398,0,7.8,0.801,13.2,2.4c5.4,1.603,8.447,2.4,9.15,2.4c0.699,0,1.697-0.797,3-2.4
		c1.298-1.599,2.85-2.4,4.65-2.4c4.997,0,7.5,2.203,7.5,6.6c0,3-1.003,6.75-3,11.25c-2.001,4.5-3.103,7.003-3.3,7.5
		c-0.202,0.502-1.153,1.153-2.85,1.95c-1.702,0.802-2.653,1.5-2.85,2.1c-4.401,12.403-8.301,25.65-11.7,39.75
		c-3.403,14.1-5.1,23.203-5.1,27.3c0,4.102,1.397,6.15,4.2,6.15c2.798,0,6.248-1.697,10.35-5.1c4.097-3.398,7.65-6.797,10.65-10.2
		c3-3.398,4.65-5.1,4.95-5.1c0.3,0,0.45,0.952,0.45,2.85C2175.855,295.431,2174.852,297.179,2172.855,298.778z M2153.055,218.978
		l-13.5-1.2c-2.803,0-5.803,0.403-9,1.2c-5.001,1.401-13.2,13.251-24.6,35.55c-11.4,22.303-17.1,38.953-17.1,49.95
		c0,3.403,0.999,5.1,3,5.1c4.2,0,11.648-6.098,22.35-18.3c10.697-12.197,18.15-21.6,22.35-28.2c4.2-6.6,8.4-14.55,12.6-23.85
		c4.2-9.3,6.3-15,6.3-17.1s-0.502-3.15-1.5-3.15H2153.055z"/>
	<path fill="#F3F51A" d="M2219.354,200.978l-1.2-4.2c0-0.6,0.3-1.8,0.9-3.6c3.999-12.797,7.65-21.3,10.95-25.5
		c3.3-4.2,8.147-6.3,14.55-6.3c2.798,0,4.397,0.9,4.8,2.7c-4.401,9.403-10.5,24.802-18.3,46.2h29.1c5.597,0,8.4,0.6,8.4,1.8
		c0,2.002-4.603,3.553-13.8,4.65c-9.201,1.102-18,1.65-26.4,1.65c-10.003,28.2-18.103,55.2-24.3,81c-1.003,4.003-1.5,7.303-1.5,9.9
		c0,2.602,1.097,3.9,3.3,3.9c3.999,0,9.849-3.548,17.55-10.65c7.697-7.097,11.948-10.65,12.75-10.65c0.797,0,1.2,1.153,1.2,3.45
		c0,2.302-1.102,3.952-3.3,4.95c-18.403,16.603-31.303,24.9-38.7,24.9c-4.603,0-6.9-2.897-6.9-8.7c0-3.197,1.35-9.197,4.05-18
		c2.7-8.799,10.148-35.1,22.35-78.9c-4.8,0.802-10.5,1.2-17.1,1.2c-6.6,0-9.9-0.797-9.9-2.4c0-1.599,1.298-3.347,3.9-5.25
		c2.597-1.898,4.697-2.85,6.3-2.85h19.2l1.2-4.2C2219.054,203.678,2219.354,201.981,2219.354,200.978z"/>
	<path fill="#F3F51A" d="M2269.45,245.678l-0.9-3.9c0-0.797,1.247-4.8,3.75-12c2.499-7.2,5.447-12.9,8.85-17.1
		c3.398-4.2,8.4-6.3,15-6.3c2.597,0,4.097,0.9,4.5,2.7c-3.202,5.002-7.453,13.303-12.75,24.9c-5.301,11.602-9.051,20.203-11.25,25.8
		c-5.203,13.003-9.6,27.501-13.2,43.5c-0.202,0.6-0.3,1.401-0.3,2.4c0,2.4,0.999,3.6,3,3.6c1.2,0,4.449-1.5,9.75-4.5
		c5.297-3,8.7-4.5,10.2-4.5s2.348,0.403,2.55,1.2c0,2.4-5.1,6.853-15.3,13.35c-10.2,6.502-17.203,9.75-21,9.75
		c-3.802,0-5.7-1.8-5.7-5.4c0-1.8,0.75-4.847,2.25-9.15c1.5-4.298,3.398-9.75,5.7-16.35c2.297-6.6,4.05-11.7,5.25-15.3
		c1.2-3.6,2.447-7.298,3.75-11.1c1.298-3.797,2.25-6.647,2.85-8.55c0.6-1.898,1.2-3.75,1.8-5.55
		C2269.047,249.578,2269.45,247.08,2269.45,245.678z M2317.75,157.778c0,2.602-1.903,5.901-5.7,9.9
		c-3.801,4.003-6.201,7.102-7.2,9.3c-2.602,6.6-5.4,10.303-8.4,11.1c-4.003,0-6-3.3-6-9.9c0-4.2,3.098-8.798,9.3-13.8
		c6.197-4.997,11.597-7.5,16.2-7.5C2316.948,156.878,2317.548,157.178,2317.75,157.778z"/>
	<path fill="#F3F51A" d="M2376.85,233.378c3.797,0.6,5.7,1.753,5.7,3.45c0,1.702-1.5,3.253-4.5,4.65c-3,1.401-5.7,2.1-8.1,2.1
		c0,23.4-6.103,43.402-18.3,60c-12.202,16.604-24.3,24.9-36.3,24.9c-11.602,0-17.4-8.4-17.4-25.2c0-14.798,5.597-34.997,16.8-60.6
		c4.2-9.6,9.347-17.747,15.45-24.45c6.099-6.699,12.249-10.05,18.45-10.05h2.1c0-2.798,0.797-5.198,2.4-7.2
		c1.599-1.997,3.797-3,6.6-3c2.798,0.201,5.297,6.051,7.5,17.55C2369.448,227.031,2372.65,232.979,2376.85,233.378z
		 M2361.55,241.178c-1.8-0.999-4.003-4.547-6.6-10.65c-2.602-6.099-4.401-9.15-5.4-9.15c-6.202,0-13.401,9.15-21.6,27.45
		c-8.203,18.3-13.003,31.252-14.4,38.85c-1.401,7.603-2.1,13.303-2.1,17.1c0,9.802,2.799,14.7,8.4,14.7
		c7.997,0,16.95-8.147,26.85-24.45C2356.6,278.729,2361.55,260.781,2361.55,241.178z"/>
	<path fill="#F3F51A" d="M2396.646,245.678l-0.9-3.9c0-0.797,1.299-4.847,3.9-12.15c2.597-7.298,5.498-12.999,8.7-17.1
		c3.197-4.097,8.1-6.15,14.7-6.15c2.597,0,4.097,0.9,4.5,2.7c-16.402,33.6-26.203,57.6-29.4,72c33-53.198,58.298-79.8,75.9-79.8
		c3.999,0,6,1.303,6,3.9c0,1.8-0.703,3.802-2.1,6c-10.2,17.001-19.702,36.501-28.5,58.5c-8.803,22.003-13.2,38.503-13.2,49.5
		c0,3.6,0.797,5.4,2.4,5.4l11.7-6c1.2,0,1.8,0.9,1.8,2.7s-2.203,4.2-6.6,7.2c-4.402,3-8.803,4.5-13.2,4.5
		c-5.803,0-8.7-4.102-8.7-12.3c0-8.198,1.598-17.499,4.8-27.9c3.197-10.397,8.198-23.7,15-39.9c6.797-16.2,10.448-24.999,10.95-26.4
		c0.497-1.397,0.75-2.7,0.75-3.9c0-1.2-0.3-1.8-0.9-1.8c-3.801,0-16.003,14.901-36.6,44.7c-20.602,29.803-31.102,47.4-31.5,52.8
		c-0.202,1.401-2.1,3.352-5.7,5.85s-6.352,3.75-8.25,3.75c-1.903,0-2.948-0.703-3.15-2.1c0.403,0.6,4.097-9.398,11.1-30
		C2391.143,264.179,2396.646,247.478,2396.646,245.678z"/>
</g>
</svg>
