<?xml version="1.0" encoding="utf-8"?>
<svg xmlns="http://www.w3.org/2000/svg" viewBox="0 0 796.79 236.39901">
<g transform="translate(-524.4,-84.279)">
	<path fill="#64BED8" d="M721.2,128.678c0,8.203-1.702,19.5-5.1,33.9c-1.603,3.403-3.501,7.5-5.7,12.3
		c-0.6,2.803-1.303,5.001-2.1,6.6c-0.801,1.603-3.201,3.801-7.2,6.6c-4.003,2.803-6.802,4.2-8.4,4.2c-6.6,0-14.002-1.2-22.2-3.6
		c-10.8-3.398-16.702-5.198-17.7-5.4c-1.2,12.202-3.3,29.7-6.3,52.5c-1.003,6.6-2.901,14.001-5.7,22.2
		c-2.001,6.6-4.102,13.102-6.3,19.5c-1.2,5.4-3.802,13.401-7.8,24c-1.2,2.001-4.402,5.503-9.6,10.5c-6,5.4-10.2,8.1-12.6,8.1
		c-3.802,0-10.003-1.997-18.6-6c-5.803-2.798-11.602-5.597-17.4-8.4c-7.003-2.798-10.303-6.3-9.9-10.5l21.905-122.7
		c-2.602-3.797-5.85-6.45-9.75-7.95c-3.9-1.5-7.65-2.85-11.25-4.05c-6.605-1.8-13.205-3.6-19.805-5.4c-10.2-3-15.3-6.197-15.3-9.6
		c0-0.6,0.797-3,2.4-7.2c1.8-5.198,3-9,3.6-11.4c0.999-5.798,3-14.4,6-25.8c0.398-1.2,3.197-2.948,8.4-5.25
		c5.199-2.297,8.297-3.45,9.3-3.45c12.398,0,22.5,0.3,30.3,0.9c2.597,0.202,11.499,2.203,26.7,6c17.798,4.603,30.197,7.603,37.2,9
		c9.197,1.603,23.499,4.5,42.9,8.7c6.398,1.003,15.398,3,27,6C720.197,123.578,721.2,125.481,721.2,128.678z M547.5,106.478v-3
		c-3,1.003-4.903,2.001-5.7,3c-1.603,10.003-3.9,20.4-6.9,31.2c1.997-0.999,4.097-2.499,6.3-4.5c1.396-3.6,2.896-8.897,4.5-15.9
		C547.097,111.081,547.697,107.481,547.5,106.478z M712.5,135.878v-6.9c-6.403-0.6-15.202-2.1-26.4-4.5
		c-5.803-1.997-11.602-3.497-17.4-4.5c-11.803-1.997-30.3-6-55.5-12c-17.803-4.397-31.604-6.6-41.4-6.6h-15.9
		c-0.6,2.803-1.903,8.001-3.9,15.6c-2.001,6.6-3,10.2-3,10.8v5.1c9,0.403,23.897,4.401,44.7,12c3.197,0.6,6.3,1.303,9.3,2.1
		c4.2,1.003,6.3,2.803,6.3,5.4c0,0.403-0.553,2.653-1.65,6.75c-1.102,4.102-1.65,6.853-1.65,8.25
		c-3.202,32.203-10.102,71.001-20.7,116.4c7.997,2.803,19.599,6.703,34.8,11.7c4.997-14.199,11.1-34.997,18.3-62.4
		c1.2-6.998,3-23.7,5.4-50.1c0.6-6.797,0.797-11.597,0.6-14.4c0-0.197-0.15-1.2-0.45-3c-0.3-1.8-0.45-3-0.45-3.6
		c0.197-2.597,1.997-3.9,5.4-3.9c0.398,0,1.997,0.45,4.8,1.35c2.798,0.9,4.697,1.35,5.7,1.35c9.197,0,24.497,2.1,45.9,6.3
		C710.1,151.679,712.5,141.278,712.5,135.878z M598.2,164.678v-2.4c-0.788,0.403-3.825,2.016-9.122,4.833
		c-0.206,1.2-2.977,15.59-8.311,43.162c-2.991,19.003-7.57,45.807-13.744,80.41c2.995-1.997,6.291-4.8,9.891-8.4
		c3.6-11.4,7.195-27.797,10.795-49.2C594.9,191.083,598.397,168.278,598.2,164.678z"/>
	<path fill="#64BED8" d="M904.497,273.278c0,2.001-3.202,9.3-9.6,21.9c-14.602,4.2-33.403,8.503-56.4,12.9
		c-16.603,3.403-39.9,7.604-69.9,12.6c-2.803-4.195-5.503-10.392-8.1-18.59c-2.203-6.394-4.303-12.792-6.3-19.191
		c0-3.394,3.3-12.192,9.905-26.386c10.81-2.935,22.425-5.578,34.837-7.931c-3.206-12.628-6.004-27.76-8.404-45.398
		c-2.006-15.432-4.008-30.769-6.005-46.003c-2.4,0.202-10.106,1.5-23.114,3.9c-12.211,2.002-18.614,3-19.214,3
		c-1.401,0-3.103-5.297-5.1-15.9c-1.406-4.397-2.906-10.997-4.504-19.8c1.997-3.797,5.297-9.197,9.9-16.2
		c1.598-1.997,6.098-3.497,13.5-4.5c20.798-3.398,49.997-9.3,87.6-17.7c13.396-3,20.498-4.5,21.3-4.5c2.597,0,5.499,5.301,8.7,15.9
		c2.597,9.403,3.9,16.003,3.9,19.8c0,2.001-1.003,6.3-3,12.9c-2.001,6.6-3.501,10.2-4.5,10.8c-3,1.2-7.65,2.353-13.95,3.45
		c-6.3,1.102-10.95,2.25-13.95,3.45c0.797,6.802,2.597,15.501,5.4,26.1c3.6,13.8,5.798,22.5,6.6,26.1c0.797,7.2,3,18.201,6.6,33
		c0.999-0.197,5.897-1.299,14.7-3.3c6.398-1.598,11.297-2.4,14.7-2.4l4.2,1.2c1.599,2.602,3.699,9.15,6.3,19.65
		C903.193,262.628,904.497,269.678,904.497,273.278z M747.597,143.378c0-2.798-0.703-6.6-2.1-11.4c-2.203-7.397-3.3-11.199-3.3-11.4
		c-0.801,1.2-1.701,3-2.7,5.4c0,0.801,0.698,5.55,2.1,14.25c1.396,8.7,2.198,13.251,2.4,13.65L747.597,143.378z M896.097,272.978
		v-1.8c0-4.2-0.9-9.3-2.7-15.3c-1.603-4.8-3.202-9.699-4.8-14.7c-17.4,3.802-28.003,5.7-31.8,5.7c-3.6,0-6.501-5.892-8.7-17.686
		c-1.2-7.594-2.302-15.188-3.3-22.781c-1.603-4.997-3.801-12.591-6.6-22.786c-2.4-10.987-6.9-27.576-13.5-49.758
		c0-3,6.398-5.896,19.2-8.695c7.8-1.598,15.698-3.098,23.7-4.495c-0.398-13.589-2.391-22.383-5.977-26.381
		c-12,3.005-30.3,7.111-54.896,12.314c-1.401,0.202-19.913,3.188-55.528,8.963c0.999,5.381,2.597,13.453,4.8,24.206
		c13.997-3.6,26.798-5.4,38.4-5.4c2.798,0,4.8,1.003,6,3c1.997,3.202,3.797,10.003,5.4,20.4c0.999,7.603,2.1,15.103,3.3,22.5
		c0.6,3.6,3.6,14.503,9,32.7c3.998,13.8,6,24.501,6,32.1c0,4.604-2.803,7.702-8.4,9.3c-4.603,0.801-9.103,1.5-13.5,2.1
		c-8.4,1.603-18.403,3.703-30,6.3v2.4c0-0.797,3.099,9,9.3,29.4C807.095,289.581,845.293,282.381,896.097,272.978z M775.796,301.778
		c-0.202-2.798-1.702-7.697-4.5-14.7c-4.2-9.797-6.3-14.798-6.3-15c-2.203,6.6-3.3,10.2-3.3,10.8c0,0.801,3.398,9,10.2,24.6
		C772.895,306.479,774.193,304.581,775.796,301.778z M813.597,243.878c-0.403-11.597-3.202-27.197-8.4-46.8
		c-5.602-21.6-8.901-36.998-9.9-46.2l-5.1,6.3c0.398,4.003,1.397,9.403,3,16.2c2.199,8.203,3.497,13.603,3.9,16.2
		c0.797,5.602,3.6,24.703,8.4,57.3C807.695,246.479,810.395,245.481,813.597,243.878z"/>
	<path fill="#64BED8" d="M1093.792,314.678c-1.8,0-11.1-3.999-27.9-12c-15-7.2-25.003-12.197-30-15
		c3.999-18.797,11.1-40.5,21.3-65.1v-1.5c-1.003,0.6-4.003,4.003-9,10.2c-4.2,5.602-6.9,8.4-8.1,8.4
		c-2.203,0-7.852-1.247-16.95-3.75c-9.103-2.499-14.55-4.397-16.35-5.7c-1.8-1.299-3.103-3.947-3.9-7.95
		c-0.403-3.197-0.802-6.398-1.2-9.6c-2.203,12.6-5.803,31.603-10.8,57c-1.003,4.003-3.703,8.503-8.1,13.5
		c-5.001,5.4-9.403,8.1-13.2,8.1c-1.2,0-6.9-1.697-17.1-5.1c-11.203-3.797-18.052-5.948-20.55-6.45
		c-2.503-0.497-5.451-1.749-8.85-3.75c-4.003-2.199-6.6-4.299-7.8-6.3c-1.003-1.8-1.003-6.497,0-14.1
		c2.199-19.997,4.397-39.998,6.6-60c2.798-22.598,5.798-42.497,9-59.7c0.197-3.797,1.5-9.099,3.9-15.9
		c12.398-16.997,29.4-25.5,51-25.5c35.798,0,54.9,2.301,57.3,6.9c1.2,2.203,2.297,5.301,3.3,9.3c1.2,5.602,1.898,8.902,2.1,9.9
		c3-6.6,6.098-11.146,9.3-13.65c3.197-2.499,8.199-3.75,15-3.75c1.997,0,10.298,2.902,24.9,8.7c17.597,6.6,27,10.102,28.2,10.5
		c3.999,1.2,7.997,2.4,12,3.6c5.4,1.8,8.7,3.9,9.9,6.3c0.6,1.401,0.9,4.2,0.9,8.4c0,12.6-4.2,39.3-12.6,80.1
		c-8.803,41.803-15.703,67.303-20.7,76.5c-1.2,2.001-4.65,5.4-10.35,10.2C1099.342,312.278,1095.592,314.678,1093.792,314.678z
		 M957.592,111.578c-7.2,5.4-12,10.2-14.4,14.4c-0.6,1.2-1.603,6.501-3,15.9c-3.201,17.203-8.1,48.501-14.7,93.9
		c-0.403,6.202-1.102,14.901-2.1,26.1c2.798-0.999,7.097-2.499,12.9-4.5c1.397-7.8,3.398-19.397,6-34.8
		C945.292,197.978,950.392,160.979,957.592,111.578z M1139.992,138.278c-13.603-4.599-33.9-12.099-60.9-22.5
		c-15,26.602-24.6,39.9-28.8,39.9c-2.602,0-5.4-7.097-8.4-21.3c-3.202-15.999-5.602-25.097-7.2-27.3c-20.001-3-32.901-4.5-38.7-4.5
		c-4.8,0-13.8,0.703-27,2.1c-2.602,10.003-4.702,22.003-6.3,36c-1.2,12.202-2.4,24.403-3.6,36.6c-0.6,5.001-2.902,18.202-6.9,39.6
		c-3,16.2-4.401,29.503-4.2,39.9c3.999,1.2,15,5.001,33,11.4c3.999-20.198,7.997-40.397,12-60.6
		c6.797-33.197,11.198-50.896,13.2-53.1c0.797-0.6,1.8-0.9,3-0.9c2.799,0,6.6,9.202,11.4,27.6c3,11.602,6.098,23.203,9.3,34.8
		c3.6,1.003,9.197,2.203,16.8,3.6c6.797-10.8,13.5-21.6,20.1-32.4c11.199-17.798,17.7-26.7,19.5-26.7c3.6,0,5.4,3.201,5.4,9.6
		c0,14.803-2.602,32.4-7.8,52.8c-4.8,17.203-9.6,34.401-14.4,51.6c14.597,4.603,27.3,8.901,38.1,12.9
		c2.198-4.997,3.698-9.699,4.5-14.1c11.798-53.198,20.7-96,26.7-128.4L1139.992,138.278z M1019.992,217.478
		c-2.203-9.197-5.503-22.898-9.9-41.1c-0.202,0.202-1.2,3.703-3,10.5c-1.003,4.2-1.5,7.8-1.5,10.8c0,3.202,0.797,7.402,2.4,12.6
		c1.8,6.802,2.897,11.1,3.3,12.9C1013.289,221.781,1016.19,219.878,1019.992,217.478z M1074.292,216.278
		c-2.203,1.003-5.301,2.901-9.3,5.7c-1.003,1.2-4.003,10.003-9,26.4c-4.603,14.602-7.603,24.501-9,29.7
		c3.999-2.4,8.4-4.598,13.2-6.6C1065.991,253.881,1070.692,235.478,1074.292,216.278z M1069.492,113.078h-6
		c-2.001,2.002-4.453,5.602-7.35,10.8c-2.901,5.203-4.35,9-4.35,11.4c0,1.2,0.3,2.7,0.9,4.5
		C1059.292,129.179,1064.889,120.278,1069.492,113.078z"/>
	<path fill="#64BED8" d="M1321.19,266.856c0,2.592-0.6,6.68-1.8,12.258c-1.402,6.581-2.602,10.266-3.6,11.062
		c-1.003,0.797-19.8,5.883-56.4,15.249c-36.6,9.37-55.604,14.053-57,14.053c-4.8,0-8.002-0.896-9.6-2.695
		c-1.003-2.794-2.4-6.389-4.2-10.786c-5.803-12.581-10.8-33.956-15-64.12c-2.803-22.369-5.602-44.841-8.4-67.416
		c-0.403-2.193-1.702-8.086-3.9-17.676c-1.8-7.388-2.7-13.28-2.7-17.677c0-3.792,1.449-9.136,4.35-16.026
		c2.897-6.891,5.747-11.039,8.55-12.436c5.199-2.597,23.747-7.641,55.65-15.131c31.898-7.491,50.747-11.236,56.55-11.236
		c3.797,0,6.797,5.001,9,15c1.599,7.2,2.4,13.8,2.4,19.8c0,1.8-0.9,5.002-2.7,9.6c-1.8,4.603-3.403,7.303-4.8,8.1
		c-6.6,4.003-17.301,7.5-32.1,10.5c-16.603,3.6-27.801,6.703-33.6,9.3c0.998,6.802,1.997,11.902,3,15.3l46.5-6
		c0.6,7.2,2.297,17.901,5.1,32.1c-1.603,7.401-2.803,11.901-3.6,13.5c-1.8,2.803-5.452,4.65-10.95,5.55
		c-5.503,0.9-10.95,1.753-16.35,2.55c-8.4,1.2-12.6,2.7-12.6,4.5l2.7,21c33.197-9,56.4-13.5,69.6-13.5
		c3.197,0,6.098,0.797,8.7,2.391c0.797,0.6,2.199,5.733,4.2,15.398C1320.188,259.033,1321.19,264.864,1321.19,266.856z
		 M1200.291,294.578c0-4.598-1.2-11.297-3.6-20.1c-3.202-10.8-5.001-17.4-5.4-19.8c-3.802-21.6-7.603-43.097-11.4-64.5
		c-5.203-28.8-8.302-49.8-9.3-63c-2.602,6.6-3.9,10.8-3.9,12.6c0,3.6,0.797,9.703,2.4,18.3c2.199,11.602,3.3,17.803,3.3,18.6
		c3.797,25.603,6.197,41.503,7.2,47.7c2.597,17.001,5.597,32.803,9,47.4c1.8,7.2,4.2,17.901,7.2,32.1L1200.291,294.578z
		 M1308.891,261.578c-1.604-9-2.4-15.497-2.4-19.5l-76.8,15l-2.7-1.8c-0.201-2.798-1.551-11.499-4.05-26.1
		c-2.503-14.597-3.75-21.999-3.75-22.2c0-2.597,6.6-5.1,19.8-7.5c8.4-1.397,16.8-2.799,25.2-4.2c-0.802-4.2-1.8-10.397-3-18.6h-2.1
		c-3.801,0-11.4,1.303-22.8,3.9c-11.4,2.602-17.503,3.9-18.3,3.9c-2.001,0-3.201-0.497-3.6-1.5c0-0.197-0.952-7.2-2.85-21
		c-1.903-13.8-2.85-21-2.85-21.6c0-1.8,0.797-3.099,2.4-3.9c0.797-0.398,24.999-7.2,72.6-20.4c-1.2-7.396-1.8-14.896-1.8-22.5h-7.5
		c-1.003,0-15.652,3.802-43.95,11.4c-28.303,7.603-45.15,12.201-50.55,13.8c0.398,5.4,1.2,13.401,2.4,24
		c2.597,15,6.098,37.702,10.5,68.1c0,0.403,1.997,10.003,6,28.8c0.398,4.2,1.2,10.303,2.4,18.3c0.197,1.603,1.8,6.501,4.8,14.7
		c1.997,6.202,3,11.001,3,14.4h2.1c7.8,0,23.7-3.6,47.7-10.8C1287.188,267.479,1303.889,262.581,1308.891,261.578z"/>
</g>
</svg>
